<?xml version="1.0" encoding="utf-8"?>
<!-- Generator: Adobe Illustrator 16.0.0, SVG Export Plug-In . SVG Version: 6.00 Build 0)  -->
<!DOCTYPE svg PUBLIC "-//W3C//DTD SVG 1.1//EN" "http://www.w3.org/Graphics/SVG/1.1/DTD/svg11.dtd">
<svg version="1.1" id="Ebene_1" xmlns="http://www.w3.org/2000/svg" xmlns:xlink="http://www.w3.org/1999/xlink" x="0px" y="0px"
	 width="105px" height="170px" viewBox="0 0 105 170" enable-background="new 0 0 960 560" xml:space="preserve">
<g opacity="0.65" transform="translate(-428 -195)">
	<g>
		<path fill-rule="evenodd" clip-rule="evenodd" fill="#DD9E6E" d="M461.432,323.23c0-1.74,0-3.48,0-5.221
			c-0.003-19.779-0.006-39.559-0.004-59.338c0-1.498-0.064-3.007,0.084-4.492c0.47-4.649,3.066-7.175,7.484-7.405
			c4.713-0.247,8.432,2.384,9.288,6.731c0.285,1.453,0.254,2.98,0.256,4.475c0.018,10.489-0.003,20.979,0.017,31.467
			c0.002,1.304,0.172,2.606,0.311,4.573c3.401-2.354,6.713-2.755,10.211-2.13c3.757,0.67,4.724,4.277,6.806,6.533
			c10.052-2.303,11.804-1.547,15.366,6.425c2.588-0.512,5.145-1.393,7.717-1.445c5.038-0.104,8.033,2.644,8.103,7.612
			c0.16,11.519,0.341,23.054-0.081,34.56c-0.341,9.304-8.543,17.318-18.472,17.646c-11.957,0.394-23.951-0.093-35.92-0.462
			c-5.12-0.158-9.128-2.327-11.046-7.66c-0.727-2.021-2.483-3.706-3.904-5.437c-6.938-8.454-13.923-16.869-20.886-25.303
			c-0.764-0.924-1.573-1.823-2.224-2.822c-2.5-3.837-1.814-8.297,1.674-11.296c3.273-2.813,7.687-2.872,11.024,0.219
			c3.514,3.256,6.754,6.805,10.138,10.201c1.006,1.01,2.091,1.94,3.141,2.906C460.818,323.456,461.126,323.344,461.432,323.23z"/>
		<g>
			<path fill-rule="evenodd" clip-rule="evenodd" fill="#DD9E6E" d="M457.925,253.971c0.004-0.051,0.003-0.099,0.008-0.148
				c0.649-6.437,4.614-10.313,10.876-10.641c6.513-0.348,11.752,3.611,12.936,9.63c0.327,1.658,0.256,3.294,0.256,4.737v0.426
				c0,1.804,0.069,3.607,0.071,5.411c17.981-0.514,32.437-15.241,32.437-33.347c0-18.432-14.923-33.372-33.354-33.372
				c-18.43,0-33.364,14.94-33.364,33.372C447.789,239.43,451.683,247.906,457.925,253.971z"/>
		</g>
	</g>
</g>
</svg>
