<?xml version="1.0" encoding="utf-8"?>
<!-- Generator: Adobe Illustrator 16.0.0, SVG Export Plug-In . SVG Version: 6.00 Build 0)  -->
<!DOCTYPE svg PUBLIC "-//W3C//DTD SVG 1.1//EN" "http://www.w3.org/Graphics/SVG/1.1/DTD/svg11.dtd">
<svg version="1.1" id="Ebene_1" xmlns="http://www.w3.org/2000/svg" xmlns:xlink="http://www.w3.org/1999/xlink" x="0px" y="0px"
	 width="105px" height="170px" viewBox="0 0 105 170" enable-background="new 0 0 960 560" xml:space="preserve">
<g opacity="0.65" transform="translate(-428 -195)">
	<g>
		<path fill="#DD9E6E" d="M434.915,363.66c-1.093,0-2.193-0.356-3.114-1.091c-2.159-1.722-2.514-4.868-0.792-7.026l60.521-75.882
			l-29.002-36.356l-31.294-39.445c-1.716-2.163-1.354-5.308,0.81-7.024c2.163-1.716,5.308-1.354,7.024,0.81l31.285,39.435
			l33.968,42.581l-65.493,82.118C437.84,363.016,436.384,363.66,434.915,363.66z"/>
	</g>
	<g>
		<path fill="#DD9E6E" d="M461.867,363.66c-1.093,0-2.193-0.356-3.114-1.091c-2.159-1.722-2.514-4.868-0.792-7.026l60.521-75.882
			l-29.002-36.356l-31.294-39.445c-1.716-2.163-1.354-5.308,0.81-7.024c2.163-1.716,5.308-1.354,7.024,0.81l31.285,39.435
			l33.968,42.581l-65.493,82.118C464.792,363.016,463.336,363.66,461.867,363.66z"/>
	</g>
</g>
</svg>
