<?xml version="1.0" encoding="utf-8"?>
<!-- Generator: Adobe Illustrator 16.0.0, SVG Export Plug-In . SVG Version: 6.00 Build 0)  -->
<!DOCTYPE svg PUBLIC "-//W3C//DTD SVG 1.1//EN" "http://www.w3.org/Graphics/SVG/1.1/DTD/svg11.dtd">
<svg version="1.1" id="Ebene_1" xmlns="http://www.w3.org/2000/svg" xmlns:xlink="http://www.w3.org/1999/xlink" x="0px" y="0px"
	 width="960px" height="560px" viewBox="0 0 960 560" enable-background="new 0 0 960 560" xml:space="preserve">
<g opacity="0.65">
	<path fill-rule="evenodd" clip-rule="evenodd" fill="#DD9E6E" d="M486.405,196.677c-6.048,0-12.357,0.697-18.752,2.071
		c-41.942,9.017-69.703,49.984-63.199,93.269c2.816,18.737,12.014,36.137,25.899,48.994c13.961,12.928,31.857,20.467,50.395,21.229
		c1.373,0.056,2.752,0.084,4.1,0.084c13.706,0,26.279-2.961,37.369-8.799c9.532-5.02,18.228-12.297,25.906-21.674l-5.557-1.713
		l-6.353-1.961c-13.327,14.246-31.746,22.353-51.038,22.353c-20.368,0-39.684-8.938-52.993-24.522
		c-12.645-14.801-18.588-33.694-16.735-53.199c1.844-19.427,11.188-36.784,26.311-48.877c12.515-10.007,27.392-15.296,43.024-15.295
		c18.319,0.001,36.16,7.266,47.725,19.432l4.908,5.164l-6.524,2.86l-11.435,5.015l-0.013,0.006
		c11.445,6.842,22.663,13.549,34.004,20.33c3.02-13.021,6.004-25.899,9.042-39.013l-9.91,4.275l-3.209,1.384l-2.402-2.538
		c-0.474-0.5-0.913-0.971-1.331-1.418c-0.818-0.877-1.526-1.635-2.239-2.344c-16.753-16.663-35.928-25.112-56.99-25.112"/>
</g>
</svg>
