<?xml version="1.0" encoding="UTF-8" standalone="no"?>
<!-- Generator: Adobe Illustrator 16.0.3, SVG Export Plug-In . SVG Version: 6.00 Build 0)  -->

<svg
   xmlns:dc="http://purl.org/dc/elements/1.1/"
   xmlns:cc="http://creativecommons.org/ns#"
   xmlns:rdf="http://www.w3.org/1999/02/22-rdf-syntax-ns#"
   xmlns:svg="http://www.w3.org/2000/svg"
   xmlns="http://www.w3.org/2000/svg"
   xmlns:sodipodi="http://sodipodi.sourceforge.net/DTD/sodipodi-0.dtd"
   xmlns:inkscape="http://www.inkscape.org/namespaces/inkscape"
   version="1.1"
   id="Ebene_1"
   x="0px"
   y="0px"
   width="152.72403"
   height="479.47797"
   viewBox="0 0 152.72403 479.47797"
   enable-background="new 0 0 1410 824"
   xml:space="preserve"
   inkscape:version="0.48.2 r9819"
   sodipodi:docname="08_Grossladungsbombe.svg"><metadata
   id="metadata65"><rdf:RDF><cc:Work
       rdf:about=""><dc:format>image/svg+xml</dc:format><dc:type
         rdf:resource="http://purl.org/dc/dcmitype/StillImage" /></cc:Work></rdf:RDF></metadata><defs
   id="defs63" /><sodipodi:namedview
   pagecolor="#ffffff"
   bordercolor="#666666"
   borderopacity="1"
   objecttolerance="10"
   gridtolerance="10"
   guidetolerance="10"
   inkscape:pageopacity="0"
   inkscape:pageshadow="2"
   inkscape:window-width="640"
   inkscape:window-height="480"
   id="namedview61"
   showgrid="false"
   fit-margin-top="0"
   fit-margin-left="0"
   fit-margin-right="0"
   fit-margin-bottom="0"
   inkscape:zoom="0.22836879"
   inkscape:cx="35.903722"
   inkscape:cy="311.47932"
   inkscape:window-x="0"
   inkscape:window-y="0"
   inkscape:window-maximized="0"
   inkscape:current-layer="Ebene_1" />
<g
   id="g3"
   transform="translate(-669.09628,-244.00136)">
	<path
   clip-rule="evenodd"
   stroke-miterlimit="10"
   d="m 812.93,519.757 c -1.068,0.894 -2.107,1.734 -3.707,2.071 -2.387,0.502 -2.41,0.677 -2.412,2.589 -0.002,7.976 0.029,15.948 0.033,23.922 0.004,8.987 -0.014,17.976 -0.008,26.963 0.004,6.376 0.012,12.751 0.051,19.128 0.01,1.727 0.23,2.091 2.191,2.24 2.57,0.194 2.908,1.011 2.496,2.763 -0.205,0.865 0.023,1.407 0.953,1.692 0.785,0.242 1.607,0.396 2.389,0.648 1.594,0.52 2.365,1.625 2.385,3.029 0.02,1.414 -0.82,2.48 -2.34,3.063 -0.451,0.172 -0.959,0.25 -1.447,0.325 -1.148,0.184 -1.783,0.764 -1.748,1.778 0.057,1.699 -0.75,2.804 -2.742,3.067 -1.393,0.184 -1.965,0.783 -1.949,2.037 0.039,3.041 -0.057,6.082 -0.068,9.125 -0.018,4.489 -0.014,8.98 -0.018,13.472 0,1.056 0.102,2.198 1.553,2.388 2.029,0.266 2.258,1.431 2.297,2.818 0.029,1.016 0.117,2.029 0.119,3.043 0.01,7.393 0.008,14.783 0.004,22.174 0,0.869 -0.004,1.74 -0.051,2.611 -0.127,2.309 -0.504,2.65 -3.334,2.744 -2.336,0.076 -4.674,0.049 -7.01,0.055 -2.504,0.008 -5.006,0.008 -7.51,-0.008 -1.408,-0.01 -2.41,0.346 -3.326,1.461 -4.539,5.521 -9.752,10.596 -14.693,15.836 -6.221,6.592 -12.461,13.176 -18.697,19.758 -1.59,1.68 -3.053,3.393 -5.176,4.66 -1.283,0.762 -2.195,1.994 -3.219,2.963 0.41,0.467 0.557,0.766 0.818,0.908 1.143,0.621 1.545,1.453 1.156,2.586 -0.4,1.166 -1.385,1.557 -2.664,1.559 -4.125,0.006 -8.252,0.004 -12.461,0.004 0.197,-1.242 0.213,-2.248 0.545,-3.166 0.275,-0.756 1.439,-1.521 1.279,-2.082 -0.193,-0.678 -1.553,-1.033 -2.082,-1.719 -1.322,-1.719 -3.52,-2.531 -5.049,-4.102 -8.281,-8.504 -16.721,-16.893 -25.207,-25.242 -4.291,-4.223 -8.85,-8.24 -13.178,-12.438 -1.721,-1.67 -3.686,-2.271 -6.2,-2.18 -3.166,0.115 -6.343,0.02 -9.511,-0.002 -1.167,-0.01 -2.34,-0.008 -3.495,-0.121 -1.077,-0.104 -1.84,-0.67 -2.116,-1.604 -0.165,-0.559 -0.345,-1.148 -0.305,-1.713 0.352,-5.198 -0.5,-10.418 0.399,-15.607 0.093,-0.549 -0.032,-1.141 -0.146,-1.698 -0.651,-3.169 -0.275,-6.358 -0.272,-9.54 0.002,-1.033 0.119,-2.085 0.9,-2.885 1.089,-1.118 0.991,-2.398 0.986,-3.701 -0.024,-6.807 0.019,-13.613 -0.062,-20.419 -0.108,-8.956 -0.115,-17.911 -0.035,-26.869 0.019,-2.14 0.316,-4.32 -0.025,-6.458 -0.672,-4.178 -0.213,-8.361 -0.213,-12.541 -0.001,-2.172 0.148,-4.342 0.145,-6.512 -0.009,-14.059 -0.038,-28.117 -0.07,-42.173 -0.01,-4.187 -0.068,-8.374 -0.071,-12.561 -0.006,-4.345 0.123,-8.688 0.021,-13.03 -0.12,-5.168 -0.229,-10.329 -0.094,-15.502 0.084,-3.16 0.1,-6.336 0.081,-9.502 -0.026,-5.191 -0.359,-10.383 -0.434,-15.574 -0.16,-11.434 0.174,-22.867 -0.134,-34.302 -0.19,-7.1 -0.02,-14.207 -0.024,-21.31 -0.005,-9.557 -0.016,-19.111 -0.042,-28.667 -0.017,-5.359 -0.081,-10.716 -0.093,-16.074 -0.002,-1.009 -0.25,-2.235 0.296,-2.988 2.043,-2.813 1.13,-5.846 1.322,-8.808 0.23,-3.582 -0.432,-7.165 0.213,-10.755 0.251,-1.401 -0.08,-2.883 -0.176,-4.328 -0.056,-0.863 -0.245,-1.724 -0.235,-2.585 0.03,-2.572 -0.105,-5.167 0.277,-7.703 0.309,-2.058 -0.475,-3.979 -0.358,-5.975 0.123,-2.14 0.109,-4.292 0.188,-6.419 0.238,-6.494 0.757,-12.973 -0.124,-19.458 -0.038,-0.288 -0.061,-0.584 -0.021,-0.869 0.498,-3.577 -0.03,-7.187 0.547,-10.777 0.298,-1.84 0.171,-3.791 -0.172,-5.634 -0.461,-2.478 -0.099,-4.851 0.119,-7.307 0.229,-2.542 -0.806,-5.146 -0.494,-7.77 0.071,-0.576 0.18,-1.147 0.266,-1.723 0.3,-2.026 0.481,-2.186 2.586,-2.524 7.875,-1.272 15.866,-1.728 23.811,-2.454 6.96,-0.638 13.978,-0.786 20.963,-1.227 12.83,-0.81 25.639,-0.146 38.451,0.348 0.666,0.024 1.328,0.095 1.992,0.154 5.125,0.455 10.258,0.854 15.369,1.385 8.432,0.873 16.854,1.809 25.271,2.769 2.361,0.269 2.484,0.42 2.496,2.413 0.027,6.231 0.018,12.461 0.002,18.691 -0.018,6.379 -0.244,12.765 -0.041,19.139 0.203,6.499 -0.193,12.992 0.043,19.492 0.211,5.788 -0.043,11.587 -0.053,17.381 -0.012,7.37 0.879,14.736 0.104,22.11 -0.098,0.91 0.166,1.735 1.275,2.137 1.006,0.364 1.627,0.958 1.645,1.96 0.094,5.067 0.275,10.133 0.281,15.201 0.008,8.673 -0.186,17.348 -0.113,26.021 0.057,6.932 0.406,13.861 0.582,20.792 0.053,2.174 0.035,4.354 -0.09,6.524 -0.104,1.787 0.285,3.108 2.65,3.479 0.816,0.127 1.678,0.773 1.549,1.516 -0.453,2.615 1.283,3.606 3.738,4.2 0.307,0.073 0.57,0.296 0.836,0.47 1.316,0.861 1.512,2.082 0.754,3.471 -0.643,1.182 -1.844,1.76 -3.09,2.036 -1.875,0.417 -2.316,1.454 -2.301,2.888 0.006,0.436 -0.035,0.871 -0.021,1.305 0.031,1.025 -0.596,1.739 -1.658,1.885 -2.25,0.311 -2.439,1.65 -2.438,3.197 0.016,6.09 0.004,12.179 0.021,18.269 0.021,7.235 0.049,14.47 0.098,21.705 0.027,3.909 0.068,7.821 0.178,11.731 0.043,1.541 0.229,1.855 2.021,1.885 1.908,0.034 3.111,0.848 4.234,1.938 0.867,0.841 0.947,1.801 0.322,2.813 -0.455,0.738 -1.881,1.279 -1.389,2.125 0.67,1.15 2.043,0.357 3.141,0.291 0.82,-0.049 1.678,-0.063 2.475,0.084 2.104,0.382 3.992,2.36 3.934,4.002 -0.061,1.74 -1.936,3.426 -4.213,3.734 -0.656,0.09 -1.332,0.041 -1.998,0.07 -0.988,0.043 -1.979,0.1 -3.734,0.19 3.296,2.505 3.444,3.537 1.306,5.325 z m -8.196,-16.622 c 0.01,-2.444 -0.342,-4.861 -0.281,-7.305 0.059,-2.312 -0.285,-4.629 -0.336,-6.945 -0.066,-3.314 -0.172,-6.637 0.014,-9.943 0.221,-3.9 0.117,-7.781 -0.098,-11.676 -0.137,-2.452 0.174,-4.922 0.084,-7.378 -0.283,-7.813 -0.018,-15.616 0.199,-23.427 0.129,-4.614 0.197,-9.242 -0.248,-13.886 -0.527,-5.474 -0.326,-11.003 -0.373,-16.508 -0.051,-6.082 -0.041,-12.164 -0.029,-18.247 0.014,-6.951 0.084,-13.899 0.076,-20.85 -0.004,-4.054 -0.084,-8.108 -0.186,-12.162 -0.047,-1.849 -0.619,-2.327 -2.639,-2.441 -0.5,-0.027 -1.006,-0.039 -1.502,-0.004 -7.797,0.557 -15.588,0.157 -23.387,0.03 -9.34,-0.152 -18.682,-0.01 -28.023,-0.064 -13.678,-0.079 -27.352,-0.237 -41.03,-0.326 -7.824,-0.053 -15.65,-0.003 -23.477,-0.068 -2.657,-0.022 -5.312,-0.276 -7.971,-0.374 -0.728,-0.027 -1.23,0.418 -1.467,0.996 -0.24,0.586 -0.082,1.14 0.463,1.564 0.244,0.19 0.58,0.291 0.819,0.484 1.592,1.289 1.65,1.465 0.108,2.638 -0.649,0.493 -1.261,0.84 -1.263,1.689 0,5.045 0.026,10.106 -0.116,15.134 -0.178,6.349 1.23,12.713 -0.193,19.042 -0.093,0.413 -0.045,0.875 0.059,1.292 0.973,3.886 0.175,7.792 0.223,11.687 0.022,1.722 0.276,3.443 0.29,5.165 0.046,6.085 0.055,12.172 0.032,18.258 -0.009,2.168 -0.003,4.333 -0.508,6.493 -0.294,1.255 -0.386,2.651 -0.066,3.884 0.67,2.592 0.529,5.191 0.532,7.79 0.025,15.503 -0.016,31.008 0.014,46.511 0.03,15.798 0.155,31.596 0.164,47.395 0.004,6.225 -0.495,12.461 -0.22,18.674 0.302,6.813 0.144,13.62 0.191,20.426 0.104,14.776 -0.006,29.553 -0.014,44.33 -0.002,3.758 0.01,7.516 0.113,11.271 0.047,1.68 0.559,2.13 2.381,2.127 8.504,-0.021 16.967,1.143 25.485,0.643 0.828,-0.049 1.668,0.004 2.501,0.04 1.474,0.066 2.547,0.538 2.787,1.974 0.175,1.045 1.099,1.437 2.173,1.408 1.494,-0.039 2.987,-0.182 4.472,-0.346 0.657,-0.072 1.357,-0.281 1.478,-0.973 0.301,-1.722 1.64,-1.93 3.306,-1.889 10.83,0.272 21.664,0.128 32.498,0.58 9.488,0.395 19.01,0.201 28.516,0.246 6.674,0.032 13.346,0.084 20.02,0.02 4.389,-0.042 4.371,-0.127 4.402,-3.957 0.07,-9.417 -0.133,-18.832 0.289,-28.254 0.186,-4.164 -0.137,-8.387 -0.191,-12.584 -0.111,-8.84 -0.27,-17.68 -0.408,-26.521 0.094,10e-4 0.189,0 0.283,0 0.002,-21.886 -0.034,-43.776 0.054,-65.663 z m -4.177,-210.79 c -0.059,-10.428 -0.215,-20.855 -0.283,-31.282 -0.016,-2.464 0.238,-4.929 0.24,-7.393 0.002,-1.804 -0.68,-2.535 -2.613,-2.483 -4.488,0.117 -8.947,-0.428 -13.449,-0.192 -3.459,0.18 -6.961,0.011 -10.418,-0.247 -2.838,-0.212 -5.633,-0.174 -8.473,-0.095 -4.822,0.138 -9.656,-0.118 -14.488,-0.143 -16.855,-0.091 -33.715,-0.119 -50.572,-0.25 -5.154,-0.041 -10.306,-0.354 -15.459,-0.502 -2.658,-0.076 -5.337,-0.368 -7.946,0.424 -0.897,0.271 -1.421,0.747 -1.4,1.563 0.056,2.174 0.104,4.348 0.246,6.52 0.393,6.049 0.003,12.098 0.055,18.144 0.05,5.787 -0.651,11.583 0.2,17.363 0.125,0.855 0.115,1.75 -0.017,2.605 -0.733,4.767 -0.107,9.549 -0.248,14.323 -0.138,4.735 0.316,9.458 -0.033,14.219 -0.414,5.628 -0.061,11.3 -0.059,16.953 0.003,2.029 -0.104,4.058 -0.051,6.085 0.035,1.385 0.521,1.814 2.109,1.851 5.979,0.139 11.959,0.286 17.939,0.314 19.182,0.087 38.362,0.106 57.543,0.187 7.842,0.032 15.697,-0.08 23.518,0.328 3.82,0.199 7.627,-0.023 11.441,0.23 3.129,0.208 6.277,-0.33 9.453,-0.159 2.238,0.12 2.807,-0.595 2.813,-2.705 0.021,-8.266 0.01,-16.532 0.012,-24.799 0,-7.394 0,-14.788 0,-22.182 -0.121,-0.002 -0.242,-0.002 -0.361,-0.003 0.105,-2.892 0.318,-5.783 0.301,-8.674 z m -75.436,350.303 c 1.555,1.639 1.604,1.979 0.619,3.365 -0.514,0.725 -1.566,1.15 -1.648,2.109 -0.186,2.119 -1.934,2.507 -3.865,2.625 -1.654,0.101 -3.32,0.053 -4.973,0.154 -0.703,0.045 -1.206,0.484 -1.296,1.132 -0.18,1.293 -0.343,2.587 0.235,3.854 0.243,0.533 0.472,1.089 0.557,1.65 0.252,1.647 -0.834,2.978 -2.542,3.213 -1.893,0.26 -3.921,-0.803 -4.219,-2.316 -0.103,-0.527 0.047,-1.153 0.297,-1.653 0.391,-0.781 1.094,-1.423 1.105,-2.368 0.044,-3.102 0.234,-3.848 -3.573,-3.609 -3.285,0.203 -6.148,-0.695 -9.047,-1.844 -1.408,-0.559 -2.095,-1.332 -2.287,-2.563 -0.066,-0.428 -0.025,-0.869 -0.067,-1.301 -0.126,-1.288 0.615,-2.796 -0.33,-3.82 -1.152,-1.252 -3.12,-0.646 -4.733,-0.708 -4.16,-0.159 -8.325,-0.265 -12.49,-0.288 -2.988,-0.018 -3.22,0.207 -3.238,2.648 -0.026,3.186 0.031,6.373 0.045,9.561 0.019,4.908 0.037,9.816 0.047,14.727 0.005,2.412 0.229,2.646 3.174,2.721 1.999,0.051 4,0.016 6.001,-0.006 2.169,-0.021 4.315,0.006 6.463,0.416 1.278,0.242 2.643,0.182 3.968,0.188 13.501,0.057 27.008,-0.156 40.495,0.221 12.791,0.357 25.578,0.748 38.377,0.74 11.168,-0.01 22.336,-0.07 33.504,-0.113 0.498,-0.002 0.998,-0.016 1.492,-0.064 0.777,-0.076 1.146,-0.545 1.246,-1.156 0.09,-0.57 0.107,-1.152 0.107,-1.729 -0.002,-7.532 -0.012,-15.061 -0.025,-22.592 0,-0.725 -0.041,-1.447 -0.051,-2.172 -0.01,-1.03 -0.721,-1.584 -1.746,-1.853 -0.619,-0.162 -1.313,-0.337 -1.922,-0.249 -6.797,0.986 -13.631,0.263 -20.445,0.371 -6.32,0.102 -12.645,0.137 -18.965,0.059 -5.996,-0.074 -11.988,-0.37 -17.986,-0.497 -6.662,-0.144 -13.328,-0.214 -19.994,-0.296 -0.969,-0.013 -1.986,-0.191 -2.863,0.346 -0.169,0.519 0.255,0.762 0.573,1.097 z m 8.973,52.897 c -4.932,-0.436 -9.955,-0.105 -14.938,-0.08 -0.469,0.004 -1.045,0.137 -1.119,0.672 -0.035,0.25 0.074,0.582 0.258,0.779 4.25,4.604 8.521,9.193 12.787,13.781 1.221,1.311 2.764,1.801 4.734,2.016 4.314,0.471 8.625,0.371 12.945,0.438 1.383,0.021 2.656,-0.141 3.594,-1.148 4.496,-4.828 9.004,-9.648 13.48,-14.488 0.645,-0.699 0.221,-1.418 -0.842,-1.424 -4.656,-0.027 -9.313,-0.012 -13.967,-0.012 -5.643,-0.192 -11.276,-0.036 -16.932,-0.534 z m 43.258,-20.266 c -6.965,-0.373 -13.934,-0.793 -20.908,-0.908 -8.664,-0.145 -17.344,-0.209 -26,0.084 -5.635,0.191 -11.313,0.572 -16.839,1.795 -1.454,0.322 -2.88,0.641 -4.077,1.582 0.48,0.971 1.408,0.475 2.077,0.602 0.647,0.123 1.326,0.158 1.992,0.156 5.152,-0.014 10.292,-0.01 15.447,0.299 5.637,0.334 11.316,0.098 16.969,0.305 7.164,0.264 14.344,-0.094 21.508,0.447 2.297,0.174 4.643,-0.172 6.971,-0.225 1.498,-0.031 3.006,-0.037 4.498,0.072 3.768,0.271 3.955,0.193 5.785,-3.4 -2.513,-0.281 -4.959,-0.678 -7.423,-0.809 z M 709.766,688.1 c 1.031,1.338 2.419,1.711 4.245,1.707 10.159,-0.014 20.317,0.031 30.477,0.145 4.305,0.049 8.605,0.357 12.912,0.473 4.152,0.111 8.311,0.094 12.463,0.201 1.395,0.037 2.602,-0.111 3.662,-1 1.563,-1.307 2.434,-2.756 1.75,-3.279 -1.16,-0.885 -2.482,-0.473 -3.783,-0.227 -0.805,0.154 -1.664,0.377 -2.451,0.277 -8.939,-1.139 -17.941,-0.447 -26.91,-0.736 -8.816,-0.285 -17.65,-0.186 -26.476,-0.279 -1.157,-0.014 -2.307,-0.207 -3.465,-0.264 -1.47,-0.074 -2.96,-0.15 -4.133,0.842 0.173,1.001 1.165,1.435 1.709,2.14 z m 53.179,-6.922 c -4.979,-0.123 -9.949,0.229 -14.943,-0.445 -3.57,-0.48 -7.275,-0.227 -10.922,-0.26 -9.322,-0.088 -18.645,-0.156 -27.967,-0.223 -0.996,-0.006 -2,-0.006 -2.983,0.098 -0.919,0.098 -1.475,0.615 -1.474,1.459 0.003,0.799 0.46,1.385 1.319,1.648 0.457,0.143 0.978,0.176 1.47,0.176 8.984,0.033 17.971,0.049 26.956,0.076 2.83,0.008 5.678,-0.088 8.449,0.516 1.672,0.363 3.313,-0.004 4.969,0.02 8.154,0.121 16.311,0.225 24.465,0.307 1.496,0.016 3.01,0.018 4.484,-0.166 1.797,-0.223 2.932,-1.16 3.309,-3.057 -5.845,-0.044 -11.489,-0.009 -17.132,-0.149 z M 695.797,248.447 c 3.657,-0.001 7.313,-0.016 10.969,0.003 9.165,0.047 18.333,-0.05 27.488,0.204 15.117,0.42 30.234,0.59 45.355,0.656 0.83,0.003 1.662,-0.085 2.492,-0.129 -28.593,-3.196 -57.421,-4.068 -86.304,-0.734 z m 31.898,442.969 c -4.125,-0.002 -8.23,-0.695 -12.353,-0.201 -0.423,0.051 -0.932,0.316 -1.168,0.619 -0.335,0.43 0.165,0.787 0.461,1.119 0.917,1.033 2.22,1.184 3.589,1.156 2.16,-0.045 4.322,-0.162 6.48,-0.135 10.309,0.135 20.619,0.414 30.928,0.404 3.305,-0.004 6.561,0.375 9.846,0.393 0.979,0.004 1.998,-0.08 2.932,-0.322 0.795,-0.207 1.594,-0.811 1.586,-1.529 -0.012,-0.893 -1.059,-0.949 -1.873,-0.988 -1.162,-0.055 -2.328,-0.061 -3.492,-0.063 -6.326,-0.002 -12.648,0 -18.818,0 -6.145,-0.168 -12.131,-0.449 -18.118,-0.453 z m -27.384,-45.725 c -0.242,2.787 0.664,3.498 3.91,3.086 0.938,-0.121 1.474,-0.598 1.686,-1.357 0.479,-1.712 0.227,-3.445 0.037,-5.153 -0.131,-1.178 -1.548,-1.743 -3.581,-1.632 -1.321,0.072 -1.813,0.574 -1.907,2.037 -0.048,0.717 -0.01,1.438 -0.01,1.493 -0.084,0.952 -0.111,1.239 -0.135,1.526 z m 17.545,1.46 c 0.101,1.22 0.843,1.78 2.23,1.772 1.375,-0.012 2.238,-0.598 2.305,-1.741 0.082,-1.423 0.084,-2.854 0.01,-4.277 -0.063,-1.179 -0.777,-1.639 -2.314,-1.681 -1.555,-0.04 -2.145,0.377 -2.229,1.648 -0.048,0.71 -0.009,1.426 -0.009,2.141 -0.004,0.714 -0.052,1.429 0.007,2.138 z m -2.747,1.695 c 0.459,-0.164 0.984,-0.454 0.741,-0.946 -0.172,-0.348 -0.609,-0.7 -1.021,-0.835 -1.425,-0.471 -2.926,-0.459 -4.435,-0.38 -1,0.053 -2.173,-0.079 -2.404,1.03 -0.183,0.877 0.809,1.166 1.575,1.402 1.384,0.42 0.794,1.774 1.605,2.458 1.259,-1.789 1.264,-1.781 3.939,-2.729 z m -2.864,8.672 c -0.05,-0.414 -0.227,-0.836 -0.755,-0.878 -0.626,-0.051 -0.646,0.446 -0.687,0.82 -0.046,0.427 0.138,0.772 0.686,0.874 0.533,-0.072 0.814,-0.338 0.756,-0.816 z"
   id="path5"
   inkscape:connector-curvature="0"
   style="fill-rule:evenodd;stroke:#000000;stroke-width:0.5;stroke-miterlimit:10" />
	<path
   clip-rule="evenodd"
   stroke-miterlimit="10"
   d="m 804.398,568.8 c 0.139,8.841 0.297,17.681 0.408,26.521 0.055,4.197 0.377,8.42 0.191,12.584 -0.422,9.422 -0.219,18.837 -0.289,28.254 -0.031,3.83 -0.014,3.915 -4.402,3.957 -6.674,0.064 -13.346,0.013 -20.02,-0.02 -9.506,-0.045 -19.027,0.148 -28.516,-0.246 -10.834,-0.452 -21.668,-0.308 -32.498,-0.58 -1.667,-0.041 -3.005,0.167 -3.306,1.889 -0.12,0.691 -0.82,0.9 -1.478,0.973 -1.484,0.164 -2.978,0.307 -4.472,0.346 -1.074,0.028 -1.998,-0.363 -2.173,-1.408 -0.24,-1.436 -1.313,-1.907 -2.787,-1.974 -0.833,-0.036 -1.673,-0.089 -2.501,-0.04 -8.519,0.5 -16.981,-0.664 -25.485,-0.643 -1.822,0.003 -2.334,-0.447 -2.381,-2.127 -0.104,-3.756 -0.115,-7.514 -0.113,-11.271 0.008,-14.777 0.117,-29.554 0.014,-44.33 -0.048,-6.806 0.11,-13.613 -0.191,-20.426 -0.275,-6.213 0.224,-12.449 0.22,-18.674 -0.009,-15.799 -0.134,-31.597 -0.164,-47.395 -0.029,-15.503 0.012,-31.008 -0.014,-46.511 -0.003,-2.599 0.138,-5.198 -0.532,-7.79 -0.319,-1.232 -0.228,-2.629 0.066,-3.884 0.505,-2.16 0.499,-4.325 0.508,-6.493 0.022,-6.086 0.014,-12.173 -0.032,-18.258 -0.014,-1.722 -0.268,-3.443 -0.29,-5.165 -0.048,-3.895 0.75,-7.801 -0.223,-11.687 -0.104,-0.417 -0.151,-0.879 -0.059,-1.292 1.424,-6.33 0.016,-12.694 0.193,-19.042 0.143,-5.028 0.116,-10.089 0.116,-15.134 0.002,-0.849 0.613,-1.196 1.263,-1.689 1.542,-1.172 1.483,-1.349 -0.108,-2.638 -0.239,-0.193 -0.575,-0.294 -0.819,-0.484 -0.545,-0.425 -0.703,-0.978 -0.463,-1.564 0.236,-0.578 0.739,-1.023 1.467,-0.996 2.659,0.098 5.313,0.352 7.971,0.374 7.826,0.065 15.652,0.015 23.477,0.068 13.678,0.089 27.352,0.248 41.03,0.326 9.342,0.055 18.684,-0.087 28.023,0.064 7.799,0.126 15.59,0.526 23.387,-0.03 0.496,-0.035 1.002,-0.023 1.502,0.004 2.02,0.114 2.592,0.592 2.639,2.441 0.102,4.053 0.182,8.107 0.186,12.162 0.008,6.95 -0.063,13.899 -0.076,20.85 -0.012,6.083 -0.021,12.165 0.029,18.247 0.047,5.505 -0.154,11.035 0.373,16.508 0.445,4.644 0.377,9.271 0.248,13.886 -0.217,7.811 -0.482,15.614 -0.199,23.427 0.09,2.456 -0.221,4.926 -0.084,7.378 0.215,3.895 0.318,7.775 0.098,11.676 -0.186,3.307 -0.08,6.629 -0.014,9.943 0.051,2.316 0.395,4.634 0.336,6.945 -0.061,2.443 0.291,4.86 0.281,7.305 -0.088,21.888 -0.053,43.777 -0.053,65.665 -0.094,-0.002 -0.19,-10e-4 -0.284,-0.002 z M 770.773,394.932 c 0.357,-1.241 0.854,-2.467 1.027,-3.728 0.125,-0.898 0.807,-1.044 1.453,-1.441 0.658,-0.403 0.471,-1.339 -0.189,-1.346 -2.879,-0.025 -4.324,-2.124 -6.438,-3.247 0.449,-0.17 0.932,-0.294 1.342,-0.521 0.5,-0.281 0.572,-0.831 0.055,-1.003 -3.258,-1.079 -6.443,-1.016 -9.465,0.664 -4.145,2.305 -6.078,9.799 -0.006,13.792 4.855,3.19 9.297,2.586 13.33,-1.698 0.325,-0.884 -0.9,-0.889 -1.109,-1.472 z m 8.635,12.66 c -0.928,-3.164 -4.213,-4.792 -7.975,-4.556 -5.711,0.357 -9.57,5.563 -7.908,10.452 1.629,4.792 8.012,6.999 12.861,4.348 1.627,-0.888 2.773,-2.105 3.092,-3.778 0.217,-1.137 0.275,-2.294 0.381,-3.22 -0.164,-1.246 -0.168,-2.276 -0.451,-3.246 z m -9.656,209.028 c -2.572,1.138 -3.709,3.298 -4.277,5.567 -0.686,2.736 1.867,6.753 4.754,8.014 3.893,1.697 8.473,0.037 10.201,-3.752 0.553,-1.216 0.785,-2.513 0.627,-4.066 -0.28,-5.013 -6.039,-8.09 -11.305,-5.763 z M 708.925,356.598 c 0.197,0.638 0.773,0.831 1.463,0.811 0.905,-0.025 1.597,-0.673 1.417,-1.318 -0.188,-0.672 -0.817,-0.779 -1.476,-0.836 -0.931,0.044 -1.611,0.678 -1.404,1.343 z m 28.729,-0.106 c -0.135,0.677 0.547,1.384 1.338,1.358 0.791,-0.025 1.537,-0.745 1.4,-1.352 -0.105,-0.473 -0.771,-0.923 -1.377,-0.93 -0.628,0.112 -1.224,0.245 -1.361,0.924 z m -49.614,0.839 c 0.8,0.096 1.646,-0.543 1.592,-1.286 -0.042,-0.577 -0.292,-1.135 -1.134,-1.196 -0.767,-0.056 -1.612,0.609 -1.657,1.295 0.14,0.594 0.424,1.093 1.199,1.187 z m 38.585,60.702 c 0.092,-0.598 -0.193,-1.1 -0.955,-1.17 -0.709,-0.064 -1.258,0.26 -1.354,0.884 -0.092,0.587 0.176,1.071 0.936,1.183 0.725,-0.014 1.275,-0.258 1.373,-0.897 z m 75.031,-59.915 c 0.582,0.139 0.889,-0.215 1.043,-0.578 0.314,-0.736 -0.27,-1.476 -1.045,-1.408 -0.471,0.04 -0.803,0.337 -0.877,0.782 -0.097,0.62 0.176,1.035 0.879,1.204 z m -32.871,0.06 c 0.807,-0.023 1.094,-0.497 1.053,-1.114 -0.045,-0.721 -0.648,-0.911 -1.348,-0.856 -0.723,0.056 -1.156,0.408 -1.117,1.062 0.172,0.683 0.707,0.928 1.412,0.908 z m 23.602,-0.827 c 0.129,-0.748 -0.547,-0.964 -1.156,-0.995 -0.623,-0.031 -1.232,0.206 -1.328,0.884 -0.105,0.752 0.596,0.845 1.047,1.057 0.78,-0.08 1.327,-0.313 1.437,-0.946 z"
   id="path7"
   inkscape:connector-curvature="0"
   style="fill:none;stroke:#000000;stroke-width:0.5;stroke-miterlimit:10" />
	<path
   clip-rule="evenodd"
   stroke-miterlimit="10"
   d="m 724.545,641.551 c -0.166,0.52 0.258,0.763 0.576,1.098 1.555,1.639 1.604,1.979 0.619,3.365 -0.514,0.725 -1.566,1.15 -1.648,2.109 -0.186,2.119 -1.934,2.507 -3.865,2.625 -1.654,0.101 -3.32,0.053 -4.973,0.154 -0.703,0.045 -1.206,0.484 -1.296,1.132 -0.18,1.293 -0.343,2.587 0.235,3.854 0.243,0.533 0.472,1.089 0.557,1.65 0.252,1.647 -0.834,2.978 -2.542,3.213 -1.893,0.26 -3.921,-0.803 -4.219,-2.316 -0.103,-0.527 0.047,-1.153 0.297,-1.653 0.391,-0.781 1.094,-1.423 1.105,-2.368 0.044,-3.102 0.234,-3.848 -3.573,-3.609 -3.285,0.203 -6.148,-0.695 -9.047,-1.844 -1.408,-0.559 -2.095,-1.332 -2.287,-2.563 -0.066,-0.428 -0.025,-0.869 -0.067,-1.301 -0.126,-1.288 0.615,-2.796 -0.33,-3.82 -1.152,-1.252 -3.12,-0.646 -4.733,-0.708 -4.16,-0.159 -8.325,-0.265 -12.49,-0.288 -2.988,-0.018 -3.22,0.207 -3.238,2.648 -0.026,3.186 0.031,6.373 0.045,9.561 0.019,4.908 0.037,9.816 0.047,14.727 0.005,2.412 0.229,2.646 3.174,2.721 1.999,0.051 4,0.016 6.001,-0.006 2.169,-0.021 4.315,0.006 6.463,0.416 1.278,0.242 2.643,0.182 3.968,0.188 13.501,0.057 27.008,-0.156 40.495,0.221 12.791,0.357 25.578,0.748 38.377,0.74 11.168,-0.01 22.336,-0.07 33.504,-0.113 0.498,-0.002 0.998,-0.016 1.492,-0.064 0.777,-0.076 1.146,-0.545 1.246,-1.156 0.09,-0.57 0.107,-1.152 0.107,-1.729 -0.002,-7.532 -0.012,-15.061 -0.025,-22.592 0,-0.725 -0.041,-1.447 -0.051,-2.172 -0.01,-1.03 -0.721,-1.584 -1.746,-1.853 -0.619,-0.162 -1.313,-0.337 -1.922,-0.249 -6.797,0.986 -13.631,0.263 -20.445,0.371 -6.32,0.102 -12.645,0.137 -18.965,0.059 -5.996,-0.074 -11.988,-0.37 -17.986,-0.497 -6.662,-0.144 -13.328,-0.214 -19.994,-0.296 -0.972,-0.014 -1.989,-0.192 -2.866,0.345 z"
   id="path9"
   inkscape:connector-curvature="0"
   style="fill:none;stroke:#000000;stroke-width:0.5;stroke-miterlimit:10" />
	<path
   clip-rule="evenodd"
   stroke-miterlimit="10"
   d="m 751.027,696.078 c -5.645,-0.191 -11.277,-0.035 -16.934,-0.533 -4.932,-0.436 -9.955,-0.105 -14.938,-0.08 -0.469,0.004 -1.045,0.137 -1.119,0.672 -0.035,0.25 0.074,0.582 0.258,0.779 4.25,4.604 8.521,9.193 12.787,13.781 1.221,1.311 2.764,1.801 4.734,2.016 4.314,0.471 8.625,0.371 12.945,0.438 1.383,0.021 2.656,-0.141 3.594,-1.148 4.496,-4.828 9.004,-9.648 13.48,-14.488 0.645,-0.699 0.221,-1.418 -0.842,-1.424 -4.654,-0.028 -9.31,-0.013 -13.965,-0.013 z"
   id="path11"
   inkscape:connector-curvature="0"
   style="fill:none;stroke:#000000;stroke-width:0.5;stroke-miterlimit:10" />
	<path
   clip-rule="evenodd"
   stroke-miterlimit="10"
   d="m 784.773,676.088 c -2.512,-0.281 -4.957,-0.678 -7.422,-0.809 -6.965,-0.373 -13.934,-0.793 -20.908,-0.908 -8.664,-0.145 -17.344,-0.209 -26,0.084 -5.635,0.191 -11.313,0.572 -16.839,1.795 -1.454,0.322 -2.88,0.641 -4.077,1.582 0.48,0.971 1.408,0.475 2.077,0.602 0.647,0.123 1.326,0.158 1.992,0.156 5.152,-0.014 10.292,-0.01 15.447,0.299 5.637,0.334 11.316,0.098 16.969,0.305 7.164,0.264 14.344,-0.094 21.508,0.447 2.297,0.174 4.643,-0.172 6.971,-0.225 1.498,-0.031 3.006,-0.037 4.498,0.072 3.767,0.272 3.954,0.194 5.784,-3.4 z"
   id="path13"
   inkscape:connector-curvature="0"
   style="fill:none;stroke:#000000;stroke-width:0.5;stroke-miterlimit:10" />
	<path
   clip-rule="evenodd"
   stroke-miterlimit="10"
   d="m 708.057,685.959 c 0.173,1.002 1.165,1.436 1.709,2.141 1.031,1.338 2.419,1.711 4.245,1.707 10.159,-0.014 20.317,0.031 30.477,0.145 4.305,0.049 8.605,0.357 12.912,0.473 4.152,0.111 8.311,0.094 12.463,0.201 1.395,0.037 2.602,-0.111 3.662,-1 1.563,-1.307 2.434,-2.756 1.75,-3.279 -1.16,-0.885 -2.482,-0.473 -3.783,-0.227 -0.805,0.154 -1.664,0.377 -2.451,0.277 -8.939,-1.139 -17.941,-0.447 -26.91,-0.736 -8.816,-0.285 -17.65,-0.186 -26.476,-0.279 -1.157,-0.014 -2.307,-0.207 -3.465,-0.264 -1.47,-0.075 -2.96,-0.151 -4.133,0.841 z"
   id="path15"
   inkscape:connector-curvature="0"
   style="fill:none;stroke:#000000;stroke-width:0.5;stroke-miterlimit:10" />
	<path
   clip-rule="evenodd"
   stroke-miterlimit="10"
   d="m 780.076,681.326 c -5.844,-0.043 -11.488,-0.008 -17.131,-0.148 -4.979,-0.123 -9.949,0.229 -14.943,-0.445 -3.57,-0.48 -7.275,-0.227 -10.922,-0.26 -9.322,-0.088 -18.645,-0.156 -27.967,-0.223 -0.996,-0.006 -2,-0.006 -2.983,0.098 -0.919,0.098 -1.475,0.615 -1.474,1.459 0.003,0.799 0.46,1.385 1.319,1.648 0.457,0.143 0.978,0.176 1.47,0.176 8.984,0.033 17.971,0.049 26.956,0.076 2.83,0.008 5.678,-0.088 8.449,0.516 1.672,0.363 3.313,-0.004 4.969,0.02 8.154,0.121 16.311,0.225 24.465,0.307 1.496,0.016 3.01,0.018 4.484,-0.166 1.796,-0.224 2.931,-1.161 3.308,-3.058 z"
   id="path17"
   inkscape:connector-curvature="0"
   style="fill:none;stroke:#000000;stroke-width:0.5;stroke-miterlimit:10" />
	<path
   clip-rule="evenodd"
   stroke-miterlimit="10"
   d="m 782.102,249.181 c -28.594,-3.196 -57.422,-4.068 -86.304,-0.734 3.657,-0.001 7.313,-0.016 10.969,0.003 9.165,0.047 18.333,-0.05 27.488,0.204 15.117,0.42 30.234,0.59 45.355,0.656 0.829,0.003 1.661,-0.085 2.492,-0.129 z"
   id="path19"
   inkscape:connector-curvature="0"
   style="fill:none;stroke:#000000;stroke-width:0.5;stroke-miterlimit:10" />
	<path
   clip-rule="evenodd"
   stroke-miterlimit="10"
   d="m 745.813,691.869 c -6.145,-0.168 -12.131,-0.449 -18.117,-0.453 -4.125,-0.002 -8.23,-0.695 -12.353,-0.201 -0.423,0.051 -0.932,0.316 -1.168,0.619 -0.335,0.43 0.165,0.787 0.461,1.119 0.917,1.033 2.22,1.184 3.589,1.156 2.16,-0.045 4.322,-0.162 6.48,-0.135 10.309,0.135 20.619,0.414 30.928,0.404 3.305,-0.004 6.561,0.375 9.846,0.393 0.979,0.004 1.998,-0.08 2.932,-0.322 0.795,-0.207 1.594,-0.811 1.586,-1.529 -0.012,-0.893 -1.059,-0.949 -1.873,-0.988 -1.162,-0.055 -2.328,-0.061 -3.492,-0.063 -6.327,-0.002 -12.65,0 -18.819,0 z"
   id="path21"
   inkscape:connector-curvature="0"
   style="fill:none;stroke:#000000;stroke-width:0.5;stroke-miterlimit:10" />
	<path
   clip-rule="evenodd"
   stroke-miterlimit="10"
   d="m 700.446,644.165 c -0.084,0.952 -0.11,1.239 -0.135,1.526 -0.242,2.787 0.664,3.498 3.91,3.086 0.938,-0.121 1.474,-0.598 1.686,-1.357 0.479,-1.712 0.227,-3.445 0.037,-5.153 -0.131,-1.178 -1.548,-1.743 -3.581,-1.632 -1.321,0.072 -1.813,0.574 -1.907,2.037 -0.048,0.717 -0.01,1.438 -0.01,1.493 z"
   id="path23"
   inkscape:connector-curvature="0"
   style="fill:none;stroke:#000000;stroke-width:0.5;stroke-miterlimit:10" />
	<path
   clip-rule="evenodd"
   stroke-miterlimit="10"
   d="m 717.847,645.013 c -0.002,0.714 -0.05,1.43 0.009,2.139 0.101,1.22 0.843,1.78 2.23,1.772 1.375,-0.012 2.238,-0.598 2.305,-1.741 0.082,-1.423 0.084,-2.854 0.01,-4.277 -0.063,-1.179 -0.777,-1.639 -2.314,-1.681 -1.555,-0.04 -2.145,0.377 -2.229,1.648 -0.049,0.71 -0.01,1.426 -0.011,2.14 z"
   id="path25"
   inkscape:connector-curvature="0"
   style="fill:none;stroke:#000000;stroke-width:0.5;stroke-miterlimit:10" />
	<path
   clip-rule="evenodd"
   stroke-miterlimit="10"
   d="m 711.17,651.575 c 1.259,-1.789 1.264,-1.781 3.938,-2.729 0.459,-0.164 0.984,-0.454 0.741,-0.946 -0.172,-0.348 -0.609,-0.7 -1.021,-0.835 -1.425,-0.471 -2.926,-0.459 -4.435,-0.38 -1,0.053 -2.173,-0.079 -2.404,1.03 -0.183,0.877 0.809,1.166 1.575,1.402 1.385,0.42 0.795,1.775 1.606,2.458 z"
   id="path27"
   inkscape:connector-curvature="0"
   style="fill:none;stroke:#000000;stroke-width:0.5;stroke-miterlimit:10" />
	<path
   clip-rule="evenodd"
   stroke-miterlimit="10"
   d="m 711.489,658.334 c 0.533,-0.072 0.814,-0.338 0.756,-0.816 -0.05,-0.414 -0.227,-0.836 -0.755,-0.878 -0.626,-0.051 -0.646,0.446 -0.687,0.82 -0.046,0.427 0.138,0.772 0.686,0.874 z"
   id="path29"
   inkscape:connector-curvature="0"
   style="fill:none;stroke:#000000;stroke-width:0.5;stroke-miterlimit:10" />
	<path
   clip-rule="evenodd"
   stroke-miterlimit="10"
   d="m 779.479,414.058 c -0.318,1.673 -1.465,2.891 -3.092,3.778 -4.85,2.65 -11.232,0.443 -12.861,-4.348 -1.662,-4.889 2.197,-10.094 7.908,-10.452 3.762,-0.236 7.047,1.392 7.975,4.556 0.283,0.97 0.287,2 0.451,3.246 -0.106,0.925 -0.165,2.083 -0.381,3.22 z m -11.102,1.813 c 2.441,1.871 5.732,1.857 7.963,-0.191 2.756,-2.528 2.682,-6.898 -0.156,-9.396 -2.154,-1.893 -7.098,-1.238 -8.664,1.125 -0.869,1.31 -0.951,2.724 -0.877,4.167 0.025,1.602 0.173,3.1 1.734,4.295 z"
   id="path31"
   inkscape:connector-curvature="0"
   style="fill-rule:evenodd;stroke:#000000;stroke-width:0.5;stroke-miterlimit:10" />
	<path
   clip-rule="evenodd"
   stroke-miterlimit="10"
   d="m 780.43,626.449 c -1.729,3.789 -6.309,5.449 -10.201,3.752 -2.887,-1.261 -5.439,-5.277 -4.754,-8.014 0.568,-2.27 1.705,-4.43 4.277,-5.567 5.266,-2.327 11.025,0.75 11.305,5.763 0.158,1.554 -0.075,2.85 -0.627,4.066 z m -9.463,1.905 c 2.541,1.32 5.32,0.942 6.941,-1.197 1.119,-1.475 1.625,-3.135 1.416,-4.945 -0.396,-3.381 -5.648,-5.645 -8.637,-3.016 -1.377,1.211 -3.354,2.165 -2.102,4.152 -0.259,2.172 0.204,3.873 2.382,5.006 z"
   id="path33"
   inkscape:connector-curvature="0"
   style="fill-rule:evenodd;stroke:#000000;stroke-width:0.5;stroke-miterlimit:10" />
	<path
   clip-rule="evenodd"
   stroke-miterlimit="10"
   d="m 764.025,396.792 c -3.107,-0.557 -5.215,-2.661 -5.08,-5.439 0.15,-3.127 1.883,-5.072 5.336,-5.88 0.781,-0.184 1.625,-0.171 2.439,-0.247 l -0.094,-0.056 c 2.113,1.123 3.559,3.222 6.438,3.247 0.66,0.006 0.848,0.943 0.189,1.346 -0.646,0.397 -1.328,0.543 -1.453,1.441 -0.174,1.261 -0.67,2.487 -1.027,3.728 -2.007,1.272 -4.013,2.35 -6.748,1.86 z m -1.947,-3.743 c 0.049,0.116 0.189,0.22 0.316,0.286 0.354,0.182 0.672,0.117 0.875,-0.192 0.908,-1.383 1.811,-2.767 2.693,-4.159 0.324,-0.512 0.666,-1.122 -0.162,-1.465 -0.387,-0.159 -1.012,-0.106 -1.428,0.051 -2.117,0.804 -2.818,2.334 -2.697,4.382 0.1,0.279 0.233,0.694 0.403,1.097 z m 5.776,-2.946 c -0.756,0.933 -1.459,1.9 -2.16,2.868 -0.434,0.597 -0.916,1.194 -0.629,1.969 0.201,0.548 1.521,0.341 2.629,-0.349 1.703,-1.063 2.031,-2.521 1.629,-4.177 -0.053,-0.214 -0.422,-0.369 -0.66,-0.563 -0.251,0.072 -0.667,0.078 -0.809,0.252 z"
   id="path35"
   inkscape:connector-curvature="0"
   style="fill-rule:evenodd;stroke:#000000;stroke-width:0.5;stroke-miterlimit:10" />
	<path
   clip-rule="evenodd"
   stroke-miterlimit="10"
   d="m 766.627,385.17 c 0.449,-0.17 0.932,-0.294 1.342,-0.521 0.5,-0.281 0.572,-0.831 0.055,-1.003 -3.258,-1.079 -6.443,-1.016 -9.465,0.664 -4.145,2.305 -6.078,9.799 -0.006,13.792 4.855,3.19 9.297,2.586 13.33,-1.698 -1.186,-0.014 -2.201,0.371 -3.262,0.82 -3.391,1.436 -6.895,1.085 -9.174,-0.782 -2.592,-2.125 -3.209,-5.629 -1.475,-8.673 0.768,-1.347 2.066,-2.252 3.703,-2.658 1.664,-0.414 3.41,-1.295 5.045,0.115 l -0.093,-0.056 z"
   id="path37"
   inkscape:connector-curvature="0"
   style="fill-rule:evenodd;stroke:#000000;stroke-width:0.5;stroke-miterlimit:10" />
	<path
   clip-rule="evenodd"
   stroke-miterlimit="10"
   d="m 766.721,385.226 c -1.635,-1.41 -3.381,-0.529 -5.045,-0.115 -1.637,0.406 -2.936,1.311 -3.703,2.658 -1.734,3.044 -1.117,6.549 1.475,8.673 2.279,1.867 5.783,2.218 9.174,0.782 1.061,-0.449 2.076,-0.834 3.262,-0.82 0.324,-0.885 -0.9,-0.89 -1.109,-1.472 -2.008,1.271 -4.014,2.35 -6.748,1.86 -3.107,-0.557 -5.215,-2.661 -5.08,-5.439 0.15,-3.127 1.883,-5.072 5.336,-5.88 0.78,-0.183 1.623,-0.171 2.438,-0.247 z"
   id="path39"
   inkscape:connector-curvature="0"
   style="fill:none;stroke:#000000;stroke-width:0.5;stroke-miterlimit:10" />
	<path
   clip-rule="evenodd"
   stroke-miterlimit="10"
   d="m 710.33,355.254 c -0.932,0.044 -1.611,0.678 -1.404,1.343 0.197,0.638 0.773,0.831 1.463,0.811 0.905,-0.025 1.597,-0.673 1.417,-1.318 -0.188,-0.672 -0.818,-0.779 -1.476,-0.836 z"
   id="path41"
   inkscape:connector-curvature="0"
   style="fill-rule:evenodd;stroke:#000000;stroke-width:0.5;stroke-miterlimit:10" />
	<path
   clip-rule="evenodd"
   stroke-miterlimit="10"
   d="m 739.016,355.567 c -0.629,0.113 -1.225,0.247 -1.361,0.925 -0.135,0.677 0.547,1.384 1.338,1.358 0.791,-0.025 1.537,-0.745 1.4,-1.352 -0.106,-0.474 -0.772,-0.924 -1.377,-0.931 z"
   id="path43"
   inkscape:connector-curvature="0"
   style="fill-rule:evenodd;stroke:#000000;stroke-width:0.5;stroke-miterlimit:10" />
	<path
   clip-rule="evenodd"
   stroke-miterlimit="10"
   d="m 686.84,356.144 c 0.141,0.594 0.425,1.093 1.199,1.187 0.8,0.096 1.646,-0.543 1.592,-1.286 -0.042,-0.577 -0.292,-1.135 -1.134,-1.196 -0.766,-0.056 -1.612,0.609 -1.657,1.295 z"
   id="path45"
   inkscape:connector-curvature="0"
   style="fill-rule:evenodd;stroke:#000000;stroke-width:0.5;stroke-miterlimit:10" />
	<path
   clip-rule="evenodd"
   stroke-miterlimit="10"
   d="m 800.777,356.913 c -0.098,0.621 0.176,1.036 0.879,1.205 0.582,0.139 0.889,-0.215 1.043,-0.578 0.314,-0.736 -0.27,-1.476 -1.045,-1.408 -0.47,0.039 -0.802,0.336 -0.877,0.781 z"
   id="path47"
   inkscape:connector-curvature="0"
   style="fill-rule:evenodd;stroke:#000000;stroke-width:0.5;stroke-miterlimit:10" />
	<path
   clip-rule="evenodd"
   stroke-miterlimit="10"
   d="m 767.373,357.269 c 0.172,0.684 0.707,0.929 1.412,0.909 0.807,-0.023 1.094,-0.497 1.053,-1.114 -0.045,-0.721 -0.648,-0.911 -1.348,-0.856 -0.722,0.055 -1.156,0.407 -1.117,1.061 z"
   id="path49"
   inkscape:connector-curvature="0"
   style="fill-rule:evenodd;stroke:#000000;stroke-width:0.5;stroke-miterlimit:10" />
	<path
   clip-rule="evenodd"
   stroke-miterlimit="10"
   d="m 790.949,358.297 c 0.781,-0.08 1.328,-0.313 1.438,-0.946 0.129,-0.748 -0.547,-0.964 -1.156,-0.995 -0.623,-0.031 -1.232,0.206 -1.328,0.884 -0.106,0.753 0.595,0.845 1.046,1.057 z"
   id="path51"
   inkscape:connector-curvature="0"
   style="fill-rule:evenodd;stroke:#000000;stroke-width:0.5;stroke-miterlimit:10" />
	<path
   clip-rule="evenodd"
   stroke-miterlimit="10"
   d="m 766.643,411.576 c 0.025,1.602 0.174,3.1 1.734,4.295 2.441,1.871 5.732,1.857 7.963,-0.191 2.756,-2.528 2.682,-6.898 -0.156,-9.396 -2.154,-1.893 -7.098,-1.238 -8.664,1.125 -0.87,1.31 -0.952,2.725 -0.877,4.167 z"
   id="path53"
   inkscape:connector-curvature="0"
   style="fill:none;stroke:#000000;stroke-width:0.5;stroke-miterlimit:10" />
	<path
   clip-rule="evenodd"
   stroke-miterlimit="10"
   d="m 768.586,623.348 c -0.26,2.172 0.203,3.873 2.381,5.006 2.541,1.32 5.32,0.942 6.941,-1.197 1.119,-1.475 1.625,-3.135 1.416,-4.945 -0.396,-3.381 -5.648,-5.645 -8.637,-3.016 -1.376,1.21 -3.353,2.164 -2.101,4.152 z"
   id="path55"
   inkscape:connector-curvature="0"
   style="fill:none;stroke:#000000;stroke-width:0.5;stroke-miterlimit:10" />
	<path
   clip-rule="evenodd"
   stroke-miterlimit="10"
   d="m 761.676,391.952 c 0.1,0.28 0.232,0.695 0.402,1.098 0.049,0.116 0.189,0.22 0.316,0.286 0.354,0.182 0.672,0.117 0.875,-0.192 0.908,-1.383 1.811,-2.767 2.693,-4.159 0.324,-0.512 0.666,-1.122 -0.162,-1.465 -0.387,-0.159 -1.012,-0.106 -1.428,0.051 -2.116,0.802 -2.817,2.333 -2.696,4.381 z"
   id="path57"
   inkscape:connector-curvature="0"
   style="fill:none;stroke:#000000;stroke-width:0.5;stroke-miterlimit:10" />
	<path
   clip-rule="evenodd"
   stroke-miterlimit="10"
   d="m 768.662,389.851 c -0.25,0.072 -0.666,0.078 -0.809,0.252 -0.756,0.933 -1.459,1.9 -2.16,2.868 -0.434,0.597 -0.916,1.194 -0.629,1.969 0.201,0.548 1.521,0.341 2.629,-0.349 1.703,-1.063 2.031,-2.521 1.629,-4.177 -0.052,-0.214 -0.422,-0.37 -0.66,-0.563 z"
   id="path59"
   inkscape:connector-curvature="0"
   style="fill:none;stroke:#000000;stroke-width:0.5;stroke-miterlimit:10" />
</g>
</svg>