<?xml version="1.0" encoding="UTF-8" standalone="no"?>
<!-- Generator: Adobe Illustrator 16.0.3, SVG Export Plug-In . SVG Version: 6.00 Build 0)  -->

<svg
   xmlns:dc="http://purl.org/dc/elements/1.1/"
   xmlns:cc="http://creativecommons.org/ns#"
   xmlns:rdf="http://www.w3.org/1999/02/22-rdf-syntax-ns#"
   xmlns:svg="http://www.w3.org/2000/svg"
   xmlns="http://www.w3.org/2000/svg"
   xmlns:sodipodi="http://sodipodi.sourceforge.net/DTD/sodipodi-0.dtd"
   xmlns:inkscape="http://www.inkscape.org/namespaces/inkscape"
   version="1.1"
   id="Ebene_1"
   x="0px"
   y="0px"
   width="149.5433"
   height="540.24811"
   viewBox="0 0 149.5433 540.24811"
   enable-background="new 0 0 960 560"
   xml:space="preserve"
   inkscape:version="0.48.2 r9819"
   sodipodi:docname="08_Grossladungsbombe.svg"><metadata
   id="metadata65"><rdf:RDF><cc:Work
       rdf:about=""><dc:format>image/svg+xml</dc:format><dc:type
         rdf:resource="http://purl.org/dc/dcmitype/StillImage" /></cc:Work></rdf:RDF></metadata><defs
   id="defs63" /><sodipodi:namedview
   pagecolor="#ffffff"
   bordercolor="#666666"
   borderopacity="1"
   objecttolerance="10"
   gridtolerance="10"
   guidetolerance="10"
   inkscape:pageopacity="0"
   inkscape:pageshadow="2"
   inkscape:window-width="640"
   inkscape:window-height="480"
   id="namedview61"
   showgrid="false"
   fit-margin-top="0"
   fit-margin-left="0"
   fit-margin-right="0"
   fit-margin-bottom="0"
   inkscape:zoom="0.33541667"
   inkscape:cx="75.157647"
   inkscape:cy="271.28436"
   inkscape:window-x="0"
   inkscape:window-y="0"
   inkscape:window-maximized="0"
   inkscape:current-layer="Ebene_1" />
<g
   id="g3"
   transform="translate(-404.84235,-11.036266)">
	<path
   clip-rule="evenodd"
   stroke-miterlimit="10"
   d="m 414.821,315.741 c -1.719,-0.102 -2.687,-0.166 -3.654,-0.215 -0.653,-0.032 -1.316,0.022 -1.957,-0.078 -2.231,-0.348 -4.066,-2.249 -4.126,-4.209 -0.056,-1.85 1.792,-4.079 3.852,-4.51 0.781,-0.164 1.62,-0.148 2.423,-0.095 1.075,0.075 2.419,0.969 3.075,-0.328 0.482,-0.953 -0.914,-1.563 -1.36,-2.395 -0.612,-1.141 -0.534,-2.223 0.316,-3.17 1.099,-1.227 2.278,-2.145 4.147,-2.182 1.753,-0.035 1.934,-0.388 1.977,-2.125 0.108,-4.406 0.148,-8.813 0.174,-13.22 0.049,-8.154 0.075,-16.306 0.095,-24.459 0.018,-6.863 0.006,-13.725 0.021,-20.587 0.003,-1.743 -0.183,-3.253 -2.386,-3.602 -1.04,-0.165 -1.656,-0.969 -1.624,-2.125 0.014,-0.489 -0.025,-0.98 -0.021,-1.47 0.015,-1.615 -0.417,-2.784 -2.252,-3.253 -1.22,-0.313 -2.396,-0.964 -3.026,-2.295 -0.741,-1.564 -0.551,-2.941 0.739,-3.911 0.26,-0.196 0.518,-0.447 0.817,-0.53 2.405,-0.669 4.104,-1.785 3.661,-4.733 -0.125,-0.836 0.716,-1.564 1.516,-1.708 2.316,-0.416 2.696,-1.906 2.595,-3.919 -0.122,-2.446 -0.139,-4.902 -0.086,-7.353 0.17,-7.811 0.513,-15.619 0.569,-23.43 0.071,-9.774 -0.12,-19.549 -0.111,-29.322 0.005,-5.71 0.185,-11.419 0.276,-17.129 0.018,-1.13 0.626,-1.799 1.611,-2.209 1.087,-0.454 1.343,-1.384 1.249,-2.408 -0.758,-8.31 0.112,-16.611 0.101,-24.916 -0.009,-6.529 -0.258,-13.064 -0.052,-19.586 0.232,-7.325 -0.158,-14.64 0.043,-21.965 0.197,-7.183 -0.025,-14.378 -0.042,-21.567 -0.016,-7.021 -0.024,-14.042 0.004,-21.063 0.009,-2.245 0.13,-2.417 2.442,-2.72 8.243,-1.081 16.489,-2.135 24.744,-3.119 5.007,-0.597 10.032,-1.046 15.049,-1.56 0.651,-0.066 1.301,-0.146 1.953,-0.174 12.546,-0.556 25.087,-1.304 37.652,-0.392 6.84,0.497 13.711,0.663 20.525,1.382 7.78,0.82 15.604,1.333 23.315,2.765 2.061,0.383 2.237,0.562 2.532,2.846 0.082,0.647 0.191,1.292 0.259,1.941 0.306,2.957 -0.706,5.89 -0.483,8.755 0.213,2.767 0.567,5.442 0.117,8.233 -0.336,2.078 -0.459,4.276 -0.169,6.35 0.566,4.046 0.048,8.113 0.535,12.144 0.039,0.321 0.018,0.656 -0.021,0.979 -0.863,7.309 -0.354,14.61 -0.121,21.929 0.076,2.396 0.064,4.821 0.184,7.232 0.114,2.25 -0.653,4.415 -0.351,6.734 0.375,2.857 0.242,5.783 0.272,8.68 0.009,0.97 -0.177,1.941 -0.231,2.913 -0.092,1.627 -0.417,3.299 -0.171,4.877 0.632,4.044 -0.018,8.082 0.209,12.119 0.188,3.338 -0.706,6.755 1.293,9.925 0.535,0.848 0.292,2.229 0.289,3.366 -0.011,6.038 -0.074,12.075 -0.089,18.114 -0.026,10.768 -0.037,21.536 -0.042,32.304 -0.006,8.004 0.162,16.013 -0.023,24.013 -0.302,12.886 0.025,25.771 -0.131,38.654 -0.071,5.852 -0.399,11.701 -0.425,17.551 -0.017,3.568 -0.003,7.146 0.079,10.707 0.132,5.829 0.026,11.646 -0.092,17.47 -0.099,4.892 0.026,9.788 0.021,14.684 -0.002,4.717 -0.061,9.437 -0.07,14.153 -0.031,15.841 -0.06,31.683 -0.069,47.524 -10e-4,2.445 0.145,4.892 0.143,7.338 0,4.71 0.448,9.424 -0.209,14.132 -0.336,2.409 -0.042,4.867 -0.024,7.277 0.079,10.094 0.072,20.186 -0.034,30.279 -0.079,7.668 -0.036,15.338 -0.061,23.009 -0.005,1.469 -0.101,2.911 0.965,4.171 0.765,0.901 0.881,2.087 0.882,3.251 0.004,3.585 0.372,7.179 -0.267,10.75 -0.112,0.628 -0.234,1.296 -0.143,1.914 0.882,5.848 0.047,11.73 0.392,17.588 0.036,0.637 -0.138,1.3 -0.299,1.928 -0.271,1.055 -1.019,1.691 -2.072,1.809 -1.132,0.129 -2.279,0.127 -3.422,0.136 -3.104,0.025 -6.214,0.134 -9.313,0.003 -2.462,-0.103 -4.387,0.576 -6.071,2.457 -4.239,4.729 -8.702,9.257 -12.904,14.016 -8.309,9.409 -16.572,18.861 -24.68,28.443 -1.498,1.771 -3.65,2.686 -4.945,4.621 -0.518,0.774 -1.849,1.176 -2.038,1.939 -0.156,0.632 0.983,1.494 1.251,2.346 0.327,1.035 0.342,2.168 0.535,3.566 -4.121,0 -8.162,0.005 -12.202,-0.002 -1.251,-0.003 -2.216,-0.443 -2.609,-1.757 -0.38,-1.278 0.013,-2.215 1.134,-2.916 0.255,-0.16 0.398,-0.497 0.8,-1.022 -1.002,-1.092 -1.896,-2.479 -3.15,-3.34 -2.079,-1.428 -3.513,-3.357 -5.07,-5.25 -6.106,-7.417 -12.217,-14.836 -18.306,-22.264 -4.841,-5.907 -9.943,-11.624 -14.39,-17.848 -0.896,-1.254 -1.877,-1.655 -3.256,-1.646 -2.451,0.018 -4.901,0.018 -7.353,0.009 -2.289,-0.006 -4.579,0.024 -6.863,-0.062 -2.773,-0.104 -3.141,-0.491 -3.266,-3.093 -0.046,-0.98 -0.049,-1.961 -0.05,-2.941 -0.004,-8.329 -0.006,-16.658 0.004,-24.987 10e-4,-1.143 0.087,-2.285 0.116,-3.428 0.039,-1.564 0.262,-2.879 2.25,-3.178 1.422,-0.214 1.521,-1.501 1.521,-2.69 -0.004,-5.061 10e-4,-10.122 -0.018,-15.183 -0.012,-3.428 -0.107,-6.854 -0.067,-10.28 0.017,-1.413 -0.544,-2.09 -1.909,-2.297 -1.951,-0.297 -2.739,-1.542 -2.683,-3.456 0.033,-1.144 -0.587,-1.797 -1.714,-2.003 -0.479,-0.086 -0.975,-0.174 -1.417,-0.368 -1.488,-0.655 -2.31,-1.857 -2.291,-3.452 0.02,-1.581 0.772,-2.828 2.335,-3.412 0.765,-0.285 1.57,-0.458 2.339,-0.731 0.91,-0.322 1.133,-0.933 0.934,-1.906 -0.404,-1.975 -0.075,-2.895 2.444,-3.114 1.92,-0.168 2.135,-0.579 2.144,-2.524 0.038,-7.186 0.049,-14.37 0.052,-21.555 0.004,-10.129 -0.014,-20.256 -0.009,-30.384 0.003,-8.985 0.035,-17.971 0.033,-26.958 -10e-4,-2.154 -0.025,-2.351 -2.361,-2.917 -1.566,-0.38 -2.584,-1.327 -3.631,-2.334 -2.094,-2.013 -1.947,-3.176 1.277,-5.996 z m 6.801,61.263 c 0.093,10e-4 0.185,10e-4 0.278,10e-4 -0.136,9.962 -0.291,19.923 -0.4,29.885 -0.053,4.73 -0.368,9.487 -0.186,14.18 0.412,10.618 0.213,21.228 0.283,31.839 0.029,4.317 0.013,4.413 4.311,4.46 6.534,0.072 13.068,0.015 19.602,-0.022 9.309,-0.05 18.632,0.168 27.922,-0.278 10.608,-0.509 21.216,-0.346 31.821,-0.652 1.634,-0.048 2.944,0.188 3.239,2.128 0.116,0.778 0.803,1.015 1.445,1.098 1.453,0.185 2.916,0.344 4.379,0.388 1.053,0.032 1.957,-0.409 2.128,-1.586 0.235,-1.618 1.286,-2.15 2.729,-2.225 0.816,-0.041 1.639,-0.1 2.449,-0.045 8.343,0.563 16.628,-0.748 24.955,-0.725 1.784,0.004 2.286,-0.504 2.33,-2.397 0.103,-4.232 0.113,-8.467 0.112,-12.7 -0.007,-16.652 -0.116,-33.304 -0.014,-49.954 0.047,-7.67 -0.109,-15.34 0.188,-23.018 0.27,-7.002 -0.219,-14.029 -0.215,-21.045 0.008,-17.802 0.13,-35.604 0.16,-53.407 0.029,-17.47 -0.011,-34.941 0.014,-52.412 0.003,-2.928 -0.136,-5.856 0.521,-8.777 0.313,-1.39 0.222,-2.963 -0.066,-4.376 -0.495,-2.435 -0.488,-4.874 -0.496,-7.318 -0.023,-6.858 -0.014,-13.717 0.031,-20.575 0.014,-1.94 0.261,-3.879 0.284,-5.82 0.047,-4.39 -0.733,-8.791 0.217,-13.17 0.103,-0.469 0.149,-0.99 0.059,-1.455 -1.395,-7.132 -0.015,-14.305 -0.19,-21.459 -0.139,-5.665 -0.113,-11.368 -0.113,-17.054 -0.002,-0.957 -0.601,-1.348 -1.236,-1.904 -1.511,-1.321 -1.452,-1.52 0.105,-2.972 0.235,-0.217 0.564,-0.332 0.803,-0.546 0.534,-0.478 0.689,-1.102 0.454,-1.763 -0.232,-0.652 -0.724,-1.154 -1.436,-1.124 -2.604,0.111 -5.204,0.397 -7.806,0.422 -7.662,0.073 -15.326,0.018 -22.988,0.076 -13.393,0.101 -26.783,0.28 -40.175,0.369 -9.146,0.062 -18.295,-0.1 -27.439,0.072 -7.636,0.143 -15.267,0.593 -22.9,-0.034 -0.487,-0.04 -0.981,-0.027 -1.47,0.004 -1.978,0.129 -2.54,0.667 -2.584,2.751 -0.1,4.567 -0.179,9.136 -0.183,13.705 -0.007,7.832 0.062,15.663 0.075,23.495 0.012,6.854 0.021,13.708 -0.03,20.562 -0.045,6.204 0.151,12.435 -0.364,18.603 -0.438,5.233 -0.369,10.448 -0.244,15.646 0.213,8.802 0.473,17.595 0.194,26.399 -0.088,2.768 0.216,5.551 0.083,8.314 -0.21,4.388 -0.311,8.762 -0.095,13.157 0.182,3.727 0.078,7.47 0.012,11.205 -0.046,2.61 -0.385,5.222 -0.329,7.826 0.059,2.753 -0.283,5.478 -0.274,8.231 0.085,24.665 0.05,49.331 0.05,73.997 z m 4.334,-301.757 c -0.118,0.001 -0.236,0.001 -0.354,0.003 0,8.332 0,16.665 0,24.997 0.001,9.315 -0.009,18.631 0.014,27.945 0.005,2.377 0.56,3.183 2.751,3.048 3.11,-0.192 6.191,0.413 9.256,0.179 3.734,-0.286 7.461,-0.035 11.204,-0.259 7.656,-0.458 15.349,-0.333 23.028,-0.37 18.781,-0.089 37.563,-0.111 56.345,-0.21 5.857,-0.031 11.712,-0.197 17.567,-0.354 1.554,-0.042 2.029,-0.526 2.064,-2.085 0.052,-2.285 -0.053,-4.572 -0.05,-6.858 0.003,-6.37 0.348,-12.761 -0.058,-19.104 -0.342,-5.365 0.104,-10.687 -0.032,-16.022 -0.137,-5.38 0.476,-10.769 -0.243,-16.141 -0.129,-0.963 -0.139,-1.971 -0.017,-2.935 0.834,-6.515 0.148,-13.046 0.197,-19.566 0.051,-6.813 -0.331,-13.629 0.055,-20.447 0.139,-2.446 0.186,-4.896 0.238,-7.346 0.021,-0.92 -0.491,-1.456 -1.37,-1.763 -2.555,-0.891 -5.178,-0.563 -7.78,-0.478 -5.045,0.166 -10.091,0.521 -15.137,0.566 -16.507,0.147 -33.015,0.178 -49.521,0.281 -4.73,0.029 -9.465,0.315 -14.186,0.161 -2.78,-0.09 -5.518,-0.132 -8.295,0.107 -3.387,0.291 -6.816,0.481 -10.201,0.278 -4.408,-0.265 -8.775,0.35 -13.17,0.216 -1.893,-0.057 -2.562,0.767 -2.56,2.8 0.002,2.776 0.252,5.554 0.236,8.33 -0.067,11.75 -0.22,23.5 -0.277,35.251 -0.016,3.259 0.191,6.518 0.296,9.776 z m 74.135,383.739 c -0.858,-0.606 -1.856,-0.405 -2.805,-0.391 -6.526,0.091 -13.054,0.172 -19.579,0.334 -5.872,0.144 -11.739,0.477 -17.611,0.56 -6.189,0.088 -12.381,0.049 -18.571,-0.065 -6.671,-0.122 -13.364,0.693 -20.019,-0.418 -0.597,-0.099 -1.275,0.098 -1.879,0.28 -1.006,0.303 -1.703,0.927 -1.713,2.087 -0.007,0.816 -0.048,1.632 -0.05,2.447 -0.012,8.486 -0.021,16.971 -0.024,25.458 0,0.649 0.018,1.307 0.107,1.95 0.097,0.688 0.46,1.215 1.219,1.302 0.484,0.054 0.974,0.071 1.461,0.073 10.936,0.047 21.871,0.116 32.807,0.125 12.532,0.01 25.053,-0.429 37.578,-0.832 13.206,-0.426 26.435,-0.185 39.652,-0.25 1.297,-0.007 2.634,0.063 3.885,-0.211 2.104,-0.461 4.205,-0.493 6.329,-0.467 1.959,0.023 3.919,0.063 5.876,0.005 2.884,-0.084 3.103,-0.348 3.107,-3.066 0.01,-5.532 0.027,-11.063 0.048,-16.595 0.012,-3.592 0.067,-7.184 0.043,-10.773 -0.019,-2.75 -0.245,-3.005 -3.171,-2.984 -4.079,0.027 -8.158,0.146 -12.231,0.324 -1.581,0.071 -3.505,-0.612 -4.636,0.799 -0.925,1.154 -0.196,2.854 -0.321,4.305 -0.041,0.486 -0.002,0.983 -0.066,1.467 -0.188,1.387 -0.86,2.257 -2.24,2.887 -2.839,1.295 -5.641,2.308 -8.856,2.077 -3.73,-0.268 -3.543,0.573 -3.501,4.068 0.013,1.064 0.701,1.787 1.084,2.668 0.243,0.563 0.39,1.27 0.289,1.862 -0.29,1.707 -2.277,2.904 -4.13,2.611 -1.674,-0.265 -2.737,-1.765 -2.489,-3.62 0.084,-0.634 0.308,-1.26 0.546,-1.86 0.564,-1.429 0.406,-2.887 0.23,-4.344 -0.09,-0.729 -0.581,-1.226 -1.27,-1.274 -1.619,-0.116 -3.251,-0.062 -4.869,-0.175 -1.893,-0.133 -3.604,-0.57 -3.786,-2.958 -0.081,-1.081 -1.11,-1.561 -1.613,-2.377 -0.964,-1.563 -0.917,-1.946 0.607,-3.793 0.309,-0.377 0.723,-0.651 0.562,-1.236 z m -25.931,61.446 c -4.559,0 -9.118,-0.019 -13.677,0.013 -1.041,0.007 -1.457,0.816 -0.824,1.604 4.383,5.456 8.798,10.886 13.2,16.327 0.917,1.134 2.165,1.317 3.519,1.293 4.228,-0.075 8.45,0.038 12.676,-0.492 1.929,-0.241 3.44,-0.796 4.635,-2.271 4.178,-5.172 8.359,-10.345 12.522,-15.53 0.18,-0.223 0.285,-0.596 0.251,-0.879 -0.07,-0.603 -0.636,-0.754 -1.096,-0.758 -4.879,-0.025 -9.797,-0.399 -14.627,0.09 -5.537,0.563 -11.052,0.387 -16.579,0.603 z m -33.045,-22.527 c 1.793,4.05 1.976,4.138 5.665,3.831 1.46,-0.123 2.938,-0.117 4.405,-0.08 2.279,0.06 4.576,0.446 6.826,0.252 7.015,-0.61 14.044,-0.207 21.061,-0.504 5.534,-0.234 11.094,0.033 16.613,-0.344 5.049,-0.348 10.082,-0.352 15.127,-0.338 0.651,0.002 1.317,-0.036 1.95,-0.175 0.654,-0.143 1.563,0.417 2.034,-0.677 -1.173,-1.063 -2.568,-1.422 -3.993,-1.784 -5.412,-1.377 -10.972,-1.808 -16.488,-2.022 -8.476,-0.33 -16.975,-0.258 -25.458,-0.096 -6.829,0.132 -13.653,0.604 -20.474,1.023 -2.414,0.151 -4.808,0.596 -7.268,0.914 z m 75.119,11.122 c -1.148,-1.117 -2.607,-1.031 -4.047,-0.947 -1.133,0.064 -2.261,0.281 -3.392,0.296 -8.643,0.106 -17.292,-0.006 -25.926,0.315 -8.781,0.326 -17.597,-0.453 -26.35,0.829 -0.771,0.112 -1.612,-0.139 -2.401,-0.311 -1.272,-0.278 -2.567,-0.744 -3.703,0.254 -0.67,0.588 0.182,2.223 1.711,3.696 1.04,1.001 2.222,1.168 3.586,1.127 4.067,-0.122 8.139,-0.103 12.205,-0.228 4.216,-0.131 8.428,-0.479 12.644,-0.532 9.946,-0.128 19.894,-0.179 29.841,-0.162 1.788,0.003 3.147,-0.418 4.155,-1.925 0.537,-0.794 1.506,-1.284 1.677,-2.412 z m -70.521,-5.22 c 0.37,2.137 1.483,3.194 3.241,3.445 1.443,0.207 2.927,0.203 4.391,0.188 7.985,-0.095 15.971,-0.21 23.956,-0.346 1.622,-0.028 3.228,0.388 4.867,-0.022 2.713,-0.681 5.502,-0.572 8.271,-0.582 8.798,-0.03 17.597,-0.048 26.396,-0.084 0.482,-0.001 0.99,-0.04 1.438,-0.198 0.842,-0.298 1.29,-0.958 1.293,-1.857 0.002,-0.953 -0.542,-1.536 -1.442,-1.646 -0.965,-0.116 -1.948,-0.116 -2.922,-0.109 -9.129,0.075 -18.258,0.152 -27.385,0.251 -3.571,0.038 -7.199,-0.249 -10.695,0.293 -4.89,0.759 -9.758,0.363 -14.632,0.502 -5.525,0.155 -11.053,0.117 -16.777,0.165 z M 443.732,16.832 c 0.813,0.051 1.626,0.149 2.439,0.145 14.807,-0.074 29.61,-0.266 44.412,-0.739 8.965,-0.287 17.942,-0.176 26.915,-0.229 3.581,-0.021 7.16,-0.004 10.741,-0.004 -28.281,-3.756 -56.508,-2.774 -84.507,0.827 z m 35.533,498.856 c -6.041,0 -12.232,-0.004 -18.426,0.002 -1.14,0.002 -2.282,0.008 -3.42,0.069 -0.796,0.045 -1.823,0.106 -1.833,1.112 -0.008,0.811 0.774,1.491 1.553,1.725 0.913,0.273 1.911,0.368 2.871,0.362 3.216,-0.019 6.403,-0.445 9.641,-0.442 10.094,0.013 20.189,-0.303 30.284,-0.453 2.113,-0.033 4.23,0.102 6.346,0.15 1.342,0.031 2.617,-0.139 3.515,-1.303 0.289,-0.375 0.781,-0.778 0.451,-1.261 -0.232,-0.342 -0.729,-0.642 -1.144,-0.699 -4.038,-0.557 -8.059,0.226 -12.097,0.227 -5.863,0.005 -11.724,0.321 -17.741,0.511 z m 44.423,-53.756 c 0,-0.062 0.036,-0.875 -0.008,-1.683 -0.094,-1.647 -0.575,-2.214 -1.869,-2.295 -1.99,-0.126 -3.38,0.51 -3.506,1.838 -0.187,1.925 -0.435,3.878 0.035,5.807 0.208,0.858 0.733,1.396 1.65,1.529 3.179,0.466 4.066,-0.335 3.829,-3.477 -0.023,-0.323 -0.048,-0.646 -0.131,-1.719 z m -17.04,0.955 c 0,-0.805 0.038,-1.61 -0.01,-2.412 -0.081,-1.432 -0.66,-1.902 -2.183,-1.855 -1.505,0.046 -2.204,0.564 -2.266,1.894 -0.073,1.603 -0.07,3.217 0.01,4.819 0.065,1.288 0.91,1.948 2.256,1.961 1.358,0.011 2.086,-0.623 2.185,-1.996 0.057,-0.8 0.011,-1.608 0.008,-2.411 z m 6.538,7.395 c 0.795,-0.771 0.219,-2.297 1.572,-2.771 0.752,-0.264 1.722,-0.592 1.542,-1.578 -0.227,-1.252 -1.374,-1.103 -2.354,-1.162 -1.478,-0.089 -2.947,-0.103 -4.343,0.429 -0.403,0.151 -0.831,0.549 -0.999,0.94 -0.238,0.555 0.275,0.882 0.725,1.065 2.62,1.069 2.624,1.061 3.857,3.077 z m -0.312,7.616 c 0.537,-0.115 0.716,-0.504 0.671,-0.984 -0.039,-0.422 -0.058,-0.981 -0.672,-0.926 -0.516,0.047 -0.688,0.523 -0.739,0.99 -0.058,0.54 0.218,0.838 0.74,0.92 z"
   id="path5"
   inkscape:connector-curvature="0"
   style="fill-rule:evenodd;stroke:#ffffff;stroke-width:0.5;stroke-miterlimit:10" />
	<path
   clip-rule="evenodd"
   stroke-miterlimit="10"
   d="m 421.622,377.004 c 0,-24.666 0.036,-49.332 -0.051,-73.997 -0.009,-2.754 0.333,-5.479 0.274,-8.231 -0.056,-2.604 0.282,-5.216 0.329,-7.826 0.066,-3.735 0.169,-7.478 -0.012,-11.205 -0.215,-4.396 -0.115,-8.769 0.095,-13.157 0.133,-2.763 -0.171,-5.546 -0.083,-8.314 0.279,-8.804 0.019,-17.598 -0.194,-26.399 -0.125,-5.199 -0.194,-10.414 0.244,-15.646 0.515,-6.168 0.318,-12.399 0.364,-18.603 0.051,-6.854 0.042,-13.708 0.03,-20.562 -0.013,-7.832 -0.083,-15.664 -0.075,-23.495 0.003,-4.568 0.083,-9.137 0.183,-13.705 0.044,-2.084 0.606,-2.622 2.584,-2.751 0.489,-0.031 0.983,-0.044 1.47,-0.004 7.633,0.627 15.264,0.177 22.9,0.034 9.144,-0.172 18.293,-0.011 27.439,-0.072 13.392,-0.089 26.783,-0.268 40.175,-0.369 7.662,-0.059 15.326,-0.003 22.988,-0.076 2.602,-0.024 5.202,-0.311 7.806,-0.422 0.712,-0.03 1.203,0.472 1.436,1.124 0.235,0.661 0.08,1.285 -0.454,1.763 -0.238,0.214 -0.567,0.329 -0.803,0.546 -1.558,1.453 -1.616,1.651 -0.105,2.972 0.636,0.556 1.234,0.947 1.236,1.904 0,5.686 -0.025,11.389 0.113,17.054 0.176,7.154 -1.204,14.327 0.19,21.459 0.091,0.465 0.044,0.986 -0.059,1.455 -0.95,4.379 -0.17,8.781 -0.217,13.17 -0.023,1.94 -0.271,3.88 -0.284,5.82 -0.045,6.858 -0.055,13.717 -0.031,20.575 0.008,2.444 10e-4,4.883 0.496,7.318 0.288,1.414 0.379,2.986 0.066,4.376 -0.657,2.921 -0.519,5.849 -0.521,8.777 -0.024,17.471 0.016,34.942 -0.014,52.412 -0.03,17.803 -0.152,35.605 -0.16,53.407 -0.004,7.016 0.484,14.043 0.215,21.045 -0.297,7.678 -0.141,15.348 -0.188,23.018 -0.103,16.65 0.007,33.302 0.014,49.954 10e-4,4.233 -0.01,8.468 -0.112,12.7 -0.044,1.894 -0.546,2.401 -2.33,2.397 -8.327,-0.023 -16.612,1.288 -24.955,0.725 -0.811,-0.055 -1.633,0.004 -2.449,0.045 -1.442,0.074 -2.493,0.606 -2.729,2.225 -0.171,1.177 -1.075,1.618 -2.128,1.586 -1.463,-0.044 -2.926,-0.203 -4.379,-0.388 -0.643,-0.083 -1.329,-0.319 -1.445,-1.098 -0.295,-1.939 -1.605,-2.176 -3.239,-2.128 -10.604,0.307 -21.213,0.144 -31.821,0.652 -9.291,0.446 -18.613,0.229 -27.922,0.278 -6.534,0.037 -13.068,0.095 -19.602,0.022 -4.297,-0.047 -4.282,-0.143 -4.311,-4.46 -0.069,-10.611 0.129,-21.221 -0.283,-31.839 -0.182,-4.692 0.133,-9.449 0.186,-14.18 0.11,-9.962 0.264,-19.923 0.4,-29.885 -0.093,0 -0.185,0 -0.277,-10e-4 z m 32.117,-194.269 c 3.948,4.827 8.297,5.509 13.05,1.913 5.948,-4.5 4.053,-12.944 -0.005,-15.541 -2.958,-1.894 -6.078,-1.965 -9.266,-0.749 -0.508,0.194 -0.439,0.815 0.054,1.13 0.399,0.256 0.872,0.396 1.313,0.587 -2.069,1.265 -3.483,3.631 -6.304,3.659 -0.646,0.007 -0.83,1.063 -0.186,1.517 0.632,0.446 1.302,0.611 1.423,1.625 0.17,1.42 0.654,2.802 1.005,4.2 -0.204,0.656 -1.401,0.662 -1.084,1.659 z M 445.927,199 c 0.103,1.042 0.162,2.348 0.373,3.629 0.313,1.885 1.434,3.257 3.026,4.257 4.75,2.987 11,0.5 12.596,-4.899 1.626,-5.509 -2.154,-11.375 -7.743,-11.778 -3.685,-0.266 -6.903,1.568 -7.81,5.134 -0.278,1.092 -0.281,2.254 -0.442,3.657 z m -1.172,238.387 c -0.156,1.75 0.072,3.212 0.614,4.581 1.691,4.271 6.177,6.142 9.987,4.228 2.828,-1.42 5.328,-5.946 4.656,-9.029 -0.556,-2.559 -1.668,-4.992 -4.189,-6.274 -5.155,-2.624 -10.794,0.843 -11.068,6.494 z m 69.254,-301.023 c -0.646,0.064 -1.261,0.186 -1.444,0.942 -0.176,0.727 0.502,1.456 1.387,1.485 0.678,0.023 1.239,-0.195 1.434,-0.913 0.201,-0.75 -0.465,-1.464 -1.377,-1.514 z m -28.087,0.353 c -0.594,0.008 -1.246,0.515 -1.349,1.048 -0.135,0.684 0.595,1.494 1.371,1.523 0.773,0.03 1.44,-0.768 1.309,-1.53 -0.132,-0.764 -0.716,-0.915 -1.331,-1.041 z m 51.087,0.65 c -0.043,-0.773 -0.872,-1.522 -1.623,-1.459 -0.823,0.069 -1.067,0.698 -1.108,1.348 -0.053,0.837 0.775,1.557 1.558,1.449 0.759,-0.107 1.036,-0.669 1.173,-1.338 z m -37.611,70.751 c 0.744,-0.125 1.006,-0.671 0.916,-1.332 -0.095,-0.704 -0.631,-1.068 -1.326,-0.996 -0.745,0.078 -1.024,0.646 -0.937,1.317 0.097,0.721 0.638,0.996 1.347,1.011 z m -73.955,-69.884 c -0.07,-0.502 -0.396,-0.837 -0.857,-0.882 -0.758,-0.076 -1.331,0.758 -1.023,1.588 0.152,0.409 0.452,0.807 1.021,0.651 0.688,-0.191 0.958,-0.659 0.859,-1.357 z m 32.711,0.401 c 0.038,-0.738 -0.386,-1.134 -1.095,-1.197 -0.685,-0.06 -1.274,0.154 -1.319,0.965 -0.039,0.696 0.241,1.23 1.031,1.256 0.691,0.022 1.215,-0.254 1.383,-1.024 z m -23.086,1.157 c 0.441,-0.238 1.129,-0.343 1.024,-1.191 -0.094,-0.764 -0.69,-1.031 -1.301,-0.996 -0.594,0.035 -1.257,0.277 -1.131,1.12 0.108,0.715 0.643,0.978 1.408,1.067 z"
   id="path7"
   inkscape:connector-curvature="0"
   style="fill:none;stroke:#ffffff;stroke-width:0.5;stroke-miterlimit:10" />
	<path
   clip-rule="evenodd"
   stroke-miterlimit="10"
   d="m 500.091,458.986 c 0.161,0.585 -0.253,0.858 -0.563,1.235 -1.524,1.847 -1.571,2.23 -0.607,3.793 0.503,0.816 1.532,1.296 1.613,2.377 0.183,2.388 1.894,2.825 3.786,2.958 1.618,0.113 3.25,0.059 4.869,0.175 0.688,0.049 1.18,0.546 1.27,1.274 0.176,1.457 0.334,2.915 -0.23,4.344 -0.238,0.601 -0.462,1.227 -0.546,1.86 -0.248,1.855 0.815,3.355 2.489,3.62 1.853,0.293 3.84,-0.904 4.13,-2.611 0.101,-0.593 -0.046,-1.299 -0.289,-1.862 -0.383,-0.881 -1.071,-1.604 -1.084,-2.668 -0.042,-3.495 -0.229,-4.336 3.501,-4.068 3.216,0.23 6.018,-0.782 8.856,-2.077 1.38,-0.63 2.053,-1.5 2.24,-2.887 0.064,-0.483 0.025,-0.98 0.066,-1.467 0.125,-1.451 -0.604,-3.15 0.321,-4.305 1.131,-1.411 3.055,-0.728 4.636,-0.799 4.073,-0.178 8.152,-0.297 12.231,-0.324 2.926,-0.021 3.152,0.234 3.171,2.984 0.024,3.59 -0.031,7.182 -0.043,10.773 -0.021,5.532 -0.038,11.063 -0.048,16.595 -0.005,2.719 -0.224,2.982 -3.107,3.066 -1.957,0.059 -3.917,0.019 -5.876,-0.005 -2.124,-0.026 -4.226,0.006 -6.329,0.467 -1.251,0.274 -2.588,0.204 -3.885,0.211 -13.218,0.065 -26.446,-0.176 -39.652,0.25 -12.525,0.403 -25.045,0.842 -37.578,0.832 -10.936,-0.009 -21.871,-0.078 -32.807,-0.125 -0.487,-0.002 -0.977,-0.02 -1.461,-0.073 -0.759,-0.087 -1.123,-0.614 -1.219,-1.302 -0.089,-0.644 -0.107,-1.301 -0.107,-1.95 0.003,-8.487 0.012,-16.972 0.024,-25.458 0.002,-0.815 0.043,-1.631 0.05,-2.447 0.011,-1.16 0.708,-1.784 1.713,-2.087 0.604,-0.183 1.283,-0.379 1.879,-0.28 6.655,1.111 13.348,0.296 20.019,0.418 6.189,0.114 12.381,0.153 18.571,0.065 5.872,-0.083 11.739,-0.416 17.611,-0.56 6.525,-0.162 13.052,-0.243 19.579,-0.334 0.949,-0.013 1.947,-0.214 2.806,0.392 z"
   id="path9"
   inkscape:connector-curvature="0"
   style="fill:none;stroke:#ffffff;stroke-width:0.5;stroke-miterlimit:10" />
	<path
   clip-rule="evenodd"
   stroke-miterlimit="10"
   d="m 474.16,520.432 c 5.527,-0.216 11.042,-0.04 16.58,-0.603 4.83,-0.489 9.748,-0.115 14.627,-0.09 0.46,0.004 1.025,0.155 1.096,0.758 0.034,0.283 -0.071,0.656 -0.251,0.879 -4.163,5.186 -8.345,10.358 -12.522,15.53 -1.194,1.475 -2.706,2.029 -4.635,2.271 -4.226,0.53 -8.448,0.417 -12.676,0.492 -1.354,0.024 -2.602,-0.159 -3.519,-1.293 -4.402,-5.441 -8.817,-10.871 -13.2,-16.327 -0.632,-0.788 -0.216,-1.598 0.824,-1.604 4.558,-0.032 9.117,-0.013 13.676,-0.013 z"
   id="path11"
   inkscape:connector-curvature="0"
   style="fill:none;stroke:#ffffff;stroke-width:0.5;stroke-miterlimit:10" />
	<path
   clip-rule="evenodd"
   stroke-miterlimit="10"
   d="m 441.115,497.905 c 2.459,-0.318 4.854,-0.764 7.267,-0.913 6.82,-0.42 13.645,-0.892 20.474,-1.023 8.484,-0.162 16.983,-0.234 25.458,0.096 5.517,0.215 11.076,0.646 16.488,2.022 1.425,0.362 2.82,0.722 3.993,1.784 -0.471,1.094 -1.38,0.534 -2.034,0.677 -0.633,0.139 -1.299,0.177 -1.95,0.175 -5.045,-0.014 -10.078,-0.01 -15.127,0.338 -5.519,0.377 -11.079,0.109 -16.613,0.344 -7.017,0.297 -14.046,-0.106 -21.061,0.504 -2.25,0.194 -4.547,-0.192 -6.826,-0.252 -1.467,-0.037 -2.944,-0.043 -4.405,0.08 -3.688,0.306 -3.871,0.218 -5.664,-3.832 z"
   id="path13"
   inkscape:connector-curvature="0"
   style="fill:none;stroke:#ffffff;stroke-width:0.5;stroke-miterlimit:10" />
	<path
   clip-rule="evenodd"
   stroke-miterlimit="10"
   d="m 516.234,509.027 c -0.171,1.128 -1.141,1.617 -1.675,2.413 -1.008,1.507 -2.367,1.928 -4.155,1.925 -9.947,-0.017 -19.895,0.034 -29.841,0.162 -4.216,0.054 -8.428,0.401 -12.644,0.532 -4.066,0.125 -8.138,0.105 -12.205,0.228 -1.365,0.041 -2.546,-0.126 -3.586,-1.127 -1.529,-1.474 -2.381,-3.108 -1.711,-3.696 1.136,-0.998 2.43,-0.532 3.703,-0.254 0.789,0.172 1.631,0.423 2.401,0.311 8.752,-1.282 17.568,-0.503 26.35,-0.829 8.634,-0.321 17.283,-0.209 25.926,-0.315 1.131,-0.015 2.259,-0.231 3.392,-0.296 1.438,-0.085 2.897,-0.171 4.045,0.946 z"
   id="path15"
   inkscape:connector-curvature="0"
   style="fill:none;stroke:#ffffff;stroke-width:0.5;stroke-miterlimit:10" />
	<path
   clip-rule="evenodd"
   stroke-miterlimit="10"
   d="m 445.713,503.807 c 5.724,-0.048 11.252,-0.01 16.776,-0.166 4.875,-0.139 9.743,0.257 14.632,-0.502 3.497,-0.542 7.124,-0.255 10.695,-0.293 9.127,-0.099 18.256,-0.176 27.385,-0.251 0.974,-0.007 1.957,-0.007 2.922,0.109 0.9,0.109 1.444,0.692 1.442,1.646 -0.003,0.899 -0.451,1.56 -1.293,1.857 -0.447,0.158 -0.955,0.197 -1.438,0.198 -8.799,0.036 -17.598,0.054 -26.396,0.084 -2.77,0.01 -5.559,-0.099 -8.271,0.582 -1.639,0.41 -3.245,-0.006 -4.867,0.022 -7.985,0.136 -15.971,0.251 -23.956,0.346 -1.464,0.016 -2.948,0.02 -4.391,-0.188 -1.757,-0.25 -2.87,-1.308 -3.24,-3.444 z"
   id="path17"
   inkscape:connector-curvature="0"
   style="fill:none;stroke:#ffffff;stroke-width:0.5;stroke-miterlimit:10" />
	<path
   clip-rule="evenodd"
   stroke-miterlimit="10"
   d="m 443.732,16.832 c 27.999,-3.601 56.226,-4.583 84.507,-0.828 -3.581,0 -7.16,-0.018 -10.741,0.004 -8.973,0.053 -17.95,-0.057 -26.915,0.229 -14.802,0.473 -29.605,0.666 -44.412,0.739 -0.813,0.005 -1.626,-0.093 -2.439,-0.144 z"
   id="path19"
   inkscape:connector-curvature="0"
   style="fill:none;stroke:#ffffff;stroke-width:0.5;stroke-miterlimit:10" />
	<path
   clip-rule="evenodd"
   stroke-miterlimit="10"
   d="m 479.265,515.688 c 6.017,-0.189 11.877,-0.506 17.74,-0.511 4.038,-10e-4 8.059,-0.783 12.097,-0.227 0.414,0.058 0.911,0.357 1.144,0.699 0.33,0.482 -0.162,0.886 -0.451,1.261 -0.897,1.164 -2.173,1.334 -3.515,1.303 -2.115,-0.049 -4.232,-0.184 -6.346,-0.15 -10.095,0.15 -20.19,0.466 -30.284,0.453 -3.237,-0.003 -6.424,0.424 -9.641,0.442 -0.959,0.006 -1.958,-0.089 -2.871,-0.362 -0.779,-0.233 -1.562,-0.914 -1.553,-1.725 0.01,-1.006 1.037,-1.067 1.833,-1.112 1.139,-0.062 2.28,-0.067 3.42,-0.069 6.195,-0.006 12.387,-0.002 18.427,-0.002 z"
   id="path21"
   inkscape:connector-curvature="0"
   style="fill:none;stroke:#ffffff;stroke-width:0.5;stroke-miterlimit:10" />
	<path
   clip-rule="evenodd"
   stroke-miterlimit="10"
   d="m 523.688,461.932 c 0.083,1.073 0.108,1.396 0.132,1.72 0.237,3.142 -0.65,3.942 -3.829,3.477 -0.917,-0.134 -1.442,-0.671 -1.65,-1.529 -0.47,-1.929 -0.222,-3.882 -0.035,-5.807 0.126,-1.328 1.516,-1.964 3.506,-1.838 1.294,0.081 1.775,0.647 1.869,2.295 0.043,0.807 0.007,1.62 0.007,1.682 z"
   id="path23"
   inkscape:connector-curvature="0"
   style="fill:none;stroke:#ffffff;stroke-width:0.5;stroke-miterlimit:10" />
	<path
   clip-rule="evenodd"
   stroke-miterlimit="10"
   d="m 506.648,462.887 c 0.003,0.804 0.049,1.611 -0.008,2.41 -0.099,1.373 -0.826,2.007 -2.185,1.996 -1.346,-0.013 -2.19,-0.673 -2.256,-1.961 -0.08,-1.603 -0.083,-3.217 -0.01,-4.819 0.062,-1.329 0.761,-1.848 2.266,-1.894 1.522,-0.047 2.102,0.424 2.183,1.855 0.049,0.802 0.01,1.608 0.01,2.413 z"
   id="path25"
   inkscape:connector-curvature="0"
   style="fill:none;stroke:#ffffff;stroke-width:0.5;stroke-miterlimit:10" />
	<path
   clip-rule="evenodd"
   stroke-miterlimit="10"
   d="m 513.186,470.282 c -1.232,-2.017 -1.236,-2.008 -3.856,-3.077 -0.449,-0.184 -0.963,-0.511 -0.725,-1.065 0.168,-0.392 0.596,-0.789 0.999,-0.94 1.396,-0.531 2.865,-0.518 4.343,-0.429 0.979,0.06 2.127,-0.09 2.354,1.162 0.18,0.986 -0.79,1.314 -1.542,1.578 -1.355,0.474 -0.779,2.001 -1.573,2.771 z"
   id="path27"
   inkscape:connector-curvature="0"
   style="fill:none;stroke:#ffffff;stroke-width:0.5;stroke-miterlimit:10" />
	<path
   clip-rule="evenodd"
   stroke-miterlimit="10"
   d="m 512.874,477.898 c -0.522,-0.082 -0.798,-0.381 -0.74,-0.92 0.051,-0.467 0.224,-0.943 0.739,-0.99 0.614,-0.056 0.633,0.504 0.672,0.926 0.045,0.481 -0.134,0.869 -0.671,0.984 z"
   id="path29"
   inkscape:connector-curvature="0"
   style="fill:none;stroke:#ffffff;stroke-width:0.5;stroke-miterlimit:10" />
	<path
   clip-rule="evenodd"
   stroke-miterlimit="10"
   d="m 445.927,199 c 0.161,-1.403 0.164,-2.565 0.442,-3.657 0.907,-3.566 4.125,-5.4 7.81,-5.134 5.589,0.403 9.369,6.269 7.743,11.778 -1.595,5.399 -7.845,7.886 -12.596,4.899 -1.592,-1 -2.713,-2.372 -3.026,-4.257 -0.211,-1.281 -0.27,-2.587 -0.373,-3.629 z m 12.942,0.832 c 0.072,-1.626 -0.009,-3.22 -0.858,-4.695 -1.534,-2.664 -6.376,-3.401 -8.482,-1.268 -2.781,2.814 -2.853,7.738 -0.156,10.587 2.185,2.309 5.406,2.324 7.797,0.216 1.528,-1.347 1.676,-3.036 1.699,-4.84 z"
   id="path31"
   inkscape:connector-curvature="0"
   style="fill-rule:evenodd;stroke:#ffffff;stroke-width:0.5;stroke-miterlimit:10" />
	<path
   clip-rule="evenodd"
   stroke-miterlimit="10"
   d="m 444.755,437.387 c 0.274,-5.65 5.913,-9.118 11.068,-6.495 2.521,1.282 3.633,3.716 4.189,6.274 0.672,3.083 -1.828,7.609 -4.656,9.029 -3.81,1.914 -8.296,0.043 -9.987,-4.228 -0.542,-1.368 -0.77,-2.83 -0.614,-4.58 z m 12.21,1.086 c 1.226,-2.239 -0.71,-3.313 -2.057,-4.679 -2.927,-2.962 -8.068,-0.41 -8.455,3.398 -0.207,2.041 0.289,3.911 1.384,5.573 1.589,2.41 4.31,2.836 6.795,1.348 2.135,-1.275 2.587,-3.193 2.333,-5.64 z"
   id="path33"
   inkscape:connector-curvature="0"
   style="fill-rule:evenodd;stroke:#ffffff;stroke-width:0.5;stroke-miterlimit:10" />
	<path
   clip-rule="evenodd"
   stroke-miterlimit="10"
   d="m 454.823,181.076 c -0.351,-1.398 -0.835,-2.78 -1.005,-4.2 -0.122,-1.014 -0.791,-1.178 -1.423,-1.625 -0.644,-0.454 -0.461,-1.51 0.186,-1.517 2.821,-0.028 4.235,-2.394 6.304,-3.659 l -0.093,0.063 c 0.799,0.086 1.625,0.072 2.391,0.278 3.379,0.911 5.077,3.103 5.225,6.626 0.13,3.131 -1.932,5.502 -4.975,6.129 -2.679,0.553 -4.643,-0.662 -6.61,-2.095 z m 8.908,-3.359 c 0.119,-2.308 -0.565,-4.032 -2.641,-4.938 -0.407,-0.177 -1.019,-0.237 -1.397,-0.057 -0.813,0.387 -0.477,1.074 -0.16,1.65 0.866,1.57 1.75,3.129 2.637,4.688 0.198,0.349 0.512,0.421 0.857,0.216 0.125,-0.074 0.262,-0.192 0.31,-0.321 0.168,-0.455 0.297,-0.923 0.394,-1.238 z m -6.841,-2.367 c -0.232,0.219 -0.594,0.394 -0.645,0.634 -0.394,1.867 -0.074,3.509 1.594,4.708 1.084,0.778 2.377,1.01 2.575,0.392 0.28,-0.873 -0.192,-1.545 -0.617,-2.218 -0.687,-1.09 -1.373,-2.182 -2.116,-3.232 -0.139,-0.196 -0.545,-0.203 -0.791,-0.284 z"
   id="path35"
   inkscape:connector-curvature="0"
   style="fill-rule:evenodd;stroke:#ffffff;stroke-width:0.5;stroke-miterlimit:10" />
	<path
   clip-rule="evenodd"
   stroke-miterlimit="10"
   d="m 458.884,170.075 c -0.441,-0.191 -0.914,-0.331 -1.313,-0.587 -0.493,-0.315 -0.562,-0.936 -0.054,-1.13 3.188,-1.216 6.308,-1.145 9.266,0.749 4.058,2.597 5.953,11.042 0.005,15.541 -4.753,3.596 -9.103,2.914 -13.05,-1.913 1.161,-0.016 2.155,0.417 3.194,0.924 3.319,1.618 6.75,1.223 8.981,-0.881 2.537,-2.394 3.143,-6.344 1.444,-9.773 -0.751,-1.519 -2.024,-2.538 -3.627,-2.996 -1.63,-0.465 -3.339,-1.459 -4.94,0.13 l 0.094,-0.064 z"
   id="path37"
   inkscape:connector-curvature="0"
   style="fill-rule:evenodd;stroke:#ffffff;stroke-width:0.5;stroke-miterlimit:10" />
	<path
   clip-rule="evenodd"
   stroke-miterlimit="10"
   d="m 458.791,170.138 c 1.601,-1.589 3.311,-0.595 4.94,-0.13 1.603,0.458 2.876,1.477 3.627,2.996 1.699,3.43 1.093,7.38 -1.444,9.773 -2.232,2.104 -5.662,2.5 -8.981,0.881 -1.039,-0.507 -2.033,-0.94 -3.194,-0.924 -0.317,-0.997 0.88,-1.003 1.084,-1.659 1.967,1.433 3.932,2.647 6.608,2.096 3.043,-0.627 5.105,-2.998 4.975,-6.129 -0.147,-3.523 -1.845,-5.715 -5.225,-6.626 -0.765,-0.206 -1.591,-0.191 -2.39,-0.278 z"
   id="path39"
   inkscape:connector-curvature="0"
   style="fill:none;stroke:#ffffff;stroke-width:0.5;stroke-miterlimit:10" />
	<path
   clip-rule="evenodd"
   stroke-miterlimit="10"
   d="m 514.009,136.364 c 0.912,0.05 1.578,0.765 1.376,1.515 -0.194,0.718 -0.756,0.936 -1.434,0.913 -0.885,-0.029 -1.563,-0.758 -1.387,-1.485 0.184,-0.758 0.799,-0.879 1.445,-0.943 z"
   id="path41"
   inkscape:connector-curvature="0"
   style="fill-rule:evenodd;stroke:#ffffff;stroke-width:0.5;stroke-miterlimit:10" />
	<path
   clip-rule="evenodd"
   stroke-miterlimit="10"
   d="m 485.923,136.716 c 0.614,0.127 1.198,0.277 1.33,1.042 0.132,0.763 -0.535,1.56 -1.309,1.53 -0.776,-0.03 -1.506,-0.839 -1.371,-1.523 0.103,-0.533 0.755,-1.04 1.35,-1.049 z"
   id="path43"
   inkscape:connector-curvature="0"
   style="fill-rule:evenodd;stroke:#ffffff;stroke-width:0.5;stroke-miterlimit:10" />
	<path
   clip-rule="evenodd"
   stroke-miterlimit="10"
   d="m 537.009,137.367 c -0.137,0.669 -0.414,1.23 -1.174,1.336 -0.782,0.108 -1.61,-0.612 -1.558,-1.449 0.041,-0.649 0.285,-1.278 1.108,-1.348 0.752,-0.062 1.581,0.688 1.624,1.461 z"
   id="path45"
   inkscape:connector-curvature="0"
   style="fill-rule:evenodd;stroke:#ffffff;stroke-width:0.5;stroke-miterlimit:10" />
	<path
   clip-rule="evenodd"
   stroke-miterlimit="10"
   d="m 425.443,138.234 c 0.099,0.698 -0.17,1.167 -0.859,1.356 -0.569,0.156 -0.869,-0.242 -1.021,-0.651 -0.308,-0.83 0.266,-1.664 1.023,-1.588 0.46,0.045 0.787,0.381 0.857,0.883 z"
   id="path47"
   inkscape:connector-curvature="0"
   style="fill-rule:evenodd;stroke:#ffffff;stroke-width:0.5;stroke-miterlimit:10" />
	<path
   clip-rule="evenodd"
   stroke-miterlimit="10"
   d="m 458.154,138.635 c -0.167,0.77 -0.691,1.046 -1.383,1.023 -0.79,-0.025 -1.07,-0.56 -1.031,-1.256 0.045,-0.811 0.635,-1.025 1.319,-0.965 0.709,0.063 1.133,0.46 1.095,1.198 z"
   id="path49"
   inkscape:connector-curvature="0"
   style="fill-rule:evenodd;stroke:#ffffff;stroke-width:0.5;stroke-miterlimit:10" />
	<path
   clip-rule="evenodd"
   stroke-miterlimit="10"
   d="m 435.068,139.792 c -0.765,-0.089 -1.3,-0.353 -1.407,-1.066 -0.126,-0.843 0.537,-1.085 1.131,-1.12 0.611,-0.036 1.207,0.232 1.301,0.996 0.104,0.848 -0.584,0.953 -1.025,1.19 z"
   id="path51"
   inkscape:connector-curvature="0"
   style="fill-rule:evenodd;stroke:#ffffff;stroke-width:0.5;stroke-miterlimit:10" />
	<path
   clip-rule="evenodd"
   stroke-miterlimit="10"
   d="m 458.869,199.832 c -0.023,1.804 -0.171,3.493 -1.699,4.84 -2.391,2.108 -5.613,2.093 -7.797,-0.216 -2.697,-2.849 -2.625,-7.772 0.156,-10.587 2.106,-2.133 6.948,-1.396 8.482,1.268 0.849,1.475 0.93,3.069 0.858,4.695 z"
   id="path53"
   inkscape:connector-curvature="0"
   style="fill:none;stroke:#ffffff;stroke-width:0.5;stroke-miterlimit:10" />
	<path
   clip-rule="evenodd"
   stroke-miterlimit="10"
   d="m 456.965,438.473 c 0.254,2.447 -0.198,4.365 -2.333,5.641 -2.486,1.488 -5.207,1.063 -6.795,-1.348 -1.096,-1.662 -1.591,-3.532 -1.384,-5.573 0.387,-3.809 5.528,-6.36 8.455,-3.398 1.347,1.364 3.283,2.438 2.057,4.678 z"
   id="path55"
   inkscape:connector-curvature="0"
   style="fill:none;stroke:#ffffff;stroke-width:0.5;stroke-miterlimit:10" />
	<path
   clip-rule="evenodd"
   stroke-miterlimit="10"
   d="m 463.731,177.717 c -0.098,0.315 -0.227,0.783 -0.393,1.238 -0.048,0.129 -0.185,0.247 -0.31,0.321 -0.346,0.205 -0.659,0.132 -0.857,-0.216 -0.888,-1.559 -1.771,-3.118 -2.637,-4.688 -0.317,-0.576 -0.653,-1.263 0.16,-1.65 0.378,-0.18 0.99,-0.12 1.397,0.057 2.075,0.906 2.759,2.631 2.64,4.938 z"
   id="path57"
   inkscape:connector-curvature="0"
   style="fill:none;stroke:#ffffff;stroke-width:0.5;stroke-miterlimit:10" />
	<path
   clip-rule="evenodd"
   stroke-miterlimit="10"
   d="m 456.89,175.35 c 0.246,0.082 0.652,0.088 0.792,0.284 0.744,1.051 1.429,2.142 2.116,3.232 0.424,0.673 0.896,1.345 0.617,2.218 -0.198,0.618 -1.491,0.386 -2.575,-0.392 -1.668,-1.199 -1.988,-2.841 -1.594,-4.708 0.05,-0.241 0.412,-0.416 0.644,-0.634 z"
   id="path59"
   inkscape:connector-curvature="0"
   style="fill:none;stroke:#ffffff;stroke-width:0.5;stroke-miterlimit:10" />
</g>
</svg>