<?xml version="1.0" encoding="UTF-8" standalone="no"?>
<!-- Generator: Adobe Illustrator 16.0.3, SVG Export Plug-In . SVG Version: 6.00 Build 0)  -->

<svg
   xmlns:dc="http://purl.org/dc/elements/1.1/"
   xmlns:cc="http://creativecommons.org/ns#"
   xmlns:rdf="http://www.w3.org/1999/02/22-rdf-syntax-ns#"
   xmlns:svg="http://www.w3.org/2000/svg"
   xmlns="http://www.w3.org/2000/svg"
   xmlns:sodipodi="http://sodipodi.sourceforge.net/DTD/sodipodi-0.dtd"
   xmlns:inkscape="http://www.inkscape.org/namespaces/inkscape"
   version="1.1"
   id="Ebene_1"
   x="0px"
   y="0px"
   width="58.598007"
   height="234.10368"
   viewBox="0 0 58.598007 234.10368"
   enable-background="new 0 0 960 560"
   xml:space="preserve"
   inkscape:version="0.48.2 r9819"
   sodipodi:docname="08_Markierungsbombe.svg"><metadata
   id="metadata25"><rdf:RDF><cc:Work
       rdf:about=""><dc:format>image/svg+xml</dc:format><dc:type
         rdf:resource="http://purl.org/dc/dcmitype/StillImage" /></cc:Work></rdf:RDF></metadata><defs
   id="defs23" /><sodipodi:namedview
   pagecolor="#ffffff"
   bordercolor="#666666"
   borderopacity="1"
   objecttolerance="10"
   gridtolerance="10"
   guidetolerance="10"
   inkscape:pageopacity="0"
   inkscape:pageshadow="2"
   inkscape:window-width="640"
   inkscape:window-height="480"
   id="namedview21"
   showgrid="false"
   fit-margin-top="0"
   fit-margin-left="0"
   fit-margin-right="0"
   fit-margin-bottom="0"
   inkscape:zoom="0.33541667"
   inkscape:cx="29.095175"
   inkscape:cy="117.22878"
   inkscape:window-x="0"
   inkscape:window-y="0"
   inkscape:window-maximized="0"
   inkscape:current-layer="Ebene_1" />
<g
   id="g3"
   transform="translate(-450.90483,-163.12509)">
	<path
   clip-rule="evenodd"
   d="m 482.209,168.811 c 0.334,0.518 0.564,0.869 0.801,1.234 1.242,-1.499 1.592,-1.576 3.289,-0.672 -0.293,0.391 -0.572,0.764 -0.955,1.275 0.4,0.309 0.805,0.622 1.178,0.911 0.24,-0.189 0.4,-0.252 0.445,-0.361 0.186,-0.459 0.281,-0.961 0.508,-1.395 0.678,-1.295 2.27,-1.409 2.85,-0.123 0.484,1.066 0.625,2.292 0.418,3.492 -0.031,0.173 -0.27,0.309 -0.395,0.444 -1.088,-0.016 -0.867,-1.184 -1.406,-1.637 -1.215,0.803 0.135,1.913 -0.523,2.937 -0.529,-0.386 -1.01,-0.733 -1.508,-1.096 -0.35,0.097 -0.74,0.206 -1.252,0.347 -0.158,-0.561 -0.287,-1.017 -0.469,-1.659 -1.066,-0.318 -2.244,-0.671 -3.627,-1.085 -0.08,-0.177 -0.281,-0.617 -0.525,-1.155 -0.481,0.251 -0.886,0.463 -1.296,0.678 -0.771,-1.661 -0.602,-2.043 0.89,-2.131 0.495,-0.028 0.993,-0.004 1.577,-0.004 z"
   id="path5"
   inkscape:connector-curvature="0"
   style="fill-rule:evenodd" />
	<path
   clip-rule="evenodd"
   d="m 502.066,172.101 c 0.021,0.282 0.066,0.566 0.059,0.848 -0.057,1.673 -0.635,2.175 -2.285,2.005 -1.238,-0.128 -1.791,-0.684 -1.41,-1.832 0.234,-0.704 0.086,-1.215 -0.027,-1.844 -0.201,-1.117 0.697,-2.331 1.648,-2.367 1.299,-0.049 2.125,0.75 2.158,2.112 0.01,0.357 -0.037,0.718 -0.061,1.076 -0.027,0.001 -0.054,0.002 -0.082,0.002 z"
   id="path7"
   inkscape:connector-curvature="0"
   style="fill-rule:evenodd" />
	<path
   clip-rule="evenodd"
   d="m 469.6,168.366 c 0.869,0.177 1.564,0.278 2.229,0.479 0.207,0.062 0.499,0.432 0.46,0.59 -0.07,0.288 -0.324,0.566 -0.568,0.764 -0.141,0.113 -0.422,0.032 -0.627,0.089 -0.555,0.151 -1.2,0.298 -1.216,1.004 -0.015,0.632 0.072,1.307 0.931,1.471 0.267,0.051 0.6,0.198 0.731,0.408 0.198,0.318 0.419,0.787 0.319,1.091 -0.158,0.491 -0.596,0.725 -1.208,0.506 -1.483,-0.527 -2.466,-1.996 -2.126,-3.523 0.212,-0.945 0.675,-1.832 1.075,-2.879 z"
   id="path9"
   inkscape:connector-curvature="0"
   style="fill-rule:evenodd" />
	<path
   clip-rule="evenodd"
   d="m 496.98,174.675 c -1.17,0.545 -1.697,0.473 -1.914,-0.631 -0.23,-1.177 -0.182,-2.417 -0.158,-3.627 0.004,-0.229 0.441,-0.609 0.705,-0.632 0.279,-0.023 0.623,0.255 0.871,0.479 0.127,0.116 0.131,0.395 0.15,0.604 0.12,1.248 0.229,2.498 0.346,3.807 z"
   id="path11"
   inkscape:connector-curvature="0"
   style="fill-rule:evenodd" />
	<path
   clip-rule="evenodd"
   d="m 467.672,174.251 c -1.824,0.408 -2.333,0.136 -2.666,-1.525 -0.179,-0.896 -0.33,-1.811 -0.348,-2.719 -0.004,-0.238 0.508,-0.593 0.84,-0.685 0.15,-0.042 0.684,0.514 0.634,0.653 -0.615,1.74 0.337,2.828 1.486,3.867 0.078,0.071 0.039,0.269 0.054,0.409 z"
   id="path13"
   inkscape:connector-curvature="0"
   style="fill-rule:evenodd" />
	<path
   clip-rule="evenodd"
   d="m 479.371,173.889 c 0.186,-0.869 0.323,-1.718 1.253,-1.866 0.544,-0.087 0.88,0.39 0.896,0.958 0.018,0.615 0.25,1.335 -0.486,1.709 -0.934,0.473 -1.171,-0.42 -1.663,-0.801 z"
   id="path15"
   inkscape:connector-curvature="0"
   style="fill-rule:evenodd" />
	<g
   id="g17">
		<path
   clip-rule="evenodd"
   d="m 458.806,163.541 c 16.69,-0.875 33.329,-0.136 49.995,0.111 0.299,0.715 0.697,1.225 0.699,1.734 0.014,7.061 -0.027,14.121 -0.055,21.358 -1.006,0.294 -1.822,0.424 -2.539,0.765 -1.133,0.538 -2.377,1.028 -3.264,1.866 -3.789,3.582 -7.467,7.284 -11.35,11.104 1.793,3.425 2.246,7.362 3.041,11.227 1.223,5.944 2.641,11.85 3.908,17.786 0.561,2.627 0.951,5.29 1.434,7.935 0.152,0.837 0.338,1.668 0.523,2.498 1.576,7.036 3.176,14.067 4.715,21.111 0.33,1.508 0.623,3.062 0.623,4.595 0.004,9.058 -0.104,18.115 -0.135,27.173 -0.023,6.079 0.018,12.157 0.029,18.236 0.002,0.566 0.037,1.138 -0.008,1.701 -0.545,6.767 -0.359,13.54 -0.334,20.317 0.037,9.737 0.074,19.491 -0.439,29.208 -0.291,5.521 -2.139,10.676 -6.053,15.064 -2.705,3.033 -5.861,5.225 -9.244,7.244 -0.688,0.41 -1.533,0.551 -2.408,0.854 -0.289,0.672 -0.742,1.418 -0.926,2.227 -0.268,1.191 -0.74,2.148 -1.934,2.586 -1.4,0.512 -1.758,1.73 -2.154,2.973 2.094,2.318 4.582,0.207 6.602,0.445 1.088,1.252 1.107,2.246 0.117,3.369 -1.039,-0.18 -2.137,-0.395 -3.242,-0.557 -1.246,-0.184 -2.439,-0.455 -3.719,0.227 -0.813,0.434 -2.074,0.715 -2.854,0.389 -2.517,-1.049 -4.894,-0.604 -7.339,0.063 -0.356,0.098 -0.809,-0.154 -1.404,-0.285 -0.135,-0.471 -0.428,-0.994 -0.404,-1.504 0.095,-1.955 0.868,-2.588 2.627,-2.283 1.245,0.217 2.484,0.463 3.734,0.643 0.236,0.033 0.51,-0.189 0.797,-0.305 0.533,-2.781 -2.666,-2.957 -3.523,-5.15 0.215,-0.52 0.52,-1.26 0.918,-2.227 -0.271,-0.203 -0.575,-0.535 -0.953,-0.693 -0.901,-0.381 -1.839,-0.672 -2.759,-1.008 -4.756,-1.732 -8.56,-4.354 -11.318,-8.939 -2.989,-4.969 -4.104,-10.109 -4.053,-15.715 0.083,-9.07 0.16,-18.143 0.2,-27.214 0.033,-7.178 0.007,-14.354 0.007,-21.775 -0.638,-0.24 -1.405,-0.535 -2.177,-0.818 -0.662,-0.243 -1.388,-0.378 -1.98,-0.733 -0.89,-0.535 -1.465,-1.323 -1.261,-2.476 0.167,-0.938 0.673,-1.503 1.614,-1.728 1.224,-0.293 2.436,-0.638 3.827,-1.006 0.134,-1.936 0.482,-3.762 0.341,-5.55 -0.472,-5.947 0.127,-11.903 -0.18,-17.824 -0.242,-4.691 0.291,-9.34 0.079,-14.003 -0.204,-4.485 1.231,-8.684 2.276,-12.925 2.604,-10.58 5.395,-21.115 8.148,-31.658 1.284,-4.911 2.684,-9.791 3.977,-14.7 0.452,-1.717 1.043,-3.303 0.376,-5.302 -0.466,-1.401 0.451,-3.264 0.794,-5.165 -0.18,-0.287 -0.373,-0.88 -0.781,-1.206 -3.851,-3.077 -7.211,-6.813 -11.779,-8.929 -1.023,-0.475 -1.49,-1.261 -1.667,-2.284 -0.097,-0.557 -0.161,-1.129 -0.149,-1.692 0.129,-5.929 0.271,-11.856 0.432,-17.784 0.007,-0.261 0.2,-0.516 0.552,-1.371 z m 0.075,101.218 c -0.891,3.215 -0.368,6.627 -0.617,9.956 -0.229,3.073 0.19,6.188 0.16,9.283 -0.056,5.797 -0.315,11.592 -0.336,17.388 -0.033,8.911 0.123,17.821 0.092,26.731 -0.033,9.63 -0.221,19.26 -0.268,28.889 -0.008,1.641 -0.318,3.396 0.846,5.068 2.781,0.086 5.605,0.201 8.43,0.252 2.818,0.051 5.639,0.035 8.459,0.049 2.832,0.016 5.667,-0.053 8.494,0.068 2.68,0.113 5.447,-0.381 8.035,0.959 -1.049,0.398 -2.105,0.57 -3.162,0.563 -9.199,-0.078 -18.398,-0.193 -27.597,-0.281 -1.098,-0.01 -2.286,-0.289 -3.246,0.852 0.357,5.57 2.964,10.205 6.947,13.971 2.348,2.217 5.261,4.139 8.537,4.488 4.195,0.447 8.462,0.293 12.699,0.234 1.066,-0.016 2.195,-0.514 3.176,-1.021 6.285,-3.254 9.438,-8.727 10.701,-15.461 0.145,-0.777 -0.045,-1.615 -0.068,-2.205 -1.42,-1.158 -3.229,0.193 -4.596,-1.525 1.85,-0.189 3.32,-0.34 5.041,-0.516 0.203,-1.982 0.535,-3.795 0.545,-5.609 0.02,-3.537 -0.223,-7.074 -0.211,-10.609 0.029,-8.488 0.168,-16.975 0.213,-25.461 0.053,-9.614 0.035,-19.228 0.078,-28.842 0.033,-7.784 0.119,-15.569 0.158,-23.354 0.006,-1.254 -0.121,-2.51 -0.184,-3.731 -7.572,-0.67 -38.076,-0.781 -42.326,-0.136 z m 21.345,-64.856 c -0.325,-0.925 -0.64,-1.429 -0.651,-1.939 -0.024,-0.976 0.289,-1.983 0.14,-2.927 -0.089,-0.56 -0.699,-1.258 -1.241,-1.474 -0.798,-0.315 -1.751,-0.102 -2.215,0.754 -0.327,0.602 -0.422,1.333 -0.604,2.011 -1.973,7.373 -3.947,14.746 -5.911,22.122 -1.487,5.589 -2.983,11.175 -4.431,16.773 -1.803,6.976 -3.693,13.934 -5.252,20.963 -0.465,2.095 -1.457,4.243 -0.951,6.83 12.693,0.117 25.236,0.243 37.779,0.332 1.24,0.009 2.482,-0.209 4.084,-0.354 0.037,-2.588 -0.365,-4.933 -0.781,-7.23 -2.068,-11.4 -4.234,-22.782 -6.355,-34.171 -0.336,-1.803 -0.641,-3.611 -0.938,-5.421 -0.963,-5.863 -1.852,-11.74 -2.906,-17.587 -0.391,-2.153 -0.592,-4.406 -1.873,-6.768 -0.701,0.809 -1.563,1.339 -1.637,1.963 -0.424,3.553 -2.889,4.913 -6.257,6.123 z m -20.395,-14.982 c 15.02,1.262 29.476,0.538 43.904,0.932 0.557,0.015 1.129,-0.109 1.676,-0.24 0.254,-0.061 0.467,-0.293 0.887,-0.572 0.064,-3.113 0.236,-6.359 0.166,-9.6 -0.07,-3.316 0.371,-6.677 -0.338,-10.071 -1.52,-0.134 -2.773,-0.333 -4.031,-0.343 -13.326,-0.102 -26.654,-0.182 -39.98,-0.227 -0.646,-0.003 -1.293,0.376 -2.137,0.638 -0.505,6.457 -0.493,12.775 -0.147,19.483 z m 40.669,4.413 c -3.131,0.957 -6.264,1.914 -9.352,2.858 -0.096,2.043 0.609,3.505 1.258,5.252 3.555,-2.05 5.778,-5.117 8.094,-8.11 z m -19.439,-1.709 c -0.258,3.528 -0.345,6.715 0.145,10.185 0.717,-0.372 1.275,-0.473 1.367,-0.738 1.037,-2.939 0.705,-5.948 0.242,-8.935 -0.032,-0.202 -0.899,-0.275 -1.754,-0.512 z m -12.416,2.247 c -0.107,0.287 -0.215,0.575 -0.321,0.862 1.214,0.882 2.392,1.818 3.657,2.62 0.678,0.43 1.5,0.163 1.715,-0.586 0.164,-0.573 -0.049,-1.325 -0.295,-1.914 -0.12,-0.289 -0.678,-0.497 -1.065,-0.557 -1.223,-0.189 -2.461,-0.289 -3.691,-0.425 z"
   id="path19"
   inkscape:connector-curvature="0"
   style="fill-rule:evenodd" />
	</g>
</g>
</svg>