<?xml version="1.0" encoding="UTF-8" standalone="no"?>
<!-- Generator: Adobe Illustrator 16.0.3, SVG Export Plug-In . SVG Version: 6.00 Build 0)  -->

<svg
   xmlns:dc="http://purl.org/dc/elements/1.1/"
   xmlns:cc="http://creativecommons.org/ns#"
   xmlns:rdf="http://www.w3.org/1999/02/22-rdf-syntax-ns#"
   xmlns:svg="http://www.w3.org/2000/svg"
   xmlns="http://www.w3.org/2000/svg"
   xmlns:sodipodi="http://sodipodi.sourceforge.net/DTD/sodipodi-0.dtd"
   xmlns:inkscape="http://www.inkscape.org/namespaces/inkscape"
   version="1.1"
   id="Ebene_1"
   x="0px"
   y="0px"
   width="25.447868"
   height="86.747871"
   viewBox="0 0 25.447868 86.747871"
   enable-background="new 0 0 960 560"
   xml:space="preserve"
   inkscape:version="0.48.2 r9819"
   sodipodi:docname="08_Stabbrandbomben.svg"><metadata
   id="metadata21"><rdf:RDF><cc:Work
       rdf:about=""><dc:format>image/svg+xml</dc:format><dc:type
         rdf:resource="http://purl.org/dc/dcmitype/StillImage" /></cc:Work></rdf:RDF></metadata><defs
   id="defs19" /><sodipodi:namedview
   pagecolor="#ffffff"
   bordercolor="#666666"
   borderopacity="1"
   objecttolerance="10"
   gridtolerance="10"
   guidetolerance="10"
   inkscape:pageopacity="0"
   inkscape:pageshadow="2"
   inkscape:window-width="640"
   inkscape:window-height="480"
   id="namedview17"
   showgrid="false"
   fit-margin-top="0"
   fit-margin-left="0"
   fit-margin-right="0"
   fit-margin-bottom="0"
   inkscape:zoom="0.33541667"
   inkscape:cx="12.566767"
   inkscape:cy="44.229287"
   inkscape:window-x="0"
   inkscape:window-y="0"
   inkscape:window-maximized="0"
   inkscape:current-layer="Ebene_1" />
<g
   id="g3"
   transform="translate(-467.43323,-237.48142)">
	<g
   id="g5">
		<path
   clip-rule="evenodd"
   d="m 492.451,261.424 c 0.588,0.076 0.371,0.625 0.369,1.021 -0.012,1.451 -0.08,2.901 -0.09,4.353 -0.02,2.894 -0.012,5.787 -0.023,8.681 -0.006,1.658 -0.041,3.317 -0.029,4.976 0.008,1.067 0.115,2.131 0.104,3.198 -0.02,1.91 -0.098,3.82 -0.148,5.732 -0.01,0.393 -0.01,0.787 -0.016,1.182 -0.018,0.996 -0.039,1.99 -0.051,2.984 -0.041,2.949 -0.09,5.898 -0.109,8.846 -0.004,0.799 0.121,1.6 0.129,2.398 0.01,0.92 -0.059,1.838 -0.061,2.758 -0.002,0.582 0.074,1.162 0.086,1.744 0.01,0.514 -0.029,1.029 -0.033,1.543 -0.02,1.916 -0.043,3.832 -0.049,5.746 -0.008,2.496 -0.002,4.99 -0.002,7.635 -0.404,0 -0.799,0 -1.191,0 -1.445,-0.004 -2.891,0.006 -4.334,-0.023 -0.289,-0.008 -0.574,-0.168 -0.861,-0.254 -0.092,-0.027 -0.199,-0.08 -0.279,-0.057 -1.252,0.369 -2.344,0.438 -3.619,0.215 0.096,-2.359 0.215,-4.719 0.279,-7.078 0.037,-1.359 -0.049,-2.721 -0.018,-4.08 0.16,-6.885 0.389,-13.766 0.494,-20.65 0.059,-3.848 -0.055,-7.699 -0.127,-11.548 -0.043,-2.286 -0.191,-4.569 -0.234,-6.854 -0.039,-2.107 0.004,-4.216 0.004,-6.323 0,-3.506 -0.008,-7.013 -0.006,-10.52 0.002,-2.197 0.047,-4.395 0.018,-6.591 -0.016,-1.317 -0.188,-2.633 -0.195,-3.95 -0.008,-1.455 0.123,-2.911 0.129,-4.367 0.002,-0.951 -0.123,-1.902 -0.168,-2.855 -0.016,-0.327 -0.014,-0.675 0.08,-0.983 0.162,-0.531 0.48,-0.854 1.135,-0.819 2.352,0.125 4.705,0.192 7.059,0.3 0.658,0.03 1.314,0.12 2.125,0.197 0.025,1.229 0.086,2.465 -0.037,3.705 -0.029,0.289 -0.168,0.595 -0.109,0.86 0.293,1.314 0.264,2.617 -0.008,3.927 -0.043,0.214 -0.016,0.443 -0.014,0.665 0.029,2.729 0.072,5.457 0.084,8.186 0.004,0.882 -0.107,1.764 -0.113,2.646 -0.002,0.547 0.158,1.097 0.133,1.64 -0.026,0.566 -0.183,1.131 -0.304,1.814 z m -2.002,7.729 c -1.402,-0.037 -2.686,-0.083 -3.971,-0.097 -0.518,-0.006 -0.684,0.335 -0.678,0.813 0.008,0.852 -0.016,1.703 -0.004,2.554 0.051,3.956 0.121,7.913 0.158,11.87 0.008,0.805 -0.135,1.611 -0.141,2.418 -0.008,0.986 0.092,1.975 0.08,2.963 -0.033,2.805 -0.104,5.607 -0.146,8.412 -0.006,0.363 0.15,0.736 0.107,1.092 -0.219,1.861 -0.148,3.723 -0.121,5.588 0.018,1.143 -0.027,2.287 -0.045,3.432 -0.008,0.488 0.076,0.924 0.701,0.885 1.174,-0.072 2.346,-0.16 3.518,-0.262 0.42,-0.035 0.516,-0.32 0.496,-0.711 -0.076,-1.516 -0.152,-3.031 -0.186,-4.547 -0.016,-0.695 0.109,-1.395 0.098,-2.09 -0.023,-1.639 -0.123,-3.277 -0.135,-4.916 -0.008,-1.314 0.076,-2.631 0.104,-3.947 0.051,-2.434 0.109,-4.865 0.129,-7.299 0.023,-2.709 0.006,-5.418 0.01,-8.128 0.002,-1.064 0.021,-2.129 0.023,-3.194 0.007,-1.531 0.003,-3.061 0.003,-4.836 z m -0.181,-1.173 c 0.367,-9.614 0.244,-19.24 0.111,-28.946 -1.121,0 -2.189,-0.012 -3.256,0.003 -1.15,0.016 -1.17,0.073 -1.191,1.191 -0.039,2.065 -0.117,4.129 -0.168,6.194 -0.006,0.254 0.063,0.511 0.094,0.767 0.027,0.216 0.076,0.434 0.072,0.649 -0.012,0.73 -0.057,1.46 -0.061,2.19 -0.002,0.5 0.086,1.002 0.059,1.499 -0.154,2.976 -0.186,5.949 -0.008,8.924 0.043,0.735 0.018,1.475 0.002,2.212 -0.035,1.657 -0.102,3.313 -0.102,4.97 0,0.2 0.32,0.566 0.5,0.569 0.799,0.016 1.602,-0.071 2.402,-0.122 0.466,-0.029 0.93,-0.06 1.546,-0.1 z m -0.129,42.016 c -0.322,-0.051 -0.637,-0.148 -0.951,-0.141 -0.881,0.018 -1.762,0.078 -2.643,0.125 -0.242,0.014 -0.486,0.033 -0.855,0.059 0,4.221 0,8.369 0,12.635 1.35,0 2.557,-0.008 3.764,0.004 0.385,0.004 0.674,-0.111 0.689,-0.527 0.031,-0.756 0.031,-1.514 0.027,-2.27 -0.006,-1.58 -0.025,-3.158 -0.031,-4.738 -0.004,-1.657 0,-3.315 0,-5.147 z m -5.328,-40.934 c -0.85,0.232 -0.836,0.781 -0.828,1.346 0.037,2.658 0.086,5.316 0.086,7.975 0,2.024 -0.143,4.051 -0.088,6.073 0.09,3.348 -0.166,6.693 -0.002,10.041 0.012,0.219 -0.021,0.441 -0.027,0.664 -0.049,2.01 -0.1,4.018 -0.145,6.027 -0.027,1.211 -0.08,2.42 -0.055,3.629 0.029,1.451 0.127,2.9 0.201,4.443 0.402,-0.111 0.635,-0.176 0.898,-0.248 0,-2.221 -0.018,-4.398 0.006,-6.574 0.018,-1.613 0.129,-3.227 0.123,-4.84 -0.006,-1.91 -0.137,-3.818 -0.135,-5.729 0.004,-2.703 0.086,-5.406 0.119,-8.107 0.006,-0.545 -0.105,-1.094 -0.088,-1.637 0.02,-0.658 0.18,-1.313 0.172,-1.967 -0.033,-3.404 -0.1,-6.809 -0.16,-10.213 -0.003,-0.254 -0.042,-0.506 -0.077,-0.883 z m -0.088,-0.915 c 0.068,-0.103 0.105,-0.133 0.105,-0.164 0.029,-2.474 0.061,-4.947 0.078,-7.421 0.006,-0.868 -0.053,-1.738 -0.035,-2.605 0.014,-0.73 0.145,-1.46 0.141,-2.189 -0.025,-3.965 -0.078,-7.93 -0.119,-11.894 -0.014,-1.293 -0.008,-2.586 -0.035,-3.879 -0.006,-0.253 -0.123,-0.503 -0.229,-0.904 -0.236,0.265 -0.4,0.362 -0.41,0.476 -0.045,0.438 -0.045,0.883 -0.053,1.325 -0.047,2.155 -0.156,4.313 -0.09,6.467 0.016,0.525 -0.352,1.127 -0.158,1.396 0.652,0.913 -0.025,1.834 0.197,2.766 0.242,1.015 -0.012,2.152 -0.078,3.234 -0.063,1.015 0.342,2.035 -0.059,3.049 -0.057,0.146 0.057,0.351 0.061,0.528 0.039,1.623 0.104,3.246 0.096,4.868 -0.006,1.473 -0.09,2.945 -0.152,4.418 -0.024,0.551 0.29,0.603 0.74,0.529 z m -0.881,41.916 c -0.027,0.215 -0.064,0.357 -0.061,0.498 0.082,2.014 -0.145,4.023 -0.031,6.043 0.086,1.541 -0.076,3.094 -0.104,4.641 -0.012,0.576 -0.061,1.211 0.744,1.396 0.525,-0.436 0.42,-1 0.377,-1.541 -0.023,-0.326 -0.121,-0.648 -0.111,-0.971 0.055,-1.908 0.146,-3.814 0.193,-5.723 0.031,-1.27 0.014,-2.539 0.006,-3.809 -0.002,-0.172 -0.068,-0.346 -0.117,-0.582 -0.324,0.018 -0.595,0.032 -0.896,0.048 z"
   id="path7"
   inkscape:connector-curvature="0"
   style="fill-rule:evenodd" />
		<path
   clip-rule="evenodd"
   d="m 489.176,273.858 c -0.006,0.726 -0.355,1.185 -0.902,1.187 -0.701,0.003 -1.551,-0.689 -1.564,-1.275 -0.016,-0.652 0.639,-1.445 1.225,-1.485 0.612,-0.044 1.247,0.763 1.241,1.573 z"
   id="path9"
   inkscape:connector-curvature="0"
   style="fill-rule:evenodd" />
	</g>
	<g
   id="g11">
		<path
   clip-rule="evenodd"
   d="m 477.399,239.021 c -0.067,0.577 -0.11,0.967 -0.159,1.354 -0.031,0.251 -0.123,0.506 -0.097,0.749 0.206,1.94 0.175,3.873 -0.012,5.815 -0.082,0.855 0.092,1.732 0.1,2.6 0.005,0.607 -0.101,1.215 -0.11,1.823 -0.011,0.653 0.039,1.306 0.048,1.959 0.009,0.646 0.002,1.291 -0.003,1.937 -0.003,0.363 -0.021,0.728 -0.018,1.092 0.017,2.234 -0.053,4.475 0.082,6.703 0.155,2.592 0.005,5.175 0.015,7.761 0.008,1.956 0.038,3.912 0.076,5.868 0.012,0.577 -0.005,1.087 -0.695,1.294 -0.363,0.108 -0.406,0.418 -0.398,0.789 0.046,2.133 0.081,4.266 0.075,6.399 -0.008,2.846 -0.048,5.689 -0.092,8.535 -0.03,1.969 -0.123,3.936 -0.127,5.904 -0.004,2.129 0.143,4.262 0.064,6.387 -0.043,1.182 0.123,2.352 0.035,3.521 -0.029,0.398 -0.266,0.779 -0.394,1.131 0.13,0.342 0.392,0.725 0.399,1.111 0.022,1.072 0.013,2.141 -0.087,3.223 -0.141,1.529 0.11,3.1 0.24,4.648 0.025,0.303 0.241,0.6 0.404,0.879 0.518,0.883 0.623,1.816 0.464,2.895 -0.404,0.025 -0.756,0.066 -1.108,0.066 -2.402,0.006 -4.806,0.006 -7.208,0 -0.453,0 -1.008,0.15 -1.174,-0.49 -0.188,-0.725 -0.604,-1.572 0.145,-2.131 1.178,-0.875 1.061,-2.066 1.074,-3.271 0.011,-0.93 0.075,-1.859 0.076,-2.789 10e-4,-0.498 -0.125,-0.994 -0.12,-1.492 0.017,-1.775 0.057,-3.553 0.104,-5.33 0.05,-1.861 0.16,-3.723 0.166,-5.584 0.004,-1.371 -0.141,-2.742 -0.175,-4.113 -0.017,-0.678 0.101,-1.359 0.099,-2.039 -0.007,-1.779 -0.082,-3.561 -0.063,-5.34 0.024,-2.191 0.201,-4.387 0.152,-6.576 -0.039,-1.795 0.106,-3.581 0.07,-5.372 -0.01,-0.473 -0.206,-0.745 -0.624,-0.911 -0.544,-0.215 -0.752,-0.638 -0.746,-1.206 0.019,-1.804 0.027,-3.607 0.035,-5.411 0.008,-2.071 0.106,-4.147 -0.009,-6.212 -0.145,-2.588 0.118,-5.168 -0.007,-7.754 -0.095,-1.944 -0.053,-3.895 -0.08,-5.842 -0.025,-1.795 -0.072,-3.589 -0.092,-5.384 -0.02,-1.802 -0.013,-3.604 -0.03,-5.406 -0.003,-0.288 -0.083,-0.575 -0.104,-0.864 -0.062,-0.881 0.417,-1.342 1.291,-1.331 2.317,0.03 4.637,0.019 6.954,0.065 0.483,0.01 0.958,0.202 1.564,0.34 z m -2.569,37.911 c 0.088,-0.645 0.242,-1.245 0.236,-1.845 -0.016,-1.724 -0.112,-3.447 -0.141,-5.171 -0.009,-0.533 0.146,-1.068 0.145,-1.603 -0.004,-0.604 -0.144,-1.205 -0.147,-1.809 -0.01,-1.375 0.038,-2.751 0.045,-4.126 0.009,-1.882 -0.003,-3.764 0.002,-5.646 0.004,-1.342 0.404,-2.687 -0.041,-4.029 -0.076,-0.232 -0.037,-0.506 -0.037,-0.76 0,-1.439 0.021,-2.879 0.004,-4.317 -0.023,-1.874 -0.084,-3.746 -0.112,-5.619 -0.006,-0.396 0.069,-0.795 0.089,-1.192 0.024,-0.52 -0.203,-0.837 -0.754,-0.85 -0.869,-0.021 -1.741,-0.077 -2.608,-0.038 -0.862,0.039 -0.933,0.136 -0.933,0.978 0.001,1.332 0.056,2.664 0.05,3.996 -0.013,2.594 -0.019,5.188 -0.088,7.781 -0.1,3.66 0.273,7.319 -0.012,10.978 -0.006,0.072 -0.018,0.147 -0.004,0.218 0.297,1.53 -0.103,3.072 0.165,4.629 0.201,1.176 -0.073,2.43 -0.102,3.649 -0.029,1.308 -0.005,2.616 -0.033,3.924 -0.014,0.609 0.253,0.86 0.844,0.855 1.12,-0.01 2.242,-0.003 3.432,-0.003 z m 0.053,30.191 c 0,-0.506 0.006,-0.82 -10e-4,-1.137 -0.021,-0.957 -0.163,-1.93 -0.044,-2.869 0.308,-2.447 -0.47,-4.869 -0.082,-7.309 0.016,-0.1 -0.063,-0.211 -0.066,-0.316 -0.01,-0.391 -0.012,-0.783 -0.006,-1.174 0.005,-0.346 0.045,-0.693 0.034,-1.041 -0.045,-1.467 -0.226,-2.941 -0.12,-4.396 0.105,-1.459 0.254,-2.902 0.177,-4.371 -0.075,-1.434 -0.022,-2.873 -0.025,-4.31 -0.002,-0.704 0,-1.408 0,-2.202 -1.392,0 -2.616,-0.012 -3.841,0.006 -0.53,0.007 -0.81,0.389 -0.784,0.962 0.06,1.325 0.165,2.652 0.153,3.978 -0.021,2.59 -0.123,5.18 -0.167,7.771 -0.026,1.555 -0.006,3.109 -0.007,4.664 -10e-4,1.084 -10e-4,2.168 -0.004,3.252 -0.005,1.625 -0.02,3.252 -0.018,4.877 0.001,0.963 0.044,1.928 0.031,2.891 -0.006,0.438 0.11,0.719 0.584,0.723 1.337,0.005 2.673,10e-4 4.186,10e-4 z m -5.174,-30.245 c 0,-1.874 0.01,-3.672 -0.004,-5.47 -0.009,-1.08 -0.09,-2.16 -0.079,-3.239 0.02,-1.886 0.127,-3.771 0.121,-5.657 -0.01,-3.4 -0.091,-6.801 -0.113,-10.202 -0.017,-2.503 0.017,-5.006 0.02,-7.51 10e-4,-1.376 -0.016,-2.752 -0.02,-4.128 -0.002,-0.337 0.038,-0.694 -0.54,-0.614 -0.037,0.149 -0.108,0.313 -0.114,0.481 -0.074,2.203 -0.188,4.407 -0.195,6.611 -0.013,4.496 0.032,8.994 0.056,13.491 0.016,3.262 0.038,6.523 0.053,9.785 0.003,0.713 -0.021,1.425 -0.027,2.138 -0.011,1.15 -0.009,2.301 -0.032,3.45 -0.011,0.517 -0.005,0.98 0.874,0.864 z m 4.958,37.196 c -1.337,0.133 -2.586,0.225 -3.825,0.387 -0.897,0.117 -0.94,0.195 -0.947,1.084 -0.009,1.264 -0.005,2.527 0.028,3.791 0.008,0.338 0.14,0.672 0.195,0.922 1.601,0 3.063,0 4.549,0 0,-2.061 0,-3.987 0,-6.184 z m -0.028,8.145 c -0.082,-0.531 -0.124,-0.811 -0.172,-1.09 -0.005,-0.027 -0.052,-0.049 -0.034,-0.033 -1.152,0 -2.257,0 -3.415,0 0,0.424 0,0.789 0,1.123 0.672,0 1.242,0 1.813,0 0.558,0 1.117,0 1.808,0 z m 0.005,-11.303 c -0.202,-0.693 -0.202,-0.721 -0.726,-0.711 -1.081,0.023 -2.161,0.068 -3.24,0.131 -0.184,0.01 -0.361,0.148 -0.573,0.24 0.688,0.625 2.55,0.75 4.539,0.34 z m -4.352,-2.478 c 0.201,0.643 0.574,0.695 1.042,0.68 0.57,-0.018 1.144,0.068 1.714,0.055 0.687,-0.018 1.398,-0.002 2.124,-0.682 -1.721,-0.145 -3.255,-0.261 -4.88,-0.053 z m 3.93,4.376 c 0.019,-0.068 0.038,-0.137 0.057,-0.203 -0.396,-0.061 -0.792,-0.154 -1.19,-0.168 -0.427,-0.016 -0.857,0.035 -1.283,0.08 -0.363,0.037 -0.791,-0.398 -1.225,0.291 1.302,0 2.472,0 3.641,0 z"
   id="path13"
   inkscape:connector-curvature="0"
   style="fill-rule:evenodd" />
		<path
   clip-rule="evenodd"
   d="m 472.496,282.475 c -0.594,0 -1.104,-0.486 -1.101,-1.047 0.004,-0.591 0.492,-1.228 0.942,-1.229 0.511,-0.003 1.443,0.749 1.416,1.139 -0.035,0.504 -0.735,1.137 -1.257,1.137 z"
   id="path15"
   inkscape:connector-curvature="0"
   style="fill-rule:evenodd" />
	</g>
</g>
</svg>