<?xml version="1.0" encoding="UTF-8" standalone="no"?>
<!-- Generator: Adobe Illustrator 16.0.3, SVG Export Plug-In . SVG Version: 6.00 Build 0)  -->

<svg
   xmlns:dc="http://purl.org/dc/elements/1.1/"
   xmlns:cc="http://creativecommons.org/ns#"
   xmlns:rdf="http://www.w3.org/1999/02/22-rdf-syntax-ns#"
   xmlns:svg="http://www.w3.org/2000/svg"
   xmlns="http://www.w3.org/2000/svg"
   xmlns:sodipodi="http://sodipodi.sourceforge.net/DTD/sodipodi-0.dtd"
   xmlns:inkscape="http://www.inkscape.org/namespaces/inkscape"
   version="1.1"
   id="Ebene_1"
   x="0px"
   y="0px"
   width="78.686676"
   height="344.17667"
   viewBox="0 0 78.686676 344.17667"
   enable-background="new 0 0 960 560"
   xml:space="preserve"
   inkscape:version="0.48.2 r9819"
   sodipodi:docname="08_Sprengbombe1.svg"><metadata
   id="metadata97"><rdf:RDF><cc:Work
       rdf:about=""><dc:format>image/svg+xml</dc:format><dc:type
         rdf:resource="http://purl.org/dc/dcmitype/StillImage" /></cc:Work></rdf:RDF></metadata><defs
   id="defs95" /><sodipodi:namedview
   pagecolor="#ffffff"
   bordercolor="#666666"
   borderopacity="1"
   objecttolerance="10"
   gridtolerance="10"
   guidetolerance="10"
   inkscape:pageopacity="0"
   inkscape:pageshadow="2"
   inkscape:window-width="640"
   inkscape:window-height="480"
   id="namedview93"
   showgrid="false"
   fit-margin-top="0"
   fit-margin-left="0"
   fit-margin-right="0"
   fit-margin-bottom="0"
   inkscape:zoom="0.33541667"
   inkscape:cx="38.938183"
   inkscape:cy="172.49047"
   inkscape:window-x="0"
   inkscape:window-y="0"
   inkscape:window-maximized="0"
   inkscape:current-layer="Ebene_1" />
<g
   id="g3"
   transform="translate(-441.06182,-108.3138)">
	<path
   clip-rule="evenodd"
   d="m 452.189,112.396 c 0.059,-0.506 0.032,-1.021 0.065,-1.533 0.123,-1.887 0.164,-2.063 1.934,-2.098 5.01,-0.103 10.039,-0.361 15.027,-0.049 5.656,0.355 11.301,0.193 16.949,0.282 8.979,0.142 17.961,0.15 26.943,0.214 0.385,0.004 0.771,-0.018 1.156,0.012 1.422,0.109 1.777,0.469 1.793,1.896 0.037,2.944 0.096,5.889 0.059,8.832 -0.123,10.001 -0.02,19.998 0.248,29.995 0.07,2.565 0.031,5.137 -0.031,7.703 -0.035,1.497 0.117,3.072 -1.744,3.863 -0.746,0.316 -0.646,1.337 -0.658,2.099 -0.033,2.187 -0.045,4.371 -0.041,6.557 0.004,3.589 -0.004,7.179 0.049,10.767 0.025,1.762 -0.531,3.168 -1.744,4.508 -4.299,4.755 -8.492,9.607 -12.709,14.438 -0.672,0.77 -1.254,1.62 -1.887,2.426 -0.77,0.984 -0.953,2.046 -0.592,3.256 1.393,4.668 2.648,9.378 4.168,14.003 0.863,2.62 1.363,5.188 0.895,7.928 -0.152,0.88 -0.221,1.793 -0.184,2.687 0.059,1.354 0.494,2.64 1.965,2.986 1.676,0.396 2.203,1.647 2.623,3.016 2.209,7.229 4.23,14.505 5.756,21.923 1.605,7.792 2.867,15.656 3.688,23.541 0.609,5.859 1.609,11.693 1.805,17.6 0.037,1.15 0.289,2.295 0.387,3.443 0.156,1.813 0.521,3.645 -0.383,5.385 1.684,1.453 0.33,3.416 0.838,5.074 0.197,0.639 0.023,1.277 -0.689,1.602 0.346,0.525 0.859,1.008 1.002,1.582 0.244,0.984 0.342,2.025 0.359,3.043 0.242,14.25 0.451,28.506 -0.047,42.75 -0.229,6.523 -0.293,13.078 -1.199,19.568 -1.184,8.473 -2.229,16.938 -4.686,25.209 -1.389,4.682 -2.758,9.318 -4.803,13.748 -3.184,6.896 -7.359,13.146 -12.344,18.861 -0.412,0.471 -0.967,1.129 -1.475,1.148 -2.533,0.094 -3.016,2.264 -3.678,3.857 -0.848,2.045 -2.076,3.461 -3.961,4.473 -0.543,0.291 -1.387,0.764 -1.402,1.18 -0.094,2.404 -3.248,2.039 -3.248,2.039 l 0,0 c -1.385,0.033 -1.814,-0.162 -1.814,-0.162 0,0 -0.627,-0.295 -0.498,-0.904 0.361,-0.867 -0.064,-1.213 -0.352,-1.432 -2.1,-1.602 -3.439,-3.773 -4.562,-6.086 -0.844,-1.742 -2.099,-3.035 -3.481,-4.387 -2.365,-2.311 -4.465,-4.941 -6.396,-7.637 -4.27,-5.959 -7.773,-12.346 -10.045,-19.355 -0.118,-0.365 -0.287,-0.717 -0.457,-1.063 -2.279,-4.631 -3.338,-9.559 -4.201,-14.637 -0.746,-4.402 -1.633,-8.77 -1.867,-13.236 -0.26,-4.984 -0.492,-9.973 -0.699,-14.961 -0.132,-3.195 -0.234,-6.389 -0.281,-9.584 -0.068,-4.607 -0.069,-9.215 -0.112,-13.822 -0.007,-0.748 0.189,-1.725 -0.707,-2.02 -1.886,-0.623 -2.082,-2.064 -1.956,-3.656 0.139,-1.795 -0.354,-3.076 -1.883,-4.283 -2.408,-1.896 -2.336,-3.42 0.104,-5.197 1.519,-1.105 2.318,-2.35 2.146,-4.188 -0.099,-1.061 0.228,-1.816 1.365,-1.889 1.491,-0.092 1.922,-1.121 2.143,-2.303 0.14,-0.752 0.097,-1.535 0.149,-2.303 0.29,-4.221 0.502,-8.447 0.899,-12.66 0.411,-4.34 0.923,-8.676 1.55,-12.99 0.352,-2.412 0.118,-4.877 0.85,-7.254 0.709,-2.309 0.357,-4.764 0.768,-7.125 0.395,-2.273 0.799,-4.545 1.166,-6.823 0.387,-2.403 0.405,-4.924 1.168,-7.196 1.604,-4.778 1.576,-9.863 3.133,-14.639 0.752,-2.304 1.129,-4.729 1.672,-7.102 0.285,-1.245 0.088,-1.59 -1.151,-1.894 -0.587,-0.143 -1.298,0.153 -1.762,-0.528 0.155,-0.13 0.297,-0.353 0.447,-0.358 3.589,-0.144 3.583,-0.141 4.528,-3.574 0.17,-0.615 0.375,-1.228 0.629,-1.813 0.586,-1.355 1.414,-2.236 3.066,-2.536 2.443,-0.441 2.679,-0.996 2.465,-3.438 -0.057,-0.639 0.021,-1.368 -0.261,-1.898 -1.757,-3.314 -0.55,-6.491 0.394,-9.655 1.06,-3.563 2.237,-7.092 3.375,-10.632 0.509,-1.587 0.389,-2.793 -1.057,-4.069 -1.605,-1.417 -2.695,-3.402 -4.106,-5.059 -3.154,-3.703 -6.302,-7.418 -9.587,-11.004 -1.762,-1.922 -2.617,-4.038 -2.54,-6.607 0.138,-4.62 0.251,-9.239 0.354,-13.86 0.026,-1.155 -0.016,-2.313 -0.051,-3.469 -0.02,-0.65 -0.096,-1.442 -0.723,-1.679 -1.77,-0.666 -1.59,-2.15 -1.638,-3.532 -0.08,-2.31 -0.123,-4.62 -0.132,-6.931 -0.043,-10.151 -0.412,-20.299 -0.073,-30.452 0.06,-1.763 -0.206,-3.537 -0.318,-5.265 m 39.176,64.228 c -1.305,1.766 -1.721,3.453 -0.617,5.659 1.074,2.147 1.512,4.611 2.213,6.943 0.846,2.81 1.65,5.633 2.518,8.436 0.291,0.935 1.012,1.115 1.717,0.499 0.383,-0.336 0.701,-0.742 1.063,-1.104 4.164,-4.174 7.369,-9.173 11.588,-13.318 1.934,-1.9 2.863,-4.384 2.693,-7.305 -0.207,-3.574 -0.033,-7.172 -0.02,-10.758 0.008,-1.795 0.027,-3.589 0.029,-5.384 0.002,-0.933 -0.535,-1.436 -1.408,-1.474 -3.074,-0.134 -6.15,-0.292 -9.227,-0.294 -1.863,-0.002 -1.842,0.119 -1.867,1.972 -0.025,2.049 0.301,4.216 -0.27,6.106 -0.484,1.605 -2.023,2.893 -3.094,4.321 -0.078,0.103 -0.125,0.231 -0.213,0.321 -1.684,1.738 -2.834,3.984 -5,5.266 0.377,-2.146 1.869,-3.608 3.193,-5.165 0.744,-0.876 1.584,-1.672 2.342,-2.538 2.338,-2.677 2.168,-5.879 1.809,-9.089 -0.098,-0.884 -0.721,-1.201 -1.641,-1.204 -2.557,-0.011 -5.113,-0.122 -7.67,-0.187 -5.766,-0.148 -3.969,0.267 -4.084,4.726 -0.047,1.79 1.5,2.838 3.377,2.646 1.531,-0.156 3.055,-0.386 4.582,-0.581 2.051,-0.263 2.807,0.484 2.529,2.497 -0.082,0.601 -0.463,0.925 -1.031,0.867 -1.143,-0.114 -2.359,-0.104 -3.391,-0.525 -1.121,-0.458 -2.25,-0.468 -3.377,-0.58 -1.098,-0.109 -1.648,0.52 -1.598,1.632 0.104,2.228 1.166,4.151 1.879,6.198 0.601,1.719 1.611,1.738 2.976,1.417 z m -24.798,215.527 c -0.144,0.537 -0.586,0.385 -0.943,0.389 -3.84,0.068 -7.681,0.119 -11.521,0.197 -1.183,0.023 -1.716,0.615 -1.341,1.654 0.438,1.215 0.209,2.592 0.617,3.645 0.459,1.178 0.96,2.357 1.234,3.586 1.354,6.064 3.992,11.633 6.757,17.117 2.825,5.611 6.622,10.619 10.399,15.621 0.826,1.092 1.871,1.557 3.211,1.855 2.425,0.539 4.847,0.414 7.277,0.43 3.322,0.02 6.645,0.068 9.949,-0.389 0.768,-0.107 1.584,-0.086 2,-0.893 1.412,-2.73 3.793,-4.762 5.17,-7.582 2.521,-5.176 4.891,-10.414 7.168,-15.697 0.605,-1.406 0.969,-2.918 1.588,-4.316 1.357,-3.057 2.102,-6.283 2.877,-9.512 0.711,-2.953 0.424,-6.094 1.742,-8.938 0.381,-0.822 0.486,-1.764 -0.242,-2.523 -0.49,-0.512 -0.234,-0.852 0.156,-1.238 0.682,-0.676 0.879,-1.602 0.875,-2.469 -0.027,-5.266 1.387,-10.371 1.623,-15.625 0.154,-3.441 0.148,-6.906 0.473,-10.35 0.375,-3.949 0.631,-7.926 0.629,-11.889 -0.006,-8.188 -0.131,-16.375 -0.422,-24.555 -0.053,-1.447 0.709,-2.754 0.313,-4.16 -0.568,-2.012 -0.404,-4.047 -0.387,-6.104 0.023,-2.68 -0.205,-5.367 -0.436,-8.041 -0.418,-4.844 -0.914,-9.68 -1.383,-14.52 -0.125,-1.275 -0.238,-2.551 -0.402,-3.82 -0.867,-6.74 -1.654,-13.491 -2.65,-20.211 -0.863,-5.813 -2.182,-11.537 -3.803,-17.195 -0.391,-1.362 -0.971,-1.979 -2.338,-1.949 -1.029,0.022 -2.057,-0.023 -3.086,-0.024 -8.732,-0.015 -17.467,-0.028 -26.199,-0.037 -4.108,-0.004 -8.219,-0.023 -12.326,0.027 -1.756,0.023 -1.771,0.106 -2.236,1.957 -0.623,2.487 -1.317,4.959 -1.838,7.466 -0.936,4.504 -2.111,8.996 -2.551,13.556 -0.564,5.863 -1.811,11.619 -2.201,17.513 -0.55,8.291 -2.369,16.459 -2.58,24.811 -0.135,5.371 -0.771,10.73 -1.145,16.098 -0.105,1.535 0.066,3.1 -0.137,4.615 -0.873,6.51 -0.211,13.043 -0.381,19.564 -0.131,4.988 0.316,9.988 0.484,14.984 0.189,5.637 0.28,11.279 0.896,16.893 0.338,3.059 0.404,3.123 3.457,3.377 0.762,0.064 1.531,0.035 2.296,0.057 0.522,0.018 1.231,-0.59 1.533,0.609 -1.229,0.443 -2.494,0.412 -3.751,0.455 -2.775,0.096 -3.293,0.76 -2.72,3.432 0.148,0.691 0.508,1.195 1.226,1.279 0.883,0.105 1.777,0.154 2.668,0.166 3.082,0.035 6.164,0.045 9.245,0.063 0.496,0.004 1.021,-0.047 1.156,0.621 z M 514.764,135.36 c -0.059,0 -0.115,0 -0.172,0 0,-5.763 -0.014,-11.524 0.008,-17.287 0.006,-1.92 0.16,-3.84 0.137,-5.759 -0.016,-1.356 -0.588,-1.857 -1.879,-1.859 -1.408,-0.004 -2.816,0.089 -4.225,0.053 -3.451,-0.089 -6.904,-0.305 -10.355,-0.328 -7.047,-0.052 -14.092,0 -21.138,-0.009 -7.061,-0.009 -14.119,-0.06 -21.18,-0.05 -2.188,0.002 -2.311,0.186 -2.388,2.496 -0.025,0.771 -0.017,1.541 0,2.313 0.202,9.482 -0.257,18.966 0.129,28.451 0.183,4.488 0.011,8.988 0.094,13.48 0.042,2.306 0.41,2.647 2.765,2.678 7.563,0.096 15.125,0.14 22.688,0.185 3.836,0.021 7.702,-0.12 11.504,0.074 5.643,0.284 11.283,0.188 16.918,0.419 1.664,0.067 3.34,0.031 5.004,-0.08 1.781,-0.117 2.092,-0.566 2.092,-2.464 -0.006,-7.437 -0.002,-14.876 -0.002,-22.313 z m -27.762,58.331 c 0.232,0.035 0.463,0.069 0.695,0.104 0,2.676 -0.031,5.353 0.012,8.027 0.029,1.848 -1.15,2.346 -2.869,1.904 -1.34,-0.344 -1.273,-1.441 -1.271,-2.472 0.018,-5.383 0.053,-10.766 0.074,-16.148 0.01,-2.311 0.012,-4.621 -0.012,-6.93 -0.006,-0.564 -0.33,-1.001 -0.932,-0.967 -0.35,0.021 -0.807,0.189 -1,0.451 -0.295,0.398 -0.432,0.927 -0.582,1.416 -1.423,4.649 -2.908,9.281 -4.228,13.96 -1.496,5.294 -3.197,10.527 -4.395,15.912 -0.915,4.112 -2.286,8.124 -3.475,12.174 -0.404,1.379 -0.528,2.694 -0.137,4.148 0.432,1.596 0.581,3.287 0.672,4.948 0.064,1.166 -0.182,2.56 -1.434,2.913 -2.574,0.729 -3.432,2.587 -4.264,4.868 -0.707,1.937 -1.059,3.953 -1.787,5.874 -0.594,1.564 -0.13,2.084 1.591,2.093 7.704,0.034 15.408,0.041 23.112,0.073 3.34,0.013 6.678,0.108 10.018,0.084 2.914,-0.022 5.826,-0.162 8.725,-0.248 0.418,-2.053 -0.928,-3.459 -0.918,-5.116 0.018,-2.704 -1.148,-5.007 -2.672,-7.071 -0.91,-1.236 -1.326,-2.451 -1.215,-3.905 0.178,-2.345 -0.182,-4.66 -0.871,-6.848 -2.188,-6.946 -3.535,-14.118 -5.789,-21.044 -0.793,-2.434 -1.629,-4.882 -2.078,-7.391 -0.525,-2.928 -1.828,-5.602 -2.43,-8.493 -0.172,-0.828 -0.543,-1.618 -1.506,-2.097 -1.203,-0.599 -1.381,-1.829 -0.814,-2.97 0.617,-1.247 0.172,-2.255 -0.455,-3.24 -0.275,-0.432 -0.795,-0.643 -1.346,-0.375 -0.375,0.182 -0.557,0.506 -0.545,0.914 0.043,1.654 0.297,3.272 0.219,4.964 -0.27,5.745 -0.266,11.505 -0.35,17.258 -0.02,1.338 0.512,2.15 1.225,1.956 0.988,-0.269 0.914,-1.114 0.932,-1.868 0.047,-2.284 0.069,-4.571 0.1,-6.858 z m -24.04,-32.688 c 0,-0.024 0,-0.05 0,-0.073 -1.41,0 -2.823,-0.048 -4.231,0.013 -1.617,0.071 -2.086,0.477 -2.305,1.954 -0.132,0.886 -0.189,1.789 -0.182,2.685 0.04,5.113 0.217,10.229 0.121,15.338 -0.045,2.375 0.785,4.132 2.322,5.838 4.11,4.559 8.201,9.14 11.828,14.109 0.301,0.413 0.63,0.812 0.988,1.177 0.817,0.828 1.629,0.642 1.968,-0.537 1.587,-5.529 3.095,-11.083 4.714,-16.604 0.416,-1.419 0.035,-2.413 -0.867,-3.489 -2.299,-2.743 -4.404,-5.653 -6.768,-8.336 -1.311,-1.49 -1.699,-3.052 -1.557,-4.926 0.123,-1.66 0.174,-3.331 0.133,-4.994 -0.045,-1.836 -0.227,-2.028 -1.939,-2.137 -1.401,-0.088 -2.815,-0.018 -4.225,-0.018 z m 19.19,8.898 c -1.332,0.097 -2.474,0.128 -3.601,0.275 -1.135,0.147 -2.25,0.483 -3.387,0.599 -0.895,0.091 -1.397,-0.758 -1.301,-1.92 0.07,-0.845 0.638,-1.065 1.32,-0.979 1.524,0.195 3.033,0.56 4.561,0.683 2.908,0.235 3.712,-0.461 3.972,-3.297 0.082,-0.887 0.051,-1.789 0.004,-2.681 -0.049,-0.869 -0.537,-1.505 -1.422,-1.521 -3.458,-0.061 -6.919,-0.063 -10.38,-0.056 -0.516,0.001 -1.041,0.211 -1.177,0.795 -0.741,3.184 -0.249,6.348 0.224,9.505 0.033,0.23 0.246,0.444 0.404,0.645 2.149,2.707 4.287,5.424 6.468,8.107 0.499,0.613 1.726,0.37 1.867,-0.421 0.347,-1.935 1.45,-3.542 2.112,-5.335 0.504,-1.362 0.85,-2.67 0.336,-4.399 z m -34.314,157.062 c -0.042,0.025 -0.342,0.203 -0.641,0.381 0.274,0.41 0.483,1.084 0.835,1.17 0.555,0.133 0.784,-0.441 0.747,-0.996 -0.025,-0.383 -0.084,-0.766 -0.941,-0.555 z m 69.107,42.98 c -0.063,-0.109 -0.105,-0.285 -0.193,-0.313 -0.092,-0.027 -0.316,0.076 -0.326,0.145 -0.053,0.373 -0.084,0.754 -0.066,1.127 0.008,0.17 0.186,0.484 0.223,0.477 0.5,-0.119 -0.029,0.17 0.141,-0.311 0.124,-0.357 0.151,-0.75 0.221,-1.125 z"
   id="path5"
   inkscape:connector-curvature="0"
   style="fill-rule:evenodd;stroke:#000000;stroke-width:0.5" />
	<path
   clip-rule="evenodd"
   d="m 514.764,135.36 c 0,7.438 -0.004,14.876 0.002,22.313 0,1.897 -0.311,2.347 -2.092,2.464 -1.664,0.111 -3.34,0.147 -5.004,0.08 -5.635,-0.23 -11.275,-0.135 -16.918,-0.419 -3.803,-0.194 -7.668,-0.053 -11.504,-0.074 -7.563,-0.045 -15.126,-0.089 -22.688,-0.185 -2.354,-0.03 -2.723,-0.372 -2.765,-2.678 -0.083,-4.492 0.089,-8.992 -0.094,-13.48 -0.386,-9.485 0.073,-18.969 -0.129,-28.451 -0.017,-0.771 -0.025,-1.542 0,-2.313 0.077,-2.311 0.2,-2.494 2.388,-2.496 7.061,-0.01 14.119,0.041 21.18,0.05 7.046,0.009 14.091,-0.043 21.138,0.009 3.451,0.023 6.904,0.239 10.355,0.328 1.408,0.036 2.816,-0.057 4.225,-0.053 1.291,0.002 1.863,0.503 1.879,1.859 0.023,1.919 -0.131,3.839 -0.137,5.759 -0.021,5.763 -0.008,11.524 -0.008,17.287 0.056,0 0.113,0 0.172,0 z"
   id="path7"
   inkscape:connector-curvature="0"
   style="fill:none;stroke:#000000;stroke-width:0.5" />
	<path
   clip-rule="evenodd"
   d="m 487.002,193.691 c -0.031,2.287 -0.053,4.574 -0.1,6.86 -0.018,0.754 0.057,1.6 -0.932,1.868 -0.713,0.194 -1.244,-0.618 -1.225,-1.956 0.084,-5.753 0.08,-11.513 0.35,-17.258 0.078,-1.691 -0.176,-3.31 -0.219,-4.964 -0.012,-0.408 0.17,-0.732 0.545,-0.914 0.551,-0.268 1.07,-0.057 1.346,0.375 0.627,0.985 1.072,1.993 0.455,3.24 -0.566,1.141 -0.389,2.371 0.814,2.97 0.963,0.479 1.334,1.269 1.506,2.097 0.602,2.892 1.904,5.565 2.43,8.493 0.449,2.509 1.285,4.957 2.078,7.391 2.254,6.926 3.602,14.098 5.789,21.044 0.689,2.188 1.049,4.503 0.871,6.848 -0.111,1.454 0.305,2.669 1.215,3.905 1.523,2.064 2.689,4.367 2.672,7.071 -0.01,1.657 1.336,3.063 0.918,5.116 -2.898,0.086 -5.811,0.226 -8.725,0.248 -3.34,0.024 -6.678,-0.071 -10.018,-0.084 -7.704,-0.032 -15.408,-0.039 -23.112,-0.073 -1.721,-0.009 -2.185,-0.528 -1.591,-2.093 0.729,-1.921 1.08,-3.938 1.787,-5.874 0.832,-2.281 1.689,-4.14 4.264,-4.868 1.252,-0.354 1.498,-1.747 1.434,-2.913 -0.091,-1.661 -0.24,-3.353 -0.672,-4.948 -0.392,-1.454 -0.268,-2.77 0.137,-4.148 1.188,-4.05 2.56,-8.062 3.475,-12.174 1.197,-5.385 2.898,-10.618 4.395,-15.912 1.32,-4.679 2.805,-9.311 4.228,-13.96 0.15,-0.489 0.287,-1.018 0.582,-1.416 0.193,-0.262 0.65,-0.43 1,-0.451 0.602,-0.034 0.926,0.402 0.932,0.967 0.023,2.309 0.021,4.619 0.012,6.93 -0.021,5.383 -0.057,10.766 -0.074,16.148 -0.002,1.03 -0.068,2.128 1.271,2.472 1.719,0.441 2.898,-0.057 2.869,-1.904 -0.043,-2.675 -0.012,-5.352 -0.012,-8.027 -0.232,-0.037 -0.463,-0.071 -0.695,-0.106 z m -2.031,39.764 c 1.797,0 3.594,10e-4 5.391,-0.003 0.256,0 0.516,-0.013 0.768,-0.052 1.186,-0.183 2.084,-1.282 1.84,-2.447 -0.154,-0.729 -0.502,-1.46 -0.92,-2.085 -1.775,-2.66 -3.576,-5.308 -5.453,-7.896 -0.426,-0.586 -1.143,-1.05 -1.822,-1.343 -1.262,-0.543 -2.445,-0.068 -3.217,1.191 -1.59,2.598 -3.105,5.245 -4.742,7.813 -0.515,0.807 -0.738,1.609 -0.777,2.518 -0.061,1.401 0.248,1.812 1.633,2.101 2.414,0.506 4.867,0.163 7.299,0.203 z m 3.074,-47.417 c -1.186,1.256 -1.293,2.622 -0.297,5.776 0.631,-2.272 0.416,-3.962 0.297,-5.776 z"
   id="path9"
   inkscape:connector-curvature="0"
   style="fill:none;stroke:#000000;stroke-width:0.5" />
	<path
   clip-rule="evenodd"
   d="m 462.962,161.003 c 1.409,0 2.823,-0.07 4.226,0.018 1.713,0.108 1.895,0.301 1.939,2.137 0.041,1.663 -0.01,3.334 -0.133,4.994 -0.143,1.874 0.246,3.436 1.557,4.926 2.363,2.683 4.469,5.593 6.768,8.336 0.902,1.076 1.283,2.07 0.867,3.489 -1.619,5.521 -3.127,11.074 -4.714,16.604 -0.339,1.179 -1.15,1.365 -1.968,0.537 -0.358,-0.365 -0.688,-0.764 -0.988,-1.177 -3.627,-4.97 -7.718,-9.551 -11.828,-14.109 -1.537,-1.706 -2.367,-3.463 -2.322,-5.838 0.096,-5.109 -0.081,-10.225 -0.121,-15.338 -0.008,-0.896 0.05,-1.799 0.182,-2.685 0.219,-1.478 0.688,-1.883 2.305,-1.954 1.408,-0.061 2.821,-0.013 4.231,-0.013 -0.001,0.024 -0.001,0.049 -0.001,0.073 z"
   id="path11"
   inkscape:connector-curvature="0"
   style="fill:none;stroke:#000000;stroke-width:0.5" />
	<path
   clip-rule="evenodd"
   d="m 491.336,179.178 c 2.166,-1.281 3.316,-3.527 5,-5.266 0.088,-0.09 0.135,-0.219 0.213,-0.321 1.07,-1.429 2.609,-2.716 3.094,-4.321 0.57,-1.891 0.244,-4.058 0.27,-6.106 0.025,-1.853 0.004,-1.974 1.867,-1.972 3.076,0.002 6.152,0.16 9.227,0.294 0.873,0.038 1.41,0.541 1.408,1.474 -0.002,1.795 -0.021,3.589 -0.029,5.384 -0.014,3.586 -0.188,7.184 0.02,10.758 0.17,2.921 -0.76,5.404 -2.693,7.305 -4.219,4.146 -7.424,9.145 -11.588,13.318 -0.361,0.361 -0.68,0.768 -1.063,1.104 -0.705,0.616 -1.426,0.436 -1.717,-0.499 -0.867,-2.803 -1.672,-5.626 -2.518,-8.436 -0.701,-2.332 -1.139,-4.796 -2.213,-6.943 -1.104,-2.206 -0.688,-3.894 0.617,-5.659 l 0.105,-0.114 z"
   id="path13"
   inkscape:connector-curvature="0"
   style="fill:none;stroke:#000000;stroke-width:0.5" />
	<path
   clip-rule="evenodd"
   d="m 482.152,169.901 c 0.514,1.729 0.168,3.037 -0.336,4.398 -0.662,1.793 -1.765,3.4 -2.112,5.335 -0.142,0.791 -1.368,1.034 -1.867,0.421 -2.181,-2.684 -4.318,-5.4 -6.468,-8.107 -0.158,-0.2 -0.371,-0.414 -0.404,-0.645 -0.473,-3.157 -0.965,-6.321 -0.224,-9.505 0.136,-0.584 0.661,-0.794 1.177,-0.795 3.461,-0.007 6.922,-0.005 10.38,0.056 0.885,0.017 1.373,0.652 1.422,1.521 0.047,0.892 0.078,1.794 -0.004,2.681 -0.26,2.836 -1.064,3.532 -3.972,3.297 -1.527,-0.123 -3.036,-0.487 -4.561,-0.683 -0.683,-0.086 -1.25,0.135 -1.32,0.979 -0.097,1.162 0.406,2.011 1.301,1.92 1.137,-0.115 2.252,-0.451 3.387,-0.599 1.127,-0.146 2.27,-0.177 3.601,-0.274 z"
   id="path15"
   inkscape:connector-curvature="0"
   style="fill:none;stroke:#000000;stroke-width:0.5" />
	<path
   clip-rule="evenodd"
   d="m 491.336,179.178 -0.105,0.112 c -1.365,0.321 -2.375,0.303 -2.975,-1.416 -0.713,-2.047 -1.775,-3.971 -1.879,-6.198 -0.051,-1.112 0.5,-1.741 1.598,-1.632 1.127,0.112 2.256,0.122 3.377,0.58 1.031,0.422 2.248,0.411 3.391,0.525 0.568,0.058 0.949,-0.267 1.031,-0.867 0.277,-2.013 -0.479,-2.76 -2.529,-2.497 -1.527,0.195 -3.051,0.425 -4.582,0.581 -1.877,0.192 -3.424,-0.855 -3.377,-2.646 0.115,-4.459 -1.682,-4.874 4.084,-4.726 2.557,0.064 5.113,0.176 7.67,0.187 0.92,0.003 1.543,0.32 1.641,1.204 0.359,3.21 0.529,6.412 -1.809,9.089 -0.758,0.866 -1.598,1.662 -2.342,2.538 -1.325,1.558 -2.817,3.02 -3.194,5.166 z"
   id="path17"
   inkscape:connector-curvature="0"
   style="fill:none;stroke:#000000;stroke-width:0.5" />
	<path
   clip-rule="evenodd"
   d="m 447.838,326.963 c 0.856,-0.211 0.916,0.172 0.941,0.555 0.037,0.555 -0.192,1.129 -0.747,0.996 -0.352,-0.086 -0.561,-0.76 -0.835,-1.17 0.3,-0.178 0.599,-0.356 0.641,-0.381 z"
   id="path19"
   inkscape:connector-curvature="0"
   style="fill:none;stroke:#000000;stroke-width:0.5" />
	<path
   clip-rule="evenodd"
   d="m 516.945,369.943 c -0.07,0.375 -0.098,0.768 -0.223,1.125 -0.17,0.48 0.359,0.191 -0.141,0.311 -0.037,0.008 -0.215,-0.307 -0.223,-0.477 -0.018,-0.373 0.014,-0.754 0.066,-1.127 0.01,-0.068 0.234,-0.172 0.326,-0.145 0.09,0.028 0.133,0.204 0.195,0.313 z"
   id="path21"
   inkscape:connector-curvature="0"
   style="fill:none;stroke:#000000;stroke-width:0.5" />
	<path
   clip-rule="evenodd"
   d="m 506.021,357.566 c -1.803,0.035 -2.336,-0.395 -2.555,-2.076 -0.17,-1.297 0.105,-2.555 0.359,-3.813 0.125,-0.627 0.166,-1.273 0.984,-1.441 1.102,-0.225 2.383,0.117 2.658,0.965 0.389,1.207 1.145,2.273 1.189,3.627 0.073,2.127 -0.402,2.693 -2.635,2.738 z m -1.435,-3.189 c -0.074,1.436 0.295,2.096 1.158,2.072 0.766,-0.021 1.559,-0.18 1.713,-1.113 0.191,-1.156 -0.896,-2.365 -1.947,-2.221 -0.809,0.112 -0.879,0.754 -0.924,1.262 z"
   id="path23"
   inkscape:connector-curvature="0"
   style="fill-rule:evenodd;stroke:#000000;stroke-width:0.5" />
	<path
   clip-rule="evenodd"
   d="m 488.447,352.688 c -0.061,1.074 -0.053,1.717 -0.141,2.344 -0.197,1.408 -1.215,2.229 -2.645,2.189 -1.109,-0.027 -1.861,-0.924 -1.938,-2.418 -0.037,-0.762 -0.006,-1.535 0.084,-2.295 0.186,-1.586 1.359,-2.49 2.902,-2.299 1.168,0.145 1.713,0.938 1.736,2.535 0.004,0.125 0.002,0.254 0.002,-0.056 z m -1.379,1.134 c -0.049,-0.545 -0.07,-0.922 -0.119,-1.297 -0.068,-0.539 -0.297,-0.969 -0.91,-0.977 -0.723,-0.008 -1.25,0.377 -1.271,1.09 -0.027,0.871 0.072,1.76 0.234,2.619 0.055,0.279 0.455,0.65 0.744,0.697 0.539,0.09 0.943,-0.285 1.088,-0.811 0.133,-0.479 0.178,-0.983 0.234,-1.321 z"
   id="path25"
   inkscape:connector-curvature="0"
   style="fill-rule:evenodd;stroke:#000000;stroke-width:0.5" />
	<path
   clip-rule="evenodd"
   d="m 478.627,352.152 c 1.082,1.289 0.595,2.104 0.819,2.82 0.167,0.533 0.486,0.965 1.048,0.891 0.314,-0.041 0.755,-0.387 0.839,-0.68 0.342,-1.227 0.578,-2.492 -0.396,-3.582 -0.299,-0.336 -1.143,-0.189 -0.945,-0.92 0.061,-0.225 0.582,-0.416 0.912,-0.455 0.679,-0.082 1.248,0.166 1.517,0.867 0.045,0.117 0.1,0.236 0.113,0.359 0.129,1.141 0.357,2.283 0.348,3.424 -0.012,1.309 -0.996,2.123 -2.232,2.068 -1.464,-0.064 -2.141,-0.623 -2.246,-2.041 -0.054,-0.719 0.108,-1.454 0.223,-2.751 z"
   id="path27"
   inkscape:connector-curvature="0"
   style="fill-rule:evenodd;stroke:#000000;stroke-width:0.5" />
	<path
   clip-rule="evenodd"
   d="m 489.799,353.471 c 0.18,-1.021 -0.111,-2.266 1.234,-2.928 1.111,-0.547 2.16,-0.381 2.609,0.654 0.686,1.594 0.756,3.24 0.166,4.883 -0.352,0.975 -1.404,1.557 -2.471,1.346 -1.051,-0.207 -1.43,-0.932 -1.408,-1.965 0.014,-0.639 -0.079,-1.279 -0.13,-1.99 z m 0.949,0.369 c 0.027,0.412 0.043,0.912 0.1,1.408 0.064,0.557 0.395,0.943 0.955,0.924 0.523,-0.018 0.92,-0.371 1.094,-0.873 0.346,-1 0.113,-1.988 -0.172,-2.949 -0.141,-0.477 -0.471,-0.912 -1.059,-0.809 -0.563,0.098 -0.783,0.553 -0.834,1.086 -0.035,0.373 -0.053,0.75 -0.084,1.213 z"
   id="path29"
   inkscape:connector-curvature="0"
   style="fill-rule:evenodd;stroke:#000000;stroke-width:0.5" />
	<path
   clip-rule="evenodd"
   d="m 511.889,368.08 c -0.057,0.445 -0.186,1.439 -0.318,2.436 -0.121,0.914 -0.779,1.293 -1.568,1.34 -0.826,0.051 -1.598,-0.438 -1.695,-1.215 -0.252,-1.977 -0.211,-3.986 0.523,-5.873 0.225,-0.58 0.953,-0.822 1.623,-0.756 0.717,0.072 1.115,0.572 1.215,1.242 0.112,0.744 0.122,1.506 0.22,2.826 z m -2.705,0.039 c 0.063,0.791 0.078,1.428 0.182,2.049 0.027,0.162 0.324,0.385 0.5,0.389 0.203,0.004 0.539,-0.16 0.594,-0.326 0.449,-1.348 0.484,-2.734 0.189,-4.115 -0.035,-0.166 -0.336,-0.309 -0.541,-0.4 -0.299,-0.135 -0.533,-0.01 -0.59,0.311 -0.133,0.743 -0.241,1.493 -0.334,2.092 z"
   id="path31"
   inkscape:connector-curvature="0"
   style="fill-rule:evenodd;stroke:#000000;stroke-width:0.5" />
	<path
   clip-rule="evenodd"
   d="m 476.192,394.752 c 4.943,-0.123 9.888,-0.254 14.832,-0.361 0.344,-0.01 0.752,0.023 0.85,0.768 -5.239,0.304 -10.454,0.298 -15.682,-0.407 z"
   id="path33"
   inkscape:connector-curvature="0"
   style="fill-rule:evenodd;stroke:#000000;stroke-width:0.5" />
	<path
   clip-rule="evenodd"
   d="m 501.973,368.227 c 0.008,1.477 0.248,2.422 -0.475,3.146 -0.258,0.26 -0.727,0.607 -0.967,0.527 -0.869,-0.293 -0.137,-0.729 0.037,-1.047 0.479,-0.875 0.242,-1.404 -0.652,-1.785 -0.709,-0.301 -1.385,-0.701 -1.506,-1.586 -0.068,-0.506 -0.207,-1.256 0.236,-1.41 0.662,-0.23 0.521,0.578 0.678,0.957 0.162,0.389 0.391,0.668 0.824,0.641 0.686,-0.043 0.746,-0.602 0.725,-1.09 -0.018,-0.369 -0.219,-0.727 -0.336,-1.09 -0.115,-0.355 -0.324,-0.83 0.17,-0.951 0.594,-0.146 0.939,0.322 1.006,0.859 0.142,1.135 0.213,2.278 0.26,2.829 z"
   id="path35"
   inkscape:connector-curvature="0"
   style="fill-rule:evenodd;stroke:#000000;stroke-width:0.5" />
	<path
   clip-rule="evenodd"
   d="m 467.712,352.861 c -0.071,1.885 -1.564,3.162 -3.594,3.023 -0.598,-0.041 -0.893,-0.561 -0.878,-1.064 0.021,-0.744 0.295,-1.479 0.32,-2.223 0.025,-0.703 -0.634,-1.48 0.238,-2.066 0.303,-0.203 0.672,-0.42 1.018,-0.43 1.733,-0.054 2.958,1.145 2.896,2.76 z m -0.926,0.174 c 0.034,-0.766 -0.604,-1.533 -1.358,-1.533 -0.868,0 -0.964,0.678 -0.944,1.322 0.018,0.6 -0.059,1.311 0.757,1.52 0.644,0.164 1.511,-0.588 1.545,-1.309 z"
   id="path37"
   inkscape:connector-curvature="0"
   style="fill-rule:evenodd;stroke:#000000;stroke-width:0.5" />
	<path
   clip-rule="evenodd"
   d="m 478.439,388.994 c -0.364,0.094 -0.729,0.27 -1.093,0.27 -5.245,-0.025 -10.488,-0.076 -15.732,-0.113 -0.336,-0.002 -0.525,-0.127 -0.483,-0.461 0.058,-0.455 0.407,-0.604 0.788,-0.506 3.017,0.779 6.074,0.451 9.125,0.396 2.416,-0.045 4.834,-0.01 7.25,-0.01 0.048,0.141 0.097,0.284 0.145,0.424 z"
   id="path39"
   inkscape:connector-curvature="0"
   style="fill-rule:evenodd;stroke:#000000;stroke-width:0.5" />
	<path
   clip-rule="evenodd"
   d="m 489.264,328.758 c 0.568,-0.27 1.035,-0.09 1.477,0.168 0.699,0.406 1.588,-0.498 2.121,0.162 0.666,0.826 0.359,1.939 0.418,2.93 0.008,0.162 -0.26,0.436 -0.441,0.479 -0.129,0.029 -0.359,-0.217 -0.492,-0.383 -1.258,-1.578 -1.25,-1.576 -2.617,0.26 -0.131,0.176 -0.377,0.381 -0.564,0.375 -0.426,-0.016 -0.666,-0.375 -0.604,-0.756 0.178,-1.102 0.012,-2.29 0.702,-3.235 z"
   id="path41"
   inkscape:connector-curvature="0"
   style="fill-rule:evenodd;stroke:#000000;stroke-width:0.5" />
	<path
   clip-rule="evenodd"
   d="m 485.338,369.123 c -0.158,1.023 0.221,2.086 -0.998,2.416 -0.865,0.232 -1.379,-0.605 -1.354,-2.205 0.01,-0.768 0.039,-1.537 0.096,-2.303 0.045,-0.586 -0.127,-1.432 0.822,-1.359 0.693,0.051 1.016,0.711 1.139,1.363 0.141,0.752 0.217,1.52 0.295,2.088 z"
   id="path43"
   inkscape:connector-curvature="0"
   style="fill-rule:evenodd;stroke:#000000;stroke-width:0.5" />
	<path
   clip-rule="evenodd"
   d="m 495.652,333.283 c -0.275,-1.232 -0.283,-2.471 -0.088,-3.779 1.066,1.004 2.08,0.209 3.104,0.035 0.406,0.729 -0.523,1.105 -0.469,1.627 0.211,2.002 -1.066,2.113 -2.547,2.117 z"
   id="path45"
   inkscape:connector-curvature="0"
   style="fill-rule:evenodd;stroke:#000000;stroke-width:0.5" />
	<path
   clip-rule="evenodd"
   d="m 471.893,365.117 c 0.09,0.602 0.209,1.096 0.223,1.594 0.01,0.322 0.11,0.734 -0.539,0.74 -1.363,0.014 -2.762,0.402 -3.959,-0.629 -0.563,-0.48 -0.738,-1.057 -0.286,-1.656 0.44,-0.584 0.876,-0.27 1.2,0.186 0.695,0.975 1.416,0.867 2.246,0.156 0.248,-0.213 0.658,-0.24 1.115,-0.391 z"
   id="path47"
   inkscape:connector-curvature="0"
   style="fill-rule:evenodd;stroke:#000000;stroke-width:0.5" />
	<path
   clip-rule="evenodd"
   d="m 457.589,356.135 c -0.601,0.047 -0.946,-0.336 -1.127,-0.809 -0.536,-1.41 -0.195,-2.752 0.521,-3.992 0.604,-1.047 1.662,-1.332 2.965,-0.871 0.17,0.061 0.264,0.377 0.355,0.592 0.031,0.072 -0.029,0.262 -0.086,0.279 -0.236,0.078 -0.489,0.105 -0.733,0.162 -1.905,0.451 -1.923,0.453 -1.97,2.066 -0.025,0.881 0.012,1.764 0.02,2.645 l 0.055,-0.072 z"
   id="path49"
   inkscape:connector-curvature="0"
   style="fill-rule:evenodd;stroke:#000000;stroke-width:0.5" />
	<path
   clip-rule="evenodd"
   d="m 492.707,388.848 c -3.756,0.426 -7.531,0.574 -11.301,-0.049 3.758,-0.567 7.518,-0.465 11.301,0.049 z"
   id="path51"
   inkscape:connector-curvature="0"
   style="fill-rule:evenodd;stroke:#000000;stroke-width:0.5" />
	<path
   clip-rule="evenodd"
   d="m 509.086,395.387 c -2.43,0 -4.857,0.002 -7.285,-0.002 -0.443,-0.002 -0.703,-0.271 -0.645,-0.678 0.021,-0.15 0.455,-0.41 0.596,-0.354 2.402,0.946 4.992,-0.292 7.334,1.034 z"
   id="path53"
   inkscape:connector-curvature="0"
   style="fill-rule:evenodd;stroke:#000000;stroke-width:0.5" />
	<path
   clip-rule="evenodd"
   d="m 496.646,370.381 c -0.789,-0.395 -0.633,-1.031 -0.66,-1.652 -0.057,-1.402 -0.088,-1.4 -1.83,-2 0.244,-0.785 0.887,-1.152 1.574,-1.422 0.564,-0.221 1.074,0.061 1.072,0.629 -0.007,1.468 0.344,2.968 -0.156,4.445 z"
   id="path55"
   inkscape:connector-curvature="0"
   style="fill-rule:evenodd;stroke:#000000;stroke-width:0.5" />
	<path
   clip-rule="evenodd"
   d="m 476.728,355.975 c -1.137,-0.99 -0.067,-3.213 -2.251,-3.107 -0.025,0.002 -0.109,-0.191 -0.08,-0.25 0.366,-0.707 0.963,-1.141 1.747,-1.178 0.683,-0.031 0.732,0.559 0.726,1.045 -0.016,1.093 -0.085,2.189 -0.142,3.49 z"
   id="path57"
   inkscape:connector-curvature="0"
   style="fill-rule:evenodd;stroke:#000000;stroke-width:0.5" />
	<path
   clip-rule="evenodd"
   d="m 464.679,367.979 c -1.065,-0.223 -0.396,-1.313 -0.922,-1.848 -0.376,-0.381 -1.178,-0.453 -1.074,-1.254 2.757,-0.191 2.757,-0.191 1.996,3.102 z"
   id="path59"
   inkscape:connector-curvature="0"
   style="fill-rule:evenodd;stroke:#000000;stroke-width:0.5" />
	<path
   clip-rule="evenodd"
   d="m 504.328,365.953 c 0.883,0.688 -0.07,2.357 1.58,2.686 0.496,0.098 0.566,1.313 0.047,2.027 -2.523,-1.293 -2.523,-1.293 -1.627,-4.713 z"
   id="path61"
   inkscape:connector-curvature="0"
   style="fill-rule:evenodd;stroke:#000000;stroke-width:0.5" />
	<path
   clip-rule="evenodd"
   d="m 503.801,331.117 c 0,-0.746 -0.029,-1.494 0.025,-2.234 0.012,-0.139 0.361,-0.344 0.559,-0.35 0.199,-0.006 0.582,0.203 0.58,0.311 -0.035,1.615 -0.441,3.23 0.059,4.848 0.021,0.066 -0.342,0.355 -0.529,0.361 -0.199,0.002 -0.57,-0.203 -0.578,-0.332 -0.053,-0.865 -0.027,-1.736 -0.027,-2.604 -0.031,0 -0.06,0 -0.089,0 z"
   id="path63"
   inkscape:connector-curvature="0"
   style="fill-rule:evenodd;stroke:#000000;stroke-width:0.5" />
	<path
   clip-rule="evenodd"
   d="m 499.619,351.619 c 0.631,1.914 0.104,3.68 1.244,5.504 -2.433,-1.303 -2.494,-1.639 -1.244,-5.504 z"
   id="path65"
   inkscape:connector-curvature="0"
   style="fill-rule:evenodd;stroke:#000000;stroke-width:0.5" />
	<path
   clip-rule="evenodd"
   d="m 457.534,356.207 c 1.199,-0.068 2.664,0.168 2.096,-1.891 -0.023,-0.086 0.328,-0.369 0.535,-0.41 0.415,-0.086 0.724,0.172 0.785,0.568 0.285,1.826 -0.367,2.523 -2.223,2.42 -0.527,-0.029 -0.955,-0.211 -1.138,-0.76 l -0.055,0.073 z"
   id="path67"
   inkscape:connector-curvature="0"
   style="fill-rule:evenodd;stroke:#000000;stroke-width:0.5" />
	<path
   clip-rule="evenodd"
   d="m 461.68,372.055 c 1.559,-0.363 2.336,-1.406 2.995,-2.588 -0.129,3.054 -0.129,3.054 -2.995,2.588 z"
   id="path69"
   inkscape:connector-curvature="0"
   style="fill-rule:evenodd;stroke:#000000;stroke-width:0.5" />
	<path
   clip-rule="evenodd"
   d="m 471.761,394.461 c -1.444,0.291 -2.208,0.748 -3.305,0.195 0.984,-0.699 1.861,-0.601 3.305,-0.195 z"
   id="path71"
   inkscape:connector-curvature="0"
   style="fill-rule:evenodd;stroke:#000000;stroke-width:0.5" />
	<path
   clip-rule="evenodd"
   d="m 497.707,389.08 c -0.816,0 -1.635,0 -2.699,0 1.068,-0.732 1.883,-0.41 2.699,0 z"
   id="path73"
   inkscape:connector-curvature="0"
   style="fill-rule:evenodd;stroke:#000000;stroke-width:0.5" />
	<path
   clip-rule="evenodd"
   d="m 484.971,233.455 c -2.432,-0.04 -4.884,0.304 -7.3,-0.204 -1.385,-0.289 -1.693,-0.699 -1.633,-2.101 0.039,-0.908 0.263,-1.711 0.777,-2.518 1.637,-2.567 3.151,-5.215 4.742,-7.813 0.771,-1.26 1.955,-1.734 3.217,-1.191 0.68,0.293 1.396,0.757 1.822,1.343 1.877,2.589 3.678,5.236 5.453,7.896 0.418,0.625 0.766,1.355 0.92,2.085 0.244,1.165 -0.654,2.265 -1.84,2.447 -0.252,0.039 -0.512,0.052 -0.768,0.052 -1.797,0.005 -3.593,0.004 -5.39,0.004 z m -1.065,-0.951 c 0,-0.022 0,-0.045 0,-0.066 1.152,0 2.307,0.045 3.453,-0.017 0.754,-0.04 1.625,-0.129 1.828,-1.054 0.137,-0.625 -0.061,-1.263 -0.623,-1.716 -0.592,-0.477 -1.541,-0.956 -1.383,-1.719 0.605,-2.939 -2.262,-4.417 -2.732,-6.874 -0.021,-0.121 -0.426,-0.264 -0.623,-0.231 -0.215,0.035 -0.551,0.244 -0.572,0.411 -0.205,1.529 -0.414,2.992 -2.135,3.697 -0.265,0.108 -0.375,0.932 -0.333,1.405 0.117,1.35 -0.178,2.373 -1.2,3.431 -1.063,1.101 -0.268,2.615 1.249,2.719 1.019,0.071 2.048,0.014 3.071,0.014 z"
   id="path75"
   inkscape:connector-curvature="0"
   style="fill-rule:evenodd;stroke:#000000;stroke-width:0.5" />
	<path
   clip-rule="evenodd"
   d="m 488.045,186.038 c 0.119,1.814 0.334,3.504 -0.297,5.776 -0.996,-3.154 -0.889,-4.521 0.297,-5.776 z"
   id="path77"
   inkscape:connector-curvature="0"
   style="fill-rule:evenodd;stroke:#000000;stroke-width:0.5" />
	<path
   clip-rule="evenodd"
   d="m 504.586,354.377 c 0.045,-0.508 0.115,-1.15 0.924,-1.262 1.051,-0.145 2.139,1.064 1.947,2.221 -0.154,0.934 -0.947,1.092 -1.713,1.113 -0.863,0.024 -1.232,-0.636 -1.158,-2.072 z"
   id="path79"
   inkscape:connector-curvature="0"
   style="fill:none;stroke:#000000;stroke-width:0.5" />
	<path
   clip-rule="evenodd"
   d="m 487.068,353.822 c -0.057,0.338 -0.102,0.842 -0.234,1.322 -0.145,0.525 -0.549,0.9 -1.088,0.811 -0.289,-0.047 -0.689,-0.418 -0.744,-0.697 -0.162,-0.859 -0.262,-1.748 -0.234,-2.619 0.021,-0.713 0.549,-1.098 1.271,-1.09 0.613,0.008 0.842,0.438 0.91,0.977 0.049,0.374 0.071,0.751 0.119,1.296 z"
   id="path81"
   inkscape:connector-curvature="0"
   style="fill:none;stroke:#000000;stroke-width:0.5" />
	<path
   clip-rule="evenodd"
   d="m 490.748,353.84 c 0.031,-0.463 0.049,-0.84 0.084,-1.213 0.051,-0.533 0.271,-0.988 0.834,-1.086 0.588,-0.104 0.918,0.332 1.059,0.809 0.285,0.961 0.518,1.949 0.172,2.949 -0.174,0.502 -0.57,0.855 -1.094,0.873 -0.561,0.02 -0.891,-0.367 -0.955,-0.924 -0.057,-0.496 -0.073,-0.996 -0.1,-1.408 z"
   id="path83"
   inkscape:connector-curvature="0"
   style="fill:none;stroke:#000000;stroke-width:0.5" />
	<path
   clip-rule="evenodd"
   d="m 509.184,368.119 c 0.094,-0.6 0.201,-1.35 0.334,-2.094 0.057,-0.32 0.291,-0.445 0.59,-0.311 0.205,0.092 0.506,0.234 0.541,0.4 0.295,1.381 0.26,2.768 -0.189,4.115 -0.055,0.166 -0.391,0.33 -0.594,0.326 -0.176,-0.004 -0.473,-0.227 -0.5,-0.389 -0.104,-0.619 -0.12,-1.256 -0.182,-2.047 z"
   id="path85"
   inkscape:connector-curvature="0"
   style="fill:none;stroke:#000000;stroke-width:0.5" />
	<path
   clip-rule="evenodd"
   d="m 466.786,353.035 c -0.033,0.721 -0.9,1.473 -1.546,1.309 -0.815,-0.209 -0.739,-0.92 -0.757,-1.52 -0.02,-0.645 0.076,-1.322 0.944,-1.322 0.755,0 1.393,0.768 1.359,1.533 z"
   id="path87"
   inkscape:connector-curvature="0"
   style="fill:none;stroke:#000000;stroke-width:0.5" />
	<path
   clip-rule="evenodd"
   d="m 483.906,232.504 c -1.023,0 -2.053,0.057 -3.072,-0.014 -1.517,-0.104 -2.313,-1.618 -1.249,-2.719 1.022,-1.058 1.317,-2.081 1.2,-3.431 -0.041,-0.474 0.068,-1.297 0.333,-1.405 1.721,-0.705 1.93,-2.168 2.135,-3.697 0.021,-0.167 0.357,-0.376 0.572,-0.411 0.197,-0.032 0.602,0.11 0.623,0.231 0.471,2.457 3.338,3.935 2.732,6.874 -0.158,0.763 0.791,1.242 1.383,1.719 0.563,0.453 0.76,1.091 0.623,1.716 -0.203,0.925 -1.074,1.014 -1.828,1.054 -1.146,0.062 -2.301,0.017 -3.453,0.017 0.001,0.021 0.001,0.044 0.001,0.066 z m -1.414,-4.703 c -0.02,0.966 0.633,1.283 1.422,1.442 0.877,0.177 1.359,-0.271 1.414,-1.253 0.045,-0.825 -0.148,-1.546 -1.037,-1.756 -0.775,-0.183 -1.713,0.695 -1.799,1.567 z"
   id="path89"
   inkscape:connector-curvature="0"
   style="fill:none;stroke:#000000;stroke-width:0.5" />
	<path
   clip-rule="evenodd"
   d="m 482.492,227.801 c 0.086,-0.872 1.023,-1.75 1.799,-1.566 0.889,0.21 1.082,0.931 1.037,1.756 -0.055,0.981 -0.537,1.43 -1.414,1.253 -0.789,-0.16 -1.441,-0.477 -1.422,-1.443 z"
   id="path91"
   inkscape:connector-curvature="0"
   style="fill-rule:evenodd;stroke:#000000;stroke-width:0.5" />
</g>
</svg>