<?xml version="1.0" encoding="UTF-8" standalone="no"?>
<!-- Generator: Adobe Illustrator 16.0.3, SVG Export Plug-In . SVG Version: 6.00 Build 0)  -->

<svg
   xmlns:dc="http://purl.org/dc/elements/1.1/"
   xmlns:cc="http://creativecommons.org/ns#"
   xmlns:rdf="http://www.w3.org/1999/02/22-rdf-syntax-ns#"
   xmlns:svg="http://www.w3.org/2000/svg"
   xmlns="http://www.w3.org/2000/svg"
   xmlns:sodipodi="http://sodipodi.sourceforge.net/DTD/sodipodi-0.dtd"
   xmlns:inkscape="http://www.inkscape.org/namespaces/inkscape"
   version="1.1"
   id="Ebene_1"
   x="0px"
   y="0px"
   width="58.348122"
   height="267.14313"
   viewBox="0 0 58.348122 267.14313"
   enable-background="new 0 0 960 560"
   xml:space="preserve"
   inkscape:version="0.48.2 r9819"
   sodipodi:docname="08_Sprengbombe4.svg"><metadata
   id="metadata27"><rdf:RDF><cc:Work
       rdf:about=""><dc:format>image/svg+xml</dc:format><dc:type
         rdf:resource="http://purl.org/dc/dcmitype/StillImage" /></cc:Work></rdf:RDF></metadata><defs
   id="defs25" /><sodipodi:namedview
   pagecolor="#ffffff"
   bordercolor="#666666"
   borderopacity="1"
   objecttolerance="10"
   gridtolerance="10"
   guidetolerance="10"
   inkscape:pageopacity="0"
   inkscape:pageshadow="2"
   inkscape:window-width="640"
   inkscape:window-height="480"
   id="namedview23"
   showgrid="false"
   fit-margin-top="0"
   fit-margin-left="0"
   fit-margin-right="0"
   fit-margin-bottom="0"
   inkscape:zoom="0.33541667"
   inkscape:cx="29.695892"
   inkscape:cy="134.23401"
   inkscape:window-x="0"
   inkscape:window-y="0"
   inkscape:window-maximized="0"
   inkscape:current-layer="Ebene_1" />
<g
   id="g3"
   transform="translate(-450.30411,-147.09089)">
	<path
   clip-rule="evenodd"
   d="m 470.142,402.178 c -0.443,-0.486 -1.006,-0.898 -1.293,-1.451 -1.447,-2.795 -3,-5.555 -4.154,-8.471 -0.727,-1.832 -1.525,-3.668 -2.051,-5.572 -1.113,-4.023 -2.576,-7.936 -3.152,-12.127 -0.215,-1.551 -0.674,-3.082 -0.699,-4.699 -0.01,-0.555 -0.674,-1.082 -0.742,-1.658 -0.275,-2.248 -0.41,-4.514 -0.648,-6.768 -0.076,-0.748 -0.389,-1.475 -0.451,-2.223 -0.434,-5.217 -0.889,-10.434 -1.211,-15.656 -0.141,-2.264 0.055,-4.547 0.037,-6.82 -0.02,-2.689 -0.109,-5.375 -0.15,-8.064 -0.008,-0.404 0.09,-0.809 0.15,-1.211 0.15,-1.012 0.344,-1.945 -1.15,-2.225 -0.393,-0.074 -0.85,-1.027 -0.873,-1.594 -0.049,-1.094 -0.15,-1.932 -1.461,-2.129 -0.373,-0.057 -0.703,-0.424 -1.047,-0.658 -1.266,-0.861 -1.291,-1.801 0.131,-2.383 1.258,-0.514 1.9,-1.281 2.225,-2.539 0.424,-1.641 2.059,-1.383 3.572,-1.984 0.092,-2.08 0.092,-4.281 0.303,-6.461 0.369,-3.816 0.869,-7.617 1.307,-11.426 0.135,-1.17 0.213,-2.344 0.369,-3.51 0.43,-3.232 1.762,-6.334 1.4,-9.682 -0.008,-0.07 -0.004,-0.143 0.008,-0.211 0.684,-3.628 1.293,-7.27 2.076,-10.876 0.674,-3.113 0.521,-3.725 -2.324,-5.485 0.504,-0.708 0.854,-1.672 1.531,-2.049 1.346,-0.752 1.449,-1.908 1.578,-3.165 0.115,-1.111 0.264,-2.221 0.438,-3.322 0.055,-0.334 0.162,-0.843 0.387,-0.938 2.469,-1.043 2.035,-3.597 2.771,-5.472 0.779,-1.993 1.047,-4.194 1.488,-6.313 0.426,-2.047 0.789,-4.108 1.234,-6.448 -0.471,-0.115 -1.156,-0.313 -1.855,-0.45 -2.131,-0.417 -4.275,-0.773 -6.4,-1.225 -1.936,-0.408 -2.949,-1.981 -2.666,-3.978 0.057,-0.402 0.244,-0.84 0.146,-1.202 -1.045,-3.879 -0.51,-7.836 -0.584,-11.757 -0.111,-6.014 -0.084,-12.029 -0.109,-18.045 -0.01,-2.725 -0.002,-5.449 -0.002,-8.153 -2.881,-0.957 -2.859,-1.119 -2.455,-4.02 0.287,-2.054 0.271,-4.166 0.203,-6.246 -0.105,-3.284 -0.432,-6.563 -0.541,-9.848 -0.047,-1.378 0.258,-2.764 0.332,-4.149 0.031,-0.62 0.006,-1.294 -0.205,-1.865 -0.408,-1.102 -0.076,-1.747 0.957,-2.165 0.828,-0.336 1.408,-0.809 1.395,-1.864 -0.016,-1.115 -0.684,-1.393 -1.557,-1.63 -1.07,-0.294 -1.053,-1.19 -0.996,-2.056 0.117,-1.763 0.357,-3.523 0.359,-5.285 0,-1.597 -0.324,-3.19 -0.373,-4.789 -0.055,-1.885 0.516,-2.34 2.346,-2.319 1.611,0.017 3.221,-0.114 4.834,-0.122 4.877,-0.023 9.756,0.017 14.633,-0.04 3.293,-0.039 6.586,-0.241 9.881,-0.288 1.32,-0.02 2.645,0.237 3.969,0.268 1.813,0.042 3.629,-0.063 5.439,-0.012 3.295,0.093 6.588,0.276 9.883,0.38 1.873,0.058 2.17,0.264 2.188,2.229 0.012,1.255 -0.229,2.51 -0.248,3.767 -0.043,2.56 -0.012,5.119 -0.012,7.785 -0.361,0.216 -0.859,0.47 -1.311,0.792 -1.611,1.156 -1.885,2.578 -0.211,3.437 2.455,1.259 1.773,3.239 1.814,5.063 0.047,2.069 -0.215,4.144 -0.232,6.217 -0.021,2.3 0.266,4.612 0.092,6.893 -0.248,3.264 -0.813,6.502 -1.203,9.757 -0.088,0.737 -0.033,1.495 -0.02,2.243 0.105,6.125 0.162,12.252 0.367,18.375 0.059,1.716 -0.365,3.401 0.105,5.18 0.316,1.195 -0.941,1.242 -1.957,1.019 0,-7.655 0,-15.248 0,-22.969 -0.885,-0.363 -1.629,-0.177 -2.537,0.489 -1.498,1.098 -3.188,1.939 -4.807,2.87 -1.244,0.713 -1.58,1.782 -1.619,3.178 -0.076,2.7 -0.299,5.4 -0.566,8.088 -0.195,1.976 -1.525,2.914 -3.385,3.195 -1.559,0.237 -2.826,0.777 -2.975,2.754 1.707,0.422 1.25,1.947 1.52,3.135 0.143,0.633 0.234,1.276 0.346,1.916 0.211,1.225 0.426,2.447 0.621,3.673 0.096,0.597 0.08,1.22 0.236,1.798 0.545,2.017 1.205,4.005 1.701,6.032 0.26,1.068 0.711,1.6 1.863,1.485 2.088,-0.206 4.195,-0.254 6.271,-0.545 2.141,-0.301 2.77,-1.442 3.063,-3.866 0.34,-2.814 0.576,-5.612 0.365,-8.438 -0.045,-0.615 -0.207,-1.223 -0.373,-2.151 0.42,-0.067 1.047,-0.352 1.492,-0.175 0.332,0.133 0.547,0.84 0.617,1.321 0.545,3.789 0.152,7.578 -0.543,11.279 -0.6,3.182 -1.709,4.238 -4.898,4.285 -2.291,0.034 -4.578,0.222 -7.186,0.358 0.275,1.645 0.504,2.972 0.717,4.303 0.447,2.81 1.596,5.51 1.303,8.438 -0.031,0.329 0.094,0.682 0.184,1.013 0.293,1.099 0.533,2.221 0.93,3.283 0.379,1.021 0.965,1.962 1.381,2.972 0.258,0.618 0.572,1.32 0.504,1.946 -0.176,1.638 0.236,3.017 1.322,4.221 0.717,0.792 0.861,1.523 -0.006,2.375 -0.471,0.463 -0.715,1.157 -1.057,1.746 1.289,3.299 1.424,6.845 1.863,10.341 0.355,2.815 0.828,5.618 1.18,8.436 0.166,1.342 0.104,2.717 0.273,4.063 0.244,1.932 0.719,3.838 0.898,5.773 0.342,3.711 1.207,7.338 1.145,11.127 -0.057,3.41 0.727,6.828 0.984,10.254 0.332,4.398 0.617,8.807 0.727,13.215 0.135,5.398 0.244,10.809 0.033,16.199 -0.164,4.166 -0.84,8.314 -1.273,12.469 -0.049,0.473 -0.006,0.955 0.008,1.432 0.016,0.492 0.25,1.105 0.039,1.455 -1.047,1.734 -0.494,3.744 -1.078,5.541 -0.086,0.262 -0.402,0.51 -0.379,0.74 0.287,2.74 -0.674,5.299 -1.115,7.93 -0.68,4.053 -1.502,8.043 -3.246,11.836 -0.477,1.041 -1.016,2.221 -1.07,3.588 -0.053,1.361 -0.855,2.754 -1.545,4.018 -1.041,1.91 -2.117,3.84 -3.461,5.539 -1.697,2.145 -3.023,4.871 -6.432,5.098 0.02,1.939 -0.496,3.541 -2.512,4.26 -0.41,0.148 -0.684,0.686 -1.018,1.043 -1.766,1.896 -3.545,1.838 -5.221,-0.146 -0.49,-0.578 -0.965,-1.225 -1.582,-1.629 -1.371,-0.898 -1.578,-2.02 -0.799,-3.65 -2.979,-0.727 -6.002,-1.451 -6.508,-5.248 z m 9.188,-132.427 c -4.205,-0.208 -8.26,-0.441 -12.318,-0.593 -1.6,-0.061 -2.195,0.685 -2.324,2.325 -0.15,1.91 -0.348,3.819 -0.633,5.713 -0.713,4.7 -1.58,9.379 -2.219,14.088 -0.693,5.125 -1.207,10.275 -1.781,15.416 -0.32,2.857 -0.734,5.713 -0.881,8.58 -0.236,4.621 -0.287,9.254 -0.416,13.881 -0.115,4.072 -0.482,8.156 -0.293,12.213 0.322,6.879 0.984,13.742 1.531,20.611 0.154,1.955 0.342,2.125 2.328,2.154 4.773,0.076 9.545,0.123 14.32,0.143 3.891,0.018 7.784,-0.027 11.676,-0.039 2.465,-0.008 4.93,0.012 7.395,-0.02 0.822,-0.01 1.807,0.086 2.018,-1.057 0.387,-2.111 0.824,-4.225 1.035,-6.357 0.227,-2.281 0.211,-4.588 0.318,-6.883 0.008,-0.203 0.154,-0.395 0.182,-0.598 0.172,-1.168 0.611,-2.385 0.42,-3.492 -0.314,-1.811 0.297,-3.412 0.598,-5.09 0.084,-0.471 0.379,-0.945 0.334,-1.393 -0.416,-4.143 0.639,-8.26 0.133,-12.414 -0.264,-2.145 -0.172,-4.332 -0.23,-6.502 -0.045,-1.732 -0.1,-3.465 -0.102,-5.197 -0.004,-2.205 0.379,-4.473 -0.016,-6.598 -0.564,-3.031 -0.342,-6.064 -0.643,-9.084 -0.332,-3.338 -0.596,-6.682 -0.896,-10.023 -0.059,-0.648 -0.313,-1.322 -0.199,-1.938 0.469,-2.572 -0.4,-5.012 -0.652,-7.507 -0.318,-3.164 -0.859,-6.305 -1.182,-9.468 -0.117,-1.138 -0.625,-1.423 -1.625,-1.412 -2.527,0.028 -5.057,0.011 -7.584,0.013 -1.098,10e-4 -2.193,0 -3.219,0 -0.66,2.642 -0.998,3.076 -2.266,3.11 -1.589,0.044 -2.266,-0.563 -2.809,-2.582 z m 24.481,-81.884 c -0.139,-0.665 -0.311,-1.327 -0.404,-2 -0.15,-1.077 -0.264,-2.162 -0.367,-3.246 -0.045,-0.484 -0.188,-1.043 -0.014,-1.452 0.549,-1.292 0.279,-2.554 0.17,-3.865 -0.111,-1.335 0.092,-2.695 0.129,-4.044 0.029,-1.023 -0.09,-2.062 0.041,-3.069 0.268,-2.075 -0.471,-2.931 -2.557,-2.873 -3.934,0.107 -7.867,0.21 -11.801,0.252 -5.777,0.059 -11.559,0.117 -17.334,0.073 -3.975,-0.03 -7.947,-0.233 -11.92,-0.369 -1.025,-0.035 -1.816,0.116 -1.771,1.445 0.049,1.515 -0.039,3.033 0.002,4.549 0.045,1.596 0.23,3.191 0.248,4.788 0.039,3.654 0.014,7.313 0.014,11.114 1.363,0.179 2.385,0.405 3.41,0.428 3.057,0.065 6.113,0.013 9.168,0.08 2.031,0.044 4.059,0.325 6.086,0.305 2.475,-0.021 4.948,-0.374 7.42,-0.36 5.652,0.034 11.305,0.243 16.959,0.293 1.353,0.01 2.728,-0.297 2.521,-2.049 z m -38.056,80.118 c 1.936,0 3.613,0.021 5.289,-0.005 1.68,-0.029 3.361,-0.182 5.037,-0.146 3.66,0.072 3.658,0.108 3.441,-3.608 -0.021,-0.351 -0.045,-0.702 -0.023,-1.05 0.088,-1.284 0.119,-2.579 0.313,-3.85 0.219,-1.415 1.268,-1.737 2.524,-1.566 1.303,0.18 1.75,1.117 1.734,2.263 -0.021,1.603 -0.104,3.212 -0.281,4.805 -0.215,1.94 0.26,2.873 2.182,2.962 3.262,0.153 6.539,0.042 9.936,0.042 0,-1.502 0.293,-2.719 -0.08,-3.674 -0.398,-1.015 -0.525,-1.931 -0.598,-2.993 -0.164,-2.43 -0.521,-4.857 -0.984,-7.252 -0.457,-2.387 -1.068,-4.751 -1.74,-7.089 -0.664,-2.317 -0.115,-4.809 -1.104,-7.072 -0.072,-0.164 0.252,-0.472 0.307,-0.731 0.059,-0.272 0.133,-0.718 -0.008,-0.832 -1.613,-1.303 -1.486,-3.139 -1.566,-4.908 -0.059,-1.292 -0.355,-2.349 -1.893,-2.188 -0.318,-1.478 -0.605,-2.816 -0.928,-4.303 -0.303,1.145 -0.543,2.049 -0.781,2.954 -0.244,-0.032 -0.488,-0.065 -0.732,-0.099 0.658,-4.561 -1.189,-9.149 0.727,-13.838 -1.045,-0.106 -1.945,-0.197 -2.838,-0.286 0,1.31 0.012,2.283 -0.004,3.256 -0.055,3.693 -0.156,7.385 -0.166,11.078 -0.006,2.292 0.168,4.586 0.15,6.878 -0.006,0.494 -0.439,1.364 -0.76,1.406 -0.92,0.118 -1.082,-0.697 -1.055,-1.44 0.021,-0.556 0.229,-1.109 0.217,-1.661 -0.092,-4.455 -0.303,-8.91 -0.303,-13.364 0,-4.912 0.178,-9.826 0.301,-14.739 0.033,-1.379 0.23,-2.761 0.195,-4.137 -0.064,-2.48 -0.273,-4.958 -0.369,-7.438 -0.049,-1.207 -0.594,-1.214 -1.194,-0.938 0,1.809 0.014,3.406 -0.002,5.003 -0.053,5.656 -0.213,11.314 -0.15,16.971 0.07,6.642 0.352,13.281 0.473,19.923 0.008,0.456 -0.577,0.922 -0.885,1.385 -0.303,-0.409 -0.85,-0.804 -0.871,-1.227 -0.152,-2.804 -0.256,-5.61 -0.258,-8.418 -0.008,-7.523 0.049,-15.045 0.057,-22.567 0,-0.482 -0.205,-0.963 -0.316,-1.445 -0.176,0.006 -0.352,0.013 -0.527,0.02 -0.209,1.337 -0.361,2.687 -0.639,4.011 -0.574,2.725 -1.313,5.419 -1.805,8.156 -0.668,3.716 -1.055,7.484 -1.768,11.189 -0.896,4.66 -2.004,9.278 -3.016,13.917 -1.279,5.867 -2.531,11.742 -3.854,17.6 -0.262,1.164 -0.779,2.271 -1.217,3.504 0.039,0.502 0.389,1.383 0.09,1.833 -0.779,1.171 -0.414,2.244 -0.258,3.708 z M 502.98,150.041 c -1.855,-1.164 -3.77,-0.854 -5.623,-0.82 -4.047,0.074 -8.092,0.247 -12.141,0.312 -4.37,0.068 -8.741,0.076 -13.108,0.079 -3.639,0.002 -7.277,0.023 -10.912,-0.095 -1.441,-0.046 -2.592,0.278 -3.438,1.258 0,2.159 0.145,4.195 -0.033,6.205 -0.314,3.588 0.273,4.281 3.857,3.994 0.279,-0.021 0.586,-0.179 0.826,-0.104 0.375,0.116 0.703,0.379 1.219,0.675 -1.264,0.528 -2.518,0.685 -3.092,1.391 -0.641,0.786 -0.662,2.074 -1.012,3.355 2.014,0 3.666,0.013 5.316,-0.003 4.703,-0.043 9.406,-0.103 14.109,-0.146 5.313,-0.053 10.625,-0.1 15.938,-0.146 1.758,-0.015 3.518,0.03 5.271,-0.041 1.318,-0.054 1.563,-0.472 1.244,-1.764 -0.422,-1.711 -0.881,-2.21 -2.775,-2.201 -2.793,0.014 -5.689,0.774 -8.348,0.243 -3.477,-0.693 -6.762,0.496 -10.223,0.062 -4.621,-0.579 -9.371,-0.137 -14.064,-0.161 -0.504,-0.003 -1.006,-0.191 -1.635,-0.32 0.252,-0.387 0.35,-0.693 0.469,-0.701 1.713,-0.118 3.428,-0.215 5.143,-0.273 0.621,-0.022 1.248,0.108 1.871,0.102 1.869,-0.02 3.736,-0.093 5.604,-0.105 1.184,-0.008 2.367,0.086 3.551,0.077 1.379,-0.012 2.758,-0.085 4.137,-0.134 1.945,-0.068 3.895,-0.107 5.838,-0.215 1.654,-0.092 3.365,-0.606 4.939,-0.322 2.881,0.521 5.654,1.275 8.096,-0.923 -0.275,-0.114 -0.973,-0.265 -0.977,-0.43 -0.066,-2.917 -0.047,-5.831 -0.047,-8.849 z m -12.89,241.057 c 0.314,-1.381 0.389,-2.621 0.881,-3.664 0.904,-1.924 1.092,-4.082 2.23,-5.947 0.82,-1.338 1.75,-3.01 1.611,-4.436 -0.188,-1.947 0.605,-3.498 1.148,-5.48 -11.465,0 -22.733,0 -34.061,0 0.699,6.055 2.652,11.58 4.898,17.018 0.389,0.941 0.684,2.174 1.422,2.646 0.703,0.449 1.93,0.047 2.924,0.074 3.545,0.1 7.088,0.287 10.633,0.322 2.781,0.027 5.605,0.49 8.314,-0.533 z M 459.644,223.199 c 0.227,0.472 0.758,1.096 0.801,1.752 0.127,1.965 0.049,3.944 0.082,5.916 0.033,1.98 2.197,4.43 4.104,4.685 0.885,0.118 1.785,0.174 2.658,0.35 2.047,0.41 3.176,-0.228 3.617,-2.214 0.609,-2.743 1.199,-5.494 1.734,-8.253 0.545,-2.817 1.016,-5.648 1.537,-8.587 -1.045,-0.257 -2.262,-0.524 -3.459,-0.858 -1.748,-0.487 -2.219,-1.524 -2.092,-3.255 0.158,-2.174 0.002,-4.37 -0.012,-6.556 -0.002,-0.481 -0.027,-0.975 0.061,-1.443 0.389,-2.068 -0.203,-3.009 -2.26,-3.732 -0.914,-0.321 -1.764,-0.818 -2.648,-1.221 -1.021,-0.467 -2.051,-0.917 -3.449,-1.54 -0.145,2.113 -0.352,3.755 -0.348,5.397 0.004,4.331 0.078,8.664 0.172,12.996 0.035,1.529 0.285,3.058 0.275,4.584 -0.005,0.603 -0.455,1.202 -0.773,1.979 z m 27.044,-20.256 c 0.285,1.183 0.211,2.518 0.84,3.139 1.256,1.235 1.199,2.439 0.973,3.969 -0.246,1.665 0.729,2.677 2.307,2.843 2.25,0.239 3.254,-0.365 3.463,-2.273 0.242,-2.195 0.391,-4.401 0.508,-6.607 0.164,-3.049 0.279,-6.104 0.375,-9.158 0.018,-0.524 -0.16,-1.055 -0.232,-1.497 -1.793,0 -3.398,-0.046 -4.998,0.014 -1.678,0.063 -3.346,0.268 -5.023,0.333 -0.91,0.036 -1.592,0.358 -1.572,1.293 0.039,1.83 0.223,3.655 0.346,5.44 3.299,0.214 4.111,0.541 4.188,1.716 -0.338,0.223 -0.72,0.481 -1.175,0.788 z m -25.802,162.76 c 0,0.57 -0.041,1.115 0.006,1.652 0.174,1.998 0.592,2.42 2.588,2.486 0.979,0.035 1.961,-0.1 2.939,-0.086 3.98,0.063 7.961,0.182 11.941,0.221 2.086,0.021 4.174,-0.111 6.262,-0.123 3.803,-0.021 7.605,-0.006 11.566,-0.006 0.318,-1.438 0.613,-2.766 0.92,-4.145 -12.219,10e-4 -24.124,10e-4 -36.222,10e-4 z m 17.619,-172.059 c -1.986,-0.065 -3.863,-0.257 -5.723,-0.139 -0.99,0.064 -1.441,0.983 -1.396,2.034 0.09,2.139 0.209,4.279 0.219,6.419 0.014,2.803 -0.094,5.604 -0.08,8.405 0.002,0.683 0.072,1.551 0.48,1.996 0.479,0.525 1.334,0.839 2.072,0.958 0.865,0.141 1.141,-0.494 1.191,-1.338 0.063,-1.034 0.295,-2.061 0.469,-3.087 0.332,-1.965 0.875,-3.917 0.961,-5.891 0.088,-2.071 -0.1,-2.079 2.23,-2.792 -0.13,-2.025 -0.266,-4.142 -0.423,-6.565 z m 6.673,206.307 c -3.971,-0.637 -11.694,-0.328 -12.717,0.404 1.609,5.047 5.625,4.023 9.295,3.563 2.191,-0.275 2.103,-2.623 3.422,-3.967 z m 3.277,-6.385 c -6.414,0 -12.657,0 -18.981,0 -0.096,0.576 -0.193,1.164 -0.332,1.998 6.564,0 12.928,0 19.313,0 0,-0.738 0,-1.214 0,-1.998 z m -1.56,4.344 c -0.025,-0.271 -0.051,-0.541 -0.074,-0.813 -1.803,0 -3.604,-0.027 -5.404,0.008 -1.881,0.037 -3.772,0.035 -5.637,0.244 -1.668,0.186 -3.438,-0.859 -5.027,0.477 4.262,0.797 8.555,0.105 12.821,0.301 1.1,0.051 2.213,-0.139 3.321,-0.217 z m -1.291,10.287 c -2.164,-2.344 -4.649,-0.771 -6.782,-1.326 -0.525,1 -1.121,2.117 0.088,2.441 1.439,0.389 3.057,0.313 4.567,0.162 0.707,-0.07 1.347,-0.785 2.127,-1.277 z m -3.463,-147.921 c -0.225,0.016 -0.449,0.03 -0.674,0.046 -1.11,3.111 -0.119,6.427 -0.788,9.603 1.678,0.021 2.372,-0.455 2.131,-1.621 -0.385,-1.866 -0.666,-3.635 -0.043,-5.541 0.225,-0.689 -0.392,-1.651 -0.626,-2.487 z m 23.457,99.359 c -1.512,-1.803 -2.137,-3.471 -1.051,-5.697 -1.232,0.125 -2.084,0.211 -2.891,0.291 -0.01,1.912 1.318,0.574 2.246,1.156 -0.496,1.123 -0.988,2.234 -1.51,3.41 0.438,0 0.813,0 1.299,0 -0.148,0.451 -0.258,0.789 -0.404,1.236 0.645,-0.109 1.174,-0.201 2.311,-0.396 z m -21.16,-151.819 c -0.225,0.01 -0.447,0.019 -0.67,0.027 -0.133,1.451 -0.268,2.902 -0.414,4.499 1.029,-0.192 1.693,-0.315 2.242,-0.418 -0.407,-1.438 -0.783,-2.772 -1.158,-4.108 z"
   id="path5"
   inkscape:connector-curvature="0"
   style="fill-rule:evenodd" />
	<path
   clip-rule="evenodd"
   d="m 478.533,344.523 c -1.508,-0.723 -2.551,-1.582 -3.475,0.379 0.711,0 1.266,0.076 1.793,-0.016 1.514,-0.258 2.512,0.176 3.053,1.416 0.699,1.604 0.6,1.945 -0.936,3.162 -0.385,0.305 -0.742,0.658 -1.164,0.896 -1.984,1.113 -4.16,-0.051 -4.18,-2.309 -0.012,-1.455 0.119,-2.936 0.418,-4.357 0.113,-0.533 0.836,-1.26 1.355,-1.324 0.982,-0.125 2.031,0.111 3.02,0.344 0.131,0.032 0.067,0.905 0.116,1.809 z m -3.168,4.102 c 1.141,0.889 2.078,0.301 2.936,-0.477 0.217,-0.193 0.396,-0.709 0.287,-0.91 -0.164,-0.299 -0.574,-0.57 -0.924,-0.643 -1.325,-0.271 -1.764,0.137 -2.299,2.03 z"
   id="path7"
   inkscape:connector-curvature="0"
   style="fill-rule:evenodd" />
	<path
   clip-rule="evenodd"
   d="m 467.707,322.402 c -0.199,-1.908 0.336,-3.594 1.602,-5.016 0.68,-0.762 1.563,-1.311 2.551,-0.619 0.436,0.305 0.627,0.963 0.93,1.461 -0.469,0.107 -0.949,0.338 -1.404,0.293 -0.936,-0.09 -1.572,0.215 -1.645,1.154 -0.084,1.09 -0.072,2.199 0.059,3.281 0.035,0.283 0.67,0.496 1.027,0.742 0.205,-0.387 0.506,-0.758 0.58,-1.168 0.055,-0.295 -0.352,-0.691 -0.271,-0.957 0.102,-0.336 0.443,-0.699 0.77,-0.828 0.219,-0.086 0.68,0.133 0.875,0.354 0.617,0.699 0.338,2.975 -0.473,3.955 -0.822,0.996 -1.809,1.652 -3.08,0.801 -0.518,-0.348 -1.047,-0.85 -1.279,-1.404 -0.256,-0.609 -0.176,-1.359 -0.242,-2.049 z"
   id="path9"
   inkscape:connector-curvature="0"
   style="fill-rule:evenodd" />
	<path
   clip-rule="evenodd"
   d="m 476.419,325.34 c -1.15,-0.123 -1.545,-0.541 -1.391,-1.674 0.207,-1.496 0.273,-3.035 0.191,-4.543 -0.078,-1.41 0.652,-2.359 1.689,-2.852 0.662,-0.314 1.836,-0.166 2.482,0.246 0.977,0.623 0.977,1.801 0.545,2.857 -0.287,0.703 -0.545,1.492 -1.047,2.021 -1.851,1.959 -1.888,1.921 -2.469,3.945 z"
   id="path11"
   inkscape:connector-curvature="0"
   style="fill-rule:evenodd" />
	<path
   clip-rule="evenodd"
   d="m 479,335.57 c 0.154,-1.035 0.258,-1.861 0.4,-2.682 0.209,-1.221 1.057,-1.801 2.192,-1.891 1.168,-0.092 1.783,0.9 2.389,1.99 0.854,1.535 0.305,2.949 0.172,4.4 -0.109,1.197 -1.57,2.313 -2.666,2.246 -1.383,-0.082 -2.137,-0.875 -2.309,-2.424 -0.069,-0.607 -0.134,-1.215 -0.178,-1.639 z m 3.922,-2.466 c -0.908,-0.484 -1.752,-0.822 -1.863,0.865 -0.045,0.693 -0.36,1.408 -0.256,2.066 0.09,0.574 0.542,1.494 0.924,1.545 1.049,0.133 1.359,-0.809 1.395,-1.676 0.032,-0.822 -0.11,-1.65 -0.2,-2.8 z"
   id="path13"
   inkscape:connector-curvature="0"
   style="fill-rule:evenodd" />
	<path
   clip-rule="evenodd"
   d="m 466.794,330.059 c 1.223,0.717 3.129,-0.43 4.084,1.803 -1.057,0.186 -1.965,0.346 -2.947,0.52 -0.279,0.914 0.129,1.285 0.998,1.621 2.018,0.777 2.303,1.248 2.137,2.824 -0.176,1.668 -1.303,2.924 -2.92,3.105 -0.369,0.039 -0.781,-0.293 -1.174,-0.455 0.227,-0.445 0.4,-0.932 0.705,-1.314 0.119,-0.148 0.639,0.045 0.795,-0.105 0.41,-0.396 0.98,-0.893 0.992,-1.359 0.008,-0.34 -0.795,-1.021 -1.199,-0.994 -1.695,0.115 -2.059,-0.646 -1.904,-2.158 0.109,-1.059 -0.064,-2.146 -0.113,-3.221 0.183,-0.092 0.365,-0.18 0.546,-0.267 z"
   id="path15"
   inkscape:connector-curvature="0"
   style="fill-rule:evenodd" />
	<path
   clip-rule="evenodd"
   d="m 475.886,338.084 c 0.18,-0.313 0.297,-0.691 0.549,-0.922 0.344,-0.314 0.791,-0.518 1.191,-0.766 0.043,0.434 0.258,0.955 0.092,1.287 -0.43,0.854 -1.027,1.625 -1.529,2.387 -2.744,-0.725 -2.836,-0.889 -2.57,-3.449 0.131,-1.236 0.139,-2.482 0.225,-3.723 0.07,-1.023 0.75,-1.549 1.666,-1.52 0.998,0.033 1.926,0.389 1.916,1.822 -0.65,0.078 -1.244,0.148 -2.188,0.26 0,1.488 0,3 0,4.512 0.217,0.038 0.433,0.075 0.648,0.112 z"
   id="path17"
   inkscape:connector-curvature="0"
   style="fill-rule:evenodd" />
	<path
   clip-rule="evenodd"
   d="m 472.568,349.57 c -1.352,1.846 -2.639,0.705 -3.713,0.52 -0.49,-0.082 -1.063,-1.256 -1.119,-1.973 -0.115,-1.453 -0.482,-3.037 0.689,-4.422 1.27,0.613 0.945,1.701 0.875,2.588 -0.146,1.809 -0.096,1.934 1.553,2.424 0.541,0.162 1.025,0.51 1.715,0.863 z"
   id="path19"
   inkscape:connector-curvature="0"
   style="fill-rule:evenodd" />
	<path
   clip-rule="evenodd"
   d="m 488.457,236.825 c -1.08,0.215 -1.809,0.586 -2.295,0.382 -0.354,-0.149 -0.502,-1.049 -0.547,-1.628 -0.109,-1.405 -0.172,-2.821 -0.1,-4.226 0.02,-0.409 0.547,-0.791 0.844,-1.188 0.297,0.406 0.715,0.774 0.861,1.231 0.137,0.428 0.139,1.032 -0.068,1.414 -0.818,1.507 -0.066,2.581 1.305,4.015 z"
   id="path21"
   inkscape:connector-curvature="0"
   style="fill-rule:evenodd" />
</g>
</svg>