<?xml version="1.0" encoding="UTF-8" standalone="no"?>
<!-- Generator: Adobe Illustrator 16.0.3, SVG Export Plug-In . SVG Version: 6.00 Build 0)  -->

<svg
   xmlns:dc="http://purl.org/dc/elements/1.1/"
   xmlns:cc="http://creativecommons.org/ns#"
   xmlns:rdf="http://www.w3.org/1999/02/22-rdf-syntax-ns#"
   xmlns:svg="http://www.w3.org/2000/svg"
   xmlns="http://www.w3.org/2000/svg"
   xmlns:sodipodi="http://sodipodi.sourceforge.net/DTD/sodipodi-0.dtd"
   xmlns:inkscape="http://www.inkscape.org/namespaces/inkscape"
   version="1.1"
   id="Ebene_1"
   x="0px"
   y="0px"
   width="79.116882"
   height="299.6109"
   viewBox="0 0 79.116882 299.6109"
   enable-background="new 0 0 960 560"
   xml:space="preserve"
   inkscape:version="0.48.2 r9819"
   sodipodi:docname="08_Sprengbombe2.svg"><metadata
   id="metadata29"><rdf:RDF><cc:Work
       rdf:about=""><dc:format>image/svg+xml</dc:format><dc:type
         rdf:resource="http://purl.org/dc/dcmitype/StillImage" /></cc:Work></rdf:RDF></metadata><defs
   id="defs27" /><sodipodi:namedview
   pagecolor="#ffffff"
   bordercolor="#666666"
   borderopacity="1"
   objecttolerance="10"
   gridtolerance="10"
   guidetolerance="10"
   inkscape:pageopacity="0"
   inkscape:pageshadow="2"
   inkscape:window-width="640"
   inkscape:window-height="480"
   id="namedview25"
   showgrid="false"
   fit-margin-top="0"
   fit-margin-left="0"
   fit-margin-right="0"
   fit-margin-bottom="0"
   inkscape:zoom="0.33541667"
   inkscape:cx="39.66005"
   inkscape:cy="150.2299"
   inkscape:window-x="0"
   inkscape:window-y="0"
   inkscape:window-maximized="0"
   inkscape:current-layer="Ebene_1" />
<g
   id="g3"
   transform="translate(-440.33995,-130.619)">
	<path
   clip-rule="evenodd"
   d="m 491.846,162.27 c 0.176,1.749 0.125,3.298 0.512,4.728 1.555,5.747 3.309,11.44 4.857,17.189 0.732,2.718 1.055,5.544 1.762,8.271 1.182,4.577 2.572,9.101 3.771,13.674 0.525,1.995 0.701,4.08 1.203,6.082 0.523,2.096 1.313,4.123 1.871,6.212 1.154,4.299 2.283,8.606 3.324,12.934 0.994,4.136 1.955,8.284 2.742,12.462 0.305,1.621 0.115,3.339 0.119,5.013 0.006,2.617 0.01,5.235 -0.031,7.853 -0.109,6.942 -0.27,13.885 -0.357,20.828 -0.059,4.737 -0.033,9.477 -0.041,14.215 -0.006,3.846 -0.006,7.688 -0.008,11.533 0,1.982 0,3.963 0,6.176 0.973,0.467 2.242,1.074 3.172,1.52 0,1.732 0.02,3.146 -0.006,4.559 -0.02,0.98 0.381,1.475 1.395,1.449 0.52,-0.014 1.041,0.021 1.559,0.066 1.346,0.115 1.957,0.92 1.715,2.26 -0.15,0.83 -0.322,1.656 -0.502,2.572 -0.732,0.297 -1.488,0.787 -2.293,0.895 -1.918,0.26 -2.232,1.492 -2.17,3.076 0.023,0.59 0,1.184 -0.006,1.775 -0.01,0.904 -0.301,1.486 -1.365,1.5 -1.527,0.021 -2.189,0.857 -2.178,2.396 0.029,4.572 0.043,9.146 -0.023,13.717 -0.045,3.057 -0.268,6.107 -0.359,9.162 -0.076,2.535 -0.104,5.07 -0.111,7.605 -0.014,4.861 0.063,9.725 -0.031,14.586 -0.033,1.807 -0.762,3.633 -0.604,5.4 0.291,3.289 -1.137,6.174 -1.82,9.199 -0.775,3.43 -2.029,6.834 -3.613,9.977 -2.352,4.664 -4.947,9.248 -7.893,13.555 -1.645,2.404 -3.658,4.832 -6.832,5.676 -0.404,0.109 -0.635,0.953 -0.902,1.479 -0.395,0.777 -0.537,1.891 -1.158,2.301 -2.389,1.574 -4.367,3.539 -6.23,5.666 -0.582,0.662 -3.642,0.453 -4.406,-0.281 -1.725,-1.654 -3.408,-3.354 -5.138,-5.002 -0.262,-0.25 -0.813,-0.244 -1,-0.514 -0.445,-0.645 -1.104,-1.414 -1.047,-2.082 0.169,-2.037 0.284,-2.027 -1.713,-2.049 -0.327,-0.004 -0.653,0 -0.546,0 -0.91,-0.688 -1.59,-1.078 -2.116,-1.621 -1.336,-1.379 -2.71,-2.74 -3.869,-4.262 -1.33,-1.742 -2.506,-3.615 -3.641,-5.494 -1.797,-2.98 -3.488,-6.023 -5.256,-9.023 -2.137,-3.621 -3.452,-7.531 -4.074,-11.67 -0.443,-2.955 -0.87,-5.918 -1.133,-8.891 -0.254,-2.879 -0.347,-5.775 -0.405,-8.666 -0.068,-3.363 -0.075,-6.729 -0.002,-10.092 0.037,-1.686 0.433,-3.365 0.431,-5.047 -10e-4,-0.863 -0.375,-2.377 -0.827,-2.477 -1.59,-0.35 -1.516,-1.494 -1.582,-2.527 -0.094,-1.475 -0.94,-1.84 -2.12,-1.564 -1.412,0.332 -2.305,-0.6 -2.5,-1.496 -0.231,-1.053 0.867,-1.541 1.962,-1.688 1.007,-0.137 1.987,-0.461 2.947,-0.697 -0.528,-3.629 -0.409,-3.816 2.266,-3.393 0.072,-1.955 0.229,-3.883 0.194,-5.807 -0.042,-2.27 -0.357,-4.537 -0.357,-6.807 0.002,-3.197 0.235,-6.395 0.279,-9.594 0.057,-4.188 0.022,-8.375 0.033,-12.563 0.005,-1.41 0.076,-2.822 0.011,-4.229 -0.017,-0.367 -0.423,-1.025 -0.656,-1.027 -1.971,-0.02 -1.595,-1.498 -1.783,-2.877 -1.895,0.188 -4.059,-0.223 -3.941,-2.441 0.108,-2.029 2.478,-1.262 4.031,-1.547 -0.136,-2.07 0.177,-3.889 2.139,-5.006 0.259,-0.148 0.295,-0.826 0.303,-1.258 0.125,-8.017 0.236,-16.034 0.335,-24.05 0.025,-2.02 -0.041,-4.039 0.011,-6.056 0.022,-0.897 0.245,-1.791 0.362,-2.688 0.271,-2.049 0.396,-4.128 0.828,-6.143 0.551,-2.558 0.198,-5.328 1.74,-7.661 0.102,-0.154 0.163,-0.372 0.157,-0.558 -0.121,-3.727 1.365,-7.147 2.033,-10.723 0.548,-2.925 0.83,-5.923 1.656,-8.764 1.534,-5.275 3.241,-10.511 5.177,-15.65 0.571,-1.517 1.117,-2.869 1.168,-4.53 0.035,-1.134 0.891,-2.226 1.275,-3.37 0.886,-2.636 1.323,-5.512 2.665,-7.879 1.302,-2.295 0.511,-5.076 2.395,-7.213 0.784,-0.891 0.338,-2.781 0.688,-4.156 0.785,-3.078 1.754,-6.108 2.578,-9.177 0.598,-2.218 1.086,-4.465 1.681,-6.938 -0.502,-0.161 -1.223,-0.592 -1.938,-0.587 -2.922,0.021 -5.843,0.188 -8.764,0.277 -1.02,0.032 -2.041,0.03 -3.06,-0.013 -2.438,-0.104 -4.884,-0.151 -7.307,-0.415 -0.739,-0.081 -1.884,-0.672 -2.028,-1.236 -0.56,-2.208 -1.376,-4.436 -0.573,-6.815 0.248,-0.734 0.057,-1.626 0.027,-2.444 -0.107,-2.931 -0.246,-5.859 -0.341,-8.79 -0.046,-1.4 1.089,-1.889 2.08,-1.889 4.315,0.001 8.63,0.198 12.946,0.284 2.693,0.054 5.389,0.056 8.082,0.044 1.641,-0.006 3.28,-0.094 4.919,-0.121 0.886,-0.016 1.311,-0.281 1.578,-1.285 0.392,-1.468 1.206,-2.823 2.022,-4.63 -2.705,0.343 -5.136,0.65 -7.688,0.974 -0.112,-1.384 -0.247,-2.516 -0.285,-3.651 -0.036,-1.096 0.447,-1.636 1.598,-1.178 1.886,0.751 4.164,0.652 5.781,1.424 2.542,1.213 4.636,-0.105 6.896,-0.087 1.451,0.011 2.914,-1.139 4.506,-1.826 0.85,1.56 0.525,3.006 0.393,4.375 -0.031,0.315 -0.955,0.828 -1.406,0.77 -1.943,-0.255 -4.051,-0.025 -5.641,-1.591 -0.34,0.654 -0.654,1.261 -0.93,1.789 0.557,1.062 1.209,2.038 1.594,3.11 0.469,1.301 1.354,1.624 2.588,1.606 2.68,-0.039 5.361,-0.082 8.041,-0.028 3.898,0.077 7.795,0.254 11.693,0.354 1.23,0.031 2.469,-0.149 3.691,-0.061 2.217,0.159 3.027,1.294 2.895,3.514 -0.182,3.035 -0.273,6.075 -0.354,9.115 -0.055,2.124 -0.01,4.25 -0.037,6.376 -0.025,1.878 -0.264,2.216 -2.117,2.263 -3.41,0.086 -6.822,0.049 -10.234,0.056 -3.038,0.008 -6.073,0.003 -9.329,0.003 z M 449.24,376.781 c 3.138,0.207 5.967,0.467 8.803,0.559 4.066,0.133 8.137,0.201 12.205,0.189 5.061,-0.016 10.122,-0.236 15.182,-0.189 4.824,0.043 9.646,0.35 14.471,0.467 1.633,0.041 3.273,-0.145 4.568,-0.211 0,-2.152 -0.012,-3.857 0.002,-5.563 0.023,-3.727 0.027,-7.453 0.104,-11.178 0.031,-1.559 0.338,-3.113 0.32,-4.67 -0.031,-2.893 -0.318,-5.783 -0.291,-8.674 0.021,-2.482 0.463,-4.961 0.488,-7.443 0.045,-4.244 -0.117,-8.492 -0.139,-12.738 -0.031,-5.619 -0.064,-11.24 0.004,-16.859 0.064,-5.246 0.34,-10.49 0.371,-15.734 0.025,-4.203 -0.236,-8.406 -0.258,-12.607 -0.018,-3.606 0.152,-7.213 0.191,-10.82 0.053,-4.793 -0.047,-9.59 0.129,-14.377 0.092,-2.468 -0.479,-5.021 0.682,-7.421 0.18,-0.374 -0.061,-0.959 -0.127,-1.443 -0.195,-1.417 -0.754,-2.889 -0.537,-4.236 0.703,-4.335 -0.66,-8.341 -1.545,-12.438 -0.592,-2.744 -1.191,-5.488 -1.664,-8.254 -0.309,-1.793 -0.359,-1.816 -2.188,-1.773 -3.709,0.085 -7.422,0.052 -11.133,0.019 -1.629,-0.015 -3.258,-0.227 -4.883,-0.211 -3.304,0.029 -6.604,0.214 -9.908,0.217 -2.306,0.002 -4.613,-0.278 -6.919,-0.273 -2.582,0.007 -5.162,0.264 -7.744,0.27 -1.116,0.002 -1.622,0.324 -1.924,1.423 -1.071,3.897 -2.307,7.749 -3.368,11.648 -0.646,2.37 -1.438,4.78 -1.542,7.199 -0.157,3.647 -1.581,7.069 -1.476,10.759 0.068,2.345 -0.602,4.703 -0.664,7.063 -0.172,6.604 -0.196,13.212 -0.283,19.819 -0.078,5.959 -0.189,11.922 -0.232,17.883 -0.023,3.311 0.087,6.619 0.092,9.93 0.007,5.375 -0.007,10.75 -0.041,16.125 -0.02,3.074 -0.129,6.145 -0.136,9.217 -0.005,2.271 0.208,4.549 0.115,6.813 -0.154,3.742 -0.647,7.475 -0.693,11.215 -0.105,8.739 -0.032,17.483 -0.032,26.297 z m 9.389,-157.236 c 2.497,0 4.526,0.042 6.552,-0.011 2.615,-0.067 5.229,-0.211 7.842,-0.316 0.128,-0.005 0.257,0.058 0.387,0.061 2.876,0.066 5.751,0.183 8.627,0.175 2.773,-0.006 5.549,-0.214 8.32,-0.199 3.26,0.019 6.518,0.188 9.775,0.276 0.84,0.022 1.664,-0.071 1.314,-1.265 -0.736,-2.531 -1.551,-5.039 -2.252,-7.579 -0.646,-2.34 -1.209,-4.704 -1.768,-7.067 -0.561,-2.373 -0.984,-4.78 -1.617,-7.134 -1.238,-4.614 -2.59,-9.199 -3.875,-13.802 -0.748,-2.678 -1.469,-5.363 -2.18,-8.052 -0.346,-1.304 -0.617,-2.627 -0.961,-3.931 -0.338,-1.283 -0.766,-2.544 -1.084,-3.833 -0.469,-1.895 -1.998,-1.773 -3.426,-1.909 -0.25,-0.023 -0.477,-0.224 -0.729,-0.283 -3.089,-0.744 -6.094,-0.29 -8.996,0.823 -0.532,0.204 -0.995,0.998 -1.182,1.614 -0.546,1.806 -0.894,3.669 -1.409,5.484 -0.162,0.57 -0.984,1.181 -0.861,1.565 0.663,2.069 -0.605,3.809 -0.871,5.694 -0.349,2.483 -1.349,4.874 -2.045,7.312 -1.016,3.554 -1.952,7.131 -3.032,10.665 -1.021,3.337 -2.214,6.621 -3.276,9.946 -0.984,3.073 -1.914,6.165 -2.827,9.26 -0.207,0.71 -0.254,1.465 -0.426,2.506 z m -1.464,-76.649 c 0,-0.119 0,-0.239 -0.001,-0.358 -1.573,0 -3.147,0.01 -4.721,-0.004 -1.001,-0.009 -1.605,0.285 -1.594,1.461 0.033,3.201 -0.024,6.403 -0.018,9.604 0.003,1.568 0.069,3.136 0.105,4.703 0.025,1.199 0.541,1.692 1.829,1.698 2.637,0.013 5.272,0.271 7.909,0.333 2.359,0.055 4.721,0.01 7.081,-0.04 2.882,-0.062 5.802,-0.512 8.636,-0.188 4.292,0.489 8.555,0.063 12.827,0.174 3.701,0.097 7.41,-0.199 11.115,-0.219 2.33,-0.013 4.66,0.23 6.99,0.234 1.701,0.003 2.123,-0.616 2.094,-2.279 -0.074,-4.005 -0.09,-8.01 -0.129,-12.015 -0.008,-0.789 0.098,-1.606 -0.084,-2.353 -0.1,-0.414 -0.68,-0.998 -1.059,-1.013 -3.025,-0.105 -6.053,-0.107 -9.078,-0.115 -4.074,-0.013 -8.148,-0.007 -12.221,-0.003 -3.855,0.005 -7.711,-0.017 -11.565,0.04 -1.563,0.022 -3.125,0.305 -4.688,0.321 -4.474,0.048 -8.952,0.019 -13.428,0.019 z m -7.233,238.754 c -0.029,0.381 -0.247,1.037 -0.094,1.592 1.092,3.941 2.16,7.893 3.434,11.777 0.889,2.707 1.901,3.25 4.553,3.162 3.266,-0.109 6.532,-0.266 9.8,-0.283 6.638,-0.039 13.277,-0.037 19.915,0.027 3.637,0.035 7.271,0.281 10.908,0.334 2.166,0.033 2.484,-0.332 2.949,-2.471 0.355,-1.639 0.533,-3.361 1.166,-4.889 0.924,-2.223 0.199,-4.818 1.887,-6.891 0.773,-0.949 -0.41,-2.346 -1.688,-2.336 -4.58,0.033 -9.158,0.023 -13.738,0.021 -4.316,0 -8.63,-0.012 -12.947,-0.018 -5.973,-0.01 -11.945,-0.02 -17.918,-0.025 -2.599,-0.002 -5.197,0 -8.227,0 z m 8.717,23.061 c 0.198,0.656 0.25,1.568 0.699,2.195 2.15,3.012 4.231,6.057 6.759,8.814 2.334,2.545 5.028,3.148 8.212,3.021 2.549,-0.102 5.12,-0.18 7.654,0.043 3.453,0.303 6.281,-0.508 8.381,-3.43 1.594,-2.217 3.344,-4.322 4.947,-6.533 0.809,-1.113 1.451,-2.348 2.168,-3.529 -0.088,-0.193 -0.176,-0.387 -0.264,-0.582 -12.678,0.001 -25.355,0.001 -38.556,0.001 z m -3.219,-5.346 c 1.194,3.611 1.818,4.041 4.995,4.035 7.554,-0.014 15.106,0.027 22.659,-0.006 1.625,-0.008 3.25,-0.35 4.875,-0.344 1.85,0.006 3.697,0.223 5.545,0.359 1.225,0.092 2.447,0.264 3.672,0.281 0.371,0.004 0.832,-0.313 1.104,-0.615 0.426,-0.475 0.791,-1.033 1.059,-1.615 0.191,-0.42 0.408,-1.143 0.209,-1.359 -0.34,-0.371 -0.994,-0.609 -1.521,-0.619 -1.02,-0.02 -2.049,0.256 -3.068,0.234 -1.855,-0.041 -3.707,-0.303 -5.561,-0.311 -9.766,-0.041 -19.532,-0.033 -29.296,-0.041 -1.485,-10e-4 -2.97,0.001 -4.672,0.001 z m -5.902,-20.564 c 0.013,0.188 0.025,0.373 0.039,0.559 0.271,0.121 0.534,0.332 0.813,0.35 2.342,0.16 4.684,0.379 7.027,0.4 5.178,0.047 10.356,-0.039 15.534,-0.014 4.334,0.023 8.667,0.121 13,0.197 3.67,0.064 7.338,0.16 11.01,0.211 2.35,0.031 4.703,0.006 7.014,0.006 0.445,-1.406 -0.145,-1.572 -1.227,-1.541 -3.063,0.09 -6.127,0.105 -9.189,0.09 -2.709,-0.012 -5.416,-0.131 -8.123,-0.156 -4.164,-0.041 -8.327,-0.037 -12.49,-0.064 -2.207,-0.014 -4.414,-0.066 -6.621,-0.084 -2.478,-0.023 -4.955,-0.006 -7.432,-0.049 -2.658,-0.047 -5.316,-0.16 -7.975,-0.203 -0.458,-0.009 -0.92,0.194 -1.38,0.298 z m 25.896,41.148 c -0.412,0.047 -1.271,0.051 -2.077,0.264 -0.512,0.137 -0.942,0.584 -1.409,0.893 0.428,0.383 0.828,1.053 1.291,1.1 2.388,0.24 4.792,0.4 7.189,0.395 0.533,-0.002 1.066,-0.783 1.599,-1.205 -0.467,-0.363 -0.898,-0.967 -1.407,-1.043 -1.57,-0.234 -3.171,-0.265 -5.186,-0.404 z m 8.199,-279.147 c -0.717,-1.574 -1.313,-2.877 -1.904,-4.182 -0.131,-0.016 -0.262,-0.031 -0.393,-0.047 -0.488,1.356 -0.974,2.713 -1.587,4.422 1.495,-0.075 2.49,-0.123 3.884,-0.193 z"
   id="path5"
   inkscape:connector-curvature="0"
   style="fill-rule:evenodd" />
	<path
   clip-rule="evenodd"
   d="m 461.118,324.248 c -0.199,2.02 -0.368,3.744 -0.55,5.578 -0.887,0.174 -1.65,0.303 -1.521,-1.088 0.228,-2.443 0.367,-4.895 0.669,-7.328 0.039,-0.307 0.89,-0.797 1.261,-0.719 0.587,0.125 1.216,0.557 1.599,1.039 1.168,1.471 1.39,1.518 2.696,0.16 0.635,-0.658 1.061,-1.746 2.487,-1.168 -0.245,1.09 -0.637,2.182 -0.708,3.297 -0.103,1.605 -0.052,3.232 0.089,4.838 0.091,1.043 -0.595,1.338 -1.25,1.377 -0.343,0.021 -1.032,-0.686 -1.041,-1.074 -0.023,-1.084 0.267,-2.17 0.352,-3.262 0.037,-0.471 -0.128,-0.961 -0.229,-1.635 -0.819,0.625 -1.341,1.332 -1.876,1.342 -0.526,0.01 -1.065,-0.691 -1.978,-1.357 z"
   id="path7"
   inkscape:connector-curvature="0"
   style="fill-rule:evenodd" />
	<path
   clip-rule="evenodd"
   d="m 472.175,353.545 c 2.107,0.861 2.256,1.156 1.947,3.662 -0.161,1.313 -1.473,2.463 -3.101,2.719 -3.221,0.506 -4.287,-0.58 -3.89,-3.783 0.14,-1.121 -0.076,-2.283 -0.05,-3.426 0.038,-1.688 3.016,-3.283 4.405,-2.33 0.357,0.244 0.568,0.83 0.661,1.297 0.113,0.564 0.028,1.166 0.028,1.861 z m -1.744,4.916 c 1.443,-0.053 2.624,-0.869 2.498,-1.766 -0.15,-1.061 -0.774,-1.779 -1.923,-1.801 -1.311,-0.025 -2.23,0.795 -2.185,1.951 0.043,1.046 0.508,1.741 1.61,1.616 z"
   id="path9"
   inkscape:connector-curvature="0"
   style="fill-rule:evenodd" />
	<path
   clip-rule="evenodd"
   d="m 467.323,342.838 c 1.501,-2.295 1.83,-4.359 0.11,-6.375 1.186,-1.166 1.825,-1.145 2.324,0.082 1.028,2.525 0.53,5.02 -0.573,7.334 -0.264,0.553 -1.582,0.871 -2.38,0.813 -0.594,-0.043 -1.53,-0.807 -1.618,-1.359 -0.269,-1.705 -0.284,-3.467 -0.201,-5.197 0.017,-0.354 0.883,-0.67 1.358,-1.002 0.298,0.467 0.897,0.973 0.847,1.398 -0.343,2.9 -0.388,2.894 0.133,4.306 z"
   id="path11"
   inkscape:connector-curvature="0"
   style="fill-rule:evenodd" />
	<path
   clip-rule="evenodd"
   d="m 472.167,344.801 c 0,-2.547 -0.053,-4.994 0.038,-7.438 0.021,-0.602 0.648,-1.725 0.751,-1.697 1.092,0.295 2.682,-0.83 3.255,0.863 0.386,1.143 0.564,2.393 0.612,3.604 0.041,1.027 -0.174,2.082 -0.393,3.1 -0.285,1.331 -1.388,1.773 -4.263,1.568 z m 2.48,-7.692 c -0.189,0 -0.38,0 -0.569,0 -0.134,1.691 -0.288,3.381 -0.373,5.076 -0.011,0.213 0.326,0.604 0.534,0.625 0.234,0.027 0.582,-0.213 0.745,-0.436 0.682,-0.933 0.452,-4.124 -0.337,-5.265 z"
   id="path13"
   inkscape:connector-curvature="0"
   style="fill-rule:evenodd" />
	<path
   clip-rule="evenodd"
   d="m 474.768,322.281 c -2.498,-0.588 -2.464,-0.584 -2.676,2.207 -0.054,0.707 -0.549,1.391 -0.56,2.09 -0.011,0.65 0.353,1.307 0.615,2.17 0.459,-0.369 0.711,-0.639 1.02,-0.803 0.403,-0.213 0.851,-0.344 1.278,-0.51 0.052,0.414 0.179,0.838 0.139,1.242 -0.139,1.447 -1.133,2.07 -2.427,2.047 -1.377,-0.027 -2.253,-1.18 -2.255,-2.275 -0.004,-2.439 -0.469,-4.951 1.028,-7.291 0.763,-1.193 1.75,-1.436 2.766,-1.316 1.398,0.164 1.363,1.326 1.072,2.439 z"
   id="path15"
   inkscape:connector-curvature="0"
   style="fill-rule:evenodd" />
	<path
   clip-rule="evenodd"
   d="m 481.096,344.807 c -1.719,-0.266 -2.68,-1.299 -2.548,-2.85 0.109,-1.279 0.214,-2.559 0.35,-3.834 0.166,-1.557 1.188,-2.873 2.474,-2.869 1.469,0.004 1.9,1.063 2.287,2.402 0.633,2.189 -0.248,4.109 -0.693,6.09 -0.107,0.471 -1.22,0.713 -1.87,1.061 z m 0.371,-1.496 c 0.311,-1.988 0.6,-3.555 0.768,-5.137 0.031,-0.299 -0.354,-0.785 -0.666,-0.926 -0.238,-0.109 -0.784,0.088 -0.981,0.326 -0.905,1.088 -0.582,4.299 0.879,5.737 z"
   id="path17"
   inkscape:connector-curvature="0"
   style="fill-rule:evenodd" />
	<path
   clip-rule="evenodd"
   d="m 461.106,338.672 c -1.062,0.309 -1.656,0.551 -2.271,0.633 -0.322,0.045 -0.824,-0.092 -0.98,-0.326 -0.132,-0.197 0.007,-0.82 0.22,-0.961 1.113,-0.736 2.26,-1.447 3.474,-1.99 0.198,-0.088 1.127,0.693 1.146,1.1 0.096,1.957 0.096,3.934 -0.102,5.879 -0.058,0.572 -0.854,1.486 -1.348,1.512 -1.211,0.061 -0.817,-1.115 -0.78,-1.764 0.068,-1.206 0.361,-2.398 0.641,-4.083 z"
   id="path19"
   inkscape:connector-curvature="0"
   style="fill-rule:evenodd" />
	<path
   clip-rule="evenodd"
   d="m 461.107,358.496 c 1.482,0.219 2.684,0.396 3.884,0.576 -1.446,2.256 -3.728,0.08 -5.048,2.111 -0.165,-0.18 -0.33,-0.357 -0.494,-0.535 0.104,-1.479 0.267,-2.957 0.29,-4.439 0.018,-1.07 -0.118,-2.148 -0.244,-3.217 -0.087,-0.721 -0.061,-1.426 0.824,-1.373 0.287,0.016 0.731,0.789 0.752,1.234 0.085,1.846 0.036,3.698 0.036,5.643 z"
   id="path21"
   inkscape:connector-curvature="0"
   style="fill-rule:evenodd" />
	<path
   clip-rule="evenodd"
   d="m 488.197,199.718 c -0.479,0.855 -0.852,1.797 -1.457,2.551 -1.496,1.86 -3.197,3.563 -4.619,5.473 -0.824,1.105 -1.588,0.674 -2.09,0.078 -1.83,-2.177 -3.581,-4.429 -5.251,-6.732 -1.129,-1.556 -0.907,-1.949 0.968,-2.506 1.597,-0.475 3.175,-1.326 4.781,-1.371 1.739,-0.048 3.52,0.575 5.243,1.048 0.699,0.192 1.294,0.759 2.425,1.459 z"
   id="path23"
   inkscape:connector-curvature="0"
   style="fill-rule:evenodd" />
</g>
</svg>