<?xml version="1.0" encoding="utf-8"?>
<!-- Generator: Adobe Illustrator 16.0.3, SVG Export Plug-In . SVG Version: 6.00 Build 0)  -->
<!DOCTYPE svg PUBLIC "-//W3C//DTD SVG 1.1//EN" "http://www.w3.org/Graphics/SVG/1.1/DTD/svg11.dtd">
<svg version="1.1" id="Ebene_1" xmlns="http://www.w3.org/2000/svg" xmlns:xlink="http://www.w3.org/1999/xlink" x="0px" y="0px"
	 width="960px" height="560px" viewBox="0 0 960 560" enable-background="new 0 0 960 560" xml:space="preserve">
<g>
	<path fill-rule="evenodd" clip-rule="evenodd" d="M495.781,276.861c-1.057,1.911-0.369,4.045-0.414,6.059
		c-0.081,3.689-0.024,7.405,0.109,11.08c0.119,3.318,0.172,6.676,0.217,9.982c0.059,4.422,0.143,8.869,0.033,13.308
		c-0.086,3.493,0.051,7.024,0.025,10.528c-0.036,5.082,0.086,10.166-0.159,15.251c-0.164,3.41,0.003,6.836-0.033,10.254
		c-0.038,3.697-0.13,7.394-0.216,11.091c-0.054,2.311-0.155,4.62-0.205,6.932c-0.061,2.771-0.017,5.547-0.152,8.315
		c-0.113,2.312-0.162,4.62-0.199,6.933c-0.047,2.865-0.145,5.73-0.234,8.596c-0.023,0.738-0.097,1.477-0.15,2.256
		c0.84,0.577,1.672,0.656,2.702,0.623c2.859-0.089,5.729,0.078,8.593,0.188c2.035,0.078,4.068,0.344,6.102,0.32
		c4.998-0.059,9.989,0.311,14.973,0.322c4.153,0.011,8.33,0.072,12.469,0.177c4.334,0.108,8.701,0.282,13.041,0.422
		c4.144,0.134,8.316,0.579,12.467,0.102c0.627-0.071,1.007,0.7,1.854,0.064c1.772-1.33,1.861-1.188,2.13,1.167
		c0.682,5.994,0.83,11.984,0.483,18.02c-0.138,2.395-0.297,4.82-0.261,7.203c0.022,1.444-0.779,2.363-0.895,3.701
		c-0.996-0.78-1.268-1.66-1.154-2.726c0.01-0.093-0.455-0.234-0.698-0.354c-0.021,0.222,0.037,0.495-0.071,0.654
		c-1.48,2.171-3.347,3.606-6.119,3.914c-5.357,0.595-10.693,1.37-16.06,1.933c-4.527,0.475-9.034,1.16-13.571,1.609
		c-4.533,0.447-9.048,1.068-13.57,1.613c-4.523,0.545-9.046,1.092-13.569,1.633c-2.755,0.33-5.51,0.649-8.351,0.983
		c-0.64,0.294,0.88,1.422-0.451,1.503c-0.643,0.039-1.293-0.053-2.002-0.089c-0.289,3.315-0.52,6.64-0.902,9.946
		c-0.109,0.955-0.539,1.924-1.023,2.773c-1.302,2.283-1.182,4.754-1.154,7.229c0.008,0.739-0.009,1.479-0.055,2.218
		c-0.037,0.613-0.579,1.708-1.158,2.352c-0.869-1.313-0.371-2.676-0.399-3.988c-0.028-1.291-0.21-2.581-0.331-3.948
		c-3.094,1.039-6.299,0.306-9.307,0.214c-0.035,2.574-0.072,5.151-0.109,7.729c-0.416-0.575-1.43-0.429-1.346-1.735
		c0.123-1.912-0.573-3.819-0.182-5.824c0.287-1.463-0.459-2.916-1.235-4.109c-1.226-1.883-1.446-3.984-1.673-6.068
		c-0.182-1.667-0.983-3.246-0.678-4.983c0.043-0.247-0.137-0.665-0.345-0.8c-0.447-0.291-1.064-0.73-1.462-0.61
		c-1.091,0.327-0.637-0.718-1.023-0.958c-0.466-0.289-0.946-0.801-1.416-0.795c-4.469,0.053-8.859-0.871-13.313-1.005
		c-2.689-0.081-5.326-0.665-8.043-0.735c-2.671-0.068-5.367-0.436-8.033-0.713c-2.129-0.221-4.297-0.199-6.382-0.572
		c-2.048-0.365-4.138-0.174-6.097-0.553c-3.143-0.607-6.316-0.693-9.463-1.049c-3.86-0.435-7.768-0.63-11.631-1.054
		c-2.007-0.221-3.979-1.3-5.813-2.279c-0.712-0.38-1-1.553-1.604-2.574c-0.474,1.171-0.903,2.233-1.374,3.398
		c-1.15-1.115-1.029-2.413-1.151-3.568c-0.311-2.944-0.602-5.903-0.66-8.861c-0.109-5.45-0.07-10.903-0.021-16.354
		c0.004-0.625,0.327-1.365,0.747-1.834c0.314-0.35,1.226-0.852,1.537-0.176c0.792,1.716,2.255,0.783,3.233,0.775
		c4.526-0.036,9.049-0.438,13.577-0.587c4.437-0.146,8.843-0.82,13.302-0.628c1.467,0.064,2.949-0.387,4.43-0.443
		c4.529-0.171,9.053-0.449,13.578-0.655c3.058-0.14,6.122-0.688,9.137-0.552c4.188,0.191,8.299-0.904,12.48-0.412
		c0.781,0.093,1.619-0.295,2.499-0.475c-0.19-3.686-0.36-7.193-0.553-10.701c-0.171-3.141-0.451-6.277-0.53-9.42
		c-0.15-5.919-0.527-11.824-0.836-17.734c-0.251-4.801-0.396-9.605-0.596-14.408c-0.25-6.004-0.374-12.012-0.648-18.016
		c-0.105-2.289-0.1-4.619-0.156-6.924c-0.057-2.307-0.213-4.654-0.161-6.926c0.106-4.625-0.237-9.238-0.075-13.867
		c0.178-5.068-0.276-10.157-0.383-15.238c-0.055-2.584,0.047-5.171,0.078-7.771c-3.768,0.06-7.371,0.16-10.974,0.163
		c-3.234,0.002-6.47,0.352-9.702-0.027c-0.094-0.011-0.201-0.074-0.275-0.046c-1.637,0.61-3.303,0.399-4.992,0.297
		c-1.561-0.094-3.139,0.108-4.709,0.117c-2.494,0.013-4.993-0.116-7.483-0.018c-2.501,0.101-5.009-0.035-7.481,0.053
		c-2.026,0.073-4.071,0.005-6.1,0.159c-5.367,0.407-10.719-0.166-16.08-0.191c-2.303-1.078-4.829-0.547-7.232-0.839
		c-1.689-0.206-3.478-0.443-5.249-0.467c-1.702-0.024-3.626,0.265-5.276-0.694c-4.011,0.14-7.953-0.758-11.93-0.843
		c-1.764-0.037-3.481-0.44-5.266-0.44c-1.686,0-3.529-0.181-5.301-0.549c-1.641-0.339-3.5-0.158-5.238-0.347
		c-4.156-0.454-8.337-0.603-12.49-1.106c-2.478-0.3-4.994-0.259-7.483-0.481c-3.612-0.322-7.21-0.813-10.823-1.104
		c-3.691-0.296-7.442-0.324-11.074-0.806c-4.717-0.626-9.504-0.507-14.191-1.552c-1.629-0.362-3.502-0.129-5.244-0.312
		c-4.158-0.436-8.33-0.757-12.492-1.065c-3.693-0.273-7.385-0.667-11.082-0.92c-2.771-0.189-5.584-0.25-8.313-0.635
		c-2.694-0.38-5.412-0.282-8.045-0.711c-2.695-0.439-5.408-0.273-8.049-0.708c-2.687-0.442-5.406-0.271-8.045-0.728
		c-2.603-0.45-5.448,0.008-7.757-1.628c-0.616-0.437-1.233,0.452-1.746-0.339c-0.278-0.429-0.93-0.64-1.444-0.885
		c-0.631-0.3-1.365-0.428-1.928-0.817c-1.219-0.847-2.492-1.686-3.503-2.754c-2.69-2.841-5.268-5.819-6.421-9.668
		c-1.043-3.488-1.652-7.01,0.025-10.535c0.729-1.533,1.22-3.178,1.939-4.715c1.998-4.26,5.057-7.487,9.421-9.391
		c1.327-0.579,2.747-0.642,4.149-0.855c3.607-0.55,7.193-1.229,10.801-1.781c1.832-0.28,3.703-0.314,5.533-0.607
		c4.152-0.666,8.314-1.353,12.473-1.863c3.603-0.442,7.174-1.099,10.781-1.503c3.43-0.385,6.865-0.769,10.255-1.507
		c1.895-0.412,3.886-0.356,5.806-0.68c4.055-0.685,8.152-1.031,12.199-1.838c2.072-0.413,4.232-0.643,6.356-0.877
		c3.805-0.42,7.577-1.008,11.35-1.638c1.829-0.305,3.697-0.378,5.534-0.647c4.158-0.607,8.328-1.129,12.467-1.886
		c1.742-0.318,3.601,0.021,5.293-0.924c-0.086-0.243-0.254-0.498-0.251-0.75c0.026-2.475-0.075-4.843-1.146-7.231
		c-1.162-2.592-0.598-5.497-0.393-8.278c0.014-0.19,0.256-0.421,0.199-0.549c-0.491-1.122-0.302-1.659,1.057-1.433
		c0.107,0.018,0.313-0.551,0.601-1.087c-0.591,0.219-0.856,0.317-1.124,0.416c-0.035-0.083-0.105-0.174-0.107-0.267
		c-0.026-1.093,1.622-2.187,0.006-3.306c-0.02-0.014,0.232-0.461,0.391-0.682c0.324-0.454,0.672-0.893,1.01-1.338
		c-0.258-0.104-0.518-0.209-0.964-0.39c0.456-1.478,1.154-3.15,1.46-4.891c0.299-1.693,0.196-3.457,0.271-5.266
		c-2.894,0.086-5.555,0.414-8.249,0.4c-3.343-0.018-6.655-0.363-9.983-0.492c-1.107-0.043-2.219-0.01-3.324-0.081
		c-0.19-0.012-0.506-0.381-0.496-0.571c0.011-0.223,0.322-0.624,0.49-0.617c3.013,0.125,5.855-1.031,8.863-1.082
		c2.865-0.048,5.719-0.621,8.588-0.782c1.559-0.088,3.139,0.205,4.919,0.34c0.543-1.733,1.442-3.29,2.509-4.781
		c1.08-1.512,2.363-2.441,4.232-2.368c0.652,0.026,1.561,0.063,1.9,0.471c1.497,1.807,3.229,3.486,3.959,5.816
		c0.073,0.233-0.087,0.538-0.143,0.826c7.563-1.059,15.031,0.075,22.502,0.075c0.339,0,0.68,0.257,1.237,0.482
		c-3.417,1.513-19.009,3.22-22.503,2.165c0.011,1.13-0.192,2.28,0.089,3.296c0.308,1.112,0.361,2.239,0.608,3.322
		c0.267,1.163,1.059,2.205,1.67,3.395c0.02,0.475-1.702,0.5-0.499,1.509c0.507,0.426,1.567,0.999,0.065,1.619
		c-0.139,0.059-0.174,0.519-0.154,0.785c0.061,0.863,1.396,1.638,0.165,2.588c0.469,0.132,0.937,0.264,1.357,0.381
		c0.044,0.952-0.022,2.078,0.169,3.159c0.5,2.841,0.527,5.628-0.637,8.321c-0.625,1.449-1.159,2.876-0.383,4.532
		c2.116-0.204,4.341-0.141,6.402-0.689c2.479-0.66,5.014-0.74,7.505-1.188c4.952-0.892,9.998-1.203,14.946-2.224
		c1.631-0.336,3.354-0.545,4.982-0.666c5.119-0.375,10.114-1.605,15.223-1.949c1.935-0.13,3.879-0.138,5.929-0.205
		c-0.017-1.218-0.046-2.468-0.045-3.718c0.001-2.319-0.874-4.442-1.414-6.646c-0.626-2.552-0.337-5.164-0.183-7.754
		c0.005-0.095,0.092-0.183,0.104-0.279c0.045-0.37,0.982-1.529,1.354-1.853c0.162-0.141,0.112-0.524,0.159-0.797
		c-0.252,0.038-0.505,0.075-0.964,0.143c0.191-0.628,0.35-1.224,0.557-1.8c0.201-0.56,0.574-1.121-0.365-1.404
		c-0.052-0.016-0.025-0.705,0.146-0.958c0.347-0.514,0.819-0.943,1.349-1.527c-0.822-0.121-1.521-0.019-1.759-0.304
		c-0.417-0.498,0.326-0.706,0.546-1.065c0.658-1.078,1.383-2.246,1.56-3.455c0.263-1.798,0.077-3.662,0.083-5.509
		c-4.807,0.693-9.521,0.291-14.236,0.13c-2.123-0.074-4.234-0.609-6.381-0.147c-0.332,0.071-0.75-0.159-1.1-0.313
		c-0.145-0.063-0.337-0.34-0.299-0.438c0.1-0.25,0.297-0.632,0.486-0.652c5.817-0.611,11.598-1.595,17.446-1.869
		c1.652-0.078,3.321,0.184,4.948,0.288c0.426-1.05,0.731-2.013,1.195-2.892c0.389-0.736,0.985-1.36,1.449-2.062
		c1.135-1.716,3.829-2.941,5.141-2.02c1.264,0.887,2.642,1.805,3.262,3.394c0.501,1.284,1.07,2.543,1.612,3.821
		c7.528-1.745,14.929,0.228,22.319-0.155c0.332-0.018,0.678,0.254,1.686,0.661c-2.543,0.566-4.352,1.117-6.201,1.347
		c-3.124,0.389-6.277,0.542-9.412,0.859c-2.037,0.206-4.063,0.234-6.1,0.028c-0.977-0.099-1.313,0.291-1.199,1.449
		c0.172,1.758,0.295,3.533,0.662,5.252c0.167,0.782,0.893,1.436,1.315,2.175c0.176,0.308,0.345,0.981,0.312,0.995
		c-1.934,0.801-0.043,1.427,0.115,2.086c0.119,0.5,0.346,0.913-0.246,1.258c-0.177,0.104-0.41,0.354-0.391,0.508
		c0.113,0.862,1.318,1.645,0.154,2.591c0.412,0.103,0.824,0.206,1.432,0.357c-0.633,2.046,0.457,4.211,0.252,6.521
		c-0.123,1.39-0.066,2.975-0.595,4.103c-0.995,2.121-0.763,4.297-1.032,6.44c-0.121,0.964,0.219,1.985,0.347,2.967
		c3.927,0.091,7.822,0.095,11.686-0.055c3.513-0.137,7.026,0.025,10.536-0.178c1.555-0.09,3.131-0.167,4.719,0.064
		c1.542,0.225,3.072-0.383,4.721-0.085c1.581,0.286,3.297-0.17,5.227-0.323c-0.016-1.848-0.059-3.879-0.046-5.91
		c0.028-4.527-0.229-9.054-0.029-13.583c0.077-1.75-0.011-3.515-0.154-5.263c-0.212-2.591-0.057-5.175-0.069-7.762
		c-0.011-2.496,0.051-5.015-0.064-7.478c-0.107-2.305-0.17-4.636-0.187-6.934c-0.03-4.34-0.003-8.699-0.109-13.025
		c-0.085-3.469,0.644-6.825,0.603-10.263c-0.014-1.238,0.404-2.616,0.77-3.873c0.428-1.476,0.453-2.973,0.677-4.456
		c0.028-0.181-0.044-0.382,0.005-0.552c0.598-2.042,1.137-4.104,1.838-6.109c0.693-1.98,1.381-3.996,2.388-5.822
		c1.059-1.921,2.538-3.581,4.718-4.064c0.039-1.176,0.074-2.266,0.109-3.355c0.143-0.022,0.284-0.045,0.426-0.068
		c0.229,0.902,0.457,1.805,0.662,2.616c1.036,0.039,2.023,0.073,3.01,0.113c1.181,0.048,1.302-0.123,1.444-1.627
		c0.042-0.454,0.292-0.888,0.794-1.309c0.049,0.662,0.143,1.324,0.138,1.986c-0.006,0.883,0.325,1.398,1.183,1.773
		c1.543,0.674,2.556,1.871,3.18,3.487c1.009,2.61,2.235,5.137,3.242,7.748c1.723,4.464,2.723,9.136,3.524,13.831
		c0.45,2.638,0.47,5.349,0.7,8.026c0.309,3.6,0.299,7.197,0.198,10.811c-0.056,2.019,0.065,4.063,0.114,6.094
		c0.117,4.714,0.234,9.419,0.141,14.139c-0.038,1.916,0.139,3.876,0.16,5.818c0.027,2.402,0.066,4.804,0.107,7.206
		c0.041,2.404-0.106,4.837,0.014,7.202c0.145,2.867-0.125,5.743,0.233,8.596c0.079,0.625,0.146,1.251,0.233,2.019
		c2.338-0.471,4.465-0.348,6.59-0.229c2.125,0.12,4.254-0.575,6.377,0.036c3.291-0.843,6.657-0.235,9.979-0.377
		c3.299-0.141,6.648-0.274,9.979-0.007c1.279,0.102,2.591-0.212,3.871-0.335c0.023-1.127,0.081-2.103,0.057-3.077
		c-0.039-1.598-0.047-3.18-0.716-4.716c-1.095-2.513-1.362-6.013-0.925-8.855c0.097-0.631,0.014-1.292,0.004-1.938
		c-0.006-0.369-0.135-1.031-0.037-1.064c1.699-0.589,0.283-2.364,1.24-3.222c0.066-0.06-0.094-0.558-0.267-0.667
		c-0.795-0.507-0.469-0.805,0.063-1.288c0.421-0.385,0.638-0.994,1.108-1.773c-0.664,0.23-0.925,0.321-1.195,0.416
		c-0.016-0.22-0.093-0.429-0.033-0.586c0.354-0.935,0.628-1.925,1.137-2.771c1.107-1.841,0.37-3.942,0.961-5.855
		c0.193-0.629-0.669-1.165-1.531-1.108c-4.461,0.293-8.896,0.236-13.316-0.615c-1.626-0.313-3.322-0.261-4.986-0.377
		c-0.277-0.02-0.602,0.039-0.822-0.085c-0.464-0.261-1.386-0.134-1.258-0.951c0.158-1.01,0.859-0.281,1.369-0.303
		c2.773-0.12,5.561-0.183,8.309-0.536c4.07-0.523,8.117-0.713,12.202-0.238c0.709,0.082,1.622-0.093,1.041-1.272
		c1.531-2.507,2.63-5.435,6.082-6.106c3.71,0.76,4.979,3.831,6.222,7.112c3.287-0.543,6.616-0.266,9.939-0.201
		c2.406,0.047,4.82,0.253,7.208,0.561c1.479,0.192,2.903,0.656,4.448,0.517c0.594-0.054,1.238,0.453,2.354,0.904
		c-2.956,0.914-5.473,0.304-7.908,0.664c-2.474,0.365-4.921,0.905-7.479,0.716c-2.48-0.184-4.986-0.041-7.473-0.041
		c0.08,1.762-0.121,3.648,0.325,5.367c0.452,1.742,1.544,3.318,2.366,4.988c-0.299-0.014-0.667-0.032-1.286-0.063
		c0.319,0.754,0.767,1.412,0.836,2.108c0.046,0.466-0.678,1.01-0.63,1.475c0.047,0.473,0.627,0.888,0.934,1.354
		c0.018,0.025-0.373,0.267-0.512,0.454c-0.902,1.206-0.208,0.974,0.63,0.731c0.149-0.043,0.632,0.402,0.599,0.492
		c-0.717,1.996,0.639,3.839,0.374,5.837c-0.196,1.471,0.051,3.106-0.615,4.402c-1.124,2.188-0.796,4.435-0.847,6.69
		c-0.021,0.926-0.075,1.851-0.117,2.891c3.596-0.354,7.217,0.233,10.865,0.579c3.154,0.298,6.279,0.789,9.428,1.097
		c2.685,0.264,5.366,0.546,8.046,0.849c3.332,0.375,6.661,0.773,9.99,1.177c2.776,0.336,5.546,0.739,8.326,1.031
		c2.847,0.299,5.704,0.5,8.495,0.739c0.645-1.561,0.326-2.822-0.207-4.099c-1.246-2.984-1.456-5.593-0.95-9.14
		c0.113-0.797-0.096-1.641-0.158-2.487c0.39-0.165,0.851-0.361,1.403-0.595c-0.5-0.61-1.222-1.217-0.433-2.049
		c0.317-0.335,0.685-0.623,1.007-0.953c0.016-0.016-0.176-0.336-0.266-0.333c-0.188,0.006-0.369,0.134-0.799,0.316
		c0.311-1.1,0.574-2.043,0.869-3.09c-0.406,0.148-0.672,0.245-1.291,0.472c0.554-1.385,1.036-2.55,1.484-3.728
		c0.408-1.07,0.896-2.06,0.771-3.337c-0.115-1.172,0.336-2.399,0.537-3.602c-3.422,0.02-9.348,0.218-13.8-0.395
		c-2.544-0.351-5.134-0.868-7.751-0.794c-0.271,0.008-0.553-0.374-0.829-0.574c0.268-0.2,0.522-0.557,0.804-0.578
		c4.614-0.358,9.229-0.783,13.852-0.953c2.393-0.088,4.838-0.621,7.225,0.345c0.616,0.25,1.319-0.089,1.618-0.884
		c0.458-1.216,0.933-2.428,1.462-3.615c0.831-1.863,3.871-3.339,5.775-2.676c0.698,0.244,1.294,0.936,1.807,1.534
		c1.38,1.614,2.561,3.365,3.193,5.354c0.942-0.185,1.854-0.515,2.761-0.511c2.681,0.011,5.363,0.118,8.04,0.262
		c1.3,0.07,2.589,0.333,3.887,0.459c1.291,0.125,2.59,0.273,3.883,0.259c1.312-0.014,2.546,0.722,3.896,0.362
		c0.062-0.016,0.311,0.668,0.513,1.115c-7.478,0.495-14.878,1.605-22.319,0.912c0.254,2.088,0.756,3.927,0.623,5.718
		c-0.156,2.129,1.938,3.06,2.084,4.964c-0.352-0.016-0.721-0.032-1.207-0.054c0.268,0.83,1.56,1.261,0.944,2.324
		c-0.126,0.217-0.489,0.295-0.685,0.404c0.242,0.914,0.486,1.832,0.723,2.752c0.047,0.18,0.009,0.398,0.097,0.548
		c0.935,1.596,1.509,4.632,1.298,7.2c-0.092,1.135-0.049,2.308-0.693,3.333c-1.422,2.263-0.6,4.813-0.873,7.221
		c-0.058,0.505,0.244,1.46,1.25,0.788c2.727,0.729,5.54,0.758,8.32,1.073c2.592,0.293,5.172,0.674,7.771,0.922
		c3.338,0.32,6.661,0.795,9.992,1.186c2.68,0.315,5.365,0.586,8.045,0.912c3.24,0.393,6.469,0.897,9.715,1.213
		c2.875,0.279,5.732,0.75,8.604,0.963c3.164,0.236,6.281,0.78,9.43,1.09c2.684,0.265,5.369,0.525,8.045,0.851
		c3.242,0.395,6.467,0.961,9.717,1.258c2.898,0.264,5.784,0.622,8.674,0.921c3.148,0.328,6.277,0.801,9.427,1.111
		c2.683,0.265,5.364,0.563,8.046,0.837c0.553,0.057,1.109,0.066,1.664,0.111c5.283,0.424,9.248,3.22,12.35,7.248
		c1.572,2.043,2.975,4.259,3.886,6.755c0.89,2.439,0.833,4.997,1.295,7.484c-1.11,2.598-0.597,5.77-3.055,7.945
		c-0.771,0.682-1.057,1.942-1.813,2.866c-1.498,1.83-5.188,5.153-6.991,6.365c-3.039,2.042-6.399,2.535-9.92,2.992
		c-2.588,0.336-5.231,0.321-7.748,0.862c-2.502,0.538-5.008,0.461-7.492,0.804c-5.799,0.799-11.629,1.314-17.436,1.982
		c-4.801,0.552-9.627,1.064-14.416,1.802c-3.584,0.552-7.242,0.5-10.804,1.346c-1.147,0.273-2.401,0.054-3.593,0.194
		c-5.719,0.673-11.439,1.337-17.161,1.982c-3.048,0.343-6.146,0.388-9.134,0.952c-3.316,0.626-6.627,1.18-9.982,1.36
		c-5.291,0.284-10.523,1.085-15.785,1.631c-5.449,0.567-10.893,1.199-16.34,1.802c-5.445,0.603-10.896,1.169-16.338,1.82
		c-5.441,0.649-10.891,1.229-16.334,1.848c-3.139,0.356-6.27,0.757-9.423,0.889c-3.508,0.147-7.015,0.344-10.535,0.093
		c-1.741-0.125-3.511,0.208-5.262,0.153c-4.62-0.143-9.246,0.032-13.861,0.042c-3.401,0.006-6.839,0.094-10.255,0.145
		c-4.34,0.064-8.678,0.397-13.033,0.013C500.154,276.312,498.104,276.706,495.781,276.861z"/>
	
		<line fill-rule="evenodd" clip-rule="evenodd" fill="none" stroke="#000000" stroke-miterlimit="10" x1="568.732" y1="400.83" x2="494.074" y2="185.331"/>
	
		<line fill-rule="evenodd" clip-rule="evenodd" fill="none" stroke="#000000" stroke-miterlimit="10" x1="464.501" y1="185.331" x2="395.808" y2="401.316"/>
</g>
</svg>
