<?xml version="1.0" encoding="utf-8"?>
<!-- Generator: Adobe Illustrator 16.0.3, SVG Export Plug-In . SVG Version: 6.00 Build 0)  -->
<!DOCTYPE svg PUBLIC "-//W3C//DTD SVG 1.1//EN" "http://www.w3.org/Graphics/SVG/1.1/DTD/svg11.dtd">
<svg version="1.1" id="Ebene_1" xmlns="http://www.w3.org/2000/svg" xmlns:xlink="http://www.w3.org/1999/xlink" x="0px" y="0px"
	 width="960px" height="560px" viewBox="0 0 960 560" enable-background="new 0 0 960 560" xml:space="preserve">
<path d="M360.608,371.32c-0.544,3.9-0.786,4.111-4.649,4.086c-11.063-0.076-22.074-0.621-32.812-3.631
	c-3.583-1.006-3.582-1.01-3.879-4.773c-2.904-0.707-5.859-1.426-8.639-2.104c0.372,1.479,0.83,2.787,1.017,4.135
	c0.879,6.334,0.202,12.598-0.851,18.859c-0.87,5.178-1.532,10.391-2.316,15.58c-0.104,0.691-0.385,1.357-0.584,2.035
	c-0.279,0.006-0.559,0.01-0.839,0.018c-0.421-2.461-0.949-4.91-1.245-7.387c-1.334-11.156-1.694-22.314,0.031-33.48
	c0.089-0.58-0.564-1.578-1.142-1.906c-2.442-1.385-5.116-2.387-7.462-3.902c-4.026-2.604-4.045-6.334-0.021-8.932
	c2.729-1.762,5.744-3.082,8.859-4.719c-2.286-13.91-1.65-27.984,0.946-41.988c0.197-0.037,0.394-0.072,0.59-0.109
	c0.253,0.396,0.679,0.771,0.734,1.195c1.263,9.803,2.577,19.604,3.649,29.428c0.26,2.379-0.229,4.859-0.533,7.271
	c-0.111,0.885-0.688,1.711-1.208,2.924c3.069-0.727,6.007-1.424,8.927-2.117c0.551-3.93,0.559-3.902,4.649-5.027
	c8.805-2.424,17.832-3.053,26.896-3.369c1.358-0.049,2.719-0.006,4.218-0.006c0-11.246,0-22.242,0-33.332
	c-5.516-0.471-10.984-0.752-16.4-1.445c-7.538-0.965-15.028-2.295-22.554-3.361c-4.742-0.672-9.537-0.988-14.262-1.748
	c-6.536-1.051-10.173-4.314-11.311-9.699c-1.441-6.827,1.736-12.704,8.438-14.6c3.768-1.064,7.789-1.215,11.686-1.845
	c6.303-1.019,12.57-2.32,18.902-3.084c8.083-0.978,16.215-1.538,24.326-2.279c0.365-0.032,0.729-0.071,1.201-0.119
	c0-11.042,0-21.982,0-33.155c-3.512-0.174-7.083-0.122-10.59-0.569c-6.928-0.884-13.851-1.886-20.719-3.146
	c-4.03-0.739-3.981-1.008-4.464-4.878c-2.884-0.693-5.794-1.395-8.78-2.111c2.009,4.483,1.964,9.109,1.493,13.594
	c-0.898,8.548-2.286,17.043-3.495,25.557c-0.07,0.496-0.368,0.959-0.95,1.426c-3.12-13.902-3.613-27.89-1.413-41.942
	c-2.766-1.402-5.551-2.626-8.146-4.169c-4.895-2.914-4.92-6.887-0.05-9.842c2.583-1.567,5.379-2.781,8.222-4.229
	c-2.27-14.015-1.677-28.05,1.05-42.525c3.753,4.804,5.903,36.229,3.033,41.231c3.102-0.743,6.008-1.438,8.945-2.142
	c0.058-0.097,0.216-0.237,0.198-0.351c-0.477-2.935,1.213-3.83,3.721-4.511c11.291-3.065,22.829-3.571,34.42-3.617
	c2.22-0.008,2.767,0.767,3.115,4.091c2.529-0.139,5.089-0.189,7.617-0.502c0.453-0.056,1.072-1.166,1.112-1.819
	c0.649-10.566,1.225-21.139,1.801-31.708c1.178-21.601,2.355-43.197,3.514-64.798c0.845-15.742,1.694-31.485,2.474-47.232
	c0.353-7.118,4.35-12.307,10.954-13.964c3.85-0.966,7.444,0.104,10.868,1.604c8.927,3.916,14.909,10.644,17.899,19.887
	c14.862,45.936,29.643,91.897,44.557,137.816c0.667,2.052,2.081,4.041,3.618,5.593c3.48,3.515,7.228,6.768,10.925,10.06
	c1.506,1.343,1.696,2.513,0.198,4.005c-1.67,1.665-3.331,3.375-4.725,5.266c-0.63,0.854-1.098,2.349-0.803,3.289
	c4.336,13.858,8.791,27.681,13.328,41.476c0.209,0.638,1.404,1.284,2.188,1.347c7.363,0.579,14.745,0.928,22.104,1.541
	c14.873,1.239,29.734,2.595,44.6,3.916c16.078,1.429,32.154,2.874,48.231,4.309c3.625,0.323,7.251,0.636,11.106,0.972
	c0.126-2.017,0.226-3.819,0.354-5.621c1.499-21.246,5.223-42.016,14.65-61.307c3.014-6.169,7.107-11.866,11.158-17.451
	c3.229-4.449,9.643-3.602,12.76,1.063c4.084,6.111,5.645,13.054,7.139,20.065c3.844,18.013,5.738,36.218,5.631,54.636
	c-0.012,2.206,0.021,4.42,0.195,6.617c0.338,4.274,2.355,7.634,5.848,10.11c0.531,0.376,1.076,0.731,1.85,1.257
	c-3.818,2.176-6.471,5.025-7.332,9.127c-0.418,1.988-0.57,4.074-0.541,6.113c0.309,21.654-2.02,43.031-7.242,64.029
	c-1.189,4.785-3.451,9.428-5.918,13.736c-2.762,4.824-9.404,4.512-12.945,0.063c-10.471-13.145-16.465-28.277-20.229-44.471
	c-2.782-11.969-4.685-24.047-5.138-36.338c-0.033-0.908-0.168-1.813-0.282-2.992c-4.534,0.383-8.985,0.742-13.434,1.141
	c-14.561,1.305-29.118,2.629-43.68,3.932c-14.636,1.311-29.27,2.656-43.914,3.879c-8.043,0.672-16.101,1.178-24.16,1.629
	c-1.931,0.107-2.877,0.662-3.498,2.648c-3.998,12.771-8.08,25.516-12.344,38.199c-0.993,2.953-0.629,5.092,1.671,7.105
	c1.253,1.098,2.248,2.486,3.449,3.652c1.444,1.402,1.217,2.564-0.193,3.834c-3.738,3.361-7.546,6.658-11.077,10.229
	c-1.533,1.551-2.911,3.557-3.581,5.609c-10.185,31.227-20.242,62.494-30.326,93.754c-4.738,14.688-9.368,29.414-14.233,44.059
	c-3.578,10.771-10.884,17.969-21.836,21.164c-8.881,2.592-17.284-3.658-17.803-13.156c-1.148-20.988-2.206-41.982-3.338-62.975
	c-1.288-23.881-2.617-47.76-3.927-71.639c-0.176-3.195-0.418-6.389-0.488-9.584c-0.035-1.594-0.662-2.107-2.204-2.107
	C364.977,371.664,362.784,371.443,360.608,371.32z"/>
</svg>
