<?xml version="1.0" encoding="utf-8"?>
<!-- Generator: Adobe Illustrator 16.0.3, SVG Export Plug-In . SVG Version: 6.00 Build 0)  -->
<!DOCTYPE svg PUBLIC "-//W3C//DTD SVG 1.1//EN" "http://www.w3.org/Graphics/SVG/1.1/DTD/svg11.dtd">
<svg version="1.1" id="Ebene_1" xmlns="http://www.w3.org/2000/svg" xmlns:xlink="http://www.w3.org/1999/xlink" x="0px" y="0px"
	 width="960px" height="560px" viewBox="0 0 960 560" enable-background="new 0 0 960 560" xml:space="preserve">
<g>
	<g>
		<path fill="#ED1C24" d="M481.032,128.125c-48.403-0.424-88.607,39.16-89.019,87.646c-0.426,50.159,38.521,89.227,89.471,89.743
			c48.043,0.488,88.064-38.958,88.642-87.399C570.723,168.632,531.052,128.568,481.032,128.125z"/>
	</g>
	<path fill="#2E70CC" d="M451.203,63.699c-83.731,14.698-143.04,97.776-129.274,181.532c5.45,33.089,21.768,61.638,39.922,89.03
		c17.273,26.067,35.845,51.296,53.824,76.899c19.926,28.358,39.809,56.731,59.767,85.058c4.863,6.908,6.369,6.813,11.279-0.209
		c5.536-7.917,11-15.886,16.545-23.794c35.557-50.732,71.463-101.229,106.579-152.273c19.76-28.719,32.271-60.297,31.839-98.993
		C641.542,121.965,551.408,46.112,451.203,63.699z M481.638,339.048c-70.213-0.71-123.886-54.549-123.301-123.672
		c0.57-66.818,55.974-121.372,122.681-120.789c68.937,0.615,123.604,55.827,122.785,124.023
		C603.002,285.365,547.848,339.73,481.638,339.048z"/>
</g>
</svg>
