<?xml version="1.0" encoding="utf-8"?>
<!-- Generator: Adobe Illustrator 16.0.3, SVG Export Plug-In . SVG Version: 6.00 Build 0)  -->
<!DOCTYPE svg PUBLIC "-//W3C//DTD SVG 1.1//EN" "http://www.w3.org/Graphics/SVG/1.1/DTD/svg11.dtd">
<svg version="1.1" id="Ebene_1" xmlns="http://www.w3.org/2000/svg" xmlns:xlink="http://www.w3.org/1999/xlink" x="0px" y="0px"
	 width="960px" height="560px" viewBox="0 0 960 560" enable-background="new 0 0 960 560" xml:space="preserve">
<g>
	<path fill-rule="evenodd" clip-rule="evenodd" d="M451.384,186.998c-1.394-0.275-2.016-1.036-1.865-2.674
		c0.23-2.514,0.136-5.057,0.176-7.587c0.047-2.942-0.016-5.895,0.231-8.82c0.045-0.525,1.341-1.309,2.091-1.347
		c2.902-0.147,5.818-0.082,8.728-0.018c3.621,0.08,7.24,0.27,10.862,0.323c0.486,0.007,1.256-0.388,1.425-0.792
		c0.721-1.73,1.854-2.715,3.917-2.466c-0.067-0.211-0.135-0.422-0.202-0.633c-1.497,0.267-2.995,0.528-4.49,0.806
		c-0.592,0.11-1.234,0.471-1.745,0.327c-0.497-0.14-1.206-0.773-1.209-1.195c-0.009-1.252,0.284-2.506,0.483-3.938
		c1.89,0.483,3.648,0.997,5.438,1.359c0.771,0.156,1.698,0.221,2.395-0.064c1.227-0.504,2.294-0.697,3.674-0.421
		c1.379,0.274,2.941-0.041,4.355-0.379c2.236-0.534,2.471-0.432,2.273,1.773c-0.023,0.254,0.016,0.529,0.092,0.772
		c0.391,1.24,0.072,1.972-1.34,2.061c-0.813,0.052-1.492,0.361-1.338,1.37c0.145,0.968,0.58,1.477,1.729,1.487
		c6.857,0.065,13.713,0.229,20.568,0.337c2.33,0.036,2.242,0.004,2.238,2.252c-0.006,2.291,0.342,4.589,0.26,6.873
		c-0.119,3.279-0.496,6.549-0.74,9.823c-0.066,0.877-0.393,1.346-1.355,1.394c-1.121,0.057-1.148,0.921-1.119,1.79
		c0.135,3.965,0.287,7.928,0.369,11.893c0.057,2.779,0.057,5.561,0.002,8.339c-0.094,4.605-0.088,9.225-0.482,13.807
		c-0.121,1.394-1.334,2.749-2.217,4.002c-0.805,1.139-1.902,2.065-2.76,3.172c-1.404,1.81-0.631,3.701-0.113,5.603
		c1.246,4.573,2.418,9.166,3.631,13.748c0.08,0.299,0.299,0.561,0.375,0.858c0.238,0.947,0.73,1.944,0.604,2.849
		c-0.523,3.739-0.133,7.448-0.018,11.179c0.082,2.686-0.74,5.436-0.41,8.063c0.236,1.878,0.053,3.677,0.059,5.498
		c0.014,4.931-0.145,9.863-0.229,14.792c-0.023,1.314-0.029,2.629-0.045,3.943c0,0.135-0.063,0.328,0.002,0.396
		c1.623,1.688,1.977,4.225,3.879,5.732c0.602,0.475,1.574,1.205,1.492,1.656c-0.127,0.691-0.914,1.516-1.615,1.789
		c-1.029,0.402-1.363,0.998-1.316,1.965c0.051,1.094-0.082,1.785-1.238,2.568c-0.813,0.551-0.721,2.49-0.953,3.822
		c-0.146,0.838-0.154,1.701-0.203,2.553c-0.053,0.949-0.178,1.805,0.17,2.844c0.455,1.359,0.158,2.984,0.127,4.494
		c-0.096,4.455-0.229,8.91-0.332,13.367c-0.039,1.627-0.08,3.258-0.047,4.887c0.061,3.059,0.32,6.121,0.219,9.174
		c-0.064,2-0.721,3.971-0.93,5.975c-0.49,4.746-2.514,9.012-4.273,13.314c-1.662,4.068-3.859,7.926-5.941,11.811
		c-1.834,3.422-3.621,6.902-5.832,10.074c-1.564,2.244-3.34,4.359-5.441,6.301c-2.703,2.494-5.425,0.635-8.024,1.293
		c-0.259,0.066-0.669-0.563-1.04-0.824c-4.553-3.23-7.107-7.98-9.953-12.59c-1.247-2.02-2.56-4.012-3.604-6.137
		c-2.413-4.908-4.731-9.865-7.011-14.836c-0.837-1.828-1.713-3.703-2.11-5.65c-0.527-2.586-0.74-5.26-0.832-7.904
		c-0.087-2.469,0.202-4.945,0.251-7.42c0.055-2.697,0.018-5.396,0.03-8.094c0.013-2.598-0.156-5.217,0.114-7.787
		c0.262-2.479-0.259-4.852-0.351-7.271c-0.095-2.486,0.242-4.984,0.282-7.48c0.099-6.146,0.159-12.293,0.189-18.439
		c0.018-3.414-0.094-6.83-0.073-10.244c0.009-1.541,0.273-3.08,0.288-4.621c0.041-4.414,0.016-8.828,0.015-13.243
		c0-3.517-0.132-7.039,0.029-10.548c0.178-3.868,0.334-7.771,2.075-11.379c0.315-0.655,0.435-1.412,0.601-2.132
		c0.747-3.256,1.331-6.558,2.259-9.761c0.803-2.773,0.328-5.034-1.619-7.122c-1.19-1.276-2.278-2.66-3.307-4.072
		c-0.32-0.439-0.42-1.132-0.408-1.704c0.094-4.671,0.104-9.351,0.466-14.003c0.085-1.104-0.104-1.923-0.349-2.903
		c-0.194-0.785,0.204-1.699,0.234-2.561c0.111-3.224,0.248-6.449,0.238-9.673C451.833,190.94,451.56,189.107,451.384,186.998z
		 M494.764,252.279c-0.996,0-2.246,0.035-3.492-0.008c-2.826-0.097-5.65-0.297-8.477-0.338c-5.674-0.082-11.35-0.063-17.025-0.129
		c-3.246-0.038-6.491-0.159-9.736-0.251c-0.785-0.021-1.505-0.038-1.586,1.053c-0.11,1.475-0.395,2.941-0.429,4.415
		c-0.112,4.83-0.116,9.662-0.213,14.491c-0.187,9.257-0.466,18.511-0.594,27.769c-0.088,6.387,0.073,12.777,0.015,19.168
		c-0.07,7.66-0.254,15.32-0.393,22.982c-0.055,3.027-0.024,6.059-0.211,9.078c-0.153,2.471,0.552,3.271,3.032,3.182
		c4.339-0.156,8.679-0.295,13.02-0.32c3.385-0.02,6.771,0.172,10.157,0.207c1.262,0.012,2.527-0.244,3.787-0.219
		c3.232,0.064,6.463,0.217,9.695,0.332c1.467,0.051,2.072-0.693,2.047-2.123c-0.037-1.986-0.004-3.975-0.018-5.963
		c-0.039-6.176-0.076-12.354-0.141-18.529c-0.012-1.191-0.256-2.391-0.176-3.57c0.074-1.104,0.635-2.189,0.633-3.281
		c-0.006-3.178-0.246-6.354-0.285-9.533c-0.045-3.738,0-7.48,0.055-11.221c0.064-4.551,0.25-9.1,0.252-13.648
		c0.004-3.807-0.26-7.616-0.26-11.423c0.002-3.129,0.281-6.257,0.326-9.388C494.809,260.884,494.764,256.755,494.764,252.279z
		 M467.897,239.349c3.438,0,6.678-0.049,9.914,0.015c2.758,0.054,5.511,0.278,8.267,0.342c1.096,0.025,1.801-0.438,1.457-1.773
		c-0.266-1.036-0.51-2.115-0.492-3.171c0.008-0.513,0.543-1.188,1.025-1.451c0.236-0.13,1.162,0.413,1.314,0.823
		c0.498,1.347,0.934,2.755,1.094,4.174c0.098,0.849,0.143,1.437,1.098,1.442c1.674,0.01,3.352,0.012,5.021-0.093
		c0.273-0.018,0.764-0.629,0.729-0.91c-0.297-2.313-0.59-4.637-1.086-6.913c-0.648-2.979-1.586-5.896-2.209-8.88
		c-0.801-3.828-1.365-7.704-2.121-11.542c-0.508-2.569-1.076-5.136-1.801-7.651c-0.529-1.844,0.023-3.854-1.178-5.624
		c-0.582-0.861-0.559-2.147-0.764-3.25c-0.328-1.772-0.535-3.573-0.967-5.319c-0.162-0.65-0.699-1.537-1.25-1.706
		c-2.305-0.705-4.639-0.655-6.715,0.219c-0.119,2.133-0.289,3.989-0.314,5.847c-0.063,4.798-0.055,9.597-0.093,14.395
		c-0.04,5.185-0.087,10.37-0.163,15.555c-0.021,1.404-0.187,2.806-0.234,4.21c-0.047,1.372,0.028,2.751-0.077,4.116
		c-0.025,0.335-0.523,0.844-0.852,0.883c-0.317,0.037-0.906-0.363-1.001-0.683c-0.199-0.677-0.201-1.427-0.195-2.146
		c0.006-0.672,0.187-1.342,0.188-2.013c0.007-3.957-0.041-7.914-0.022-11.871c0.021-4.19,0.107-8.381,0.14-12.572
		c0.015-1.895-0.08-3.791-0.043-5.685c0.06-3.005,0.209-6.008,0.26-9.013c0.007-0.414-0.224-0.949-0.526-1.23
		c-0.902-0.836-4.371-0.949-5.435-0.229c-0.254,0.172-0.513,0.45-0.604,0.732c-0.304,0.951-0.546,1.923-0.789,2.893
		c-1.072,4.267-2.144,8.533-3.2,12.805c-0.527,2.131-1.038,4.267-1.532,6.406c-0.637,2.755-1.188,5.53-1.89,8.269
		c-0.679,2.647-1.57,5.24-2.241,7.89c-0.703,2.771-1.246,5.585-1.887,8.374c-0.072,0.313-0.411,0.566-0.488,0.881
		c-0.265,1.063-0.466,2.143-0.743,3.462c1.897,0,3.438,0.043,4.976-0.01c2.314-0.08,2.601-0.486,3.049-2.841
		c0.219-1.146,0.763-2.264,1.356-3.279c0.186-0.318,1.151-0.509,1.506-0.308c0.356,0.201,0.604,0.994,0.533,1.474
		C468.68,235.973,468.283,237.531,467.897,239.349z M496.273,351.701c-0.125,0.063-0.252,0.123-0.377,0.186
		c-0.188,0.484-0.479,0.957-0.547,1.459c-0.158,1.197-0.914,1.543-1.957,1.551c-3.225,0.023-6.449,0.051-9.674,0.047
		c-3.634-0.006-7.269-0.072-10.904-0.059c-2.955,0.012-5.908,0.143-8.863,0.145c-3.127,0.004-6.255-0.125-9.381-0.084
		c-0.488,0.006-0.969,0.609-1.454,0.936c0.055,0.23,0.108,0.461,0.162,0.691c1.205,0.07,2.409,0.189,3.614,0.203
		c4.23,0.053,8.462,0.111,12.692,0.08c2.94-0.021,5.879-0.24,8.819-0.26c1.029-0.006,2.112,0.283,1.389,1.93
		c-2.966,0-5.928,0.043-8.889-0.01c-3.824-0.07-7.648-0.229-11.473-0.33c-1.444-0.039-2.897-0.121-4.329,0.014
		c-0.381,0.035-1.065,0.889-0.982,1.201c0.779,2.955,1.657,5.887,2.592,8.799c0.324,1.01,0.891,1.943,1.333,2.916
		c0.875,1.924,1.673,3.887,2.662,5.75c0.243,0.459,1.09,0.805,1.679,0.838c3.606,0.189,7.218,0.305,10.829,0.387
		c2.387,0.055,4.776,0.01,7.165,0.01c0.046,0.242,0.091,0.486,0.137,0.729c-0.382,0.174-0.756,0.477-1.146,0.498
		c-1.949,0.105-3.903,0.158-5.856,0.186c-1.748,0.025-3.497,0.02-5.245-0.014c-1.784-0.035-3.566-0.145-5.351-0.154
		c-0.258-0.002-0.518,0.371-0.821,0.604c0.714,1.863,1.769,3.07,3.932,3.094c7.71,0.086,15.419,0.258,23.13,0.369
		c2.365,0.033,3.313-0.908,3.676-3.57c-3.832-0.195-7.662-0.391-11.492-0.586c-0.006-0.23-0.01-0.459-0.016-0.689
		c2.012-0.65,4.135,0.035,6.191-0.057c2.252-0.104,4.504-0.195,6.756-0.291c-0.123-0.184-0.246-0.365-0.369-0.549
		c0.297-0.793,0.559-1.6,0.898-2.373c0.322-0.734,0.807-1.406,1.08-2.156c0.912-2.504,1.873-5.002,2.605-7.563
		c0.633-2.215,0.98-4.51,1.555-7.25c-3.098,0-5.766-0.016-8.436,0.004c-3.113,0.021-6.225,0.109-9.336,0.08
		c-0.58-0.006-1.156-0.428-1.734-0.658c0.038-0.27,0.076-0.541,0.113-0.813c0.919-0.115,1.839-0.326,2.757-0.318
		c0.998,0.008,1.992,0.318,2.99,0.326c3.861,0.033,7.725,0.01,11.588-0.021c0.6-0.004,1.277-0.018,1.773-0.291
		c0.357-0.199,0.592-0.82,0.65-1.283c0.031-0.25-0.441-0.822-0.652-0.807C497.75,354.699,496.684,353.662,496.273,351.701z
		 M461.902,168.64c-0.002-0.063-0.005-0.125-0.008-0.188c-2.845,0-5.688,0.005-8.532-0.002c-1.182-0.003-1.674,0.127-1.558,1.73
		c0.275,3.755,0.188,7.553-0.011,11.32c-0.105,2.008,0.146,2.746,2.17,2.838c2.889,0.13,5.784,0.108,8.677,0.192
		c2.017,0.059,4.032,0.271,6.047,0.258c2.386-0.016,4.77-0.302,7.153-0.289c3.388,0.018,6.775,0.222,10.162,0.309
		c5.684,0.145,11.369,0.262,17.053,0.387c2.469,0.055,3.113-0.587,3.092-2.984c-0.025-3.151,0.031-6.305-0.043-9.454
		c-0.098-4.141,1.041-4.452-4.121-4.14c-2.938,0.179-5.9-0.115-8.852-0.158c-2.342-0.033-4.686,0.036-7.027-0.018
		c-4.152-0.096-8.303-0.373-12.453-0.345C469.734,168.125,465.819,168.447,461.902,168.64z M490.457,187.477
		c-0.244,0.15-0.488,0.301-0.732,0.451c3.637,13.664,6.75,27.448,10.197,41.6c0.715-0.452,1.52-0.7,1.898-1.243
		c1.596-2.287,2.951-4.604,2.764-7.661c-0.221-3.557,0.014-7.142,0.084-10.714c0.074-3.785,0.199-7.569,0.275-11.354
		c0.041-2.017,0.029-4.033,0.035-6.051c0.006-1.604,0.002-3.208,0.002-5.027C499.939,187.477,495.199,187.477,490.457,187.477z
		 M457.847,227.935c0.444-0.94,0.901-1.596,1.065-2.317c0.399-1.752,0.534-3.571,1.012-5.298c0.758-2.737,1.824-5.39,2.55-8.135
		c1.116-4.228,2.05-8.505,3.069-12.759c0.775-3.239,1.688-6.452,2.306-9.722c0.45-2.383,0.214-2.477-2.181-2.515
		c-3.227-0.05-6.459-0.023-9.677-0.226c-1.826-0.114-1.988-0.163-2.01,1.694c-0.05,4.465-0.064,8.931-0.131,13.396
		c-0.03,2.071-0.192,4.14-0.214,6.211c-0.02,1.939,0.109,3.879,0.095,5.818c-0.017,2.212-0.335,4.445-0.132,6.632
		C453.86,223.511,455.664,225.584,457.847,227.935z M490.879,244.892c-1.951,0.106-1.951,0.106-2.467-3.718
		c-0.615,0-1.26-0.005-1.902,0.002c-3.697,0.037-7.394,0.129-11.089,0.099c-2.148-0.019-4.296-0.247-6.444-0.352
		c-0.992-0.048-1.74-0.021-1.8,1.447c-0.041,1.014-0.813,2.046-1.424,2.959c-0.203,0.305-0.964,0.429-1.392,0.321
		c-0.277-0.069-0.591-0.716-0.572-1.087c0.035-0.721,0.261-1.438,0.469-2.139c0.31-1.045-0.003-1.504-1.132-1.538
		c-1.198-0.036-2.41-0.399-3.583-0.284c-0.91,0.088-2.36,0.506-2.548,1.102c-0.831,2.629-1.293,5.377-1.956,8.395
		c15.245,0,30.081,0,44.93,0c-0.121-0.971-0.189-1.836-0.348-2.684c-0.158-0.851-0.377-1.691-0.621-2.521
		c-0.328-1.124-0.389-2.643-1.15-3.238c-0.813-0.633-2.307-0.417-3.508-0.513c-3.156-0.25-3.195-0.202-3.336,3.011
		C490.996,244.35,490.939,244.543,490.879,244.892z M500.01,353.273c0.18-0.83,0.436-1.506,0.453-2.188
		c0.1-3.688,0.154-7.377,0.195-11.066c0.061-5.535,0.111-11.072,0.137-16.607c0.018-3.408-0.037-6.818-0.027-10.227
		c0.02-6.436,0.031-12.873,0.105-19.311c0.033-2.873,0.564-5.789,0.219-8.605c-0.303-2.457,0.99-4.96-0.348-7.335
		c-0.104-0.185,0.092-0.521,0.1-0.787c0.08-3.074,0.15-6.147,0.227-9.222c0.043-1.732,0.109-3.464,0.133-5.197
		c0.033-2.347,0.066-4.693,0.037-7.04c-0.012-0.861-0.061-1.774-0.357-2.563c-0.18-0.478-0.869-0.764-1.328-1.136
		c-0.262,0.479-0.727,0.95-0.746,1.44c-0.088,2.132-0.029,4.269-0.057,6.404c-0.129,9.799-0.289,19.599-0.396,29.399
		c-0.049,4.566,0.029,9.133-0.014,13.699c-0.031,3.365-0.244,6.729-0.238,10.092c0.014,5.301,0.182,10.602,0.203,15.904
		c0.012,2.744-0.174,5.49-0.217,8.236c-0.014,0.797,0.391,1.652,0.211,2.383c-0.891,3.574-0.215,7.17-0.314,10.75
		C497.949,351.658,498.482,352.588,500.01,353.273z M464.172,384.92c1.146,0.986,1.937,1.439,2.405,2.115
		c1.078,1.555,1.944,3.256,3.018,4.816c0.315,0.459,1.024,0.881,1.572,0.906c4.3,0.199,8.604,0.352,12.909,0.369
		c0.625,0.004,1.412-0.648,1.848-1.213c1.369-1.768,2.621-3.627,3.879-5.479c0.236-0.35,0.525-1.035,0.379-1.199
		c-0.301-0.338-0.875-0.582-1.346-0.596c-2.539-0.066-5.082-0.014-7.621-0.07c-4.856-0.109-9.71-0.295-14.567-0.373
		C465.944,384.188,465.234,384.598,464.172,384.92z M496.117,309.934c0.189,0.002,0.381,0.002,0.572,0.006
		c0.178-18.313,0.357-36.625,0.535-54.937c-0.199-0.001-0.398-0.003-0.598-0.005C496.215,273.307,496.139,291.619,496.117,309.934z
		 M482.639,395.557c-0.379-0.303-0.576-0.598-0.789-0.611c-2.361-0.137-4.724-0.234-7.086-0.328
		c-0.194-0.01-0.409,0.039-0.585,0.123c-0.338,0.164-0.935,0.385-0.926,0.555c0.021,0.402,0.244,0.902,0.555,1.15
		c0.503,0.406,1.278,0.516,1.701,0.971c2.246,2.412,4.678,2.174,6.234-0.807C481.92,396.27,482.248,396.008,482.639,395.557z
		 M495.904,338.098c0.205,0.002,0.408,0.004,0.611,0.006c-0.203-5.758,0.479-11.531-0.092-17.281
		c-0.174,0.002-0.346,0.004-0.52,0.006C495.904,326.586,495.904,332.342,495.904,338.098z M495.857,349.721
		c0.156-0.006,0.313-0.01,0.471-0.016c0-2.742,0-5.486,0-8.229c-0.158,0.006-0.314,0.012-0.471,0.016
		C495.857,344.234,495.857,346.979,495.857,349.721z M475.121,166.164c1.236,0.982,3.927,1.025,5.595,0
		C478.68,166.164,476.981,166.164,475.121,166.164z"/>
	<path fill-rule="evenodd" clip-rule="evenodd" d="M462.705,302.336c-0.161-2.02-0.323-4.039-0.497-6.215
		c-1.321,0.766-2.444,1.795-4.032,0.18c0,1.936,0.076,3.432-0.04,4.914c-0.042,0.527-0.549,1.021-0.843,1.531
		c-0.398-0.441-1.116-0.863-1.141-1.324c-0.12-2.199-0.079-4.41-0.027-6.615c0.01-0.445,0.281-0.896,0.481-1.32
		c0.685-1.457,1.546-1.586,2.519-0.395c1.416,1.732,1.54,1.697,2.763-0.047c0.32-0.455,1.022-0.645,1.549-0.955
		c0.24,0.479,0.673,0.953,0.687,1.439c0.071,2.521,0.063,5.047,0.012,7.57c-0.009,0.445-0.352,0.883-0.54,1.324
		C463.298,302.395,463.001,302.365,462.705,302.336z"/>
	<path fill-rule="evenodd" clip-rule="evenodd" d="M470.876,326.402c-0.264,2.281-2.926,4.531-5.008,3.953
		c-0.688-0.189-1.623-1.045-1.68-1.666c-0.181-1.988-0.058-4.014,0.06-6.018c0.076-1.303,1.029-1.578,2.177-1.531
		c1.021,0.043,2.004-0.098,2.319,1.34c0.156,0.717,0.867,1.297,1.251,1.98C470.343,325.078,470.587,325.752,470.876,326.402z
		 M465.873,328.395c1.452,0.252,2.544,0.035,2.848-1.488c0.183-0.912-0.327-1.387-1.263-1.309
		C465.763,325.736,465.679,326.883,465.873,328.395z"/>
	<path fill-rule="evenodd" clip-rule="evenodd" d="M459.736,312.445c-0.771,0.301-1.552,0.605-2.34,0.912
		c-1.26-1.373-1.003-2.963-0.826-4.447c0.188-1.59,0.917-1.998,2.553-1.688c0.763,0.145,1.499,0.426,2.348,0.676
		c-0.582,2.059-2.27,0.988-3.623,1.762c0.835,0.381,1.413,0.742,2.043,0.912c2.203,0.592,3.014,2.221,2.278,4.713
		c-0.584,1.979-2.777,3.346-4.468,2.658c-0.49-0.201-0.788-0.873-1.174-1.33c0.483-0.281,0.953-0.781,1.451-0.811
		C460.633,315.652,461.034,314.992,459.736,312.445z"/>
	<path fill-rule="evenodd" clip-rule="evenodd" d="M468.726,312.057c0.24-0.877,0.623-1.744,0.687-2.633
		c0.095-1.324,0.768-1.762,1.964-1.736c1.289,0.029,2.548,0.271,2.829,1.734c0.456,2.363,0.237,4.717-1.068,6.797
		c-1.063,1.695-2.449,1.527-3.263-0.316c-0.551-1.246-1.605-2.361-1.107-3.908L468.726,312.057z M471.867,315.207
		c0.163-0.07,0.327-0.139,0.491-0.207c0.11-1.57,0.286-3.141,0.278-4.711c-0.001-0.326-0.68-0.648-1.046-0.971
		c-0.244,0.346-0.67,0.678-0.699,1.041c-0.102,1.266-0.146,2.547-0.034,3.807C470.89,314.539,471.513,314.861,471.867,315.207z"/>
	<path fill-rule="evenodd" clip-rule="evenodd" d="M468.767,311.994c-0.181,0.549-0.567,1.125-0.504,1.643
		c0.187,1.502-0.821,2.369-1.629,3.285c-0.719,0.816-2.701,0.244-2.77-0.793c-0.137-2.104-0.055-4.221-0.066-6.332
		c-0.007-1.248,0.405-2.104,1.845-2.066c1.351,0.035,2.067,0.828,2.441,2.018c0.239,0.762,0.43,1.537,0.642,2.309L468.767,311.994z
		 M465.639,315.096c1.298-1.533,1.384-3.979,0.064-5.801C465.22,311.422,465.273,313.121,465.639,315.096z"/>
	<path fill-rule="evenodd" clip-rule="evenodd" d="M471.597,292.576c-0.996,0.379-1.84,0.701-2.93,1.115
		c-0.099,1.912-0.209,4.047-0.347,6.736c0.974-0.588,1.47-0.922,1.999-1.195c0.318-0.164,0.773-0.412,1.011-0.299
		c0.278,0.135,0.507,0.607,0.548,0.957c0.171,1.486-0.722,2.543-2.23,2.422c-0.896-0.072-1.818-0.471-2.615-0.922
		c-0.954-0.541-0.596-1.42-0.426-2.32c0.185-0.977-0.039-2.025,0.01-3.037c0.046-0.938,0.128-1.889,0.353-2.795
		C467.482,291.174,469.777,290.045,471.597,292.576z"/>
	<path fill-rule="evenodd" clip-rule="evenodd" d="M461.928,329.84c-1.353,0.193-2.706,0.508-4.06,0.512
		c-0.424,0-1.179-0.811-1.216-1.295c-0.146-1.869-0.133-3.762-0.008-5.635c0.025-0.373,0.8-0.697,1.229-1.043
		c0.296,0.424,0.789,0.822,0.849,1.277c0.127,0.963,0.016,1.953,0.023,2.932c0.011,1.244,0.389,2.049,1.9,1.959
		c0.466-0.027,0.969,0.57,1.455,0.881C462.044,329.564,461.987,329.703,461.928,329.84z"/>
</g>
</svg>
