<?xml version="1.0" encoding="utf-8"?>
<!-- Generator: Adobe Illustrator 16.0.3, SVG Export Plug-In . SVG Version: 6.00 Build 0)  -->
<!DOCTYPE svg PUBLIC "-//W3C//DTD SVG 1.1//EN" "http://www.w3.org/Graphics/SVG/1.1/DTD/svg11.dtd">
<svg version="1.1" id="Ebene_1" xmlns="http://www.w3.org/2000/svg" xmlns:xlink="http://www.w3.org/1999/xlink" x="0px" y="0px"
	 width="960px" height="560px" viewBox="0 0 960 560" enable-background="new 0 0 960 560" xml:space="preserve">
<g>
	<path fill-rule="evenodd" clip-rule="evenodd" d="M482.209,168.811c0.334,0.518,0.564,0.869,0.801,1.234
		c1.242-1.499,1.592-1.576,3.289-0.672c-0.293,0.391-0.572,0.764-0.955,1.275c0.4,0.309,0.805,0.622,1.178,0.911
		c0.24-0.189,0.4-0.252,0.445-0.361c0.186-0.459,0.281-0.961,0.508-1.395c0.678-1.295,2.27-1.409,2.85-0.123
		c0.484,1.066,0.625,2.292,0.418,3.492c-0.031,0.173-0.27,0.309-0.395,0.444c-1.088-0.016-0.867-1.184-1.406-1.637
		c-1.215,0.803,0.135,1.913-0.523,2.937c-0.529-0.386-1.01-0.733-1.508-1.096c-0.35,0.097-0.74,0.206-1.252,0.347
		c-0.158-0.561-0.287-1.017-0.469-1.659c-1.066-0.318-2.244-0.671-3.627-1.085c-0.08-0.177-0.281-0.617-0.525-1.155
		c-0.481,0.251-0.886,0.463-1.296,0.678c-0.771-1.661-0.602-2.043,0.89-2.131C481.127,168.787,481.625,168.811,482.209,168.811z"/>
	<path fill-rule="evenodd" clip-rule="evenodd" d="M502.066,172.101c0.021,0.282,0.066,0.566,0.059,0.848
		c-0.057,1.673-0.635,2.175-2.285,2.005c-1.238-0.128-1.791-0.684-1.41-1.832c0.234-0.704,0.086-1.215-0.027-1.844
		c-0.201-1.117,0.697-2.331,1.648-2.367c1.299-0.049,2.125,0.75,2.158,2.112c0.01,0.357-0.037,0.718-0.061,1.076
		C502.121,172.1,502.094,172.101,502.066,172.101z"/>
	<path fill-rule="evenodd" clip-rule="evenodd" d="M469.6,168.366c0.869,0.177,1.564,0.278,2.229,0.479
		c0.207,0.062,0.499,0.432,0.46,0.59c-0.07,0.288-0.324,0.566-0.568,0.764c-0.141,0.113-0.422,0.032-0.627,0.089
		c-0.555,0.151-1.2,0.298-1.216,1.004c-0.015,0.632,0.072,1.307,0.931,1.471c0.267,0.051,0.6,0.198,0.731,0.408
		c0.198,0.318,0.419,0.787,0.319,1.091c-0.158,0.491-0.596,0.725-1.208,0.506c-1.483-0.527-2.466-1.996-2.126-3.523
		C468.737,170.3,469.2,169.413,469.6,168.366z"/>
	<path fill-rule="evenodd" clip-rule="evenodd" d="M496.98,174.675c-1.17,0.545-1.697,0.473-1.914-0.631
		c-0.23-1.177-0.182-2.417-0.158-3.627c0.004-0.229,0.441-0.609,0.705-0.632c0.279-0.023,0.623,0.255,0.871,0.479
		c0.127,0.116,0.131,0.395,0.15,0.604C496.754,172.116,496.863,173.366,496.98,174.675z"/>
	<path fill-rule="evenodd" clip-rule="evenodd" d="M467.672,174.251c-1.824,0.408-2.333,0.136-2.666-1.525
		c-0.179-0.896-0.33-1.811-0.348-2.719c-0.004-0.238,0.508-0.593,0.84-0.685c0.15-0.042,0.684,0.514,0.634,0.653
		c-0.615,1.74,0.337,2.828,1.486,3.867C467.696,173.913,467.657,174.111,467.672,174.251z"/>
	<path fill-rule="evenodd" clip-rule="evenodd" d="M479.371,173.889c0.186-0.869,0.323-1.718,1.253-1.866
		c0.544-0.087,0.88,0.39,0.896,0.958c0.018,0.615,0.25,1.335-0.486,1.709C480.1,175.163,479.863,174.27,479.371,173.889z"/>
	<g>
		<path fill-rule="evenodd" clip-rule="evenodd" d="M458.806,163.541c16.69-0.875,33.329-0.136,49.995,0.111
			c0.299,0.715,0.697,1.225,0.699,1.734c0.014,7.061-0.027,14.121-0.055,21.358c-1.006,0.294-1.822,0.424-2.539,0.765
			c-1.133,0.538-2.377,1.028-3.264,1.866c-3.789,3.582-7.467,7.284-11.35,11.104c1.793,3.425,2.246,7.362,3.041,11.227
			c1.223,5.944,2.641,11.85,3.908,17.786c0.561,2.627,0.951,5.29,1.434,7.935c0.152,0.837,0.338,1.668,0.523,2.498
			c1.576,7.036,3.176,14.067,4.715,21.111c0.33,1.508,0.623,3.062,0.623,4.595c0.004,9.058-0.104,18.115-0.135,27.173
			c-0.023,6.079,0.018,12.157,0.029,18.236c0.002,0.566,0.037,1.138-0.008,1.701c-0.545,6.767-0.359,13.54-0.334,20.317
			c0.037,9.737,0.074,19.491-0.439,29.208c-0.291,5.521-2.139,10.676-6.053,15.064c-2.705,3.033-5.861,5.225-9.244,7.244
			c-0.688,0.41-1.533,0.551-2.408,0.854c-0.289,0.672-0.742,1.418-0.926,2.227c-0.268,1.191-0.74,2.148-1.934,2.586
			c-1.4,0.512-1.758,1.73-2.154,2.973c2.094,2.318,4.582,0.207,6.602,0.445c1.088,1.252,1.107,2.246,0.117,3.369
			c-1.039-0.18-2.137-0.395-3.242-0.557c-1.246-0.184-2.439-0.455-3.719,0.227c-0.813,0.434-2.074,0.715-2.854,0.389
			c-2.517-1.049-4.894-0.604-7.339,0.063c-0.356,0.098-0.809-0.154-1.404-0.285c-0.135-0.471-0.428-0.994-0.404-1.504
			c0.095-1.955,0.868-2.588,2.627-2.283c1.245,0.217,2.484,0.463,3.734,0.643c0.236,0.033,0.51-0.189,0.797-0.305
			c0.533-2.781-2.666-2.957-3.523-5.15c0.215-0.52,0.52-1.26,0.918-2.227c-0.271-0.203-0.575-0.535-0.953-0.693
			c-0.901-0.381-1.839-0.672-2.759-1.008c-4.756-1.732-8.56-4.354-11.318-8.939c-2.989-4.969-4.104-10.109-4.053-15.715
			c0.083-9.07,0.16-18.143,0.2-27.214c0.033-7.178,0.007-14.354,0.007-21.775c-0.638-0.24-1.405-0.535-2.177-0.818
			c-0.662-0.243-1.388-0.378-1.98-0.733c-0.89-0.535-1.465-1.323-1.261-2.476c0.167-0.938,0.673-1.503,1.614-1.728
			c1.224-0.293,2.436-0.638,3.827-1.006c0.134-1.936,0.482-3.762,0.341-5.55c-0.472-5.947,0.127-11.903-0.18-17.824
			c-0.242-4.691,0.291-9.34,0.079-14.003c-0.204-4.485,1.231-8.684,2.276-12.925c2.604-10.58,5.395-21.115,8.148-31.658
			c1.284-4.911,2.684-9.791,3.977-14.7c0.452-1.717,1.043-3.303,0.376-5.302c-0.466-1.401,0.451-3.264,0.794-5.165
			c-0.18-0.287-0.373-0.88-0.781-1.206c-3.851-3.077-7.211-6.813-11.779-8.929c-1.023-0.475-1.49-1.261-1.667-2.284
			c-0.097-0.557-0.161-1.129-0.149-1.692c0.129-5.929,0.271-11.856,0.432-17.784C458.261,164.651,458.454,164.396,458.806,163.541z
			 M458.881,264.759c-0.891,3.215-0.368,6.627-0.617,9.956c-0.229,3.073,0.19,6.188,0.16,9.283
			c-0.056,5.797-0.315,11.592-0.336,17.388c-0.033,8.911,0.123,17.821,0.092,26.731c-0.033,9.63-0.221,19.26-0.268,28.889
			c-0.008,1.641-0.318,3.396,0.846,5.068c2.781,0.086,5.605,0.201,8.43,0.252c2.818,0.051,5.639,0.035,8.459,0.049
			c2.832,0.016,5.667-0.053,8.494,0.068c2.68,0.113,5.447-0.381,8.035,0.959c-1.049,0.398-2.105,0.57-3.162,0.563
			c-9.199-0.078-18.398-0.193-27.597-0.281c-1.098-0.01-2.286-0.289-3.246,0.852c0.357,5.57,2.964,10.205,6.947,13.971
			c2.348,2.217,5.261,4.139,8.537,4.488c4.195,0.447,8.462,0.293,12.699,0.234c1.066-0.016,2.195-0.514,3.176-1.021
			c6.285-3.254,9.438-8.727,10.701-15.461c0.145-0.777-0.045-1.615-0.068-2.205c-1.42-1.158-3.229,0.193-4.596-1.525
			c1.85-0.189,3.32-0.34,5.041-0.516c0.203-1.982,0.535-3.795,0.545-5.609c0.02-3.537-0.223-7.074-0.211-10.609
			c0.029-8.488,0.168-16.975,0.213-25.461c0.053-9.614,0.035-19.228,0.078-28.842c0.033-7.784,0.119-15.569,0.158-23.354
			c0.006-1.254-0.121-2.51-0.184-3.731C493.635,264.225,463.131,264.114,458.881,264.759z M480.226,199.903
			c-0.325-0.925-0.64-1.429-0.651-1.939c-0.024-0.976,0.289-1.983,0.14-2.927c-0.089-0.56-0.699-1.258-1.241-1.474
			c-0.798-0.315-1.751-0.102-2.215,0.754c-0.327,0.602-0.422,1.333-0.604,2.011c-1.973,7.373-3.947,14.746-5.911,22.122
			c-1.487,5.589-2.983,11.175-4.431,16.773c-1.803,6.976-3.693,13.934-5.252,20.963c-0.465,2.095-1.457,4.243-0.951,6.83
			c12.693,0.117,25.236,0.243,37.779,0.332c1.24,0.009,2.482-0.209,4.084-0.354c0.037-2.588-0.365-4.933-0.781-7.23
			c-2.068-11.4-4.234-22.782-6.355-34.171c-0.336-1.803-0.641-3.611-0.938-5.421c-0.963-5.863-1.852-11.74-2.906-17.587
			c-0.391-2.153-0.592-4.406-1.873-6.768c-0.701,0.809-1.563,1.339-1.637,1.963C486.059,197.333,483.594,198.693,480.226,199.903z
			 M459.831,184.921c15.02,1.262,29.476,0.538,43.904,0.932c0.557,0.015,1.129-0.109,1.676-0.24
			c0.254-0.061,0.467-0.293,0.887-0.572c0.064-3.113,0.236-6.359,0.166-9.6c-0.07-3.316,0.371-6.677-0.338-10.071
			c-1.52-0.134-2.773-0.333-4.031-0.343c-13.326-0.102-26.654-0.182-39.98-0.227c-0.646-0.003-1.293,0.376-2.137,0.638
			C459.473,171.895,459.485,178.213,459.831,184.921z M500.5,189.334c-3.131,0.957-6.264,1.914-9.352,2.858
			c-0.096,2.043,0.609,3.505,1.258,5.252C495.961,195.394,498.184,192.327,500.5,189.334z M481.061,187.625
			c-0.258,3.528-0.345,6.715,0.145,10.185c0.717-0.372,1.275-0.473,1.367-0.738c1.037-2.939,0.705-5.948,0.242-8.935
			C482.783,187.935,481.916,187.862,481.061,187.625z M468.645,189.872c-0.107,0.287-0.215,0.575-0.321,0.862
			c1.214,0.882,2.392,1.818,3.657,2.62c0.678,0.43,1.5,0.163,1.715-0.586c0.164-0.573-0.049-1.325-0.295-1.914
			c-0.12-0.289-0.678-0.497-1.065-0.557C471.113,190.108,469.875,190.008,468.645,189.872z"/>
	</g>
</g>
</svg>
