<?xml version="1.0" encoding="utf-8"?>
<!-- Generator: Adobe Illustrator 16.0.3, SVG Export Plug-In . SVG Version: 6.00 Build 0)  -->
<!DOCTYPE svg PUBLIC "-//W3C//DTD SVG 1.1//EN" "http://www.w3.org/Graphics/SVG/1.1/DTD/svg11.dtd">
<svg version="1.1" id="Ebene_1" xmlns="http://www.w3.org/2000/svg" xmlns:xlink="http://www.w3.org/1999/xlink" x="0px" y="0px"
	 width="640px" height="480px" viewBox="0 0 640 480" enable-background="new 0 0 640 480" xml:space="preserve">
<path d="M234.613,239.7c0-23.297-0.042-46.595,0.017-69.911c0.028-10.472,9.179-16.932,19.174-13.662
	c1.084,0.354,2.136,0.827,3.155,1.333c21.064,10.59,42.11,21.204,63.191,31.761c15.578,7.812,31.219,15.519,46.804,23.312
	c10.227,5.118,20.382,10.368,30.627,15.425c4.769,2.353,7.727,5.813,7.821,11.285c0.099,5.789-2.226,10.241-7.528,12.911
	c-9.441,4.744-18.907,9.46-28.354,14.214c-11.866,5.955-23.723,11.956-35.603,17.901c-11.249,5.609-22.522,11.166-33.784,16.757
	c-5.248,2.599-10.502,5.175-15.727,7.825c-9.303,4.717-18.569,9.508-27.879,14.201c-3.53,1.791-7.159,2.604-11.183,1.507
	c-6.491-1.776-9.993-5.661-10.574-12.381c-0.13-1.413-0.09-2.845-0.09-4.281c0-22.726,0-45.461,0-68.195
	C234.658,239.7,234.636,239.7,234.613,239.7z"/>
</svg>
