<?xml version="1.0" encoding="utf-8"?>
<!-- Generator: Adobe Illustrator 16.0.3, SVG Export Plug-In . SVG Version: 6.00 Build 0)  -->
<!DOCTYPE svg PUBLIC "-//W3C//DTD SVG 1.1//EN" "http://www.w3.org/Graphics/SVG/1.1/DTD/svg11.dtd">
<svg version="1.1" id="Ebene_1" xmlns="http://www.w3.org/2000/svg" xmlns:xlink="http://www.w3.org/1999/xlink" x="0px" y="0px"
	 width="640px" height="480px" viewBox="0 0 640 480" enable-background="new 0 0 640 480" xml:space="preserve">
<path fill-rule="evenodd" clip-rule="evenodd" d="M372.593,276.635c-8.072,0.914-14.813,4.595-20.189,10.693
	c-0.237,0.272-0.353,0.648-0.526,0.973c-0.463-0.394-0.602-0.463-0.758-0.55c-19.315-11.156-38.631-22.318-57.964-33.446
	c-0.093-0.046-0.168-0.104-0.243-0.156c1.684-3.917,2.627-8.223,2.627-12.765c0-4.034-0.746-7.893-2.101-11.458
	c0.07-0.041,0.127-0.081,0.197-0.122c19.374-11.18,38.741-22.365,58.103-33.568c0.677-0.376,1.059-0.376,1.648,0.214
	c8.681,8.627,19.05,11.752,30.947,8.807c3.899-0.966,7.458-2.633,10.577-4.832c9.079-5.925,15.086-16.162,15.086-27.816
	c0-18.332-14.86-33.197-33.191-33.197c-18.332,0-33.197,14.866-33.197,33.197c0,4.282,0.821,8.368,2.297,12.123
	c-19.738,11.405-39.464,22.909-59.202,34.303c-5.908-6.25-14.275-10.098-23.557-10.098c-17.881,0-32.393,14.536-32.393,32.41
	c0,17.875,14.512,32.416,32.393,32.416c8.778,0,16.723-3.495,22.556-9.177c0.058,0.028,0.098,0.058,0.156,0.104
	c19.697,11.394,39.406,22.776,59.121,34.135c0.648,0.365,0.74,0.718,0.619,1.436c-0.423,2.494-0.973,4.999-1.001,7.499
	c-0.099,10.515,3.964,19.211,12.273,25.629c9.386,7.21,19.882,8.72,30.98,4.595c8.541-3.172,14.721-9.132,18.008-17.632
	c4.878-12.609,2.731-24.234-6.51-34.152C392.18,278.539,383.009,275.466,372.593,276.635z"/>
</svg>
