<?xml version="1.0" encoding="utf-8"?>
<!-- Generator: Adobe Illustrator 16.0.3, SVG Export Plug-In . SVG Version: 6.00 Build 0)  -->
<!DOCTYPE svg PUBLIC "-//W3C//DTD SVG 1.1//EN" "http://www.w3.org/Graphics/SVG/1.1/DTD/svg11.dtd">
<svg version="1.1" id="Ebene_1" xmlns="http://www.w3.org/2000/svg" xmlns:xlink="http://www.w3.org/1999/xlink" x="0px" y="0px"
	 width="640px" height="621.769px" viewBox="0 0 640 621.769" enable-background="new 0 0 640 621.769" xml:space="preserve">
	 <defs>
         <style type="text/css"><![CDATA[
           .socIcon g {
             fill:red;
           }
         ]]></style>
       </defs>
<g>
	<path opacity="0.3" fill="#FFFFFF" d="M241.327,21.402l16.824,11.724V86.14h73.914V37.714l8.666-13.764l32.113-14.783v24.468
		l54.545,1.019l-9.686,95.324h13.255l-9.688,42.82c0,0,41.462-31.436,89.38-2.548c27.865,15.293,31.266,28.207,31.266,28.207
		l5.095,86.319l-37.043,1.697l0.344,59.133H529l1.701,47.236c0,0-26.17,6.795-43.502-10.535
		c-17.331,0.682-20.051,0.682-20.051,0.682l0.681,11.164l47.578,24.855l8.157,49.277c0,0-100.083,37.723-129.394,38.742
		s-32.031,0-32.031,0l3.399-39.762c0,0-11.933-0.678-46.747-27.867c-34.813-27.184-75.593-61.172-75.593-61.172
		s-35.685,4.762-46.899,21.756c-11.215,16.986-9.517,48.936-6.118,67.625c3.399,18.689,8.836,73.404-50.976,129.818
		c-19.71,21.748-24.469,16.313-28.885,15.631c-4.417-0.678-7.817-14.613-3.059-34.662c4.757-20.051,15.633-79.523,10.875-106.713
		c-21.409,2.041-21.409,2.041-21.409,2.041l-3.738-85.297l141.711-34.664L241.327,21.402z"/>
	<path fill="none" stroke="#FFFFFF" d="M241.327,21.402l16.824,11.724V86.14h73.914V37.714l8.666-13.764l32.113-14.783v24.468
		l54.545,1.019l-9.686,95.324h13.255l-9.688,42.82c0,0,41.462-31.436,89.38-2.548c27.865,15.293,31.266,28.207,31.266,28.207
		l5.095,86.319l-37.043,1.697l0.344,59.133H529l1.701,47.236c0,0-26.17,6.795-43.502-10.535
		c-17.331,0.682-20.051,0.682-20.051,0.682l0.681,11.164l47.578,24.855l8.157,49.277c0,0-100.083,37.723-129.394,38.742
		s-32.031,0-32.031,0l3.399-39.762c0,0-11.933-0.678-46.747-27.867c-34.813-27.184-75.593-61.172-75.593-61.172
		s-35.685,4.762-46.899,21.756c-11.215,16.986-9.517,48.936-6.118,67.625c3.399,18.689,8.836,73.404-50.976,129.818
		c-19.71,21.748-24.469,16.313-28.885,15.631c-4.417-0.678-7.817-14.613-3.059-34.662c4.757-20.051,15.633-79.523,10.875-106.713
		c-21.409,2.041-21.409,2.041-21.409,2.041l-3.738-85.297l141.711-34.664L241.327,21.402z"/>
</g>
</svg>
