<?xml version="1.0" encoding="utf-8"?>
<!-- Generator: Adobe Illustrator 16.0.3, SVG Export Plug-In . SVG Version: 6.00 Build 0)  -->
<!DOCTYPE svg PUBLIC "-//W3C//DTD SVG 1.1//EN" "http://www.w3.org/Graphics/SVG/1.1/DTD/svg11.dtd">
<svg version="1.1" id="Ebene_1" xmlns="http://www.w3.org/2000/svg" xmlns:xlink="http://www.w3.org/1999/xlink" x="0px" y="0px"
	 width="640px" height="621.769px" viewBox="0 0 640 621.769" enable-background="new 0 0 640 621.769" xml:space="preserve">
<g>
	<path opacity="0.5" fill="#FFFFFF" d="M223.131,346.084"/>
	<path opacity="0.5" fill="#C0272D" d="M223.131,346.084c0,0,77.482-63.717,86.658-70.854c9.175-7.136,21.408-14.274,45.878-22.429
		c24.467-8.155,62.189-17.332,62.189-17.332l-3.061,102.97l-94.302,7.135l-34.493,40.725L223.131,346.084z"/>
	<path fill="none" stroke="#FFFFFF" d="M223.131,346.084c0,0,77.482-63.717,86.658-70.854c9.175-7.136,21.408-14.274,45.878-22.429
		c24.467-8.155,62.189-17.332,62.189-17.332l-3.061,102.97l-94.302,7.135l-34.493,40.725L223.131,346.084z"/>
</g>
</svg>
