<?xml version="1.0" encoding="utf-8"?>
<!-- Generator: Adobe Illustrator 16.0.3, SVG Export Plug-In . SVG Version: 6.00 Build 0)  -->
<!DOCTYPE svg PUBLIC "-//W3C//DTD SVG 1.1//EN" "http://www.w3.org/Graphics/SVG/1.1/DTD/svg11.dtd">
<svg version="1.1" id="Ebene_1" xmlns="http://www.w3.org/2000/svg" xmlns:xlink="http://www.w3.org/1999/xlink" x="0px" y="0px"
	 width="640px" height="621.769px" viewBox="0 0 640 621.769" enable-background="new 0 0 640 621.769" xml:space="preserve">
<g>
	<path opacity="0.3" fill="#C0272D" d="M223.155,296.124c0,0-6.853,71.83-16.679,93.771c-9.828,21.939-9.711,42.283-8.299,57.625
		s-19.881,55.053-35.173,56.072s-31.604-25.488-35.173-67.289c-3.567-41.797-14.782-117.242-14.782-117.242L223.155,296.124z"/>
	<polygon opacity="0.3" fill="#C0272D" points="428.586,111.592 512.186,97.829 526.968,390.937 441.33,406.228 274.131,286.946 	
		"/>
	<path fill="none" stroke="#FFFFFF" d="M223.155,296.124c0,0-6.853,71.83-16.679,93.771c-9.828,21.939-9.711,42.283-8.299,57.625
		s-19.881,55.053-35.173,56.072s-31.604-25.488-35.173-67.289c-3.567-41.797-14.782-117.242-14.782-117.242L223.155,296.124z"/>
	<polygon fill="none" stroke="#FFFFFF" points="428.586,111.592 512.186,97.829 526.968,390.937 441.33,406.228 274.131,286.946 	
		"/>
</g>
</svg>
