<?xml version="1.0" encoding="utf-8"?>
<!-- Generator: Adobe Illustrator 16.0.3, SVG Export Plug-In . SVG Version: 6.00 Build 0)  -->
<!DOCTYPE svg PUBLIC "-//W3C//DTD SVG 1.1//EN" "http://www.w3.org/Graphics/SVG/1.1/DTD/svg11.dtd">
<svg version="1.1" id="Ebene_1" xmlns="http://www.w3.org/2000/svg" xmlns:xlink="http://www.w3.org/1999/xlink" x="0px" y="0px"
	 width="960px" height="560px" viewBox="0 0 960 560" enable-background="new 0 0 960 560" xml:space="preserve">
<path fill-rule="evenodd" clip-rule="evenodd" fill="#666666" stroke="#666666" stroke-width="0.5" stroke-miterlimit="10" d="
	M470.231,265.085c0.372-0.311-0.128-0.64,0.027-0.985c0.124-0.271,0.155-0.609,0.155-0.915c0-1.605,0.02-3.203,0.016-4.808
	c0-0.489-0.097-0.969-0.023-1.474c0.035-0.232-0.174-0.504-0.283-0.791c0.488-0.454,0.333-0.934-0.043-1.396
	c0.465-0.45,0.442-1.032,0.337-1.516c-0.108-0.485-0.004-0.911,0.008-1.365c0.012-0.78-0.02-1.555-0.016-2.334
	c0.016-1.756,0.124-3.517,0.046-5.266c-0.101-2.303,0.07-4.595-0.011-6.894c-0.027-0.651-0.124-1.311-0.249-1.954
	c-0.384-1.993-0.783-3.986-1.198-5.975c-0.357-1.683-0.756-3.354-1.117-5.037c-0.128-0.593-0.369-1.105-0.764-1.563
	c-0.403-0.469-0.864-0.775-1.512-0.76c-0.663,0.016-1.33-0.023-1.989,0.016c-0.589,0.035-0.826,0.295-0.927,0.876
	c-0.012,0.077-0.027,0.155-0.027,0.232c-0.039,1.528-0.108,3.052-0.108,4.575c-0.008,1.877,0.112,3.761,0.054,5.634
	c-0.046,1.64,0.02,3.28,0.031,4.92c0.023,2.737-0.085,5.482-0.109,8.224c-0.023,2.699,0,5.401,0,8.104
	c0,0.822-0.015,1.644-0.035,2.466c-0.004,0.097-0.078,0.19-0.175,0.435c-0.287-0.841-0.287-1.57-0.291-2.299
	c0-0.853,0.058-1.706,0.058-2.567c0.004-1.357-0.039-2.722-0.031-4.087c0.012-1.71,0.07-3.424,0.085-5.134
	c0.023-2.152,0.046-4.304,0.031-6.448c-0.012-1.919-0.097-3.835-0.109-5.75c-0.008-1.442,0.059-2.889,0.066-4.331
	c0.008-1.016,0.008-2.036-0.054-3.051c-0.035-0.659,0.186-1.233,0.407-1.815c0.144-0.364,0.527-0.504,0.869-0.52
	c0.934-0.039,1.884-0.093,2.803,0.027c0.764,0.104,1.28,0.748,1.687,1.369c0.271,0.411,0.427,0.923,0.543,1.411
	c0.275,1.179,0.489,2.377,0.741,3.563c0.054,0.264,0.17,0.516,0.287,0.865c0.625-0.396,1.194-0.775,1.78-1.128
	c1.419-0.845,2.939-1.462,4.494-2c0.085-0.027,0.206,0.039,0.36,0.073c-0.062,0.132-0.085,0.271-0.159,0.307
	c-1.059,0.461-1.981,1.198-3.106,1.524c-0.291,0.085-0.582,0.279-0.783,0.496s-0.294,0.535-0.45,0.83
	c-0.171-0.031-0.322-0.054-0.563-0.101c-0.562,0.442-0.853,1.047-0.717,1.869c0.058,0.341,0,0.698,0.023,1.055
	c0.027,0.489,0.236,0.714,0.745,0.714c0.934,0.015,1.873-0.035,2.807-0.02c0.741,0.012,1.481,0.082,2.218,0.12
	c0.198,0.016,0.396,0.031,0.589,0.039c2.823,0.012,5.642,0.023,8.461,0.039c1.175,0.012,2.346,0.046,3.521,0.054
	c0.496,0.008,1.016,0.124,1.474-0.225c0.069-0.05,0.313,0.023,0.396,0.113c0.286,0.306,0.376-0.124,0.569-0.12
	c0.086,0.116,0.175,0.24,0.279,0.392c0.342,0,0.694,0.027,1.043-0.012c0.171-0.02,0.392-0.12,0.477-0.256
	c0.151-0.233-0.022-0.435-0.201-0.597c-0.027-0.027-0.069-0.031-0.104-0.054l0.023,0.023c-0.116-0.108-0.233-0.209-0.407-0.368
	c0.128-0.419,0.256-0.857,0.403-1.357c-0.268-0.132-0.57-0.283-0.907-0.454c-0.128-0.291-0.271-0.608-0.442-0.985
	c-0.264-0.039-0.559-0.077-0.856-0.116c-0.117-0.217,0.174-0.659-0.393-0.659c-0.146-0.004-0.274-0.33-0.453-0.458
	c-0.183-0.132-0.454-0.163-0.616-0.314c-0.365-0.345-0.765-0.539-1.269-0.5c-0.112,0.004-0.24-0.031-0.333-0.093
	c-0.958-0.659-2.086-0.841-3.18-1.097c-0.48-0.113-1.004-0.097-1.512-0.097c-0.342,0.008-0.702,0.179-1.028,0.116
	c-0.321-0.062-0.612-0.31-0.988-0.52c0.144-0.287,0.252-0.566,0.415-0.818c0.445-0.683,1.26-0.698,1.744-0.027
	c0.132,0.182,0.206,0.411,0.33,0.667c4.001,0.376,7.534,1.931,10.748,4.494c0.108-0.33,0.217-0.566,0.275-0.811
	c0.264-1.187,0.52-2.373,0.779-3.56c0.039-0.19,0.089-0.38,0.136-0.57c0.275-1.19,1.059-1.88,2.202-2.199
	c0.811-0.225,1.637-0.202,2.443-0.062c0.74,0.124,1.232,0.566,1.45,1.354c0.229,0.818,0.154,1.636,0.162,2.45
	c0.02,1.489,0,2.974-0.022,4.463c-0.02,1.094-0.094,2.179-0.105,3.272c-0.016,1.757,0,3.513,0.004,5.273
	c0.008,1.76,0.039,3.521,0.016,5.281c-0.039,3.761-0.128,7.518-0.151,11.279c-0.026,3.874,0.008,7.751,0.008,11.628
	c0,0.861-0.05,1.721-0.054,2.586c-0.027,2.974-0.066,5.952-0.066,8.93c0,2.38-0.457,4.665-1.353,6.871
	c-0.741,1.814-1.652,3.544-2.815,5.126c-0.24,0.33-0.372,0.667-0.435,1.063c-0.244,1.442-0.108,2.893-0.124,4.335
	c-0.012,1.605,0.089,3.207,0.101,4.808c0.008,1.21-0.069,2.42-0.073,3.626c-0.02,3.485-0.016,6.968-0.035,10.449
	c-0.012,2.315-0.054,4.626-0.073,6.94c-0.004,0.621,0.027,1.241,0.039,1.83c0.674,0.613,1.488,0.264,2.163,0.478
	c0.333,0.337,0.244,0.748,0.244,1.128c0,3.524-0.039,7.05-0.008,10.578c0.012,1.52,0.004,3.039-0.027,4.563
	c-0.026,1.485-0.03,2.974-0.03,4.463c0,3.369,0.023,6.739,0.023,10.112c-0.004,1.64-0.063,3.288-0.074,4.932
	c-0.012,1.645,0,3.288-0.008,4.933c-0.004,0.38,0.082,0.787-0.182,1.144c-0.667,0.454-1.466,0.023-2.211,0.307
	c-0.244,0.821-0.101,1.683-0.14,2.527c-0.042,0.861-0.05,1.726-0.05,2.587c-0.008,0.825-0.012,1.647,0.035,2.47
	c0.05,0.841-0.159,1.714,0.189,2.574c1.027,0.116,2.113-0.17,2.997,0.787c0.012,0.128-0.02,0.407,0.059,0.655
	c0.217,0.667-0.086,1.023-0.667,1.257c-0.012,0.004,0,0.073,0,0.182c0.163,0.031,0.341,0.105,0.516,0.105
	c0.783,0.007,1.563-0.012,2.346,0c0.884,0,1.613,0.294,1.985,1.179c0.392,0.938,0.321,1.841-0.256,2.675
	c-0.303,0.442-0.783,0.655-1.314,0.679c-0.702,0.027-1.407,0.012-2.109,0.023c-0.419,0.012-0.856-0.147-1.241,0.112
	c-0.097,0.248,0.09,0.291,0.222,0.333c0.31,0.102,0.441,0.311,0.445,0.617c0.008,0.465,0.004,0.927,0.004,1.345
	c-0.931,0.776-1.966,0.799-3.059,0.675c-0.268,0.885-0.229,1.745-0.248,2.599c-0.02,0.86,0.034,1.717,0.019,2.578
	c-0.026,1.958-0.069,3.912-0.108,5.874c0,0.112-0.023,0.256,0.031,0.342c0.454,0.729,0.283,1.523,0.279,2.295
	c-0.02,2.741-0.063,5.482-0.074,8.228c-0.019,4.313-0.015,8.616-0.05,12.928c-0.008,1.248-0.035,2.497-0.322,3.733
	c-0.162,0.714-0.101,1.485-0.104,2.229c-0.012,5.01-0.004,10.027-0.016,15.041c0,0.935-0.182,1.873,0,2.811
	c0.074,0.381,0.112,0.765,0.202,1.141c0.154,0.651-0.086,1.116-0.745,1.187c-0.74,0.077-1.488,0.077-2.229,0.085
	c-1.291,0.016-2.578,0.004-3.916,0.004c-0.225,0.671-0.155,1.373-0.163,2.066c-0.008,0.388,0.004,0.775-0.004,1.164
	c-0.019,1.058-0.065,2.108-0.058,3.163c0.004,0.338,0.054,0.761,0.252,0.993c0.442,0.52,0.419,1.07,0.116,1.523
	c-0.531,0.795-0.368,1.66-0.407,2.497c-0.047,1.012,0.059,2.032,0.051,3.048c-0.004,1.407-0.078,2.815-0.059,4.223
	c0.016,0.903-0.353,1.411-1.167,1.814c-1.074,0.527-2.19,0.826-3.342,1.063c-1.183,0.248-2.381,0.435-3.606,0.303
	c-0.582-0.063-1.171-0.098-1.741-0.202c-1.229-0.229-2.478-0.411-3.664-0.771c-0.764-0.236-1.461-0.732-2.144-1.167
	c-0.376-0.24-0.512-0.687-0.52-1.14c-0.012-1.055-0.023-2.109-0.012-3.164c0.012-1.722,0.07-3.443,0.062-5.165
	c0-0.543-0.104-1.078-0.446-1.551c-0.357-0.496-0.31-1.001,0.097-1.505c0.384-0.477,0.349-1.016,0.019-1.714
	c-0.45-0.046-0.422,0.365-0.585,0.602c-0.229,0.337-0.543,0.313-0.709-0.059c-0.147-0.313-0.256-0.647-0.403-1.031
	c-0.232-0.039-0.496-0.069-0.756-0.136c-0.45-0.104-0.589-0.279-0.632-0.725c-0.031-0.354,0.151-0.613,0.512-0.651
	c0.264-0.035,0.539-0.008,0.857-0.008c0.062-0.275,0.128-0.489,0.159-0.71c0.031-0.229-0.012-0.48,0.062-0.694
	c0.05-0.162,0.229-0.36,0.368-0.38c0.155-0.027,0.392,0.097,0.497,0.229c0.182,0.229,0.291,0.516,0.488,0.896
	c0.179-0.241,0.369-0.38,0.376-0.527c0.027-0.846,0.015-1.698,0.015-2.633c-0.922-0.043-1.768-0.101-2.617-0.112
	c-1.132-0.023-2.268-0.004-3.4-0.004c-0.12,0-0.24,0.004-0.353-0.012c-0.748-0.102-1.147-0.807-0.667-1.357
	c0.48-0.559,0.465-1.016,0.139-1.582c-0.151-0.26,0.097-0.431,0.198-0.632l-0.023,0.02c0.268-0.346,0.178-0.753,0.178-1.133
	c0.012-4.312,0.02-8.619,0.023-12.927c0.008-0.978,0.027-1.962,0.027-2.939c-0.004-0.573-0.031-1.155-0.194-1.736
	c0,0.825,0.008,1.644,0,2.466c-0.027,3.094-0.078,6.188-0.085,9.278c-0.004,1.369,0.074,2.733,0.093,4.103
	c0.008,0.345-0.042,0.697-0.108,1.043c-0.027,0.12-0.171,0.221-0.365,0.457c-0.035-0.473-0.077-0.775-0.077-1.081
	c0.007-1.175,0.039-2.35,0.042-3.525c0.004-1.683-0.054-3.369-0.008-5.048c0.074-2.505-0.128-5.006,0.042-7.499
	c0.093-1.411,0.151-2.815,0.155-4.223c0.012-3.563,0.004-7.131,0.008-10.689c0.008-3.917,0.027-7.833,0.02-11.753
	c-0.004-1.722-0.082-3.447-0.089-5.168c-0.012-2.113,0.02-4.227,0.027-6.344c0.003-0.116-0.016-0.236-0.027-0.419
	c-0.38-0.116-0.775-0.236-1.249-0.38c-0.039-0.942-0.074-1.869-0.116-2.831c-0.869-0.317-1.702-0.644-2.547-0.93
	c-0.33-0.109-0.694-0.163-1.043-0.171c-1.016-0.035-2.032-0.055-3.047-0.031c-0.337,0.008-0.632-0.054-0.869-0.256
	c-0.132-0.116-0.194-0.317-0.283-0.488c-0.015-0.027,0-0.078,0-0.116c-0.031-1.198,0.187-1.423,1.396-1.446
	c0.625-0.012,1.256-0.07,1.877-0.016c1.388,0.124,2.605-0.415,3.85-0.873c0.217-0.081,0.399-0.244,0.593-0.364
	c0.294-0.899-0.112-1.899,0.426-2.776c0.318-0.038,0.617-0.077,0.876-0.101c0.07-0.132,0.14-0.197,0.144-0.264
	c0.023-0.783,0.05-1.566,0.05-2.35c-0.008-3.443-0.035-6.883-0.035-10.321c0-1.295,0.035-2.591,0.07-3.878
	c0.011-0.457-0.055-0.86-0.625-1.104c0.233-0.222,0.442-0.338,0.516-0.516c0.085-0.206,0.054-0.458,0.054-0.694
	c0.047-3.056,0.089-6.107,0.132-9.162c0.035-2.191,0.085-4.378,0.101-6.568c0.012-1.563-0.031-3.129-0.027-4.692
	c0.008-1.644,0.05-3.288,0.062-4.932c0.035-5.677,0.051-11.356,0.093-17.037c0.008-1.481,0.104-2.963,0.12-4.447
	c0.02-2.342,0-4.688,0.016-7.03c0.016-2.702,0.062-5.405,0.082-8.111c0.004-0.938-0.043-1.877-0.051-2.815
	c0-0.565-0.194-1.047-0.477-1.539c-0.923-1.594-1.772-3.233-2.319-4.99c-0.593-1.907-0.985-3.861-0.993-5.882
	c-0.008-1.33-0.104-2.66-0.128-3.99c-0.008-0.706,0.085-1.412,0.089-2.113c0.027-4.191,0.035-8.383,0.07-12.574
	c0.008-0.9,0.073-1.799,0.128-2.699c0.008-0.132,0.101-0.256,0.151-0.38c0.303,0.12,0.268,0.333,0.268,0.52
	c-0.019,3.451-0.035,6.894-0.074,10.345c-0.008,0.702-0.136,1.404-0.143,2.105c-0.012,1.012,0.058,2.028,0.058,3.04
	c0,1.209-0.074,2.416-0.043,3.625c0.031,1.21,0.151,2.42,0.237,3.63c0.174,2.497,1.02,4.792,2.082,7.041
	c0.822,1.749,1.764,3.404,2.986,4.901c0.221,0.268,0.349,0.612,0.57,0.884c0.217,0.268,0.465,0.651,0.748,0.698
	c0.543,0.085,0.725,0.48,1.059,1c0.097-0.342,0.183-0.512,0.186-0.679c0.02-2.156,0.031-4.308,0.035-6.46
	c0-0.589-0.046-1.159-0.527-1.624c-0.26-0.245-0.489-0.602-0.353-1.047c0.585-0.004,0.361,0.705,0.795,0.768
	c0.089-0.76,0.089-0.76-0.356-1.621c0.128-0.062,0.256-0.124,0.422-0.205c0.023-1.299,0.043-2.625,0.066-3.951
	c0.004-0.194-0.012-0.396,0.02-0.59c0.194-1.221-0.012-2.33-0.896-3.261c-0.074-0.074-0.031-0.248-0.062-0.616
	c0.349,0.407,0.542,0.632,0.74,0.868c0.054-0.07,0.116-0.12,0.124-0.178c0.121-0.613,0.023-1.147-0.465-1.605
	c-0.221-0.209-0.376-0.5-0.52-0.776c-0.058-0.108-0.007-0.271-0.007-0.488c0.585,0.155,0.527,0.744,0.95,0.993
	c0.128-0.341,0.167-0.651-0.058-0.954c-0.155-0.213-0.213-0.388,0.008-0.612c0.093-0.093,0.097-0.287,0.108-0.438
	c0.066-1.167,0.124-2.334,0.182-3.501c0.008-0.194-0.031-0.392-0.031-0.586c0.004-0.542,0.008-1.085,0.023-1.632
	c0.019-0.888-0.047-1.776-0.147-2.66L470.231,265.085z M492.1,382.26c0.256-0.073,0.617-0.062,0.757-0.232
	c0.278-0.341,0.248-0.876,0.647-1.179c-0.094-0.101-0.175-0.24-0.291-0.291c-0.066-0.031-0.221,0.059-0.291,0.128
	c-0.295,0.33-0.655,0.175-0.988,0.14c-0.078-0.008-0.19-0.155-0.194-0.248c-0.008-0.089,0.074-0.225,0.159-0.271
	c0.128-0.077,0.299-0.077,0.438-0.14c0.05-0.02,0.069-0.124,0.104-0.186c-0.124-0.167-0.435-0.249-0.252-0.594
	c0.201,0,0.422,0,0.64,0c0.004-0.069,0.016-0.112,0.004-0.124c-0.147-0.12-0.353-0.244-0.194-0.454
	c0.055-0.073,0.275-0.046,0.407-0.022c0.372,0.093,0.392-0.108,0.342-0.419c-0.198-0.039-0.411-0.078-0.621-0.116
	c0.094-0.706,0.252-0.834,0.753-0.624c0.154,0.065,0.298,0.174,0.562,0.329c-0.636-0.834-0.849-0.981-1.473-0.671
	c-0.462,0.229-0.958-0.093-1.373,0.236c-0.043,0.039-0.221-0.03-0.287-0.101c-0.136-0.124-0.232-0.287-0.317-0.411
	c-0.458,0.055-0.842,0.093-1.179,0.132c-0.226,0.194-0.047,0.636-0.517,0.609c-0.124-0.206-0.256-0.435-0.395-0.675
	c-1.021-0.059-2.017-0.128-3.021-0.163c-0.732-0.027-1.473-0.02-2.214-0.02c-1.403,0.004-2.811-0.108-4.21-0.101
	c-1.559,0.008-3.118-0.051-4.676-0.031c-0.83,0.012-1.71-0.136-2.501,0.33c-0.089,0.05-0.268-0.039-0.399-0.074
	c-0.364-0.093-2.528-0.163-2.815-0.085c-0.108,0.027-0.57,0.604-0.562,0.705c0.004,0.02,0.046,0.039,0.05,0.039
	c0.202,0.039,0.384,0.074,0.76,0.144c-0.434,0.268-0.702,0.431-1.07,0.663c0.399,0.047,0.655,0.069,0.935,0.101
	c-0.171,0.609-0.318,1.141-0.465,1.668c0.217,0.077,0.392,0.139,0.601,0.217c-0.422,0.364-0.422,0.364-1.202,0.438
	c0.112,0.183,0.306,0.354,0.283,0.485c-0.081,0.435-0.015,0.814,0.183,1.21c0.07,0.132-0.02,0.38-0.089,0.558
	c-0.128,0.322-0.298,0.629-0.434,0.915c-0.004,0.311,0.574,0.396,0.31,0.683c-0.283,0.307-0.104,0.59-0.097,0.865
	c0.016,0.337,0.271,0.52,0.632,0.52c0.566-0.004,1.117-0.012,1.679,0.158c0.388,0.117,0.876,0.109,1.249-0.026
	c0.287-0.105,0.461-0.144,0.733-0.004c0.229,0.12,0.523,0.154,0.787,0.154c0.822,0.016,1.64,0.004,2.462,0
	c2.195-0.015,4.386-0.038,6.58-0.054c1.718-0.008,3.439-0.051,5.157-0.008c0.62,0.02,1.256-0.527,1.865,0.023
	c0.407-0.342,0.783,0.004,1.175,0.031c0.399,0.026,0.845,0.132,1.232-0.21c0.144-0.132,0.442-0.077,0.663-0.128
	c0.047-0.012,0.074-0.104,0.108-0.163c-0.15-0.306-0.771,0.147-0.752-0.438c0.64-0.342,1.271-0.671,1.997-1.055
	c-0.24-0.163-0.399-0.264-0.547-0.38c-0.435-0.326-0.457-0.609-0.073-0.931c0.147-0.124,0.349-0.179,0.492-0.303
	c0.069-0.055,0.069-0.194,0.108-0.318c-0.311,0.102-0.578,0.237-0.856,0.271c-0.346,0.035-0.466-0.217-0.478-0.531L492.1,382.26z
	 M493.03,394.001l0.023,0.016c-0.047-0.214,0.171-0.458-0.108-0.659c-0.244,0.054-0.504,0.116-0.752,0.178
	c-0.403-0.186-0.787-0.364-1.21-0.558c0.073-0.124,0.124-0.318,0.24-0.369c0.45-0.205,0.915-0.396,1.388-0.539
	c0.147-0.038,0.35,0.094,0.527,0.144c0.102-0.616,0.102-0.616,0.667-0.915c-0.069-0.496-0.573-0.581-0.853-0.856
	c0-0.066-0.008-0.104,0-0.14c0.104-0.326,0.12-0.736,0.337-0.962c0.407-0.419-0.337-0.562-0.14-0.899
	c0.155-0.271-0.016-0.52-0.046-0.787c-0.02-0.128,0.201-0.291,0.368-0.5c-0.671,0-1.287,0.008-1.9,0
	c-1.531-0.031-3.055-0.093-4.579-0.108c-3.365-0.031-6.731-0.039-10.097-0.07c-0.624-0.004-1.241-0.089-1.865-0.124
	c-0.194-0.012-0.388,0.02-0.582,0.035c-0.427,0.027-0.857,0.085-1.288,0.085c-1.291,0-2.586-0.026-3.877-0.026
	c-0.647,0-1.326-0.09-1.908,0.333c0.229,0.473,0.229,0.473-0.101,1.063c0.589,0.465,0.869,1.055,0.496,1.83
	c-0.248,0.055-0.504,0.101-0.861,0.179c0.256,0.124,0.403,0.209,0.566,0.286c-0.14,0.279-0.264,0.543-0.415,0.854
	c0.237,0,0.388,0,0.57,0c0.12,0.26,0.244,0.535,0.403,0.88c0.446-0.081,0.857-0.151,1.314-0.236c0.241,0.187,0.504,0.396,0.88,0.679
	c-0.52,0.186-0.935,0.333-1.346,0.477c-0.5-0.325-0.985,0.043-1.481,0.027c-0.046-0.407-0.093-0.811-0.136-1.222
	c-0.159,0.303-0.24,0.59-0.256,0.885c-0.008,0.24,0.209,0.294,0.411,0.317c0.054,0.535-0.179,0.899-0.663,1.117
	c-0.027,0.016-0.012,0.124-0.023,0.248c0.171-0.039,0.31-0.078,0.454-0.104c0.14-0.027,0.287-0.043,0.431-0.066
	c0.186,0.36,0.341,0.667,0.484,0.938c-0.252,0.449-0.542,0.24-0.818,0.147c0,0.128-0.198,0.853-0.279,1.035
	c0.244,0.159,0.539,0.275,0.717,0.488c0.186,0.221,0.268,0.539,0.392,0.814c0.411,0.043,0.775,0.159,1.105,0.104
	c1.059-0.178,2.102,0.055,3.156,0.008c0.582-0.023,1.167,0.093,1.749,0.085c1.198-0.022,2.404,0.14,3.598-0.058
	c0.19-0.027,0.388,0.02,0.582,0.027c0.539,0.023,1.078,0.069,1.621,0.073c1.989,0.023,3.979,0.035,5.968,0.051
	c1.407,0.012,2.814,0.046,4.222,0.016c0.842-0.023,1.702,0.108,2.517-0.233c0.338-0.14,0.64-0.294,0.706-0.701
	c0.039-0.229,0.19-0.47,0.144-0.671c-0.051-0.225-0.264-0.423-0.423-0.655c0.183-0.089,0.311-0.159,0.454-0.229
	c-0.074-0.271-0.403-0.505-0.117-0.846c0.086-0.101,0.066-0.295,0.078-0.45C493.504,394.117,493.264,394.059,493.03,394.001z
	 M467.207,325.173c0.031,0.26,0.062,0.512,0.085,0.726c0.388,0.15,0.799-0.229,1.063,0.302c-0.252,0.194-0.508,0.38-0.752,0.566
	c0.089,0.45,0.523,0.287,0.749,0.473c0.05,0.039,0.101,0.155,0.077,0.202c-0.042,0.089-0.147,0.232-0.213,0.221
	c-0.26-0.035-0.512-0.112-0.83-0.193c0.202,0.244,0.353,0.43,0.516,0.628c-0.326,0.601-0.884,1.104-0.446,1.838
	c0.027,0.05-0.008,0.167-0.046,0.225c-0.298,0.427-0.17,0.903-0.174,1.369c0,0.069,0.05,0.14,0.085,0.209
	c0.194,0.104,0.384,0.202,0.621,0.326c-0.585,0.821-0.271,1.461,0.426,2.102c-0.52,0.05-0.919,0.089-1.322,0.128
	c0.105,0.573,0.454,0.88,1.102,0.973c-0.194,0.279-0.279,0.523-0.446,0.613c-0.31,0.162-0.496,0.356-0.516,0.713
	c-0.015,0.295,0.233,0.356,0.388,0.527c0.105,0.108,0.163,0.356,0.117,0.504c-0.043,0.14-0.337,0.214-0.361,0.35
	c-0.027,0.154,0.194,0.349-0.008,0.52c-0.147,0.136-0.023,0.132,0.062,0.186c0.117,0.082,0.209,0.19,0.307,0.283
	c-0.155,0.205-0.264,0.353-0.423,0.563c0.206,0.023,0.353,0.046,0.5,0.054c0.178,0.008,0.356,0,0.574,0
	c-0.058,0.753-0.749,0.357-1.047,0.799c-0.085,0.396-0.202,0.911-0.333,1.497c0.543,0.062,0.985,0.108,1.481,0.159
	c-0.046,0.306-0.085,0.562-0.136,0.896c-0.271-0.163-0.454-0.311-0.663-0.368c-0.108-0.031-0.384,0.101-0.388,0.158
	c0,0.598-0.426,1.198-0.015,1.784c0.264-0.206,0.516-0.435,0.802-0.598c0.089-0.05,0.326,0.035,0.396,0.132
	c0.062,0.086,0.035,0.299-0.035,0.403c-0.155,0.236-0.636,0.171-0.589,0.636c0.356,0.361,1.016-0.306,1.318,0.322
	c-0.221,0.399-0.683,0.221-0.931,0.427c-0.33,0.275-0.636-0.027-0.884-0.012c-0.26,0.636,0.388,0.644,0.52,0.973
	c-0.442,0.896-0.686,1.804-0.318,2.78c-0.143,0.171-0.283,0.342-0.407,0.481c0.147,0.302,0.608,0.101,0.62,0.512
	c-0.178,0.17-0.36,0.333-0.636,0.589c0.434,0.187,0.748,0.326,1.059,0.466c-0.101,0.317-0.093,0.55,0.015,0.961
	c-0.163,0.299-0.678,0.086-0.814,0.535c0.279,0.012,0.492,0.023,0.775,0.039c-0.039,0.349,0.419,0.574,0.147,0.97
	c-0.209-0.086-0.376-0.147-0.512-0.206c-0.264,0.244-0.497,0.462-0.772,0.718c0.217,0,0.376-0.023,0.527,0.008
	c0.105,0.015,0.206,0.097,0.307,0.154c0.376,0.226,0.52,0.458,0.376,0.605c-0.217,0.225-0.411,0.065-0.632-0.023
	c-0.116-0.047-0.326-0.02-0.399,0.063c-0.074,0.085-0.062,0.278-0.035,0.414c0.023,0.144,0.112,0.268,0.163,0.396
	c0.167-0.089,0.333-0.264,0.458-0.236c0.236,0.055,0.411,0.279,0.326,0.535c-0.07,0.202-0.237,0.38-0.384,0.543
	c-0.077,0.089-0.337-0.008-0.244,0.325c0.116,0.023,0.256,0.078,0.396,0.078c0.221,0.008,0.477-0.14,0.609,0.163
	c0.082,0.193-0.151,0.372-0.562,0.43c-0.136,0.02-0.275,0-0.392,0c0.112,0.187,0.318,0.377,0.283,0.485
	c-0.12,0.333,0.186,0.368,0.283,0.546c0.082,0.151,0.05,0.361,0.074,0.578c0.372,0.179,0.764,0.342,1.14,0.547
	c0.167,0.089,0.333,0.236,0.128,0.453c-1.105-0.388-1.105-0.388-2.167,0.109c-0.007,0.108-0.05,0.232-0.019,0.337
	c0.081,0.26,0.198,0.5,0.302,0.756c-0.341,0.903-0.314,1.396,0.17,2.575c-0.356,0.48-0.74,1-0.17,1.62
	c0.042,0.043,0.058,0.171,0.023,0.214c-0.337,0.403,0.144,0.689,0.202,1.031c-0.237,0.085-0.415,0.147-0.609,0.213
	c0.182,0.167,0.353,0.318,0.585,0.531c-0.364,0.268-0.861,0.291-1.012,0.748c0.193,0,0.384-0.03,0.558,0.008
	c0.357,0.078,0.392,0.311,0.128,0.671c-0.039,0.055-0.062,0.12-0.089,0.19c0.167,0.201,0.333,0.411,0.489,0.604
	c-0.085,0.226-0.147,0.403-0.209,0.559c0.244,0.303,0.779-0.163,0.88,0.392c-0.787,0.559-1.412,1.291-1.272,1.531
	c0.236,0.047,0.496,0.098,0.768,0.155c-0.035,0.388-0.081,0.737-0.089,1.082c-0.016,0.694-0.004,0.694-0.202,1.035
	c0.159,0.104,0.356,0.179,0.461,0.318c0.206,0.275,0.458,0.411,0.791,0.422c0.899,0.023,1.799,0.051,2.699,0.063
	c1.997,0.023,3.986,0.039,5.983,0.039c3.951,0.004,7.905,0.004,11.864,0c0.582,0,1.175,0.012,1.757-0.027
	c0.213-0.023,0.411-0.236,0.62-0.244c0.21-0.012,0.427,0.128,0.647,0.186c0.035,0.008,0.094-0.081,0.136-0.12
	c-0.275-0.667-0.919-0.52-1.5-0.562c0.279-0.741,0.973-0.524,1.392-0.784c0.078-0.624,0.392-1.221-0.081-1.787
	c-0.454,0.07-0.822-0.077-1.155-0.376c0.112-0.194,0.201-0.33,0.278-0.466c-0.298-0.104-0.569-0.193-0.896-0.306
	c0.605-0.488,0.602-0.488,0.687-1.144c0.008-0.031,0.124-0.043,0.201-0.07c0.063,0.291,0.121,0.586,0.19,0.903
	c0.427,0.051,0.803,0.093,1.151,0.136c0.229-0.221,0.411-0.403,0.566-0.555c-0.081-0.31-0.136-0.539-0.462-0.593
	c-0.004,0.104,0,0.213-0.022,0.314c-0.016,0.097-0.039,0.248-0.105,0.271c-0.073,0.031-0.244-0.015-0.282-0.081
	c-0.132-0.221-0.12-0.523-0.458-0.612c-0.089-0.023-0.136-0.206-0.26-0.403c0.458-0.051,0.791-0.089,1.124-0.124
	c-0.24-0.392-0.449-0.741-0.662-1.09l0.019,0.023c0.082-0.38,0.163-0.752,0.241-1.117c0.356-0.186,0.752-0.302,0.965-0.817
	c-0.26,0.085-0.427,0.097-0.539,0.186c-0.356,0.283-0.752,0.171-1.124,0.12c-0.167-0.023-0.419-0.182-0.45-0.317
	c-0.073-0.364-0.341-0.683-0.193-1.109c0.108-0.317,0.104-0.694,0.089-1.039c-0.012-0.303-0.167-0.601-0.163-0.899
	c0.004-0.338,0.159-0.671,0.167-1.008c0.027-0.97-0.012-1.947,0.016-2.916c0.031-1.155,0.104-2.315-0.124-3.463
	c0.248-0.303-0.089-0.608-0.012-0.88c0.221-0.799,0.307-1.574,0.055-2.373c-0.027-0.093-0.008-0.232,0.038-0.333
	c0.218-0.535,0.055-1.078,0.023-1.613c-0.004-0.147-0.085-0.326-0.031-0.438c0.19-0.419,0.102-0.841,0.12-1.268
	c0.059-1.163-0.12-2.334,0.124-3.49c0.031-0.147,0.039-0.356-0.042-0.449c-0.287-0.356-0.244-0.698-0.097-1.086
	c0.12-0.311-0.109-0.604-0.14-0.899c-0.023-0.314,0.158-0.651,0.248-0.978c-0.435-0.512-0.19-0.992,0.026-1.504
	c0.066-0.159,0.004-0.388-0.026-0.574c-0.098-0.644,0.24-1.303-0.102-1.938c-0.038-0.063,0.105-0.205,0.121-0.314
	c0.03-0.232,0.124-0.523,0.022-0.682c-0.333-0.52-0.026-1.066-0.146-1.59c-0.09-0.376,0.31-0.818-0.136-1.183
	c-0.039-0.031,0.038-0.206,0.065-0.311c0.055-0.217,0.187-0.45,0.151-0.651c-0.066-0.396-0.035-0.76,0.058-1.147
	c0.066-0.295,0.027-0.624,0.004-0.931c-0.042-0.466-0.14-0.892-0.05-1.385c0.073-0.414-0.124-0.892,0.069-1.337
	c0.043-0.105,0.051-0.241,0.023-0.35c-0.264-1.039-0.039-2.086-0.069-3.125c-0.027-0.807,0.209-1.45,1.073-1.814
	c0.474,0.217,1.024,0.435,1.544-0.128c-0.055-0.086-0.108-0.183-0.163-0.275l0.012,0.023c-0.012-0.155-0.093-0.364-0.027-0.45
	c0.353-0.465,0.368-0.876-0.035-1.314c-0.065-0.073-0.034-0.36,0.043-0.419c0.411-0.302,0.167-0.787,0.547-1.244
	c-0.481,0.155-0.756,0.244-1.031,0.333l0.026,0.016c-0.058-0.14-0.116-0.275-0.182-0.441c0.179-0.144,0.329-0.264,0.48-0.388
	c0.144-0.117,0.283-0.253,0.435-0.365c0.132-0.093,0.368,0.094,0.496-0.229c-0.403-0.035-0.76-0.073-1.102-0.104
	c-0.03-0.62,0.47-0.559,0.814-0.729c-0.008-0.217-0.046-0.449-0.027-0.674c0.02-0.21,0.094-0.415,0.147-0.659
	c-0.651,0.124-0.888-0.279-1.205-0.605c0.329-0.256,0.154-0.581,0.24-0.771c0.097-0.221,0.477-0.307,0.736-0.457
	c-0.484-0.633-0.484-0.633-0.101-1.021c-0.066-0.225-0.47-0.356-0.19-0.682c0.14-0.163,0.004-0.249-0.097-0.381
	c-0.271-0.341-0.244-0.388,0.167-0.465c0.372-0.066,0.512-0.202,0.465-0.48c-0.031-0.229-0.112-0.45-0.155-0.683
	c-0.042-0.229-0.026-0.474-0.097-0.698c-0.054-0.179-0.189-0.337-0.291-0.5c0.222-0.14,0.497,0.027,0.539-0.314
	c-0.434-0.193-0.935-0.325-1.303-0.62c-0.275-0.229-0.512-0.303-0.833-0.287c-0.431,0.031-0.857,0.063-1.288,0.059
	c-0.701-0.004-1.407-0.035-2.109-0.043c-0.744-0.008-1.484,0-2.233-0.008c-0.205,0-0.38-0.069-0.396-0.403
	c0.245-0.031,0.501-0.101,0.753-0.101c1.213-0.008,2.431,0.008,3.645,0.008c0.314,0,0.644,0.031,0.938-0.047
	c0.573-0.155,1.14-0.147,1.714-0.058c0.046,0.004,0.104-0.086,0.155-0.132c-0.02-0.214-0.047-0.423-0.094-0.85
	c0.303,0.256,0.442,0.38,0.64,0.551c0.151-0.264,0.299-0.516,0.446-0.768c-0.458-0.508,0.229-0.846,0.201-1.303
	c-0.15-0.218-0.329-0.423-0.441-0.663c-0.116-0.244-0.163-0.523-0.24-0.771c-0.861-0.24-0.861-0.24-0.838-0.807
	c0.256,0.016,0.512,0.027,0.736,0.039c0.474-0.621,0.435-1.179,0.047-1.776c-0.457-0.713-0.76-1.69-0.807-2.357
	c0.244-0.104,0.388,0.02,0.415,0.232c0.055,0.45,0.338,0.59,0.729,0.598c0.055,0,0.109-0.086,0.159-0.128
	c0.078-0.458-0.438-0.454-0.581-0.726c0.287-0.597,0.372-1.21,0.392-1.791c-0.334-0.232-0.811,0.232-0.942-0.38
	c0.217-0.136,0.442-0.271,0.683-0.419c0.065-0.368,0.132-0.736,0.201-1.132c-0.419,0.128-0.419,0.128-0.52,0.674
	c-0.791,0.016-1.128,0.659-1.543,1.214c-0.236,0.314-0.458,0.64-0.722,0.923c-0.116,0.124-0.372,0.264-0.496,0.214
	c-0.427-0.163-0.423,0.441-0.775,0.38c-0.295-0.128-0.271-0.659-0.748-0.621c-0.082,0.008-0.222-0.213-0.256-0.349
	c-0.059-0.225-0.063-0.465-0.059-0.698c0-2.667,0.008-5.327,0.023-7.995c0.008-2.233,0.047-4.467,0.051-6.7
	c0.004-2.187-0.027-4.381-0.031-6.568c0-0.904,0.023-1.803,0.047-2.707c0.026-0.931,0.089-1.861,0.089-2.795
	c0-0.694-0.063-1.384-0.104-2.164c-0.865-0.008-1.68-0.012-2.493-0.023c-2.351-0.02-4.7-0.066-7.049-0.066
	c-1.919,0-3.839,0.07-5.754,0.046c-0.977-0.016-1.942-0.02-2.947,0.186c-0.132,0.295-0.287,0.589-0.209,0.977
	c0.089,0.419,0.14,0.842-0.019,1.272c-0.074,0.209-0.035,0.465-0.016,0.694c0.097,0.919,0.217,1.834-0.02,2.753
	c-0.046,0.174,0.023,0.384,0.046,0.57c0.02,0.194,0.113,0.415,0.051,0.566c-0.221,0.508-0.031,1.008-0.051,1.512
	c-0.007,0.225,0.055,0.458,0.043,0.69c-0.027,0.527-0.221,1.097-0.085,1.578c0.303,1.105-0.318,2.233,0.186,3.308
	c0.023,0.046-0.019,0.154-0.062,0.209c-0.275,0.364-0.097,0.722-0.031,1.109c0.066,0.36-0.058,0.752-0.078,1.132
	c-0.008,0.065,0.085,0.132,0.108,0.201c0.031,0.109,0.101,0.256,0.054,0.326c-0.422,0.69,0.043,1.458-0.194,2.163
	c0.275,0.509-0.07,1.043,0.109,1.602c0.167,0.504-0.26,1.129,0.019,1.702c-0.271,0.954-0.062,1.932-0.128,2.893
	c-0.05,0.698-0.182,1.423-0.066,2.102c0.194,1.102-0.202,1.893-0.942,2.56c-0.527-0.059-1.016-0.108-1.504-0.163
	c-0.175,0.329-0.369,0.612-0.183,1c0.093,0.206,0.097,0.462,0.089,0.698c-0.012,0.171-0.054,0.419-0.174,0.504
	c-0.353,0.244-0.311,0.598-0.369,0.938c-0.085,0.5,0.485,0.435,0.621,0.768c-0.322,0.299-0.186,0.647-0.089,0.985
	c-0.163,0.17-0.314,0.333-0.415,0.434c0.163,0.291,0.287,0.512,0.411,0.737c-0.264,0.151-0.454,0.264-0.686,0.399
	c0.232,0.151,0.411,0.264,0.655,0.423c-0.241,0.209-0.431,0.372-0.57,0.496c0.066,0.539,0.132,1.023,0.194,1.504
	c0.182,0.07,0.349,0.132,0.531,0.206c-0.202,0.313-0.36,0.555-0.585,0.903c0.698-0.023,1.268-0.187,1.838-0.039
	c0.128,0.039,0.291-0.081,0.442-0.12c0.104-0.027,0.232-0.073,0.318-0.039c0.093,0.035,0.19,0.155,0.202,0.252
	c0.012,0.09-0.047,0.249-0.124,0.279c-0.132,0.066-0.307,0.102-0.446,0.078c-0.93-0.155-1.787,0.054-2.602,0.484
	c-0.058,0.035-0.085,0.124-0.144,0.213c0.054,0.124,0.112,0.264,0.175,0.403c-0.105,0.09-0.221,0.187-0.345,0.291
	c0.202,0.206,0.38,0.396,0.546,0.57c-0.112,0.186-0.186,0.317-0.256,0.441c0.023,0.051,0.023,0.102,0.051,0.116
	c0.275,0.163,0.535,0.318,0.516,0.71c-0.016,0.314-0.159,0.492-0.399,0.663c-0.132,0.093-0.19,0.291-0.303,0.488
	c0.26,0.086,0.461,0.116,0.617,0.218c0.167,0.101,0.291,0.271,0.066,0.504c-0.221,0-0.465,0-0.818,0
	c0.396,0.333,0.749,0.581,0.353,1.027c-0.031,0.035,0,0.128,0.004,0.19c0.209,0.069,0.559-0.287,0.647,0.271
	c-0.213,0.131-0.454,0.278-0.694,0.418c0.19,0.256,0.62-0.012,0.675,0.411c-0.089,0.112-0.183,0.225-0.303,0.372
	c0.171,0.202,0.333,0.407,0.504,0.613c-0.287,0.201-0.558,0.384-0.822,0.581c-0.027,0.02,0.012,0.124,0.02,0.202
	c0.194,0.058,0.484-0.171,0.612,0.217c-0.52,0.76-1.209,1.52-0.709,2.629c0.31,0.039,0.636,0.085,1.163,0.155
	c-0.426,0.295-0.694,0.473-0.946,0.647c0.058,0.24,0.101,0.423,0.132,0.551c-0.105,0.384-0.702,0.077-0.64,0.604
	c0.19,0.081,0.396,0.175,0.616,0.275c-0.074,0.232-0.144,0.442-0.232,0.706c0.318,0.201,0.624,0.396,1.07,0.678
	c-0.396,0.144-0.628,0.245-0.872,0.314c-0.26,0.078-0.376,0.26-0.419,0.504C467.203,324.897,467.203,325.037,467.207,325.173z
	 M493.662,400.111c-0.271-0.217-0.508-0.403-0.748-0.581c-0.492,0.317-0.687-0.427-1.151-0.318c-0.411,0.093-0.85,0.085-1.275,0.108
	c-0.151,0.008-0.311-0.027-0.462-0.038c-1.442-0.078-2.889-0.187-4.327-0.237c-1.206-0.042-2.419-0.023-3.629-0.034
	c-1.52-0.016-3.032-0.194-4.552-0.063c-0.159,0.012-0.314-0.008-0.473-0.023c-2.051-0.182-4.11-0.155-6.169-0.147
	c-0.43,0-0.931-0.154-1.275,0.016c-0.489,0.24-0.904-0.124-1.357,0.031c-0.213,0.069-0.492-0.043-0.783-0.077
	c0.043,0.321,0.105,0.554,0.089,0.775c-0.016,0.193-0.136,0.368-0.461,0.31c-0.062-0.136-0.147-0.306-0.225-0.48
	c-0.291,0.488-0.291,0.488-0.039,1.369c0.318-0.214,0.616-0.411,1.008-0.671c0.023,0.419,0.063,0.713,0.059,1.016
	c-0.012,0.337-0.202,0.407-0.531,0.201c-0.403-0.252-0.535-0.209-0.609,0.233c-0.05,0.302-0.159,0.593,0.05,0.899
	c0.244,0.364-0.356,0.581-0.252,0.799c0.209,0.445-0.054,0.837-0.02,1.256c0.031,0.435-0.023,0.857,0.403,1.129
	c-0.182,0.406-0.333,0.752-0.48,1.089c0.116,0.116,0.19,0.21,0.287,0.271c0.093,0.051,0.209,0.066,0.112,0.039
	c0.698-0.055,0.318-0.764,0.9-0.892c0.136,0.837,0.089,1.628,0.108,2.52c-0.349-0.158-0.613-0.278-0.896-0.402
	c0.136-0.233,0.229-0.388,0.349-0.598c-0.174-0.051-0.314-0.108-0.454-0.124c-0.062-0.012-0.132,0.063-0.271,0.136
	c0.139,0.446,0.287,0.903,0.45,1.423c0.015-0.031,0.015,0.016-0.008,0.047c-0.12,0.147-0.245,0.291-0.373,0.438
	c-0.294,0.334-0.294,0.334,0,0.881c-0.093,0.116-0.194,0.232-0.294,0.356c0.082,0.299,0.14,0.604,0.26,0.884
	c0.046,0.098,0.256,0.159,0.392,0.179c0.089,0.012,0.24-0.066,0.279-0.144c0.07-0.144,0.058-0.283-0.128-0.384
	c-0.113-0.063-0.186-0.202-0.326-0.36c0.236-0.144,0.392-0.252,0.558-0.334c0.089-0.042,0.206-0.038,0.341-0.065
	c0,0.496,0,0.946,0,1.388c-0.438,0.279-0.822,0.531-1.229,0.791c0.078,0.112,0.136,0.206,0.202,0.303
	c0.062,0.085,0.12,0.171,0.186,0.268c-0.132,0.174-0.337,0.329-0.337,0.477c-0.004,0.202,0.155,0.403,0.244,0.605
	c0.198-0.094,0.337-0.163,0.481-0.226c0.132-0.054,0.271-0.108,0.407-0.159c0.104,0.357,0.143,1.741,0.058,1.854
	c-0.163,0.066-0.337,0.136-0.559,0.226c-0.012,0.182,0,0.376-0.039,0.558c-0.078,0.354-0.434,0.679-0.062,1.059
	c0.035,0.035,0.008,0.155-0.027,0.226c-0.399,0.768-0.147,1.531-0.016,2.295c0.427,0.097,0.555,0.256,0.376,0.474
	c-0.124,0.146-0.345,0.232-0.415,0.396c-0.062,0.146-0.046,0.396,0.042,0.526c0.078,0.125,0.388,0.066,0.337,0.369
	c-0.376,0.26-0.756,0.527-0.802,1.136c0.322,0,0.624,0,0.988,0c-0.26,0.458-0.52,0.822-0.178,1.303
	c1.442,0.039,2.912,0.074,4.385,0.132c2.183,0.085,4.382-0.116,6.557,0.213c0.117,0.02,0.241,0.004,0.349-0.019
	c0.969-0.222,1.946-0.132,2.923-0.105c0.466,0.012,0.931,0.144,1.393,0.147c2.543,0.031,5.083,0.047,7.627,0.047
	c0.418,0.004,0.837-0.089,1.264-0.128c0.104-0.012,0.264-0.023,0.325,0.031c0.275,0.26,0.442,0.108,0.683-0.078
	c0.214-0.178,0.5,0.403,0.787-0.012c0.059-0.081,0.295-0.034,0.45-0.065c0.05-0.008,0.089-0.078,0.132-0.124
	c-0.144-0.128-0.287-0.26-0.427-0.388c0.043-0.202,0.085-0.388,0.124-0.59c-0.345-0.403-0.683-0.799-1.043-1.217
	c0.423-0.411,0.729,0.504,1.113,0.065c0.019-0.392-0.687-0.244-0.551-0.768c0.093-0.36,0.073-0.748,0.101-1.082
	c0.179-0.081,0.318-0.144,0.415-0.193c0.065-0.729-0.19-1.164-0.954-1.156c0.012-0.209,0.023-0.364,0.035-0.581
	c0.446,0.108,0.856,0.341,1.275,0.093c-0.333-0.256-0.86-0.179-1.066-0.628c0.02-0.271,0.016-0.543,0.063-0.799
	c0.042-0.256,0.14-0.512,0.213-0.768c-0.306-0.059-0.632-0.124-1.047-0.206c0.116-0.256,0.155-0.457,0.279-0.585
	c0.144-0.147,0.356-0.232,0.438-0.287c0-0.349,0.054-0.628-0.016-0.868c-0.082-0.268-0.279-0.497-0.411-0.714
	c0.179-0.193,0.446-0.372,0.419-0.457c-0.202-0.582,0.317-0.613,0.581-0.85c0.039-0.027,0.012-0.128,0.02-0.197
	c-0.213,0-0.423,0-0.687,0c0.008-0.753,0.163-1.42,0.271-2.094c0.124-0.78,0.102-0.783,0.446-1.381
	c-0.144-0.318-0.616-0.016-0.771-0.403c0.268-0.189,0.516-0.356,0.679-0.473c-0.179-0.419-0.435-0.761-0.446-1.102
	c-0.02-0.577-0.023-1.24,0.244-1.71c0.264-0.477-0.101-0.775-0.023-1.151c-0.384-0.202-0.229-0.48-0.166-0.799
	c0.136-0.76,0.306-1.551-0.403-2.148C493.213,400.705,493.418,400.43,493.662,400.111z M493.612,425.478
	c-0.458-0.039-0.884-0.101-1.303-0.101c-3.8-0.031-7.592-0.039-11.384-0.07c-0.702-0.008-1.412-0.193-2.105-0.144
	c-1.097,0.082-2.179-0.058-3.272-0.089c-1.21-0.031-2.423-0.101-3.633-0.108c-0.659-0.008-1.365,0.244-1.97,0.081
	c-0.667-0.178-1.299,0.101-1.954-0.101c-0.504-0.159-1.101,0.469-0.876,0.903c0.271,0.516-0.05,0.706-0.291,0.997
	c0.252,0.647,0.372,1.299,0.182,2.004c-0.112,0.427-0.217,0.978-0.046,1.334c0.326,0.667,0.213,1.261,0.104,1.923
	c-0.05,0.287-0.45,0.535-0.178,0.85c0.236,0.283,0.124,0.523,0.074,0.826c-0.027,0.147,0.232,0.341,0.353,0.512
	c-0.194,0.174-0.333,0.299-0.488,0.434c0.322,0.287,0.182,0.83,0.69,1.009c0.144,0.046,0.062,0.302-0.089,0.364
	c-0.175,0.077-0.373,0.085-0.601,0.132c0.046,0.419,0.093,0.826,0.14,1.241c-0.593,0.445,0.229,0.713,0.155,1.081
	c-0.454,0.555-0.454,0.555,0.163,1.013c-0.512,0.252-0.042,0.697-0.217,0.996c-0.279,0.477,0.105,0.791,0.078,1.151
	c0.376,0.147,0.822-0.101,0.95,0.372c-0.365,0.241-0.717,0.466-1.055,0.718c-0.066,0.051-0.062,0.205-0.085,0.307
	c0.221,0.162,0.423,0.31,0.741,0.535c-0.399,0.162-0.659,0.268-0.935,0.38c0.356,0.221,0.38,0.547,0.291,0.938
	c0.264,0.197,0.543,0.396,0.791,0.573c0.435-0.229-0.275-0.608,0.194-0.791c0.38,0.093,0.745,0.218,0.876,0.667
	c0.116,0.403,0.423,0.527,0.814,0.527c1.365-0.008,2.729-0.008,4.071-0.008c0.593-0.888,0.593-0.888,1.206-0.124
	c0.047,0.059,0.12,0.093,0.268,0.194c0.69,0.019,1.47,0.108,2.237,0.042c0.807-0.065,1.64,0.198,2.423-0.089
	c0.058-0.159,0.093-0.271,0.14-0.372c0.229-0.512,0.539-0.582,0.849-0.187c0.02,0.031,0.042,0.063,0.058,0.101
	c0.187,0.543,0.566,0.683,1.113,0.582c0.26-0.047,0.543,0.039,0.813,0.039c1.055,0.008,2.109,0.008,3.164-0.008
	c0.229,0,0.474-0.082,0.539-0.357c0.063-0.236,0.12-0.48,0.415-0.488c0.38-0.016,0.388,0.303,0.454,0.566
	c0.03,0.101,0.124,0.193,0.232,0.364c0.822,0,1.679,0.039,2.536-0.012c0.872-0.05,1.756,0.051,2.702-0.081
	c-0.132-0.598,0.012-0.978,0.586-1.14c0.197-0.055,0.353-0.295,0.523-0.45c-0.082-0.124-0.159-0.252-0.275-0.435
	c0.313-0.411,0.539-0.884,0.244-1.442c-0.954,0.5-0.993,0.489-1.125-0.364c0.372-0.26,0.97,0.065,1.287-0.531
	c-0.17-0.167-0.349-0.36-0.542-0.539c-0.474-0.438-0.47-0.431-0.012-0.946c0.151-0.178,0.345-0.372,0.38-0.581
	c0.043-0.295-0.016-0.605,0.232-0.842c-0.112-0.104-0.271-0.193-0.325-0.321c-0.055-0.124-0.051-0.311,0.007-0.435
	c0.403-0.864,0.407-0.86-0.321-1.52c-0.043-0.047-0.043-0.14-0.063-0.21c0.637-0.604,0.671-0.907,0.159-1.512
	c-0.112-0.14-0.268-0.252-0.477-0.442c0.333-0.205,0.577-0.353,0.799-0.488c0.081-0.559-0.431-0.318-0.702-0.551
	c0-0.275,0-0.604,0-0.919c0.326-0.074,0.586-0.136,0.779-0.179c0.338-0.523-0.329-0.593-0.321-0.969
	c0.128-0.346,0.256-0.702,0.403-1.102c-0.641-0.477-0.442-1.171-0.594-1.783c0.268-0.055,0.473-0.098,0.702-0.144
	c-0.275-0.295-0.547-0.527-0.435-0.954c0.159-0.059,0.329-0.124,0.516-0.197C494.136,426.594,493.907,426.105,493.612,425.478z
	 M492.414,295.883c0.492-0.407,0.732-0.693,0.946-1.027c0.624-0.992,1.275-1.97,1.907-2.954c0.997-1.544,2.066-3.04,2.912-4.681
	c0.667-1.295,1.21-2.637,1.613-4.024c0.563-1.935,0.697-3.92,0.608-5.929c-0.043-0.899-0.027-1.807-0.012-2.707
	c0.035-2.102,0.112-4.207,0.124-6.313c0.031-5.521,0.031-11.05,0.059-16.572c0.016-3.056-0.027-6.111,0.108-9.166
	c0.089-2.148,0.035-4.304,0.047-6.46c0.016-2.699,0.042-5.397,0.046-8.104c0.004-1.209,0.004-2.427-0.038-3.637
	c-0.012-0.38-0.151-0.76-0.287-1.125c-0.136-0.357-0.454-0.566-0.822-0.589c-0.856-0.062-1.726-0.124-2.555,0.186
	c-0.818,0.303-1.408,0.83-1.571,1.737c-0.089,0.5-0.178,1-0.294,1.497c-0.764,3.234-1.524,6.475-2.319,9.701
	c-0.209,0.841-0.321,1.667-0.302,2.543c0.034,1.799-0.008,3.606-0.031,5.405c-0.02,1.838-0.055,3.672-0.073,5.514
	c-0.027,2.144-0.055,4.296-0.066,6.444c-0.004,0.546,0.136,1.101,0.077,1.64c-0.209,1.876-0.008,3.757-0.038,5.63
	c-0.023,1.369,0.027,2.741,0.027,4.114c-0.02,4.114-0.051,8.228-0.07,12.342c-0.02,4.191-0.043,8.387-0.051,12.582
	C492.355,293.181,492.395,294.425,492.414,295.883z M489.118,267.369c0.081-0.469,0.508-0.88,0.093-1.408
	c-0.065-0.085,0.023-0.294,0.051-0.446c0.209-0.954,0.179-1.923,0.209-2.889c0.02-0.737,0.043-1.466-0.085-2.202
	c-0.069-0.411-0.004-0.845,0.012-1.268c0.02-0.461,0.02-0.919,0.077-1.376c0.043-0.357,0.105-0.687-0.093-1.024
	c-0.062-0.108,0.012-0.294,0.023-0.442c0.02-0.314,0.047-0.62,0.051-0.931c0.03-1.171,0.058-2.338,0.077-3.505
	c0.004-0.353,0.039-0.713-0.039-1.047c-0.089-0.392-0.36-0.76,0.094-1.094c-0.008-0.458,0.062-0.942-0.043-1.384
	c-0.089-0.384,0.035-0.687,0.101-1.028c0.066-0.333-0.283-0.612-0.077-1.016c0.12-0.225-0.102-0.609-0.02-0.876
	c0.108-0.349,0.163-0.679,0.116-1.035c-0.07-0.539-0.124-1.082-0.187-1.621c-0.062,0.039-0.12,0.077-0.178,0.116
	c-0.094,0.058-0.183,0.12-0.268,0.182c-0.504-0.57-0.504-0.582-1.171-0.597c-0.857-0.016-1.722,0.004-2.579-0.023
	c-1.876-0.05-3.749-0.116-5.626-0.178c-0.977-0.039-1.958,0.078-2.927-0.14c-0.26-0.062-0.547-0.008-0.818,0
	c-1.016,0.035-2.032,0.07-3.051,0.109c-0.497,0.023-1,0.058-1.516,0.089c-0.147,0.435-0.376,0.745-0.217,1.252
	c0.136,0.438-0.085,0.973-0.046,1.466c0.046,0.675-0.384,1.435,0.314,1.985c-0.57,0.67-0.55,0.938,0.047,1.427
	c0.05,0.039,0.042,0.136,0.042,0.14c-0.221,0.202-0.419,0.38-0.52,0.469c0.031,0.446,0.151,0.764,0.054,0.973
	c-0.225,0.496,0.155,0.706,0.392,1.02c-0.097,0.128-0.209,0.237-0.275,0.376c-0.066,0.128-0.12,0.283-0.12,0.427
	c-0.008,0.799,0.004,1.598,0.008,2.393c0.232,0.159,0.469,0.322,0.768,0.531c-0.318,0.125-0.527,0.202-0.698,0.264
	c-0.042,0.085-0.066,0.121-0.074,0.159c-0.108,0.997,0.283,1.985,0.05,2.993c-0.031,0.128,0.178,0.314,0.306,0.531
	c-0.345,0.427-0.527,0.9-0.364,1.497c0.108,0.403,0.05,0.845,0.066,1.275c0.531,0.392-0.151,0.741-0.046,1.121
	c0.042,0.147,0.05,0.31,0.054,0.465c0.02,0.45,0.027,0.899,0.039,1.384c0.14,0.097,0.318,0.225,0.5,0.353
	c-0.605,0.791-0.628,1.59-0.349,2.334c0.504,0.396,0.791,0.085,1.051-0.147c0.264,0.14,0.481,0.349,0.717,0.372
	c0.935,0.097,1.873,0.175,2.811,0.187c1.249,0.019,2.497-0.035,3.75-0.055c2.036-0.035,4.068-0.069,6.103-0.101
	C486.827,267.407,487.943,267.388,489.118,267.369z M471.274,241.464c2.226,0.178,17.041,0.322,18.011,0.17
	c0.027-0.248,0.081-0.512,0.081-0.775c0-0.826-0.023-1.648-0.035-2.466c-0.007-0.512,0.035-1.012,0.369-1.52
	c0.686,0,1.368,0,2.055,0c0.539-0.713,0.962-1.45,0.337-2.342c0.14-0.108,0.275-0.209,0.423-0.318
	c-0.116-0.264-0.221-0.512-0.372-0.853c-0.551,0.244-1.136-0.314-1.679,0.194c-0.043,0.039-0.183-0.023-0.279-0.042
	c-0.295-0.062-0.59-0.175-0.888-0.183c-0.857-0.031-1.714-0.007-2.571-0.031c-1.248-0.039-2.497-0.112-3.741-0.163
	c-0.896-0.039-1.792-0.093-2.687-0.089c-1.214,0.012-2.42,0.112-3.629-0.082c-0.458-0.07-0.938-0.027-1.404-0.016
	c-0.744,0.02-1.485,0.082-2.226,0.078c-0.698,0-1.396-0.078-2.102-0.078c-0.14,0-0.396,0.202-0.403,0.326
	c-0.058,0.737-0.008,1.466,0.578,2.047c-0.147,0.225-0.45,0.399-0.245,0.787c0.101,0.19,0.109,0.446,0.105,0.671
	c-0.016,0.779,0.268,1.547,0.07,2.33c0.38,0.419,0.124,0.865,0.035,1.292C470.999,240.773,471.03,241.095,471.274,241.464z
	 M474.085,457.102c0,0.864,0.012,1.605,0,2.346c-0.015,1.718-0.046,3.439-0.07,5.161c-0.015,0.86-0.046,1.722-0.062,2.582
	c-0.008,0.628,0.144,0.942,0.775,1.125c1.233,0.36,2.462,0.697,3.73,0.919c1.415,0.244,2.792,0.298,4.179-0.105
	c0.226-0.062,0.47-0.069,0.694-0.136c1.082-0.306,2.222-0.445,3.207-1.054c0.058-0.035,0.077-0.125,0.12-0.198
	c-0.287-0.069-0.566-0.14-0.791-0.194c0.031-0.868,0.085-1.647,0.093-2.427c0.02-2.152,0.016-4.304,0.031-6.46
	c0-0.271,0.039-0.543,0.101-0.807c0.02-0.085,0.163-0.14,0.353-0.279c0.151,1.598,0.063,3.114,0.07,4.622
	c0.008,1.559,0.004,3.121,0.004,4.685c0.14-0.531,0.159-1.063,0.159-1.598c0-2.229-0.02-4.463-0.008-6.692
	c0-0.33-0.132-0.714,0.209-0.978c0.039,0.008,0.364-0.065,0.474-0.108c-0.505-0.303-1.028-0.194-1.509-0.201
	c-1.842-0.023-3.68,0.007-5.521,0.011c-0.469,0-0.938-0.034-1.403-0.062c-0.702-0.035-1.404-0.081-2.105-0.108
	c-0.663-0.027-1.326-0.031-1.985-0.043C474.636,457.102,474.45,457.102,474.085,457.102z M489.901,297.317
	c0.478,0.023,0.822,0.066,1.167,0.051c0.462-0.027,0.694-0.264,0.756-0.748c0.035-0.307,0.027-0.625,0.023-0.938
	c-0.004-1.175-0.023-2.346-0.02-3.517c0.004-4.313,0.008-8.62,0.027-12.928c0.016-3.598,0.066-7.196,0.082-10.795
	c0.016-2.547-0.012-5.095-0.004-7.638c0.012-2.195,0.05-4.385,0.062-6.576c0.012-2.931,0.008-5.863,0.023-8.794
	c0.008-2.311,0.035-4.622,0.047-6.933c0-0.264-0.035-0.527-0.055-0.795c-0.671-0.209-1.271-0.275-1.903-0.012
	c-0.047,0.163-0.147,0.31-0.132,0.454c0.132,1.47-0.256,2.966,0.236,4.417c0.073,0.217,0.046,0.469,0.05,0.702
	c0.008,0.865,0.02,1.726,0.012,2.586c-0.023,5.211-0.05,10.418-0.089,15.626c-0.012,1.795-0.059,3.594-0.101,5.393
	c-0.016,0.779-0.078,1.563-0.086,2.346c-0.016,1.714-0.178,3.431-0.03,5.149c0.012,0.116-0.008,0.237-0.008,0.353
	c-0.035,1.4-0.078,2.803-0.102,4.203c-0.011,0.582,0.016,1.167,0.023,1.749c0.02,1.598,0.055,3.195,0.059,4.793
	c0.004,1.093-0.043,2.187-0.043,3.284c0.004,1.597,0.031,3.198,0.035,4.796c0,0.59-0.063,1.171-0.07,1.761
	C489.858,295.93,489.886,296.554,489.901,297.317z M495.26,324.471c-0.03,0.373-0.089,0.714-0.089,1.055
	c-0.004,3.839,0,7.686-0.008,11.524c-0.004,2.271-0.039,4.544-0.035,6.816c0,0.577-0.004,1.147,0.248,1.722
	c0.226,0.523,0.226,1.155-0.085,1.702c-0.167,0.302-0.186,0.601-0.062,0.903c0.368,0.876,0.345,1.722-0.051,2.59
	c-0.248,0.539-0.307,1.183-0.031,1.702c0.478,0.911,0.435,1.772,0.031,2.664c-0.155,0.337-0.26,0.721-0.066,1.016
	c0.523,0.803,0.237,1.675,0.311,2.521c0.016,0.217-0.054,0.48-0.171,0.667c-0.364,0.604-0.275,1.171-0.042,1.791
	c0.252,0.675,0.345,1.357-0.039,2.032c-0.314,0.55-0.256,1.147-0.132,1.714c0.063,0.278,0.279,0.597,0.52,0.744
	c0.744,0.442,1.834-0.179,1.889-1.059c0.022-0.427-0.02-0.857-0.039-1.283c-0.012-0.275-0.104-0.563-0.043-0.814
	c0.144-0.57-0.248-1.147,0.07-1.698c-0.364-0.869,0.325-1.78-0.124-2.641c0.294-0.838-0.031-1.702,0.112-2.552
	c0.144-0.884,0.077-1.783,0.069-2.679c-0.004-0.481-0.116-0.911-0.193-1.365c0.399-0.659,0.151-1.372,0.159-2.07
	c0.008-0.818,0.03-1.641,0.026-2.458c-0.008-0.822,0.063-1.66-0.089-2.455c-0.159-0.817,0.33-1.624-0.085-2.423
	c-0.074-0.14-0.008-0.399,0.077-0.566c0.248-0.488,0.07-1.008,0.163-1.488c0.097-0.505,0.179-1.005,0.147-1.505
	c-0.059-0.974-0.206-1.938-0.027-2.92c0.02-0.112,0.031-0.252-0.023-0.345c-0.179-0.334-0.201-0.62-0.039-0.985
	c0.159-0.341-0.29-0.744,0.012-1.124c-0.154-0.854-0.112-1.69,0.136-2.521c-0.372-0.899-0.298-1.822-0.178-2.753
	c0.008-0.073-0.012-0.159-0.035-0.232c-0.248-0.76-0.132-1.531-0.085-2.3c0.008-0.073-0.031-0.15-0.066-0.282
	c-0.175-0.082-0.438-0.132-0.578-0.291C496.389,324.335,495.877,324.386,495.26,324.471z M492.259,324.572
	c-0.182,0.543-0.12,1.132-0.116,1.714c0.008,3.322,0.047,6.653,0.035,9.98c-0.016,5.009-0.055,10.022-0.097,15.036
	c-0.016,1.559-0.086,3.125-0.105,4.684c-0.016,1.094,0.02,2.188,0.012,3.276c-0.008,1.722-0.027,3.439-0.05,5.169
	c-0.012,1.248,0.03,1.489,1.52,1.155c0.039-0.012,0.085-0.035,0.101-0.062c0.031-0.063,0.047-0.132,0.066-0.198
	c-0.244-0.046-0.586,0.035-0.547-0.407c0.229-0.112,0.465-0.225,0.717-0.353c-0.213-0.202-0.384-0.36-0.565-0.539
	c0.17-0.124,0.317-0.236,0.469-0.349c0.144-0.357-0.317-0.768,0.082-1.098c-0.128-0.748,0.349-1.523-0.043-2.257
	c-0.232-0.438-0.187-0.876-0.085-1.299c0.093-0.403,0.244-0.76,0.011-1.179c-0.081-0.14-0.03-0.388,0.031-0.566
	c0.14-0.395,0.051-0.674-0.31-0.896c-0.074-0.042-0.082-0.201-0.109-0.283c0.268-0.465,0.621,0.144,0.958-0.139
	c-0.201-0.194-0.38-0.373-0.608-0.605c0.403-0.559,0.457-1.163,0.264-1.85c-0.094-0.345-0.104-0.744-0.004-1.147
	c0.089-0.399,0.065-0.826,0.268-1.206c-0.338-0.566-0.051-1.303-0.59-1.807c0.419-0.403,0.846-0.744,0.462-1.35
	c-0.055-0.081,0.085-0.279,0.104-0.427c0.02-0.146,0.058-0.349-0.016-0.441c-0.349-0.466-0.325-1.144-0.899-1.478
	c-0.078-0.043-0.112-0.303-0.055-0.403c0.051-0.089,0.248-0.104,0.384-0.151c0.102-0.03,0.206-0.054,0.295-0.077
	c0.403-0.919-0.101-1.652-0.435-2.404c0.187-0.132,0.435-0.213,0.474-0.353c0.14-0.523,0.225-1.059,0.299-1.602
	c0.019-0.136-0.023-0.333-0.117-0.427c-0.38-0.345-0.256-0.752-0.065-1.063c0.333-0.542,0.085-1.155,0.314-1.69
	c-0.354-0.504,0.104-1.155-0.314-1.667c-0.128-0.163-0.132-0.427-0.19-0.62c0.326-0.264,0.326-0.264,0.253-1.121
	c-0.218,0-0.435,0-0.765,0c0.396-0.423,0.729-0.775,1.031-1.097c-0.158-0.885-0.624-1.684-0.034-2.485
	c-0.167-0.392-0.334-0.772-0.493-1.152c0.346-0.333,0.741-0.558,0.501-1.116c-0.078-0.187,0.124-0.488,0.205-0.752
	c-0.264-0.147-0.496-0.268-0.698-0.373c0.171-0.644,0.33-1.232,0.481-1.807c-0.33-0.221-0.647-0.388-0.903-0.616
	C493.038,324.362,492.697,324.366,492.259,324.572z M484.322,454.915c0-0.938,0.042-1.792-0.012-2.641
	c-0.059-0.88,0.256-1.772-0.07-2.629c-1.787-0.039-8.538-0.427-9.658-0.202c0.116,1.772-0.093,3.548,0.085,5.363
	c0.183,0.046,0.33,0.097,0.477,0.116c1.516,0.197,3.032,0.12,4.548,0.062c0.775-0.031,1.543-0.054,2.326,0.043
	C482.736,455.12,483.488,455.147,484.322,454.915z M487.951,446.838c-0.283-0.027-0.624-0.081-0.966-0.089
	c-1.055-0.016-2.109-0.008-3.164-0.023c-0.938-0.008-1.896,0.063-2.814-0.077c-0.973-0.147-1.927,0.132-2.912-0.051
	s-2.028-0.073-3.044-0.085c-1.047-0.012-2.098,0.151-3.145,0.023c-0.097-0.012-0.205,0.081-0.306,0.124
	c-0.066,0.392,0.062,0.647,0.45,0.678c0.818,0.055,1.644,0.117,2.462,0.102c3.602-0.063,7.201-0.07,10.794,0.144
	c0.59,0.034,1.175,0.034,1.765,0.026c0.229,0,0.473-0.03,0.686-0.116C487.99,447.404,488.13,447.214,487.951,446.838z
	 M465.815,376.925c-0.496-0.171-0.896-0.147-1.369,0.054c-0.027,0.749-0.078,1.489-0.078,2.223c-0.008,2,0.008,3.997,0.02,5.998
	c0,0.232,0.02,0.469,0.046,0.701c0.031,0.26,0.213,0.423,0.458,0.474c0.57,0.12,0.935-0.004,0.919-0.679
	c-0.004-0.077,0.004-0.155,0.004-0.232C465.815,382.647,465.815,379.841,465.815,376.925z M474.814,447.92
	c-0.221,0.69-0.159,0.868,0.299,0.896c0.822,0.035,1.644,0.07,2.462,0.089c1.559,0.043,3.121,0.07,4.68,0.117
	c0.702,0.022,1.4,0.008,2.152-0.039c-0.031-0.326-0.051-0.582-0.077-0.868c-0.291-0.047-0.516-0.125-0.741-0.125
	C480.658,448.005,477.727,447.831,474.814,447.92z M475.381,456.241c0.329,0.154,0.562,0.349,0.802,0.356
	c1.318,0.081,2.645,0.124,3.967,0.155c0.663,0.012,1.333-0.101,1.981-0.023c0.69,0.081,1.357-0.217,2.052,0.023
	c0.403,0.14,0.52-0.112,0.396-0.791c-0.105-0.016-0.214-0.047-0.326-0.051c-0.441-0.004-0.903,0.283-1.33-0.116
	c-0.089-0.081-0.302-0.043-0.457-0.043c-1.989-0.03-3.979-0.069-5.968-0.085c-0.651,0-1.295,0.055-1.915,0.081
	c-0.089,0.361-0.19,0.647,0.14,0.807C475.063,456.722,475.179,456.35,475.381,456.241z M456.661,381.919
	c0.477,0.046,0.899,0.163,1.311,0.116c1.465-0.147,2.869,0.055,4.246,0.543c0.058,0.016,0.136-0.027,0.17-0.031
	c0.074-0.349,0.206-0.679,0.198-1.012c-0.007-0.365-0.128-0.729-0.213-1.152c-0.225,0.086-0.45,0.144-0.651,0.245
	c-0.752,0.376-1.512,0.512-2.369,0.376c-0.721-0.108-1.478-0.031-2.21-0.004C456.785,381.012,456.688,381.197,456.661,381.919z
	 M473.682,447.695c-0.143,0.256-0.318,0.438-0.333,0.636c-0.019,0.295,0.117,0.593,0.109,0.888c-0.008,0.346-0.089,0.69-0.159,1.027
	c-0.046,0.226-0.062,0.496-0.198,0.651c-0.356,0.388-0.345,0.807-0.078,1.163c0.237,0.318,0.256,0.637,0.268,0.985
	c0.008,0.356,0.008,0.706,0.031,1.055c0.012,0.193,0.035,0.403,0.12,0.566c0.054,0.108,0.236,0.217,0.357,0.217
	c0.116-0.008,0.283-0.132,0.337-0.248c0.063-0.128,0.035-0.303,0.035-0.458c0.008-0.899,0.07-1.807-0.012-2.698
	c-0.074-0.752,0.271-1.559-0.264-2.269c-0.046-0.062,0.062-0.275,0.14-0.392c0.163-0.256,0.155-0.523,0.039-0.775
	C474.02,447.92,473.865,447.851,473.682,447.695z M499.126,380.003c-0.232,1.241-0.202,2.521,0.081,3.327c0.811,0,1.637,0,2.552,0
	c-1.532-0.496-1.985-1.09-1.694-2.094c0.132-0.45,0.419-0.729,0.799-0.962c0.593-0.368,1.097,0.108,1.748,0.218
	C501.813,379.883,501.181,379.806,499.126,380.003z M485.645,449.642c-0.442-0.132-0.729,0.012-0.737,0.392
	c-0.035,1.52-0.039,3.044-0.023,4.563c0,0.155,0.144,0.349,0.275,0.458c0.101,0.077,0.291,0.03,0.431,0.042
	C485.753,454.268,485.783,451.161,485.645,449.642z M473.283,467.113c0.082,0.016,0.163,0.031,0.245,0.046
	c0.046-0.174,0.136-0.353,0.124-0.523c-0.085-1.597,0.058-3.19,0.054-4.784c-0.004-1.523,0.012-3.044-0.004-4.571
	c0-0.102-0.167-0.287-0.275-0.295c-0.124-0.016-0.376,0.12-0.372,0.19c0.004,0.414-0.236,0.813-0.008,1.244
	c0.442,0.838,0.337,1.737,0.244,2.637c-0.019,0.187-0.085,0.372-0.081,0.559c0.007,0.547,0.062,1.089,0.07,1.636
	C473.291,464.538,473.283,465.826,473.283,467.113z M502.395,381.811c0.012-0.489-0.368-0.9-0.857-0.904
	c-0.484-0.007-0.911,0.385-0.918,0.842c0,0.527,0.422,0.911,0.984,0.896C502.042,382.632,502.375,382.283,502.395,381.811z
	 M486.501,449.734c-0.264,0.535-0.318,1.334-0.283,4.315c0.004,0.423,0.004,0.423,0.244,0.881c0.047-0.047,0.151-0.098,0.151-0.147
	c0.023-1.633,0.035-3.269,0.035-4.901C486.648,449.831,486.556,449.781,486.501,449.734z M467.839,446.59
	c0.163,0.275,0.209,0.48,0.311,0.508c0.938,0.271,1.904,0.043,2.857,0.132c0.023,0,0.054-0.05,0.14-0.124
	c-0.02-0.136-0.042-0.31-0.07-0.52C470.03,446.485,469.033,446.454,467.839,446.59z M468.211,297.337
	c0.368,0,0.748,0.008,1.128-0.008c0.364-0.012,0.562-0.193,0.542-0.62c-0.217-0.175-0.446-0.372-0.69-0.547
	c-0.275-0.197-0.574-0.477-0.931-0.26c-0.33,0.205-0.299,0.598-0.264,0.942C468.014,296.98,468.114,297.112,468.211,297.337z
	 M487.095,454.938c0.05,0.015,0.097,0.038,0.146,0.054c0.039-0.093,0.12-0.186,0.12-0.287c0.02-1.551,0.027-3.102,0.039-4.652
	c0-0.07-0.054-0.144-0.186-0.481C487.168,451.553,487.133,453.247,487.095,454.938z M488.482,447.548
	c0.205,0.008,0.427,0.054,0.636,0.023c0.217-0.031,0.338-0.229,0.24-0.419c-0.069-0.14-0.279-0.311-0.415-0.295
	C488.603,446.881,488.408,447.102,488.482,447.548z M485.78,448.51c-0.074-0.086-0.175-0.314-0.346-0.381
	c-0.248-0.101-0.508,0.171-0.52,0.466c-0.012,0.248,0.151,0.419,0.423,0.442C485.613,449.052,485.765,448.916,485.78,448.51z
	 M466.137,339.004c-0.356,0.492-0.353,0.977,0,1.636C466.137,339.98,466.137,339.492,466.137,339.004z M490.665,446.908
	c-0.217,0-0.329-0.02-0.434,0.004c-0.194,0.038-0.396,0.101-0.392,0.349c0.004,0.097,0.077,0.26,0.143,0.271
	c0.175,0.039,0.446,0.085,0.531-0.008C490.635,447.4,490.615,447.145,490.665,446.908z M492.046,447.377
	c0.213,0.104,0.325,0.202,0.445,0.21c0.237,0.011,0.392-0.202,0.326-0.466c-0.027-0.108-0.26-0.271-0.275-0.256
	C492.383,446.989,492.255,447.148,492.046,447.377z M485.411,456.753c0.066-0.023,0.179-0.031,0.194-0.074
	c0.047-0.14,0.104-0.302,0.073-0.43c-0.023-0.117-0.17-0.202-0.26-0.299c-0.069,0.081-0.182,0.151-0.213,0.244
	C485.105,456.481,485.202,456.722,485.411,456.753z M471.643,453.229c0.271-0.279,0.531-0.481,0.229-0.811
	c-0.039-0.039-0.155-0.07-0.186-0.043C471.418,452.596,471.41,452.859,471.643,453.229z M491.332,446.772
	c-0.069,0.26-0.163,0.419-0.147,0.573c0.012,0.086,0.194,0.147,0.295,0.226c0.085-0.14,0.214-0.283,0.229-0.435
	C491.712,447.056,491.53,446.954,491.332,446.772z M486.424,448.099c-0.19,0.399-0.222,0.655,0.054,0.931
	C486.714,448.719,486.714,448.471,486.424,448.099z M493.465,386.277c0.027-0.121,0.055-0.171,0.043-0.194
	c-0.078-0.104-0.151-0.271-0.252-0.295c-0.098-0.022-0.233,0.105-0.346,0.163c0.09,0.101,0.175,0.209,0.283,0.287
	C493.244,386.277,493.333,386.262,493.465,386.277z M470.301,452.464c-0.085-0.101-0.108-0.15-0.128-0.15
	c-0.167,0.011-0.333,0.026-0.5,0.05c-0.011,0-0.019,0.101-0.015,0.101c0.167,0.035,0.333,0.066,0.504,0.086
	C470.189,452.558,470.22,452.519,470.301,452.464z"/>
<path fill-rule="evenodd" clip-rule="evenodd" fill="#666666" d="M480.084,89.747c1.004,0.225,1.729,0.341,2.427,0.547
	c3.451,1.027,6.976,1.873,10.326,3.167c6.479,2.493,12.85,5.215,16.545,11.745c1.07,1.896,2.671,3.489,3.839,5.343
	c2.602,4.141,3.889,8.794,4.184,13.594c0.12,1.985-0.989,4.071-1.625,6.08c-1.252,3.951-2.505,7.898-3.866,11.811
	c-1.175,3.381-2.501,6.704-3.757,10.058c-1.45,3.881-2.873,7.774-4.343,11.644c-1.702,4.498-3.493,8.964-5.146,13.478
	c-1.446,3.963-2.737,7.98-4.125,11.966c-0.411,1.171-0.938,2.303-1.377,3.462c-1.655,4.378-3.304,8.755-4.939,13.141
	c-1.9,5.091-3.78,10.184-5.685,15.271c-0.325,0.869-0.585,1.799-1.108,2.536c-0.854,1.202-2.548,0.899-3.04-0.435
	c-1.578-4.272-3.172-8.53-4.727-12.805c-4.071-11.167-8.112-22.346-12.183-33.517c-4.455-12.214-8.953-24.412-13.4-36.626
	c-1.403-3.846-2.842-7.685-4.063-11.589c-1.465-4.672-0.101-9.127,1.675-13.4c1.082-2.609,2.462-5.142,4.013-7.503
	c2.233-3.393,5.137-6.115,8.549-8.437c3.389-2.303,6.89-4.238,10.752-5.502c1.559-0.512,3.249-0.628,4.804-1.144
	c1.384-0.458,2.668-1.221,4.001-1.846C478.622,90.41,479.429,90.045,480.084,89.747z M446.122,123.864
	c3.819-0.232,7.34-1.57,10.818,0.357c0.427,0.236,1.241,0.078,1.741-0.175c6.301-3.141,12.737-2.757,19.298-0.981
	c1.446,0.388,3.078,0.442,4.567,0.249c1.799-0.241,3.532-0.938,5.305-1.404c5.067-1.338,9.926-0.756,14.603,1.598
	c0.717,0.36,1.783,0.868,2.322,0.593c3.048-1.555,6.138-0.83,9.243-0.531c0.338,0.035,0.698-0.155,1.253-0.295
	c-1.078-3.656-1.531-7.301-3.486-10.678c-1.205-2.086-2.822-3.75-4.056-5.684c-4.245-6.669-10.52-10.062-17.848-11.83
	c-1.582-0.384-3.416,0.372-5.138,0.465c-2.729,0.147-5.463,0.252-8.192,0.225c-1.807-0.023-3.645-0.624-5.401-0.418
	c-4.641,0.55-8.496,3.187-12.047,5.854c-6.79,5.087-11.163,11.974-12.966,20.356C445.99,122.259,446.122,123.015,446.122,123.864z
	 M499.785,145.441c-0.311-0.05-0.62-0.097-0.931-0.147c-0.116-0.958-0.5-1.974-0.299-2.858c1.039-4.603,2.078-9.212,3.432-13.726
	c0.722-2.408,0.822-2.9-2.125-4.032c-5.006-1.927-9.992-1.64-15.017-0.016c-2.493,0.811-3.579,2.012-3.587,4.571
	c-0.008,2.571,0.062,5.142,0.055,7.708c-0.023,5.42-0.063,10.849-0.109,16.273c-0.081,9.375-0.182,18.751-0.255,28.127
	c-0.047,6.355-0.07,12.71-0.093,19.061c-0.016,4.362-0.004,8.728-0.004,13.096c0.299,0.023,0.598,0.046,0.892,0.062
	c0.248-1.282,0.466-2.573,0.753-3.853c2.094-9.298,4.102-18.615,6.331-27.886c1.357-5.653,3.11-11.213,4.595-16.839
	c1.54-5.886,2.943-11.807,4.486-17.689c0.144-0.535,0.861-0.919,1.311-1.376c0.136,0.644,0.516,1.35,0.364,1.912
	c-0.569,2.144-1.438,4.211-1.97,6.363c-1.744,7.006-3.385,14.036-5.071,21.058c-0.407,1.706-0.822,3.416-1.245,5.114
	c-1.236,4.932-2.547,9.845-3.694,14.796c-0.911,3.947-1.621,7.941-2.42,11.912c0.671-0.768,1.202-1.667,1.559-2.637
	c1.912-5.273,3.762-10.566,5.677-15.835c1.303-3.586,2.668-7.15,4.028-10.717c1.435-3.765,2.908-7.514,4.331-11.287
	c1.385-3.668,2.699-7.363,4.079-11.031c1.369-3.625,2.865-7.204,4.164-10.849c1.536-4.312,2.947-8.67,4.354-13.024
	c0.59-1.811,1.039-3.668,1.668-5.913c-2.005-0.294-3.622-0.713-5.246-0.725c-3.386-0.039-5.111,0.969-5.863,4.556
	c-0.969,4.595-2.09,9.166-3.194,13.729C500.561,144.077,500.11,144.748,499.785,145.441z M478.866,215.594
	c0.117,0.023,0.229,0.046,0.341,0.07c0.074-0.737,0.213-1.474,0.198-2.21c-0.159-7.873-0.458-15.748-0.477-23.627
	c-0.015-5.281,0.435-10.558,0.512-15.839c0.042-3.009-0.361-6.022-0.345-9.027c0.023-3.579,0.372-7.154,0.411-10.729
	c0.066-5.541,0.023-11.082-0.047-16.619c-0.035-3.331-0.256-6.658-0.306-9.988c-0.016-1.33-0.5-2.086-1.814-2.369
	c-0.721-0.151-1.412-0.465-2.113-0.713c-5.708-2.016-11.043-0.539-16.421,1.477C465.532,156.05,472.201,185.821,478.866,215.594z
	 M473.907,206.476c0.291-0.109,0.582-0.213,0.873-0.318c-0.884-3.284-1.916-6.537-2.621-9.856c-1.439-6.778-2.622-13.606-4.06-20.38
	c-1.477-6.96-3.141-13.885-4.711-20.822c-0.961-4.25-1.842-8.519-2.877-12.749c-1.233-5.037-2.559-10.054-3.932-15.056
	c-0.167-0.605-0.833-1.47-1.342-1.52c-2.474-0.248-4.986-0.442-7.46-0.283c-1.26,0.082-2.431,0.842-1.788,2.691
	c1.52,4.354,2.834,8.783,4.366,13.133c1.256,3.563,2.753,7.034,4.052,10.578c2.191,5.995,4.3,12.024,6.464,18.026
	c1.132,3.117,2.33,6.211,3.466,9.329c1.206,3.308,2.373,6.638,3.567,9.95c0.721,2.008,1.489,3.998,2.187,6.014
	C471.383,198.958,472.639,202.723,473.907,206.476z"/>
</svg>
