<?xml version="1.0" encoding="UTF-8" standalone="no"?>
<!-- Generator: Adobe Illustrator 16.0.3, SVG Export Plug-In . SVG Version: 6.00 Build 0)  -->

<svg
   xmlns:dc="http://purl.org/dc/elements/1.1/"
   xmlns:cc="http://creativecommons.org/ns#"
   xmlns:rdf="http://www.w3.org/1999/02/22-rdf-syntax-ns#"
   xmlns:svg="http://www.w3.org/2000/svg"
   xmlns="http://www.w3.org/2000/svg"
   x="0px"
   y="0px"
   width="170.80652"
   height="169.78291"
   viewBox="0 0 170.80652 169.78291"
   enable-background="new 0 0 640 480"
   xml:space="preserve">
<path
   d="m 0.01449225,84.426586 c 0,-23.297 -0.042,-46.595 0.017,-69.911 0.028,-10.472 9.17899995,-16.932 19.17399975,-13.66199995 1.084,0.35399995 2.136,0.82699995 3.155,1.33299995 21.064,10.59 42.11,21.204 63.191,31.761 15.577998,7.812 31.218998,15.519 46.803998,23.312 10.227,5.118 20.382,10.368 30.627,15.425 4.769,2.353 7.727,5.813 7.821,11.285 0.099,5.789 -2.226,10.241 -7.528,12.911 -9.441,4.744004 -18.907,9.460004 -28.354,14.214004 -11.866,5.955 -23.723,11.956 -35.602998,17.901 -11.249,5.609 -22.522,11.166 -33.784,16.757 -5.248,2.599 -10.502,5.175 -15.727,7.825 -9.303,4.717 -18.569,9.508 -27.879,14.201 -3.53,1.791 -7.159,2.604 -11.183,1.507 -6.4909998,-1.776 -9.99299975,-5.661 -10.57399975,-12.381 -0.13,-1.413 -0.09,-2.845 -0.09,-4.281 0,-22.726 0,-45.461 0,-68.195004 -0.022,-0.002 -0.044,-0.002 -0.067,-0.002 z"
   fill="#DD9E6E" />
</svg>