<?xml version="1.0" encoding="UTF-8" standalone="no"?>
<!-- Generator: Adobe Illustrator 16.0.3, SVG Export Plug-In . SVG Version: 6.00 Build 0)  -->

<svg
   xmlns:dc="http://purl.org/dc/elements/1.1/"
   xmlns:cc="http://creativecommons.org/ns#"
   xmlns:rdf="http://www.w3.org/1999/02/22-rdf-syntax-ns#"
   xmlns:svg="http://www.w3.org/2000/svg"
   xmlns="http://www.w3.org/2000/svg"
   xmlns:sodipodi="http://sodipodi.sourceforge.net/DTD/sodipodi-0.dtd"
   xmlns:inkscape="http://www.inkscape.org/namespaces/inkscape"
   version="1.1"
   id="Ebene_1"
   x="0px"
   y="0px"
   width="317.99899"
   height="262"
   viewBox="0 0 317.99899 262"
   enable-background="new 0 0 640 480"
   xml:space="preserve"
   inkscape:version="0.48.2 r9819"
   sodipodi:docname="Play_white.svg"><metadata
   id="metadata9"><rdf:RDF><cc:Work
       rdf:about=""><dc:format>image/svg+xml</dc:format><dc:type
         rdf:resource="http://purl.org/dc/dcmitype/StillImage" /></cc:Work></rdf:RDF></metadata><defs
   id="defs7" /><sodipodi:namedview
   pagecolor="#ffffff"
   bordercolor="#666666"
   borderopacity="1"
   objecttolerance="10"
   gridtolerance="10"
   guidetolerance="10"
   inkscape:pageopacity="0"
   inkscape:pageshadow="2"
   inkscape:window-width="640"
   inkscape:window-height="480"
   id="namedview5"
   showgrid="false"
   fit-margin-top="0"
   fit-margin-left="0"
   fit-margin-right="0"
   fit-margin-bottom="0"
   inkscape:zoom="0.49166667"
   inkscape:cx="158.999"
   inkscape:cy="131"
   inkscape:window-x="0"
   inkscape:window-y="0"
   inkscape:window-maximized="0"
   inkscape:current-layer="Ebene_1" />
<path
   d="M 315.888,0 H 1.718 C 0.769,0 0,0.633 0,1.416 V 260.58 c 0,0.783 0.77,1.42 1.718,1.42 h 314.17 c 0.948,0 2.111,-0.637 2.111,-1.42 V 1.416 C 317.999,0.633 316.836,0 315.888,0 z M 96.821,131.994 c 0,-17.944 -0.032,-35.888 0.016,-53.833 0.021,-8.063 7.065,-13.037 14.764,-10.522 0.832,0.272 1.644,0.635 2.427,1.028 16.221,8.147 32.427,16.325 48.657,24.455 12,6.011 24.04,11.946 36.045,17.949 7.873,3.936 15.691,7.982 23.582,11.88 3.674,1.814 5.947,4.472 6.02,8.684 0.076,4.462 -1.714,7.889 -5.793,9.94 -7.273,3.657 -14.559,7.291 -21.833,10.945 -9.142,4.593 -18.269,9.215 -27.419,13.787 -8.658,4.325 -17.342,8.601 -26.013,12.9 -4.04,2.004 -8.087,3.992 -12.11,6.031 -7.163,3.632 -14.299,7.316 -21.468,10.937 -2.715,1.372 -5.511,2.003 -8.609,1.155 -5,-1.367 -7.695,-4.361 -8.145,-9.527 -0.096,-1.094 -0.064,-2.199 -0.064,-3.301 -0.003,-17.503 -0.002,-35.006 -0.002,-52.51 -0.019,0.002 -0.037,0.002 -0.055,0.002 z"
   id="path3"
   inkscape:connector-curvature="0"
   style="opacity:0.4;fill:#ffffff" />
</svg>