<?xml version="1.0" encoding="utf-8"?>
<!-- Generator: Adobe Illustrator 16.0.3, SVG Export Plug-In . SVG Version: 6.00 Build 0)  -->
<!DOCTYPE svg PUBLIC "-//W3C//DTD SVG 1.1//EN" "http://www.w3.org/Graphics/SVG/1.1/DTD/svg11.dtd">
<svg version="1.1" id="Ebene_1" xmlns="http://www.w3.org/2000/svg" xmlns:xlink="http://www.w3.org/1999/xlink" x="0px" y="0px"
	 width="640px" height="480px" viewBox="0 0 640 480" enable-background="new 0 0 640 480" xml:space="preserve">
<path opacity="0.4" fill="#FFFFFF" d="M476.889,109h-314.17c-0.949,0-1.718,0.633-1.718,1.416V369.58c0,0.783,0.77,1.42,1.718,1.42
	h314.17c0.948,0,2.111-0.637,2.111-1.42V110.416C479,109.633,477.837,109,476.889,109z M257.822,240.994
	c0-17.944-0.032-35.888,0.016-53.833c0.021-8.063,7.065-13.037,14.764-10.522c0.832,0.272,1.644,0.635,2.427,1.028
	c16.221,8.147,32.427,16.325,48.657,24.455c12,6.011,24.04,11.946,36.045,17.949c7.873,3.936,15.691,7.982,23.582,11.88
	c3.674,1.814,5.947,4.472,6.02,8.684c0.076,4.462-1.714,7.889-5.793,9.94c-7.273,3.657-14.559,7.291-21.833,10.945
	c-9.142,4.593-18.269,9.215-27.419,13.787c-8.658,4.325-17.342,8.601-26.013,12.9c-4.04,2.004-8.087,3.992-12.11,6.031
	c-7.163,3.632-14.299,7.316-21.468,10.937c-2.715,1.372-5.511,2.003-8.609,1.155c-5-1.367-7.695-4.361-8.145-9.527
	c-0.096-1.094-0.064-2.199-0.064-3.301c-0.003-17.503-0.002-35.006-0.002-52.51C257.858,240.994,257.84,240.994,257.822,240.994z"/>
</svg>
