<?xml version="1.0" encoding="UTF-8" standalone="no"?>
<!-- Generator: Adobe Illustrator 16.0.3, SVG Export Plug-In . SVG Version: 6.00 Build 0)  -->

<svg
   xmlns:dc="http://purl.org/dc/elements/1.1/"
   xmlns:cc="http://creativecommons.org/ns#"
   xmlns:rdf="http://www.w3.org/1999/02/22-rdf-syntax-ns#"
   xmlns:svg="http://www.w3.org/2000/svg"
   xmlns="http://www.w3.org/2000/svg"
   version="1.1"
   x="0px"
   y="0px"
   width="530.84998"
   height="87.306999"
   viewBox="0 0 530.84998 87.306999"
   enable-background="new 0 0 640 480"
   xml:space="preserve">
<rect
   x="404.92798"
   y="72.236008"
   width="12.148"
   height="13.592"
   id="rect3"
   style="fill:#ffffff" />
<path
   d="m 419.918,51.333 c 0,-24.959 10.452,-35.93 23.91,-35.93 7.974,0 13.981,3.92 18.555,9.667 V 0 h 10.454 v 68.84 c 0,8.363 0.386,13.461 1.697,16.986 h -10.849 c -0.782,-2.22 -1.303,-6.664 -1.303,-9.015 -4.444,5.227 -10.324,10.06 -19.075,10.06 -13.463,0 -23.389,-10.58 -23.389,-35.538 m 42.465,17.378 V 34.086 c -4.969,-5.878 -10.324,-9.538 -16.332,-9.538 -9.276,0 -15.549,8.1 -15.549,27.045 0,18.425 6.397,26.523 15.682,26.523 6.139,0.001 11.886,-4.441 16.199,-9.405"
   id="path5"
   style="fill:#ffffff" />
<path
   d="m 479.628,51.335 c 0,-24.827 12.802,-35.933 26.654,-35.933 15.288,0 24.568,12.282 24.568,35.54 v 2.612 h -40.771 c 0.392,16.2 6.665,24.821 16.591,24.821 8.105,0 12.413,-4.571 16.34,-12.016 l 7.315,4.57 c -4.833,9.932 -13.199,16.334 -24.177,16.334 -15.021,10e-4 -26.52,-11.887 -26.52,-35.928 m 41.16,-5.753 c -0.657,-12.541 -5.229,-21.166 -14.639,-21.166 -7.707,0 -14.763,6.405 -15.94,21.166 h 30.579 z"
   id="path7"
   style="fill:#ffffff" />
<path
   d="m 44.118,14.713 c -1.686,1.59 -4.869,3.467 -7.211,3.467 -1.404,0 -2.624,-0.47 -3.933,-0.938 -3.561,-1.216 -6.465,-1.873 -10.307,-1.873 -11.521,0 -20.984,7.869 -20.984,19.765 0,15.924 15.646,20.605 28.104,24.633 5.997,1.875 13.487,4.211 13.487,11.896 0,7.214 -6.93,11.987 -13.674,11.987 C 18.263,83.65 9.179,73.255 3.656,64.356 L 0,65.577 6.087,87.211 c 5.9,-2.812 6.747,-2.996 8.338,-2.996 1.872,0 2.999,0.47 4.776,1.032 3.845,1.213 7.778,2.06 11.804,2.06 12.269,0 22.95,-8.9 22.95,-21.729 0,-13.867 -11.241,-19.204 -22.762,-22.952 l -5.529,-1.782 c -5.993,-1.868 -14.05,-3.934 -14.05,-11.612 0,-6.743 5.248,-10.207 11.713,-10.207 9.458,0 18.825,9.647 23.415,17.143 l 3.559,-1.219 -6.183,-20.236 z"
   id="path9"
   style="fill:#ffffff" />
<path
   d="m 56.726,17.054 -4.59,18.734 3.466,0.938 C 60.567,29.135 67.874,21.831 77.24,20.707 V 73.91 c 0,6.556 -2.337,8.616 -9.083,8.616 v 3.094 h 33.531 v -3.094 c -6.742,0 -9.084,-2.061 -9.084,-8.616 V 20.707 c 8.99,0.187 17.327,8.99 21.825,16.019 l 3.463,-0.938 -5.053,-18.734 H 56.726 z"
   id="path11"
   style="fill:#ffffff" />
<path
   d="m 126.834,73.909 c 0,6.558 -2.341,8.615 -9.084,8.615 v 3.097 h 33.531 v -3.097 c -6.741,0 -9.083,-2.058 -9.083,-8.615 V 28.762 c 0,-6.554 2.343,-8.617 9.083,-8.617 V 17.054 H 117.75 v 3.091 c 6.743,0 9.084,2.063 9.084,8.617 v 45.147 z"
   id="path13"
   style="fill:#ffffff" />
<path
   d="m 231.591,28.762 c 0,-7.116 2.341,-8.15 9.084,-8.615 v -3.092 h -26.696 l -15.36,42.989 -14.985,-42.989 h -27.445 v 3.092 c 6.272,0 9.083,1.589 9.083,8.615 v 36.064 c 0,15.08 -1.405,16.108 -9.648,17.701 v 3.092 h 23.698 v -3.092 c -8.338,-0.84 -9.177,-2.715 -9.177,-17.701 V 26.704 h 0.186 l 21.265,58.915 h 3.372 l 21.074,-60.79 h 0.188 v 49.082 c 0,6.556 -2.346,8.616 -9.088,8.616 v 3.092 h 33.533 v -3.092 c -6.743,0 -9.084,-2.061 -9.084,-8.616 V 28.762 z"
   id="path15"
   style="fill:#ffffff" />
<path
   d="m 321.563,28.762 c 0,-7.116 2.344,-8.15 9.09,-8.615 v -3.092 h -26.699 l -15.36,42.989 -14.987,-42.989 h -27.446 v 3.092 c 6.274,0 9.085,1.589 9.085,8.615 v 36.064 c 0,15.08 -1.405,16.108 -9.648,17.701 v 3.092 h 23.697 v -3.092 c -8.336,-0.84 -9.179,-2.715 -9.179,-17.701 V 26.704 h 0.189 l 21.263,58.915 h 3.37 l 21.076,-60.79 h 0.188 v 49.082 c 0,6.556 -2.344,8.616 -9.09,8.616 v 3.092 h 33.54 v -3.092 c -6.746,0 -9.09,-2.061 -9.09,-8.616 V 28.762 z"
   id="path17"
   style="fill:#ffffff" />
<path
   d="m 335.735,85.619 h 56.485 l 7.029,-17.42 -2.534,-1.315 c -7.305,8.523 -17.705,15.081 -29.317,15.081 -6.65,0 -7.212,-3.65 -7.212,-9.084 V 53.117 h 2.06 c 9.181,0 13.956,2.152 16.486,11.615 h 3.653 V 37.66 h -3.653 c -3.186,9.461 -7.306,11.055 -16.669,11.055 h -1.877 V 30.45 c 0,-6.934 0,-9.743 8.332,-9.743 10.684,0 20.423,6.932 26.699,15.08 l 2.905,-1.215 -5.902,-17.52 h -56.485 v 3.094 c 6.745,0 9.085,2.06 9.085,8.617 v 45.145 c 0,6.558 -2.34,8.618 -9.085,8.618 v 3.093 z"
   id="path19"
   style="fill:#ffffff" />
</svg>