<?xml version="1.0" encoding="utf-8"?>
<!-- Generator: Adobe Illustrator 16.0.3, SVG Export Plug-In . SVG Version: 6.00 Build 0)  -->
<!DOCTYPE svg PUBLIC "-//W3C//DTD SVG 1.1//EN" "http://www.w3.org/Graphics/SVG/1.1/DTD/svg11.dtd">
<svg version="1.1" id="Ebene_1" xmlns="http://www.w3.org/2000/svg" xmlns:xlink="http://www.w3.org/1999/xlink" x="0px" y="0px"
	 width="640px" height="480px" viewBox="0 0 640 480" enable-background="new 0 0 640 480" xml:space="preserve">
<rect x="459.761" y="268.243" fill="#FFFFFF" width="12.148" height="13.592"/>
<path fill="#FFFFFF" d="M474.751,247.34c0-24.959,10.452-35.93,23.91-35.93c7.974,0,13.981,3.92,18.555,9.667v-25.07h10.454v68.84
	c0,8.363,0.386,13.461,1.697,16.986h-10.849c-0.782-2.22-1.303-6.664-1.303-9.015c-4.444,5.227-10.324,10.06-19.075,10.06
	C484.677,282.878,474.751,272.298,474.751,247.34 M517.216,264.718v-34.625c-4.969-5.878-10.324-9.538-16.332-9.538
	c-9.276,0-15.549,8.1-15.549,27.045c0,18.425,6.397,26.523,15.682,26.523C507.156,274.124,512.903,269.682,517.216,264.718"/>
<path fill="#FFFFFF" d="M534.461,247.342c0-24.827,12.802-35.933,26.654-35.933c15.288,0,24.568,12.282,24.568,35.54v2.612h-40.771
	c0.392,16.2,6.665,24.821,16.591,24.821c8.105,0,12.413-4.571,16.34-12.016l7.315,4.57c-4.833,9.932-13.199,16.334-24.177,16.334
	C545.96,283.271,534.461,271.383,534.461,247.342 M575.621,241.589c-0.657-12.541-5.229-21.166-14.639-21.166
	c-7.707,0-14.763,6.405-15.94,21.166H575.621z"/>
<path fill="#FFFFFF" d="M98.951,210.72c-1.686,1.59-4.869,3.467-7.211,3.467c-1.404,0-2.624-0.47-3.933-0.938
	c-3.561-1.216-6.465-1.873-10.307-1.873c-11.521,0-20.984,7.869-20.984,19.765c0,15.924,15.646,20.605,28.104,24.633
	c5.997,1.875,13.487,4.211,13.487,11.896c0,7.214-6.93,11.987-13.674,11.987c-11.337,0-20.421-10.395-25.944-19.294l-3.656,1.221
	l6.087,21.634c5.9-2.812,6.747-2.996,8.338-2.996c1.872,0,2.999,0.47,4.776,1.032c3.845,1.213,7.778,2.06,11.804,2.06
	c12.269,0,22.95-8.9,22.95-21.729c0-13.867-11.241-19.204-22.762-22.952l-5.529-1.782c-5.993-1.868-14.05-3.934-14.05-11.612
	c0-6.743,5.248-10.207,11.713-10.207c9.458,0,18.825,9.647,23.415,17.143l3.559-1.219L98.951,210.72z"/>
<path fill="#FFFFFF" d="M111.559,213.061l-4.59,18.734l3.466,0.938c4.965-7.591,12.272-14.895,21.638-16.019v53.203
	c0,6.556-2.337,8.616-9.083,8.616v3.094h33.531v-3.094c-6.742,0-9.084-2.061-9.084-8.616v-53.203
	c8.99,0.187,17.327,8.99,21.825,16.019l3.463-0.938l-5.053-18.734H111.559z"/>
<path fill="#FFFFFF" d="M181.667,269.916c0,6.558-2.341,8.615-9.084,8.615v3.097h33.531v-3.097c-6.741,0-9.083-2.058-9.083-8.615
	v-45.147c0-6.554,2.343-8.617,9.083-8.617v-3.091h-33.531v3.091c6.743,0,9.084,2.063,9.084,8.617V269.916z"/>
<path fill="#FFFFFF" d="M286.424,224.769c0-7.116,2.341-8.15,9.084-8.615v-3.092h-26.696l-15.36,42.989l-14.985-42.989h-27.445
	v3.092c6.272,0,9.083,1.589,9.083,8.615v36.064c0,15.08-1.405,16.108-9.648,17.701v3.092h23.698v-3.092
	c-8.338-0.84-9.177-2.715-9.177-17.701v-38.122h0.186l21.265,58.915h3.372l21.074-60.79h0.188v49.082
	c0,6.556-2.346,8.616-9.088,8.616v3.092h33.533v-3.092c-6.743,0-9.084-2.061-9.084-8.616V224.769z"/>
<path fill="#FFFFFF" d="M376.396,224.769c0-7.116,2.344-8.15,9.09-8.615v-3.092h-26.699l-15.36,42.989l-14.987-42.989h-27.446v3.092
	c6.274,0,9.085,1.589,9.085,8.615v36.064c0,15.08-1.405,16.108-9.648,17.701v3.092h23.697v-3.092
	c-8.336-0.84-9.179-2.715-9.179-17.701v-38.122h0.189l21.263,58.915h3.37l21.076-60.79h0.188v49.082c0,6.556-2.344,8.616-9.09,8.616
	v3.092h33.54v-3.092c-6.746,0-9.09-2.061-9.09-8.616V224.769z"/>
<path fill="#FFFFFF" d="M390.568,281.626h56.485l7.029-17.42l-2.534-1.315c-7.305,8.523-17.705,15.081-29.317,15.081
	c-6.65,0-7.212-3.65-7.212-9.084v-19.764h2.06c9.181,0,13.956,2.152,16.486,11.615h3.653v-27.072h-3.653
	c-3.186,9.461-7.306,11.055-16.669,11.055h-1.877v-18.265c0-6.934,0-9.743,8.332-9.743c10.684,0,20.423,6.932,26.699,15.08
	l2.905-1.215l-5.902-17.52h-56.485v3.094c6.745,0,9.085,2.06,9.085,8.617v45.145c0,6.558-2.34,8.618-9.085,8.618V281.626z"/>
</svg>
