<?xml version="1.0" encoding="utf-8"?>
<!-- Generator: Adobe Illustrator 16.0.3, SVG Export Plug-In . SVG Version: 6.00 Build 0)  -->
<!DOCTYPE svg PUBLIC "-//W3C//DTD SVG 1.1//EN" "http://www.w3.org/Graphics/SVG/1.1/DTD/svg11.dtd">
<svg version="1.1" id="Ebene_1" xmlns="http://www.w3.org/2000/svg" xmlns:xlink="http://www.w3.org/1999/xlink" x="0px" y="0px"
	 width="1280px" height="800px" viewBox="0 0 1280 800" enable-background="new 0 0 1280 800" xml:space="preserve">
<path fill="none" stroke="#000000" d="M601.343,256.092l8.25,5.75v26h36.25v-23.75l4.25-6.75l15.75-7.25v12l26.75,0.5l-4.75,46.75
	h6.5l-4.75,21c0,0,20.333-15.417,43.833-1.25c13.666,7.5,15.334,13.833,15.334,13.833l2.5,42.333l-18.168,0.833l0.168,29h9.166
	l0.834,23.168c0,0-12.834,3.332-21.334-5.168c-8.5,0.334-9.834,0.334-9.834,0.334l0.334,5.477l23.334,12.189l4,24.168
	c0,0-49.083,18.5-63.458,19s-15.709,0-15.709,0l1.666-19.5c0,0-5.852-0.334-22.926-13.668c-17.074-13.332-37.073-30-37.073-30
	s-17.5,2.334-23,10.668c-5.5,8.332-4.667,24-3,33.166s4.333,36-25,63.666c-9.667,10.668-12,8-14.167,7.668
	c-2.167-0.334-3.833-7.168-1.5-17c2.333-9.834,7.667-39.002,5.333-52.334c-10.5,1-10.5,1-10.5,1l-1.833-41.834l69.5-17
	L601.343,256.092z"/>
<path opacity="0.5" fill="none" stroke="#000000" d="M584.093,426.842c0,0-3.36,35.229-8.18,45.99
	c-4.82,10.76-4.762,20.736-4.07,28.26c0.692,7.525-9.75,27-17.25,27.5s-15.5-12.5-17.25-33s-7.25-57.5-7.25-57.5L584.093,426.842z"
	/>
<polygon opacity="0.5" fill="none" stroke="#000000" points="684.844,336.342 725.843,329.592 733.093,473.342 691.094,480.842 
	609.093,422.342 "/>
<path opacity="0.5" fill="none" stroke="#000000" d="M609.093,422.342c0,0,38-31.25,42.5-34.75s10.5-7,22.5-11s30.5-8.5,30.5-8.5
	l-1.5,50.5l-46.25,3.5l-16.917,19.973L609.093,422.342z"/>
</svg>
